<svg width="32" height="32" viewBox="0 0 32 32" fill="none" xmlns="http://www.w3.org/2000/svg">
<path d="M16 30C8.25 30 2 23.75 2 16C2 8.25 8.25 2 16 2C23.75 2 30 8.25 30 16C30 23.75 23.75 30 16 30ZM16 5C9.9 5 5 9.9 5 16C5 22.1 9.9 27 16 27C22.1 27 27 22.1 27 16C27 9.95 22.05 5 16 5Z" fill="black"/>
<path d="M13.65 21.5C13.15 21.5 12.65 21.3 12.3 20.95L9.39995 17.95C8.79995 17.35 8.79995 16.4 9.39995 15.85C9.99995 15.3 10.95 15.25 11.5 15.85C11.5 15.85 11.5 15.85 11.55 15.9L13.6 18.05L20.35 11C20.9 10.4 21.85 10.4 22.45 10.95C23.05 11.5 23.05 12.45 22.5 13.05L15 20.95C14.65 21.3 14.15 21.5 13.65 21.5Z" fill="black"/>
</svg>
