<svg width="32" height="32" viewBox="0 0 32 32" fill="none" xmlns="http://www.w3.org/2000/svg">
<path d="M16 14C12.7 14 10 11.3 10 8C10 4.7 12.7 2 16 2C19.3 2 22 4.7 22 8C22 11.3 19.3 14 16 14ZM16 5C14.35 5 13 6.35 13 8C13 9.65 14.35 11 16 11C17.65 11 19 9.65 19 8C19 6.35 17.65 5 16 5Z" fill="black"/>
<path d="M25.9499 30H6.04993C5.34993 30 4.64993 29.7 4.19993 29.15C3.69993 28.6 3.49993 27.9 3.54993 27.15C4.29993 20.3 10.4999 15.3 17.3999 16.1C23.2499 16.75 27.8499 21.35 28.4999 27.2C28.5999 27.9 28.3499 28.65 27.8499 29.2C27.3499 29.7 26.6999 30 25.9499 30ZM6.54993 27H25.3999C24.5499 21.8 19.5999 18.25 14.3999 19.15C10.3999 19.8 7.24993 22.95 6.54993 27Z" fill="black"/>
</svg>
