<svg width="32" height="32" viewBox="0 0 32 32" fill="none" xmlns="http://www.w3.org/2000/svg">
<path d="M16 30C8.25 30 2 23.75 2 16C2 8.25 8.25 2 16 2C23.75 2 30 8.25 30 16C30 23.75 23.75 30 16 30ZM16 5C9.9 5 5 9.9 5 16C5 22.1 9.9 27 16 27C22.1 27 27 22.1 27 16C27 9.95 22.05 5 16 5Z" fill="black"/>
<path d="M21 14.5H17.5V11C17.5 10.15 16.85 9.5 16 9.5C15.15 9.5 14.5 10.15 14.5 11V14.5H11C10.15 14.5 9.5 15.15 9.5 16C9.5 16.85 10.15 17.5 11 17.5H14.5V21C14.5 21.85 15.15 22.5 16 22.5C16.85 22.5 17.5 21.85 17.5 21V17.5H21C21.85 17.5 22.5 16.85 22.5 16C22.5 15.15 21.85 14.5 21 14.5Z" fill="black"/>
</svg>
