<svg width="32" height="32" viewBox="0 0 32 32" fill="none" xmlns="http://www.w3.org/2000/svg">
<path d="M2.43945 6.43945L6.43945 2.43945C7.84059 1.0383 9.96453 3.15714 8.56054 4.56054L4.56054 8.56054C3.16503 9.95606 1.02224 7.85607 2.43945 6.43945Z" fill="black"/>
<path d="M27.4394 8.56052L23.4394 4.56052C22.0378 3.15957 24.1571 1.03611 25.5604 2.43943L29.5604 6.43943C30.9863 7.86465 28.8139 9.93502 27.4394 8.56052Z" fill="black"/>
<path d="M18.252 20.8731L15.3789 18C15.0995 17.7221 14.8779 17.3915 14.727 17.0274C14.5762 16.6632 14.499 16.2728 14.5 15.8787V10C14.5 8.01801 17.5 8.01551 17.5 10V15.8787L20.3731 18.752C21.7989 20.1772 19.6265 22.2476 18.252 20.8731Z" fill="black"/>
<path d="M25.2174 24.9333C26.8559 23.1446 27.9385 20.9179 28.3333 18.5246C28.7281 16.1313 28.4181 13.6748 27.441 11.4547C26.4639 9.23454 24.8619 7.34665 22.8304 6.02119C20.7989 4.69574 18.4257 3.98999 16 3.98999C13.5744 3.98999 11.2011 4.69574 9.16961 6.02119C7.13812 7.34665 5.53616 9.23454 4.55904 11.4547C3.58193 13.6748 3.27188 16.1313 3.66671 18.5246C4.06153 20.9179 5.14416 23.1446 6.7826 24.9333L5.0791 27.7875C4.05136 29.5107 6.65093 31.0081 7.65528 29.3251L9.09494 26.9129C11.1407 28.2739 13.5429 28.9999 16 28.9999C18.4571 28.9999 20.8593 28.2739 22.9051 26.9129L24.3447 29.3251C25.3543 31.0169 27.9498 29.5127 26.9209 27.7875L25.2174 24.9333ZM6.50001 16.4999C6.50001 14.621 7.05717 12.7843 8.10105 11.222C9.14492 9.65976 10.6286 8.44213 12.3645 7.72309C14.1004 7.00406 16.0105 6.81593 17.8534 7.18249C19.6962 7.54905 21.3889 8.45384 22.7175 9.78243C24.0461 11.111 24.9509 12.8038 25.3175 14.6466C25.684 16.4894 25.4959 18.3995 24.7769 20.1354C24.0578 21.8713 22.8402 23.355 21.2779 24.3989C19.7157 25.4428 17.8789 25.9999 16 25.9999C13.4813 25.9971 11.0666 24.9953 9.28565 23.2143C7.50468 21.4333 6.50287 19.0186 6.50001 16.4999Z" fill="black"/>
</svg>
