<svg width="32" height="32" viewBox="0 0 32 32" fill="none" xmlns="http://www.w3.org/2000/svg">
<path d="M15.9999 21.3334C15.8244 21.3344 15.6505 21.3008 15.488 21.2344C15.3256 21.1681 15.1778 21.0703 15.0533 20.9467L7.05326 12.9467C6.80218 12.6956 6.66113 12.3551 6.66113 12C6.66113 11.645 6.80218 11.3044 7.05326 11.0534C7.30433 10.8023 7.64485 10.6613 7.99992 10.6613C8.35499 10.6613 8.69552 10.8023 8.94659 11.0534L15.9999 18.12L23.0533 11.0667C23.3083 10.8483 23.6364 10.7341 23.972 10.7471C24.3076 10.7601 24.6259 10.8992 24.8633 11.1366C25.1008 11.3741 25.2399 11.6924 25.2529 12.028C25.2658 12.3635 25.1517 12.6916 24.9333 12.9467L16.9333 20.9467C16.6849 21.193 16.3497 21.3319 15.9999 21.3334Z" fill="black"/>
</svg>
