<svg width="32" height="32" viewBox="0 0 32 32" fill="none" xmlns="http://www.w3.org/2000/svg">
<path d="M17.6499 23.5C17.2499 23.5 16.8499 23.35 16.5499 23.05L11.2999 17.4C10.5999 16.65 10.5999 15.45 11.2999 14.7L16.6999 8.95C17.2499 8.35 18.1999 8.3 18.7999 8.85C19.3999 9.4 19.4499 10.35 18.8999 10.95L18.8499 11L14.1499 16.05L18.7499 20.95C19.2999 21.55 19.2999 22.5 18.6999 23.05C18.3999 23.35 18.0499 23.5 17.6499 23.5Z" fill="black"/>
<path d="M16 30C8.25 30 2 23.75 2 16C2 8.25 8.25 2 16 2C23.75 2 30 8.25 30 16C30 23.75 23.75 30 16 30ZM16 5C9.9 5 5 9.9 5 16C5 22.1 9.9 27 16 27C22.1 27 27 22.1 27 16C27 9.95 22.05 5 16 5Z" fill="black"/>
</svg>
