<svg width="88" height="88" viewBox="0 0 88 88" fill="none" xmlns="http://www.w3.org/2000/svg">
<g clip-path="url(#clip0_552_27)">
<path d="M85.0812 45.3867C86.6907 45.3867 88 44.0772 88 42.4677V37.8959C88 36.2864 86.6907 34.9769 85.0812 34.9769H76.1075V22.9341C76.1075 21.7558 75.5432 20.6322 74.5979 19.9289L73.0579 18.7828V15.8479C73.0579 15.136 72.4809 14.5588 71.7688 14.5588C71.0567 14.5588 70.4797 15.136 70.4797 15.8479V18.7828C70.322 18.9044 68.8243 20.0026 68.7189 20.1085C68.6252 20.0093 67.105 18.8973 66.9582 18.783V15.8479C66.9582 15.136 66.3812 14.5588 65.6691 14.5588C64.9571 14.5588 64.3801 15.136 64.3801 15.8479V18.7828L62.8401 19.9289C61.8948 20.6324 61.3303 21.7559 61.3303 22.9341V23.9233L59.1401 22.8809V20.1125C59.1401 19.4006 58.5631 18.8234 57.8511 18.8234C57.139 18.8234 56.562 19.4006 56.562 20.1125V22.8809L54.0152 24.0929C52.6656 24.7352 51.7935 26.1161 51.7935 27.6109V34.9769H32.8498C32.1377 34.9769 31.5607 35.5541 31.5607 36.266C31.5607 36.9779 32.1377 37.555 32.8498 37.555H85.0812C85.2691 37.555 85.4219 37.708 85.4219 37.8959V42.4677C85.4219 42.6556 85.2689 42.8086 85.0812 42.8086H2.91878C2.73092 42.8086 2.57812 42.6556 2.57812 42.4677V37.8959C2.57812 37.708 2.73109 37.555 2.91878 37.555H26.8281C27.5402 37.555 28.1172 36.9779 28.1172 36.266C28.1172 35.5541 27.5402 34.9769 26.8281 34.9769H25.0676V30.9891L26.6076 29.843C27.5529 29.1397 28.1172 28.0161 28.1172 26.8376V23.6607C28.1172 22.3255 27.0311 21.2394 25.696 21.2394H21.861C20.5258 21.2394 19.4397 22.3255 19.4397 23.6607V26.8376C19.4397 28.016 20.0042 29.1395 20.9495 29.8428L22.4895 30.9889V34.9767H14.1312V30.9891L15.6712 29.843C16.6165 29.1395 17.181 28.016 17.181 26.8376V23.6607C17.181 22.3255 16.0949 21.2394 14.7598 21.2394H10.9247C9.58959 21.2394 8.50352 22.3255 8.50352 23.6607V26.8376C8.50352 28.016 9.06778 29.1397 10.0131 29.8428L11.5531 30.9889V34.9767H2.91878C1.30934 34.9769 0 36.2864 0 37.8959V42.4677C0 44.0772 1.30934 45.3867 2.91878 45.3867H3.91445V84.82H1.28906C0.576984 84.82 0 85.3971 0 86.109C0 86.8209 0.576984 87.3981 1.28906 87.3981H86.7109C87.423 87.3981 88 86.8209 88 86.109C88 85.3971 87.423 84.82 86.7109 84.82H84.0855V45.3867H85.0812ZM54.3716 27.611C54.3716 27.1054 54.6667 26.6382 55.1231 26.421L57.8511 25.1226L60.5789 26.421C61.0354 26.6382 61.3303 27.1054 61.3303 27.611V34.9771H54.3716V27.611ZM63.9085 22.9341C63.9085 22.5668 64.0845 22.2166 64.3792 21.9971L65.6691 21.0372L66.9591 21.9971C67.2538 22.2166 67.4298 22.5668 67.4298 22.9341V34.9769H63.9085V22.9341ZM70.008 34.9769V22.9341C70.008 22.5667 70.1838 22.2164 70.4785 21.9971L71.7686 21.0372L73.0586 21.9971C73.3533 22.2164 73.5292 22.5667 73.5292 22.9341V34.9769H70.008ZM22.0179 26.8376V23.8176H25.5391V26.8376C25.5391 27.2051 25.3632 27.5553 25.0685 27.7747L23.7786 28.7346L22.4886 27.7747C22.1939 27.5553 22.0179 27.2051 22.0179 26.8376ZM11.0818 26.8376V23.8176H14.603V26.8376C14.603 27.2051 14.4272 27.5553 14.1322 27.7747L12.8423 28.7346L11.5524 27.7747C11.2576 27.5555 11.0818 27.2052 11.0818 26.8376ZM19.5864 58.4521C18.4137 58.4521 17.4596 57.498 17.4596 56.3253C17.4596 55.1526 18.4137 54.1985 19.5864 54.1985H32.8628C34.0355 54.1985 34.9896 55.1526 34.9896 56.3253C34.9896 57.498 34.0355 58.4521 32.8628 58.4521H19.5864ZM27.5136 61.0304V77.9022H24.9355V61.0304H27.5136ZM24.0857 80.4803H28.3633L33.9914 84.82H18.4578L24.0857 80.4803ZM55.1372 58.4521C53.9646 58.4521 53.0105 57.498 53.0105 56.3253C53.0105 55.1526 53.9646 54.1985 55.1372 54.1985H68.4138C69.5863 54.1985 70.5404 55.1526 70.5404 56.3253C70.5404 57.498 69.5863 58.4521 68.4138 58.4521H55.1372ZM59.6367 80.4803H63.9143L69.5423 84.82H54.0088L59.6367 80.4803ZM81.5074 84.82H73.7646L65.141 78.1705C64.9158 77.9988 64.637 77.9037 64.3538 77.9022H60.4866V61.0304H63.0647V73.149C63.0647 73.8609 63.6417 74.438 64.3538 74.438C65.0659 74.438 65.6428 73.8609 65.6428 73.149V61.0304H68.414C71.0083 61.0304 73.1187 58.9198 73.1187 56.3255C73.1187 53.7312 71.0083 51.6206 68.414 51.6206H55.1373C52.543 51.6206 50.4326 53.7312 50.4326 56.3255C50.4326 58.9198 52.543 61.0304 55.1373 61.0304H57.9085V78.5575L49.7867 84.8201H38.2138L30.092 78.5575V61.0302H32.8632C35.4575 61.0302 37.5681 58.9196 37.5681 56.3253C37.5681 53.731 35.4575 51.6204 32.8632 51.6204H19.5867C16.9924 51.6204 14.8818 53.731 14.8818 56.3253C14.8818 58.9196 16.9924 61.0302 19.5867 61.0302H22.3577V78.5574L14.2359 84.82H6.49258V45.3867H81.5072V84.82H81.5074Z" fill="black"/>
<path d="M20.9603 3.18H26.3185C25.0238 4.61 25.0616 6.82496 26.4404 8.20374C27.7982 9.61879 30.2416 9.61896 31.5992 8.20374L32.9742 6.82891C33.6631 6.13986 34.0426 5.22394 34.0426 4.24941C34.0426 3.88143 33.9881 3.52204 33.8836 3.17983H40.5128C40.4088 3.51825 40.3521 3.8773 40.3521 4.24958V6.19383C40.3521 8.20529 41.9885 9.84171 44 9.84171C46.0115 9.84171 47.6479 8.20529 47.6479 6.19383V4.24975C47.6479 3.87764 47.5912 3.5186 47.4872 3.18H54.1198C53.7388 4.42902 54.0399 5.84321 55.026 6.82908L56.4006 8.20391C57.7586 9.61913 60.2016 9.61896 61.5596 8.20391C62.9384 6.82496 62.9762 4.61018 61.6815 3.18018H67.0398C67.7519 3.18018 68.3289 2.60302 68.3289 1.89111C68.3289 1.17921 67.7519 0.602051 67.0398 0.602051H20.9603C20.2482 0.602051 19.6713 1.17921 19.6713 1.89111C19.6713 2.60302 20.2484 3.18 20.9603 3.18ZM31.1513 5.00618L29.7763 6.381C29.3593 6.79814 28.6806 6.79814 28.2636 6.381C27.8465 5.96386 27.8465 5.2853 28.2635 4.86816L29.6385 3.49333C30.0554 3.07619 30.734 3.07636 31.151 3.49333C31.5681 3.91047 31.5683 4.58904 31.1513 5.00618ZM59.7364 6.38083C59.3194 6.79797 58.6408 6.79797 58.2235 6.38083L56.8489 5.006C56.4338 4.60794 56.4338 3.89139 56.8489 3.49333H56.849C57.2662 3.07619 57.9446 3.07636 58.3617 3.49333L59.7364 4.86816C60.1533 5.28513 60.1533 5.96386 59.7364 6.38083ZM45.0698 4.24975V6.194C45.0698 6.78388 44.5899 7.26375 44 7.26375C43.4101 7.26375 42.9303 6.78388 42.9303 6.194V4.24975C42.9303 3.65988 43.4101 3.18 44 3.18C44.5899 3.18 45.0698 3.65988 45.0698 4.24975Z" fill="black"/>
</g>
<defs>
<clipPath id="clip0_552_27">
<rect width="88" height="88" fill="white"/>
</clipPath>
</defs>
</svg>
