<svg width="32" height="32" viewBox="0 0 32 32" fill="none" xmlns="http://www.w3.org/2000/svg">
<path d="M27.1831 11.4999H26.7676L18.8838 3.61616C17.716 2.4484 15.9468 4.21431 17.1162 5.38374L23.2324 11.4999H8.76756L14.8838 5.38374C16.0515 4.21598 14.2856 2.44674 13.1162 3.61616L5.2324 11.4999H4.81687C4.39822 11.5036 3.98554 11.5996 3.60829 11.7812C3.23104 11.9627 2.89852 12.2253 2.63448 12.5502C2.37044 12.8752 2.18139 13.2544 2.08083 13.6608C1.98026 14.0672 1.97066 14.4908 2.05271 14.9013L4.56834 26.6401C4.67815 27.2974 5.01676 27.8947 5.52436 28.3266C6.03195 28.7584 6.67585 28.9969 7.34226 28.9999H24.6577C25.3165 28.9995 25.9543 28.7677 26.4596 28.345C26.9649 27.9222 27.3057 27.3354 27.4223 26.6869L29.9565 14.8539C30.0306 14.4461 30.0147 14.027 29.9099 13.6259C29.8051 13.2248 29.6139 12.8515 29.3497 12.532C29.0856 12.2125 28.7548 11.9547 28.3805 11.7764C28.0063 11.5981 27.5976 11.5038 27.1831 11.4999ZM4.81687 13.9999H27.1831C27.229 14.0035 27.2738 14.0161 27.3148 14.037C27.3558 14.058 27.3922 14.0869 27.422 14.1221C27.4517 14.1572 27.4742 14.1979 27.4881 14.2419C27.502 14.2858 27.507 14.332 27.5029 14.3779L27.2626 15.4999H4.73664L4.50633 14.4252C4.49526 14.3766 4.49476 14.3261 4.50485 14.2772C4.51493 14.2284 4.53538 14.1822 4.56481 14.1419C4.59424 14.1016 4.63197 14.0681 4.67545 14.0436C4.71893 14.0191 4.76715 14.0042 4.81687 13.9999ZM24.6577 26.4999H7.34226C7.19138 26.4999 7.06052 26.3784 7.02195 26.1635L5.27241 17.9999H26.7272L24.9687 26.2104C24.9592 26.2875 24.9228 26.3588 24.8659 26.4118C24.809 26.4647 24.7353 26.4959 24.6577 26.4999Z" fill="black"/>
<path d="M14.75 23.7499V20.7499C14.75 19.0984 17.25 19.0959 17.25 20.7499V23.7499C17.25 25.4014 14.75 25.404 14.75 23.7499Z" fill="black"/>
<path d="M19.814 23.3545L20.814 20.3545C21.3374 18.7888 23.7088 19.576 23.186 21.1455L22.186 24.1455C22.0799 24.4585 21.8542 24.7168 21.5582 24.8638C21.2622 25.0108 20.92 25.0347 20.6065 24.9301C20.2929 24.8256 20.0335 24.6011 19.885 24.3059C19.7365 24.0106 19.711 23.6685 19.814 23.3545Z" fill="black"/>
<path d="M9.81405 24.1454L8.81405 21.1454C8.29011 19.5724 10.6634 18.7911 11.1861 20.3544L12.1861 23.3544C12.2888 23.6684 12.2631 24.0103 12.1146 24.3053C11.966 24.6004 11.7067 24.8247 11.3933 24.9292C11.0799 25.0337 10.7379 25.0099 10.442 24.8631C10.1461 24.7162 9.92033 24.4582 9.81405 24.1454Z" fill="black"/>
</svg>
