<svg width="27" height="27" viewBox="0 0 27 27" fill="none" xmlns="http://www.w3.org/2000/svg">
<g clip-path="url(#clip0_357_2929)">
<path d="M21.9173 6.91752C21.7676 6.75664 21.5579 6.66518 21.3379 6.66518H19.3237L20.4035 0.937725C20.4844 0.508434 20.202 0.0947978 19.7727 0.0138423C19.3432 -0.0671134 18.9298 0.215304 18.8488 0.644596L17.7136 6.66518H13.4841C13.1397 4.62502 11.3614 3.06585 9.22501 3.06585C6.84249 3.06585 4.90429 5.00404 4.90429 7.38657C4.90429 9.62984 6.6229 11.4788 8.81282 11.6871L9.87945 26.2667C9.90953 26.6802 10.2537 27.0001 10.6682 27.0001H19.9668C20.3812 27.0001 20.7254 26.6802 20.7557 26.2667L22.1268 7.51387C22.1429 7.2947 22.0669 7.07861 21.9173 6.91752ZM20.4869 8.24721L20.16 12.7181H18.1822L19.0252 8.24721H20.4869ZM16.5724 12.7181H10.4744L10.3372 10.8434C10.3372 10.8431 10.3372 10.8431 10.3372 10.8431L10.1472 8.24721H17.4153L16.5724 12.7181ZM6.48632 7.38657C6.48632 5.87643 7.71487 4.64788 9.2248 4.64788C10.4857 4.64788 11.5501 5.5042 11.8673 6.66518H9.29628C9.07649 6.66518 8.86658 6.75664 8.71682 6.91773C8.69808 6.93791 8.68057 6.95872 8.6643 6.98056C8.56604 7.11095 8.51062 7.26874 8.50568 7.43189C8.50465 7.45929 8.50527 7.48648 8.50733 7.51387L8.69458 10.0738C7.4374 9.82595 6.48632 8.71523 6.48632 7.38657ZM19.2314 25.418H11.4034L10.5901 14.3001H20.0444L19.2314 25.418Z" fill="#534918"/>
</g>
<defs>
<clipPath id="clip0_357_2929">
<rect width="27" height="27" fill="white"/>
</clipPath>
</defs>
</svg>
