<svg width="28" height="28" viewBox="0 0 28 28" fill="none" xmlns="http://www.w3.org/2000/svg">
<path fill-rule="evenodd" clip-rule="evenodd" d="M25.375 14C25.858 14 26.25 14.392 26.25 14.875V23.625C26.25 25.0749 25.0749 26.25 23.625 26.25H4.375C2.92513 26.25 1.75 25.0749 1.75 23.625V14.875C1.75 14.392 2.142 14 2.625 14V9.625C2.625 8.46475 3.08613 7.35175 3.906 6.531C4.05388 6.384 4.2105 6.24837 4.375 6.125V2.625C4.375 1.65812 5.15812 0.875 6.125 0.875H7.875C8.84188 0.875 9.625 1.65812 9.625 2.625V5.25V6.125C9.7895 6.24837 9.94612 6.384 10.094 6.531C10.241 6.67888 10.3766 6.8355 10.5 7C10.6234 6.8355 10.759 6.67888 10.906 6.531C11.0539 6.384 11.2105 6.24837 11.375 6.125V2.625C11.375 1.65812 12.1581 0.875 13.125 0.875H14.875C15.8419 0.875 16.625 1.65812 16.625 2.625V5.25V6.125C16.7895 6.24837 16.9461 6.384 17.094 6.531C17.241 6.67888 17.3766 6.8355 17.5 7C17.6234 6.8355 17.759 6.67888 17.906 6.531C18.0539 6.384 18.2105 6.24837 18.375 6.125V2.625C18.375 1.65812 19.1581 0.875 20.125 0.875H21.875C22.8419 0.875 23.625 1.65812 23.625 2.625V5.25V6.125C23.7895 6.24837 23.9461 6.384 24.094 6.531C24.9139 7.35175 25.375 8.46475 25.375 9.625V14ZM3.5 15.75V19.25H24.5V15.75H3.5ZM23.625 14V9.625C23.625 8.9285 23.3485 8.26088 22.8559 7.76913C22.6923 7.6055 22.5094 7.4655 22.3125 7.35175C22.0421 7.19513 21.875 6.90637 21.875 6.594V6.125H20.125V6.594C20.125 6.90637 19.9579 7.19513 19.6875 7.35175C19.4906 7.4655 19.3077 7.6055 19.1441 7.76913C18.6515 8.26088 18.375 8.9285 18.375 9.625V14H23.625ZM16.625 14V9.625C16.625 8.9285 16.3485 8.26088 15.8559 7.76913C15.6923 7.6055 15.5094 7.4655 15.3125 7.35175C15.0421 7.19513 14.875 6.90637 14.875 6.594V6.125H13.125V6.594C13.125 6.90637 12.9579 7.19513 12.6875 7.35175C12.4906 7.4655 12.3078 7.6055 12.1441 7.76913C11.6515 8.26088 11.375 8.9285 11.375 9.625V14H16.625ZM9.625 14V9.625C9.625 8.9285 9.3485 8.26088 8.85587 7.76913C8.69225 7.6055 8.50938 7.4655 8.3125 7.35175C8.04213 7.19513 7.875 6.90637 7.875 6.594V6.125H6.125V6.594C6.125 6.90637 5.95787 7.19513 5.6875 7.35175C5.49062 7.4655 5.30775 7.6055 5.14413 7.76913C4.6515 8.26088 4.375 8.9285 4.375 9.625V14H9.625ZM21.875 16.625C22.358 16.625 22.75 17.017 22.75 17.5C22.75 17.983 22.358 18.375 21.875 18.375C21.392 18.375 21 17.983 21 17.5C21 17.017 21.392 16.625 21.875 16.625ZM6.125 16.625C6.608 16.625 7 17.017 7 17.5C7 17.983 6.608 18.375 6.125 18.375C5.642 18.375 5.25 17.983 5.25 17.5C5.25 17.017 5.642 16.625 6.125 16.625ZM21.875 4.375V2.625H20.125V4.375H21.875ZM7.875 4.375V2.625H6.125V4.375H7.875ZM14.875 4.375V2.625H13.125V4.375H14.875ZM3.5 21V23.625C3.5 24.108 3.892 24.5 4.375 24.5H23.625C24.108 24.5 24.5 24.108 24.5 23.625V21H3.5ZM6.125 21.875C6.608 21.875 7 22.267 7 22.75C7 23.233 6.608 23.625 6.125 23.625C5.642 23.625 5.25 23.233 5.25 22.75C5.25 22.267 5.642 21.875 6.125 21.875ZM21.875 21.875C22.358 21.875 22.75 22.267 22.75 22.75C22.75 23.233 22.358 23.625 21.875 23.625C21.392 23.625 21 23.233 21 22.75C21 22.267 21.392 21.875 21.875 21.875Z" fill="#534918"/>
</svg>
