<svg width="34" height="34" viewBox="0 0 34 34" fill="none" xmlns="http://www.w3.org/2000/svg">
<path d="M22.7732 2.125C22.1859 2.125 21.7107 2.60022 21.7107 3.1875V3.86298H12.2862V3.1875C12.2862 2.60022 11.811 2.125 11.2237 2.125C10.6364 2.125 10.1612 2.60022 10.1612 3.1875V3.86298H9.00739C7.41506 3.86298 6.00801 4.67308 5.17683 5.9027C4.67833 6.63972 4.38696 7.52764 4.38696 8.48236V22.7379C4.38696 25.28 6.46008 27.348 9.00739 27.348H21.636C22.2233 27.348 22.6985 26.8727 22.6985 26.2855C22.6985 25.6982 22.2233 25.223 21.636 25.223H9.00739C7.63153 25.223 6.51196 24.1086 6.51196 22.7379V11.3306H27.5117C27.5725 11.8597 28.0049 12.2758 28.5505 12.2758C29.1378 12.2758 29.613 11.8006 29.613 11.2133V8.4834C29.613 5.9361 27.5399 3.86298 24.9926 3.86298H23.8357V3.1875C23.8357 2.60022 23.3605 2.125 22.7732 2.125ZM27.486 9.20557H6.51196V8.4834C6.51196 7.96778 6.66929 7.48821 6.93829 7.09003C7.38646 6.42746 8.14482 5.99109 9.00323 5.99109H10.1612V6.66968C10.1612 7.25696 10.6364 7.73218 11.2237 7.73218C11.811 7.73218 12.2862 7.25696 12.2862 6.66968V5.99109H21.7107V6.66968C21.7107 7.25696 22.1859 7.73218 22.7732 7.73218C23.3605 7.73218 23.8357 7.25696 23.8357 6.66968V5.99109H24.9947C26.3685 5.99109 27.486 7.10858 27.486 8.48236V9.20557Z" fill="#939693"/>
<path d="M22.9444 29.7499C22.3571 29.7499 21.8819 30.2252 21.8819 30.8124C21.8819 31.3997 22.3571 31.8749 22.9444 31.8749H26.6912C27.2784 31.8749 27.7537 31.3997 27.7537 30.8124C27.7537 30.2252 27.2784 29.7499 26.6912 29.7499H25.8808V25.2198L28.3275 22.7731C29.1181 21.9825 29.5114 20.8899 29.4076 19.7755L28.8805 14.2119C28.8297 13.6661 28.371 13.249 27.8232 13.249H21.8124C21.2645 13.249 20.8059 13.6661 20.7551 14.2119L20.228 19.7755C20.1242 20.8899 20.5175 21.9825 21.3081 22.7731L23.7558 25.2199V29.7499H22.9444ZM26.8561 15.374L27.024 17.1462H22.6115L22.7794 15.374H26.8561ZM22.4103 19.2712H27.2253L27.2919 19.9747C27.3366 20.4572 27.1664 20.9293 26.825 21.2707L24.8183 23.2774L22.8106 21.2707C22.4692 20.9293 22.299 20.4562 22.3436 19.9747L22.4103 19.2712Z" fill="#939693"/>
</svg>
