<svg width="123" height="123" viewBox="0 0 123 123" fill="none" xmlns="http://www.w3.org/2000/svg">
<path d="M10.966 41.2045C10.1644 42.5483 9.70318 44.0675 9.62238 45.6301C9.54159 47.1927 9.84368 48.7514 10.5024 50.1706C11.1611 51.5899 12.1565 52.8268 13.402 53.7738C14.6476 54.7209 16.1056 55.3493 17.6493 55.6046C16.2601 59.2447 15.987 63.2161 16.8647 67.0121L17.0535 67.8323C17.1155 68.1015 17.2347 68.3541 17.4031 68.573C17.5715 68.7919 17.7852 68.9719 18.0294 69.1008C18.2737 69.2297 18.5429 69.3045 18.8186 69.32C19.0944 69.3355 19.3702 69.2913 19.6274 69.1906L22.3735 68.1143C24.8112 67.1552 27.0334 65.7201 28.9105 63.8929C30.7876 62.0657 32.2819 59.8829 33.3063 57.472L33.6299 59.2519C35.4039 69.0912 39.8819 78.2424 46.5625 85.6808C45.8292 86.2169 45.2332 86.919 44.8232 87.7296C44.4131 88.5402 44.2007 89.4363 44.2033 90.3447C44.2059 91.2531 44.4234 92.148 44.838 92.9562C45.2526 93.7645 45.8526 94.4631 46.5889 94.9951C43.791 98.4509 42.2697 102.766 42.2815 107.212C42.2735 108.859 42.8314 110.458 43.8619 111.743C44.8923 113.028 46.3328 113.919 47.9421 114.269C48.2013 114.326 48.4627 114.38 48.7236 114.435C48.9635 115.759 49.6609 116.958 50.6941 117.821C51.7274 118.684 53.0308 119.157 54.377 119.157H69.2084C70.5765 119.155 71.8992 118.666 72.9392 117.777C73.9792 116.888 74.6684 115.658 74.8832 114.306C74.9416 114.294 75.0002 114.282 75.0583 114.269C76.6677 113.919 78.1081 113.028 79.1385 111.743C80.169 110.458 80.7269 108.859 80.719 107.212C80.7307 102.766 79.2095 98.4509 76.4116 94.9951C77.1422 94.4672 77.7387 93.7751 78.153 92.9745C78.5673 92.1739 78.7879 91.2872 78.7969 90.3859C78.8059 89.4845 78.6031 88.5936 78.205 87.7849C77.8068 86.9761 77.2242 86.2722 76.5043 85.7298L77.2072 85.0268C83.1412 79.0789 87.6168 71.8373 90.2832 63.8699L91.9007 59.0171L92.7896 60.713C94.1089 63.2248 96.0136 65.3821 98.3427 67.0024C100.672 68.6227 103.357 69.6585 106.171 70.022L115.067 71.1677C115.362 71.2058 115.663 71.1746 115.944 71.0767C116.225 70.9787 116.48 70.8167 116.688 70.6034C116.896 70.3901 117.052 70.1313 117.143 69.8476C117.233 69.5638 117.257 69.2628 117.212 68.9684L116.383 63.6013C115.778 59.6367 113.835 55.9985 110.876 53.2912C111.328 52.0641 111.525 50.7576 111.454 49.4517C111.384 48.1459 111.047 46.8682 110.465 45.6971C112.838 44.9671 114.836 43.3473 116.041 41.177C117.246 39.0067 117.564 36.4543 116.929 34.0546C116.294 31.6548 114.755 29.5939 112.634 28.3036C110.514 27.0132 107.976 26.5936 105.553 27.1325C105.259 25.5108 104.554 23.9916 103.505 22.7199C102.456 21.4483 101.099 20.4668 99.5632 19.869C100.262 16.2214 100.404 12.4892 99.9846 8.79903C99.9415 8.22232 99.7044 7.67719 99.3119 7.25241C98.8409 6.78896 98.21 6.52387 97.5493 6.51176C92.4439 6.22496 87.3351 7.01269 82.5532 8.82402C80.0607 9.77294 78.1499 10.9141 76.7568 12.2834C74.9254 11.5131 72.9003 11.3294 70.9602 11.7575C70.5634 9.53737 69.3983 7.52752 67.6689 6.07983C65.9395 4.63215 63.7561 3.83887 61.5007 3.83887C59.2454 3.83887 57.0619 4.63215 55.3325 6.07983C53.6031 7.52752 52.4381 9.53737 52.0412 11.7575C50.5182 11.421 48.9361 11.4611 47.4321 11.8743C46.3561 9.50412 44.3362 7.44579 41.6972 6.08607C38.7183 4.55001 35.4569 4.09212 32.9489 3.86462C32.3421 3.78284 31.7252 3.90046 31.1911 4.19975C30.6781 4.52178 30.2831 5.00114 30.0651 5.5662C28.7141 8.69154 28.1422 12.0982 28.3988 15.4934C25.9162 15.1005 23.3786 15.6969 21.3309 17.1544C19.2832 18.6119 17.8887 20.8144 17.447 23.2888C15.169 22.7848 12.7854 23.127 10.7413 24.2517C8.69718 25.3763 7.13219 27.2064 6.33853 29.4004C5.54487 31.5943 5.57677 34.0021 6.4283 36.1743C7.27982 38.3464 8.89275 40.1344 10.966 41.2045ZM20.9708 64.5356L20.3563 64.7758C19.9022 61.5357 20.4672 58.2345 21.973 55.3298C23.4674 54.8818 24.8307 54.0776 25.9455 52.9863C27.0861 54.1023 28.4861 54.9175 30.0197 55.3586L29.9781 55.467C29.1872 57.5203 27.9781 59.3867 26.4275 60.9478C24.8769 62.509 23.0187 63.7308 20.9708 64.5356ZM73.0315 88.4067C73.5412 88.4067 74.03 88.6092 74.3905 88.9696C74.7509 89.33 74.9534 89.8189 74.9534 90.3286C74.9534 90.8383 74.7509 91.3271 74.3905 91.6875C74.03 92.048 73.5412 92.2504 73.0315 92.2504H49.969C49.4593 92.2504 48.9704 92.048 48.61 91.6875C48.2496 91.3271 48.0471 90.8383 48.0471 90.3286C48.0471 89.8189 48.2496 89.33 48.61 88.9696C48.9704 88.6092 49.4593 88.4067 49.969 88.4067H73.0315ZM46.1252 107.212C46.1196 105.157 46.5215 103.122 47.3078 101.224C48.094 99.3256 49.249 97.6022 50.7058 96.1533L50.7649 96.0942H54.262L53.0952 98.0401C51.0767 101.396 49.7532 105.122 49.2034 108.999L48.9802 110.561C48.912 110.546 48.843 110.533 48.775 110.517C48.0214 110.353 47.347 109.936 46.8647 109.334C46.3823 108.732 46.1213 107.983 46.1252 107.212ZM69.2084 115.313H54.377C54.1047 115.313 53.8355 115.254 53.5877 115.141C53.3399 115.028 53.1193 114.863 52.9408 114.657C52.7623 114.452 52.6301 114.21 52.5532 113.949C52.4762 113.687 52.4563 113.413 52.4948 113.143L53.0094 109.542C53.487 106.172 54.637 102.933 56.3912 100.017L58.7447 96.0942H64.4203L65.5148 97.4623C69.1299 101.993 71.1022 107.616 71.1096 113.412C71.109 113.916 70.9085 114.399 70.5521 114.755C70.1957 115.112 69.7125 115.312 69.2084 115.313ZM74.7842 110.342C74.2384 105.194 72.3484 100.281 69.304 96.0942H72.2349L72.294 96.1533C73.7509 97.6021 74.906 99.3255 75.6924 101.224C76.4787 103.122 76.8808 105.157 76.8752 107.212C76.8785 107.883 76.6813 108.539 76.3089 109.096C75.9365 109.654 75.4059 110.088 74.7852 110.342H74.7842ZM74.4895 82.3091L72.2356 84.5629H70.3195C71.961 81.0141 73.3882 77.3699 74.5932 73.6501L70.9357 72.4676C69.595 76.6074 67.9681 80.6489 66.0666 84.5629H58.5566L58.2234 84.163C52.7626 77.6124 49.2323 69.6715 48.0276 61.2287L44.2228 61.7722C45.4025 70.039 48.6425 77.8763 53.6446 84.5629H50.7754C43.8328 77.4201 39.1796 68.368 37.4114 58.5653L36.7325 54.832C37.8286 54.3179 38.8182 53.6021 39.6497 52.722C42.3945 56.0607 46.0099 58.5744 50.0953 59.9848L53.2097 61.0548C53.4666 61.143 53.7392 61.1758 54.0096 61.151C54.28 61.1262 54.5421 61.0444 54.7785 60.911C55.015 60.7775 55.2206 60.5955 55.3816 60.3768C55.5426 60.1582 55.6555 59.9079 55.7127 59.6425L57.3502 52.0537C57.5512 51.1185 57.6945 50.1718 57.7792 49.2189C59.0213 49.7412 60.3595 49.9962 61.7066 49.9672C63.0537 49.9382 64.3797 49.626 65.5982 49.0508C65.622 50.4219 65.8637 51.7805 66.3143 53.0757L67.4674 56.3707C67.6214 56.8105 67.93 57.1793 68.3356 57.4086C68.7412 57.6378 69.2163 57.7119 69.6725 57.6171L73.4505 56.8313C73.8947 56.7375 74.3337 56.6201 74.7655 56.4796L73.6532 62.0405C73.2042 64.2857 72.6656 66.5422 72.0528 68.7478L75.7562 69.777C76.3943 67.4811 76.9548 65.1318 77.4225 62.7943L78.7589 56.1122L76.6645 55.6933C77.7118 55.16 78.6816 54.4868 79.5474 53.6921C80.2338 55.3188 81.3544 56.7255 82.7865 57.7582C84.2185 58.791 85.907 59.4101 87.6673 59.5478L86.6367 62.6536C84.1597 70.0555 80.002 76.7831 74.4895 82.3091ZM41.2775 41.8519C42.3322 41.5251 43.3227 41.0193 44.2058 40.3565C45.3119 41.1879 46.5849 41.7703 47.9373 42.0636C49.2897 42.357 50.6895 42.3543 52.0408 42.0559C52.327 43.6473 53.0116 45.1404 54.0309 46.3957V47.1361C54.0305 48.5171 53.8837 49.8941 53.5929 51.2441L52.4119 56.7174L51.3443 56.3508C47.4863 55.0187 44.1419 52.5127 41.7799 49.1841C42.1825 47.9891 42.3453 46.7265 42.2591 45.4684C42.1729 44.2104 41.8394 42.9818 41.2775 41.8529V41.8519ZM76.4404 41.6549C77.3506 43.0994 78.6307 44.2741 80.1479 45.0571C79.5851 46.0035 79.1896 47.0399 78.9787 48.1206C78.3766 49.3738 77.4944 50.4718 76.4003 51.3297C75.3061 52.1876 74.0294 52.7824 72.6687 53.0682L70.5395 53.511L69.9421 51.8053C69.4684 50.4498 69.3231 49.0012 69.5183 47.5786C69.7605 45.8304 69.8827 45.1859 69.932 44.9625C70.4298 44.0556 70.7769 43.0739 70.9597 42.0556C72.7866 42.4591 74.6917 42.3198 76.4404 41.6547V41.6549ZM69.7936 45.2104C69.8198 45.166 69.8443 45.1205 69.8698 45.0754C69.8481 45.1165 69.8234 45.1626 69.7936 45.2109V45.2104ZM112.585 64.187L113.024 67.0285L106.662 66.2093C104.461 65.9247 102.36 65.1144 100.538 63.8468C98.7164 62.5792 97.2263 60.8916 96.1942 58.9266L95.1066 56.8541C95.1153 56.8457 95.1244 56.838 95.133 56.8301C96.0397 57.7203 97.1142 58.4216 98.2941 58.8932C99.474 59.3648 100.736 59.5974 102.006 59.5774C103.277 59.5575 104.531 59.2854 105.695 58.7769C106.86 58.2685 107.912 57.5338 108.79 56.6155C110.821 58.677 112.149 61.3269 112.585 64.1875V64.187ZM101.86 28.8286C101.859 29.0992 101.84 29.3695 101.802 29.6374C101.752 29.996 101.804 30.3615 101.952 30.6917C102.101 31.022 102.339 31.3035 102.641 31.504C102.943 31.7045 103.295 31.8157 103.657 31.8248C104.018 31.834 104.376 31.7407 104.687 31.5557C105.45 31.1035 106.307 30.8335 107.192 30.7668C108.077 30.7 108.965 30.8383 109.787 31.1709C110.61 31.5035 111.344 32.0214 111.934 32.6843C112.524 33.3471 112.952 34.1371 113.187 34.9927C113.421 35.8484 113.455 36.7465 113.285 37.6174C113.116 38.4882 112.748 39.3081 112.21 40.0134C111.671 40.7187 110.978 41.2903 110.183 41.6837C109.388 42.0772 108.512 42.2818 107.625 42.2817C107.45 42.2817 107.272 42.2731 107.08 42.255C106.675 42.217 106.268 42.3084 105.919 42.5162C105.569 42.724 105.294 43.0375 105.134 43.4114C104.974 43.7854 104.936 44.2005 105.027 44.5971C105.118 44.9937 105.332 45.3513 105.639 45.6183C106.276 46.1701 106.785 46.855 107.129 47.6247C107.473 48.3944 107.644 49.2301 107.63 50.0731C107.616 50.916 107.417 51.7456 107.048 52.5034C106.678 53.2612 106.147 53.9288 105.492 54.4592C104.836 54.9895 104.073 55.3696 103.255 55.5729C102.436 55.7761 101.584 55.7974 100.756 55.6353C99.9289 55.4732 99.1472 55.1316 98.4662 54.6347C97.7852 54.1377 97.2214 53.4975 96.8147 52.759C96.6484 52.459 96.4048 52.2089 96.1092 52.0348C95.8136 51.8607 95.4768 51.7689 95.1338 51.7689C94.7907 51.7689 94.4539 51.8607 94.1583 52.0348C93.8628 52.2089 93.6192 52.459 93.4529 52.759C93.0446 53.4989 92.4787 54.14 91.7952 54.6369C91.1117 55.1338 90.3273 55.4744 89.4976 55.6346C88.6679 55.7947 87.8131 55.7705 86.9938 55.5637C86.1744 55.3569 85.4106 54.9726 84.7562 54.4378C84.1019 53.9031 83.5732 53.231 83.2074 52.4693C82.8416 51.7075 82.6477 50.8747 82.6394 50.0297C82.6312 49.1847 82.8088 48.3482 83.1597 47.5795C83.5106 46.8107 84.0261 46.1285 84.6699 45.5811C84.9506 45.3417 85.1565 45.0266 85.2629 44.6734C85.3694 44.3202 85.372 43.9438 85.2703 43.5892C85.1687 43.2345 84.9671 42.9167 84.6897 42.6735C84.4123 42.4303 84.0707 42.2721 83.7058 42.2178C82.8861 42.0967 82.1023 41.7995 81.4083 41.3466C80.7144 40.8937 80.1268 40.2959 79.686 39.5942C80.8092 38.5181 81.6537 37.1847 82.1465 35.7093C82.6393 34.2338 82.7656 32.6606 82.5145 31.1255C83.3246 30.8182 84.1934 30.6973 85.0566 30.7718C85.9198 30.8463 86.7551 31.1142 87.5006 31.5557C87.8119 31.7407 88.1691 31.8339 88.5311 31.8247C88.8931 31.8155 89.2452 31.7042 89.5467 31.5037C89.8482 31.3031 90.0869 31.0215 90.2353 30.6912C90.3837 30.3609 90.4358 29.9953 90.3855 29.6367C90.3478 29.369 90.3287 29.099 90.3284 28.8286C90.3284 27.2994 90.9358 25.8329 92.0171 24.7517C93.0983 23.6704 94.5648 23.063 96.094 23.063C97.6231 23.063 99.0896 23.6704 100.171 24.7517C101.252 25.8329 101.86 27.2994 101.86 28.8286ZM83.9203 12.4165C87.8623 10.9236 92.0558 10.2072 96.2698 10.3065C96.5092 13.289 96.3412 16.2902 95.7706 19.2274C93.574 19.304 91.4697 20.1301 89.8076 21.5685C88.1455 23.0068 87.0258 24.9706 86.6345 27.1335C84.8059 26.7301 82.8992 26.8693 81.1485 27.534C81.013 27.3198 80.8689 27.1111 80.7161 26.9077C82.0796 25.0937 82.7557 22.8551 82.6243 20.5896C82.4929 18.3242 81.5624 16.1787 79.9983 14.5346C80.9657 13.7476 82.2622 13.0476 83.9203 12.4165ZM52.9075 16.1807C53.2188 16.3657 53.5761 16.4589 53.9381 16.4497C54.3001 16.4405 54.6521 16.3292 54.9536 16.1287C55.2551 15.9281 55.4939 15.6465 55.6423 15.3162C55.7907 14.9859 55.8428 14.6203 55.7925 14.2617C55.7545 13.994 55.7352 13.724 55.7346 13.4536C55.7346 11.9244 56.3421 10.4579 57.4233 9.37666C58.5046 8.2954 59.9711 7.68795 61.5002 7.68795C63.0294 7.68795 64.4959 8.2954 65.5771 9.37666C66.6584 10.4579 67.2659 11.9244 67.2659 13.4536C67.2653 13.7242 67.2459 13.9945 67.208 14.2624C67.1578 14.621 67.21 14.9865 67.3585 15.3167C67.507 15.647 67.7457 15.9285 68.0473 16.129C68.3488 16.3295 68.7008 16.4407 69.0628 16.4498C69.4247 16.459 69.7819 16.3657 70.0932 16.1807C71.3282 15.4488 72.7918 15.204 74.1978 15.4943C75.6037 15.7846 76.8507 16.589 77.6948 17.7502C78.539 18.9115 78.9194 20.3459 78.7617 21.7728C78.604 23.1997 77.9196 24.5164 76.8423 25.4653C76.6378 25.6456 76.474 25.8674 76.3619 26.116C76.2497 26.3645 76.1917 26.634 76.1917 26.9067C76.1917 27.1794 76.2497 27.4489 76.3619 27.6974C76.474 27.946 76.6378 28.1678 76.8423 28.3481C77.9161 29.2981 78.5974 30.6141 78.7533 32.0393C78.9092 33.4645 78.5285 34.8967 77.6855 36.0564C76.8425 37.2161 75.5977 38.0201 74.1939 38.3115C72.7902 38.603 71.3282 38.361 70.0932 37.6327C69.7819 37.4477 69.4247 37.3544 69.0628 37.3636C68.7008 37.3727 68.3488 37.4839 68.0473 37.6844C67.7457 37.8849 67.507 38.1664 67.3585 38.4967C67.21 38.8269 67.1578 39.1924 67.208 39.551C67.2459 39.8189 67.2653 40.0892 67.2659 40.3598C67.2659 41.889 66.6584 43.3555 65.5771 44.4367C64.4959 45.518 63.0294 46.1255 61.5002 46.1255C59.9711 46.1255 58.5046 45.518 57.4233 44.4367C56.3421 43.3555 55.7346 41.889 55.7346 40.3598C55.7352 40.0894 55.7545 39.8194 55.7925 39.5517C55.8428 39.1931 55.7907 38.8275 55.6423 38.4972C55.4939 38.1669 55.2551 37.8853 54.9536 37.6847C54.6521 37.4842 54.3001 37.3729 53.9381 37.3637C53.5761 37.3545 53.2188 37.4477 52.9075 37.6327C51.6726 38.361 50.2106 38.603 48.8068 38.3115C47.403 38.0201 46.1582 37.2161 45.3152 36.0564C44.4722 34.8967 44.0915 33.4645 44.2474 32.0393C44.4033 30.6141 45.0846 29.2981 46.1584 28.3481C46.3629 28.1678 46.5267 27.946 46.6389 27.6974C46.751 27.4489 46.8091 27.1794 46.8091 26.9067C46.8091 26.634 46.751 26.3645 46.6389 26.116C46.5267 25.8674 46.3629 25.6456 46.1584 25.4653C45.0843 24.5154 44.4027 23.1993 44.2466 21.7739C44.0906 20.3486 44.4712 18.9162 45.3143 17.7564C46.1574 16.5965 47.4024 15.7924 48.8064 15.5011C50.2104 15.2097 51.6725 15.4522 52.9075 16.1807ZM33.3174 7.76314C35.3548 7.98056 37.8033 8.40361 39.9361 9.50268C41.8673 10.498 43.3094 11.9682 44.002 13.6172C42.5741 14.7447 41.4969 16.2555 40.8964 17.973C40.2959 19.6904 40.1969 21.5433 40.6111 23.315C39.2159 22.988 37.7651 22.9791 36.366 23.2888C35.9205 20.8239 34.5316 18.6297 32.4943 17.1724C31.8857 14.0206 32.1708 10.7614 33.3174 7.76314ZM15.3752 26.9067C16.4093 26.9062 17.4244 27.1844 18.3138 27.712C18.6251 27.8969 18.9823 27.9902 19.3443 27.981C19.7063 27.9718 20.0584 27.8605 20.3599 27.6599C20.6614 27.4594 20.9001 27.1777 21.0485 26.8474C21.1969 26.5171 21.249 26.1516 21.1988 25.793C21.1608 25.5253 21.1414 25.2552 21.1409 24.9848C21.1409 23.4557 21.7483 21.9892 22.8296 20.9079C23.9108 19.8266 25.3773 19.2192 26.9065 19.2192C28.4356 19.2192 29.9021 19.8266 30.9834 20.9079C32.0647 21.9892 32.6721 23.4557 32.6721 24.9848C32.6715 25.2555 32.6522 25.5257 32.6142 25.7937C32.5641 26.1523 32.6163 26.5178 32.7647 26.848C32.9132 27.1782 33.152 27.4598 33.4535 27.6603C33.755 27.8607 34.107 27.9719 34.469 27.9811C34.831 27.9902 35.1882 27.8969 35.4994 27.712C36.4348 27.1574 37.508 26.8789 38.595 26.9086C39.682 26.9384 40.7384 27.2752 41.642 27.8801C40.8015 29.337 40.3592 30.9895 40.3596 32.6714C40.36 34.3534 40.803 36.0056 41.6441 37.4621C40.6955 38.0976 39.5796 38.4372 38.4377 38.438C38.2626 38.438 38.0843 38.4293 37.8926 38.4113C37.4876 38.3732 37.0809 38.4647 36.7311 38.6725C36.3814 38.8803 36.1066 39.1937 35.9463 39.5677C35.7861 39.9416 35.7486 40.3568 35.8393 40.7533C35.9301 41.1499 36.1443 41.5075 36.4512 41.7746C37.0886 42.3264 37.5972 43.0113 37.9412 43.7809C38.2852 44.5506 38.4562 45.3864 38.4421 46.2293C38.4281 47.0722 38.2294 47.9018 37.8601 48.6597C37.4907 49.4175 36.9596 50.0851 36.3043 50.6154C35.6489 51.1457 34.8852 51.5259 34.067 51.7291C33.2489 51.9323 32.3961 51.9536 31.5687 51.7915C30.7414 51.6294 29.9597 51.2879 29.2787 50.7909C28.5977 50.294 28.0339 49.6537 27.6272 48.9153C27.4609 48.6153 27.2173 48.3652 26.9217 48.1911C26.6261 48.017 26.2893 47.9251 25.9463 47.9251C25.6032 47.9251 25.2664 48.017 24.9708 48.1911C24.6752 48.3652 24.4317 48.6153 24.2653 48.9153C23.8571 49.6552 23.2912 50.2962 22.6077 50.7931C21.9242 51.29 21.1398 51.6306 20.3101 51.7908C19.4804 51.951 18.6256 51.9268 17.8063 51.72C16.9869 51.5132 16.2231 51.1288 15.5687 50.5941C14.9144 50.0593 14.3857 49.3873 14.0199 48.6255C13.6541 47.8638 13.4602 47.0309 13.4519 46.1859C13.4437 45.3409 13.6213 44.5044 13.9722 43.7357C14.323 42.967 14.8386 42.2847 15.4824 41.7373C15.7631 41.498 15.969 41.1828 16.0754 40.8296C16.1819 40.4764 16.1845 40.1 16.0828 39.7454C15.9812 39.3908 15.7796 39.0729 15.5022 38.8297C15.2247 38.5866 14.8832 38.4284 14.5183 38.374C13.0795 38.158 11.7756 37.4061 10.868 36.2689C9.96044 35.1318 9.51633 33.6935 9.62475 32.2427C9.73317 30.7918 10.3861 29.4356 11.4526 28.4459C12.5191 27.4563 13.9203 26.9065 15.3752 26.9067Z" fill="black"/>
<path d="M26.9062 42.2813C28.0466 42.2813 29.1613 41.9431 30.1095 41.3096C31.0576 40.676 31.7966 39.7756 32.233 38.722C32.6694 37.6685 32.7836 36.5092 32.5611 35.3908C32.3386 34.2724 31.7895 33.2451 30.9832 32.4387C30.1768 31.6324 29.1495 31.0833 28.0311 30.8608C26.9126 30.6383 25.7534 30.7525 24.6998 31.1889C23.6463 31.6253 22.7458 32.3643 22.1123 33.3124C21.4788 34.2606 21.1406 35.3753 21.1406 36.5156C21.1423 38.0442 21.7503 39.5098 22.8312 40.5906C23.9121 41.6715 25.3776 42.2795 26.9062 42.2813ZM26.9062 34.5938C27.2864 34.5938 27.6579 34.7065 27.974 34.9176C28.29 35.1288 28.5364 35.429 28.6818 35.7802C28.8273 36.1313 28.8654 36.5178 28.7912 36.8906C28.717 37.2634 28.534 37.6058 28.2652 37.8746C27.9964 38.1434 27.654 38.3264 27.2812 38.4006C26.9084 38.4747 26.522 38.4367 26.1708 38.2912C25.8196 38.1457 25.5194 37.8994 25.3083 37.5834C25.0971 37.2673 24.9844 36.8957 24.9844 36.5156C24.9849 36.0061 25.1876 35.5176 25.5479 35.1573C25.9082 34.797 26.3967 34.5943 26.9062 34.5938Z" fill="black"/>
<path d="M61.5 32.6719C62.6403 32.6719 63.7551 32.3337 64.7032 31.7002C65.6514 31.0667 66.3904 30.1662 66.8267 29.1127C67.2631 28.0591 67.3773 26.8999 67.1548 25.7814C66.9324 24.663 66.3832 23.6357 65.5769 22.8293C64.7706 22.023 63.7432 21.4739 62.6248 21.2514C61.5064 21.0289 60.3471 21.1431 59.2936 21.5795C58.2401 22.0159 57.3396 22.7549 56.7061 23.703C56.0725 24.6512 55.7344 25.7659 55.7344 26.9063C55.7361 28.4349 56.3441 29.9004 57.425 30.9813C58.5059 32.0622 59.9714 32.6702 61.5 32.6719ZM61.5 24.9844C61.8801 24.9844 62.2517 25.0971 62.5677 25.3083C62.8838 25.5195 63.1301 25.8196 63.2756 26.1708C63.421 26.522 63.4591 26.9084 63.3849 27.2812C63.3108 27.654 63.1278 27.9964 62.859 28.2652C62.5902 28.534 62.2477 28.717 61.8749 28.7912C61.5021 28.8654 61.1157 28.8273 60.7645 28.6818C60.4134 28.5364 60.1132 28.29 59.902 27.974C59.6908 27.6579 59.5781 27.2864 59.5781 26.9063C59.5787 26.3967 59.7814 25.9082 60.1417 25.5479C60.502 25.1876 60.9905 24.985 61.5 24.9844Z" fill="black"/>
<path d="M90.3281 40.3594C90.3281 41.4997 90.6663 42.6144 91.2998 43.5626C91.9333 44.5107 92.8338 45.2497 93.8873 45.6861C94.9409 46.1225 96.1001 46.2367 97.2186 46.0142C98.337 45.7917 99.3643 45.2426 100.171 44.4363C100.977 43.63 101.526 42.6026 101.749 41.4842C101.971 40.3658 101.857 39.2065 101.42 38.153C100.984 37.0994 100.245 36.199 99.297 35.5654C98.3488 34.9319 97.2341 34.5938 96.0938 34.5938C94.5651 34.5955 93.0996 35.2035 92.0187 36.2844C90.9378 37.3652 90.3298 38.8308 90.3281 40.3594ZM98.0156 40.3594C98.0156 40.7395 97.9029 41.1111 97.6917 41.4271C97.4806 41.7432 97.1804 41.9895 96.8292 42.135C96.478 42.2804 96.0916 42.3185 95.7188 42.2443C95.346 42.1702 95.0036 41.9871 94.7348 41.7183C94.466 41.4496 94.283 41.1071 94.2088 40.7343C94.1346 40.3615 94.1727 39.9751 94.3182 39.6239C94.4636 39.2727 94.71 38.9726 95.026 38.7614C95.3421 38.5502 95.7136 38.4375 96.0938 38.4375C96.6033 38.4381 97.0918 38.6407 97.4521 39.001C97.8124 39.3613 98.0151 39.8498 98.0156 40.3594Z" fill="black"/>
</svg>
