<svg width="32" height="32" viewBox="0 0 32 32" fill="none" xmlns="http://www.w3.org/2000/svg">
<path d="M28.6226 29.7864C27.5082 29.7864 23.8643 28.3044 22.0737 27.99C20.1997 29.0996 18.5581 29.5 16 29.5C13.33 29.5 10.7199 28.7082 8.49981 27.2248C6.27974 25.7414 4.54942 23.633 3.52763 21.1662C2.50585 18.6994 2.2385 15.985 2.7594 13.3663C3.28031 10.7475 4.56606 8.34207 6.45406 6.45406C8.34207 4.56606 10.7475 3.28031 13.3663 2.7594C15.985 2.2385 18.6994 2.50585 21.1662 3.52763C23.633 4.54942 25.7414 6.27974 27.2248 8.49981C28.7082 10.7199 29.5 13.33 29.5 16C29.5 19.0896 28.8184 21.3567 27.229 23.5144C27.4415 24.919 28.1975 26.1837 29.334 27.0359C30.5414 27.9123 29.9247 29.7864 28.6226 29.7864ZM16 5.50001C13.2152 5.50001 10.5445 6.60625 8.57538 8.57538C6.60625 10.5445 5.50001 13.2152 5.50001 16C5.50001 18.7848 6.60625 21.4555 8.57538 23.4246C10.5445 25.3938 13.2152 26.5 16 26.5C18.1611 26.5 19.291 26.2034 20.8369 25.2305C21.4897 24.8193 22.1714 24.8286 24.6655 25.5696C24.4866 25.0971 24.358 24.6071 24.2817 24.1077C24.1963 23.7369 24.1866 23.3527 24.2531 22.9781C24.3197 22.6035 24.4611 22.2462 24.669 21.9275C25.9697 20.2405 26.5 18.5232 26.5 16C26.4968 13.2162 25.3896 10.5473 23.4211 8.57888C21.4527 6.61043 18.7838 5.50317 16 5.50001Z" fill="black"/>
</svg>
