<svg width="24" height="24" viewBox="0 0 24 24" fill="none" xmlns="http://www.w3.org/2000/svg">
<path d="M21.6081 2.22015C21.4109 2.04909 21.1491 1.9723 20.8907 2.00897L8.28237 3.81018C7.83866 3.87358 7.50913 4.25358 7.50913 4.70178V8.30415V15.2607C6.97569 14.9499 6.35644 14.771 5.69582 14.771C3.70274 14.771 2.0813 16.3924 2.0813 18.3855C2.0813 20.3785 3.70274 22 5.69582 22C7.68889 22 9.31033 20.3785 9.31033 18.3855V9.08524L20.1175 7.54134V13.4595C19.584 13.1487 18.9648 12.9698 18.3042 12.9698C16.3111 12.9698 14.6896 14.5913 14.6896 16.5843C14.6896 18.5773 16.3111 20.1988 18.3042 20.1988C20.2972 20.1988 21.9187 18.5773 21.9187 16.5843V6.5029V2.90053C21.9186 2.63944 21.8053 2.3912 21.6081 2.22015ZM5.69578 20.1987C4.69594 20.1987 3.88246 19.3853 3.88246 18.3854C3.88246 17.3856 4.69594 16.5721 5.69578 16.5721C6.69562 16.5721 7.50909 17.3856 7.50909 18.3854C7.50909 19.3853 6.69562 20.1987 5.69578 20.1987ZM20.1174 5.72181L9.31029 7.26571V5.48283L20.1174 3.93893V5.72181ZM18.3041 18.3975C17.3043 18.3975 16.4908 17.5841 16.4908 16.5842C16.4908 15.5844 17.3043 14.7709 18.3041 14.7709C19.304 14.7709 20.1174 15.5844 20.1174 16.5842C20.1174 17.5841 19.304 18.3975 18.3041 18.3975Z" fill="#C1A14A"/>
</svg>
