<svg width="24" height="24" viewBox="0 0 24 24" fill="none" xmlns="http://www.w3.org/2000/svg">
<path d="M21 11.25H15.75C14.1045 11.25 12.75 12.6045 12.75 14.25C12.75 15.8955 14.1045 17.25 15.75 17.25H18.75V19.5C18.75 19.9118 18.4118 20.25 18 20.25H6C4.7655 20.25 3.75 19.2345 3.75 18V6.75C3.75 5.5155 4.7655 4.5 6 4.5H7.5C7.91175 4.5 8.25 4.16175 8.25 3.75C8.25 3.33825 7.91175 3 7.5 3H6C3.94275 3 2.25 4.69275 2.25 6.75V18C2.25 20.0573 3.94275 21.75 6 21.75H18C19.2345 21.75 20.25 20.7345 20.25 19.5V17.25H21C21.4118 17.25 21.75 16.9118 21.75 16.5V12C21.75 11.5882 21.4118 11.25 21 11.25ZM20.25 15.75H15.75C14.9272 15.75 14.25 15.0728 14.25 14.25C14.25 13.4272 14.9272 12.75 15.75 12.75H20.25V15.75Z" fill="#C1A14A"/>
<path d="M5.73 6.05249C4.893 6.41774 5.16975 7.49999 6 7.49999H18C18.4117 7.49999 18.75 7.83824 18.75 8.24999V8.99999C18.75 9.41174 19.0882 9.74999 19.5 9.74999C19.9117 9.74999 20.25 9.41174 20.25 8.99999V8.24999C20.2492 7.65374 20.0122 7.08149 19.59 6.65999C19.1685 6.23774 18.5962 6.00074 18 5.99999H17.76L16.4475 2.72249C16.2952 2.34374 15.8602 2.15474 15.48 2.30249L5.73 6.05249ZM16.14 5.99999H10.0425L15.33 3.96749L16.14 5.99999Z" fill="#C1A14A"/>
</svg>
