<svg width="24" height="24" viewBox="0 0 24 24" fill="none" xmlns="http://www.w3.org/2000/svg">
<path d="M21.3347 11.516C21.8938 10.8362 22.1153 9.94332 21.9427 9.06636C21.7332 8.00227 20.916 7.12656 19.8608 6.83537C17.7446 6.25147 16.684 7.70222 15.7482 8.98225C14.9154 10.1213 14.1245 11.2023 12.6138 11.3862C12.7977 9.87551 13.8789 9.08409 15.0181 8.25088C16.2978 7.31485 17.7482 6.25397 17.1647 4.13923C16.8735 3.08409 15.9978 2.2669 14.9337 2.05739C13.8051 1.83515 12.678 2.2692 12.0001 3.17082C11.3227 2.26998 10.1961 1.83496 9.06638 2.05743C8.00229 2.26694 7.12656 3.08413 6.83537 4.13927C6.25143 6.25541 7.70223 7.3161 8.98231 8.25186C10.1213 9.08456 11.2024 9.87551 11.3863 11.3861C9.87557 11.2023 9.08415 10.1211 8.25097 8.98198C7.31497 7.70226 6.25408 6.25186 4.13929 6.83533C3.08411 7.12648 2.26694 8.00223 2.05743 9.06632C1.83519 10.1951 2.26932 11.3221 3.17087 11.9999C2.26956 12.6776 1.83508 13.8044 2.0574 14.9335C2.2669 15.9977 3.08411 16.8734 4.13925 17.1646C6.1036 17.7066 7.1275 16.5556 8.25191 15.0176C9.08462 13.8787 9.87557 12.7976 11.3862 12.6137C11.2023 14.1244 10.1211 14.9158 8.982 15.749C7.70227 16.685 6.25182 17.7459 6.83533 19.8606C7.12652 20.9158 8.00225 21.733 9.06634 21.9425C10.2094 22.1675 11.3307 21.7191 12 20.8291C12.6725 21.7235 13.796 22.1665 14.9336 21.9425C15.9977 21.733 16.8734 20.9158 17.1646 19.8607C17.7486 17.7445 16.2978 16.6838 15.0177 15.748C13.8787 14.9153 12.7976 14.1244 12.6138 12.6138C14.1245 12.7976 14.9159 13.8788 15.7491 15.0179C16.8468 16.5187 17.8712 17.7135 19.8607 17.1646C20.9159 16.8734 21.7331 15.9977 21.9426 14.9335C22.1648 13.805 21.7309 12.6779 20.8292 12C21.0142 11.8609 21.1842 11.6991 21.3347 11.516ZM9.67396 7.30579C8.30883 6.3078 7.61285 5.72757 7.9651 4.45101C8.13655 3.82969 8.6701 3.32989 9.29276 3.20727C10.4482 2.97983 11.414 3.86117 11.414 4.92924C11.414 5.25235 11.1512 5.51521 10.8281 5.51521C10.505 5.51521 10.2421 5.25235 10.2421 4.92924C10.2421 4.60563 9.97972 4.34327 9.65611 4.34327C9.33249 4.34327 9.07013 4.60563 9.07013 4.92924C9.07013 5.89856 9.85874 6.68716 10.8281 6.68716C11.278 6.68716 11.6887 6.51707 12 6.23811C12.3113 6.51711 12.7221 6.68716 13.172 6.68716C14.1413 6.68716 14.9299 5.89856 14.9299 4.92924C14.9299 4.60563 14.6675 4.34327 14.3439 4.34327C14.0203 4.34327 13.7579 4.60563 13.7579 4.92924C13.7579 5.25235 13.4951 5.51521 13.172 5.51521C12.8489 5.51521 12.586 5.25235 12.586 4.92924C12.586 3.86312 13.55 2.97948 14.7072 3.20727C15.3299 3.32989 15.8635 3.82969 16.0349 4.45101C16.3868 5.72632 15.691 6.30667 14.3261 7.30497C13.5182 7.89586 12.5875 8.5768 12 9.58983C11.4126 8.57699 10.4818 7.89641 9.67396 7.30579ZM7.30583 14.326C6.3078 15.6911 5.72748 16.3871 4.45099 16.0349C3.82966 15.8634 3.32986 15.3298 3.20724 14.7072C2.97992 13.5526 3.86017 12.5859 4.92923 12.5859C5.25234 12.5859 5.51521 12.8488 5.51521 13.1719C5.51521 13.495 5.25234 13.7579 4.92923 13.7579C4.60561 13.7579 4.34325 14.0202 4.34325 14.3439C4.34325 14.6675 4.60561 14.9298 4.92923 14.9298C5.89855 14.9298 6.68716 14.1412 6.68716 13.1719C6.68716 12.722 6.51707 12.3112 6.23811 12C6.51711 11.6887 6.68716 11.2779 6.68716 10.828C6.68716 9.85871 5.89855 9.07011 4.92923 9.07011C4.60561 9.07011 4.34325 9.33247 4.34325 9.65608C4.34325 9.97969 4.60561 10.2421 4.92923 10.2421C5.25234 10.2421 5.51521 10.5049 5.51521 10.828C5.51521 11.1511 5.25234 11.414 4.92923 11.414C3.86064 11.414 2.97992 10.4476 3.20724 9.29278C3.32986 8.67009 3.82966 8.13654 4.45099 7.96508C5.72643 7.61323 6.3067 8.30901 7.30501 9.67389C7.89591 10.4818 8.57685 11.4125 9.58985 12C8.57705 12.5874 7.89642 13.5182 7.30583 14.326ZM14.3261 16.6941C15.6912 17.6921 16.3872 18.2724 16.035 19.5489C15.8635 20.1702 15.33 20.67 14.7073 20.7926C13.5518 21.02 12.586 20.1388 12.586 19.0707C12.586 18.7475 12.8489 18.4847 13.172 18.4847C13.4951 18.4847 13.758 18.7475 13.758 19.0707C13.758 19.3943 14.0203 19.6566 14.344 19.6566C14.6676 19.6566 14.9299 19.3943 14.9299 19.0707C14.9299 18.1013 14.1413 17.3127 13.172 17.3127C12.7221 17.3127 12.3113 17.4828 12.0001 17.7618C11.6888 17.4828 11.278 17.3127 10.8281 17.3127C9.85878 17.3127 9.07017 18.1013 9.07017 19.0707C9.07017 19.3943 9.33253 19.6566 9.65615 19.6566C9.97976 19.6566 10.2421 19.3943 10.2421 19.0707C10.2421 18.7475 10.505 18.4847 10.8281 18.4847C11.1512 18.4847 11.4141 18.7475 11.4141 19.0707C11.4141 20.139 10.448 21.02 9.29284 20.7926C8.67014 20.67 8.13659 20.1702 7.96513 19.5489C7.61324 18.2735 8.30906 17.6932 9.67396 16.6949C10.4818 16.104 11.4126 15.4231 12.0001 14.41C12.5875 15.4229 13.5183 16.1035 14.3261 16.6941ZM18.4848 10.828C18.4848 10.5049 18.7477 10.2421 19.0708 10.2421C19.3944 10.2421 19.6568 9.97969 19.6568 9.65608C19.6568 9.33247 19.3944 9.07011 19.0708 9.07011C18.1015 9.07011 17.3129 9.85871 17.3129 10.828C17.3129 11.2779 17.483 11.6887 17.7619 12C17.4829 12.3112 17.3129 12.722 17.3129 13.1719C17.3129 14.1412 18.1015 14.9298 19.0708 14.9298C19.3944 14.9298 19.6568 14.6675 19.6568 14.3439C19.6568 14.0202 19.3944 13.7579 19.0708 13.7579C18.7477 13.7579 18.4848 13.495 18.4848 13.1719C18.4848 12.8488 18.7477 12.5859 19.0708 12.5859C20.139 12.5859 21.0202 13.5519 20.7928 14.7072C20.6702 15.3298 20.1704 15.8634 19.549 16.0349C18.2737 16.3867 17.6934 15.6909 16.695 14.326C16.1041 13.5182 15.4232 12.5874 14.4102 12C15.423 11.4125 16.1036 10.4818 16.6942 9.67393C17.6922 8.30877 18.2726 7.61288 19.549 7.96508C20.1704 8.13654 20.6702 8.67009 20.7928 9.29274C21.0201 10.4475 20.1397 11.414 19.0708 11.414C18.7477 11.414 18.4848 11.1511 18.4848 10.828Z" fill="#C1A14A"/>
</svg>
