<svg width="24" height="24" viewBox="0 0 24 24" fill="none" xmlns="http://www.w3.org/2000/svg">
<path d="M20.206 9.67593L12.9159 2.38583C12.1623 1.63216 10.9359 1.63211 10.1821 2.38583C9.50462 3.06331 9.44627 4.09658 9.94659 4.83439L9.93645 4.88514C9.41086 7.51332 8.1313 9.90427 6.23599 11.7995L2.89222 15.1433C2.13674 15.8988 2.13661 17.1215 2.89222 17.8771L4.71469 19.6995C5.47012 20.455 6.69292 20.455 7.44844 19.6995L7.90408 19.2439L11.0935 22.4333C11.8489 23.1888 13.0717 23.1888 13.8272 22.4333C14.5809 21.6796 14.5809 20.4532 13.8272 19.6996L12.4603 18.3327L12.9159 17.8771C13.6714 17.1216 13.6715 15.8989 12.9159 15.1433L12.6063 14.8337C14.1295 13.7672 15.8594 13.0248 17.7067 12.6553L17.7581 12.645C18.5124 13.1542 19.5432 13.0724 20.206 12.4096H20.206C20.9596 11.656 20.9596 10.4296 20.206 9.67593ZM6.5372 18.7883C6.28541 19.04 5.87772 19.0401 5.62592 18.7882L3.80345 16.9658C3.55161 16.7139 3.55161 16.3064 3.80345 16.0545L6.9928 12.8651L9.72655 15.5989C9.41451 15.9109 6.85693 18.4685 6.5372 18.7883ZM12.9159 20.6108C13.1671 20.862 13.1671 21.2708 12.9159 21.522C12.6647 21.7732 12.2559 21.7732 12.0047 21.522L8.81527 18.3326L9.72655 17.4214L12.9159 20.6108ZM10.6378 16.5101C10.8315 16.3164 11.1214 16.0197 11.5791 15.6289L12.0047 16.0545C12.2565 16.3064 12.2565 16.7139 12.0047 16.9658L11.549 17.4214L10.6378 16.5101ZM10.6652 14.7151L7.87658 11.9265C9.37099 10.2009 10.4412 8.16399 11.0137 5.95111L16.6406 11.5779C14.4277 12.1505 12.3908 13.2206 10.6652 14.7151ZM19.2946 11.4983C19.0428 11.7501 18.6352 11.7501 18.3834 11.4983L11.0934 4.2083C10.8415 3.95642 10.8415 3.5489 11.0934 3.29706C11.3452 3.04522 11.7528 3.04522 12.0047 3.29706L19.2946 10.587C19.5458 10.8383 19.5458 11.247 19.2946 11.4983Z" fill="#C1A14A"/>
<path d="M7.0346 15.429C6.76015 15.1545 6.31503 15.1545 6.04053 15.429L5.04645 16.4231C4.77195 16.6976 4.77195 17.1427 5.04645 17.4172C5.3209 17.6917 5.76607 17.6917 6.04053 17.4172L7.0346 16.4231C7.3091 16.1486 7.3091 15.7035 7.0346 15.429Z" fill="#C1A14A"/>
<path d="M15.8753 1C15.5194 1 15.231 1.28849 15.231 1.64436V2.93307C15.231 3.28894 15.5194 3.57743 15.8753 3.57743C16.2312 3.57743 16.5197 3.28894 16.5197 2.93307V1.64436C16.5197 1.28849 16.2312 1 15.8753 1Z" fill="#C1A14A"/>
<path d="M21.0302 6.15479H19.7415C19.3857 6.15479 19.0972 6.44328 19.0972 6.79914C19.0972 7.15501 19.3857 7.4435 19.7415 7.4435H21.0302C21.3861 7.4435 21.6746 7.15501 21.6746 6.79914C21.6746 6.44328 21.3861 6.15479 21.0302 6.15479Z" fill="#C1A14A"/>
<path d="M20.197 2.47741C19.9454 2.22579 19.5374 2.22579 19.2858 2.47741L17.9971 3.76613C17.7454 4.01775 17.7454 4.42574 17.9971 4.67737C18.2486 4.92899 18.6567 4.92903 18.9083 4.67737L20.197 3.38865C20.4486 3.13703 20.4486 2.72908 20.197 2.47741Z" fill="#C1A14A"/>
</svg>
