<svg width="24" height="24" viewBox="0 0 24 24" fill="none" xmlns="http://www.w3.org/2000/svg">
<path d="M21.4141 15.3203H21.1607C21.0211 13.0888 20.086 11.0102 18.491 9.41523C17.2756 8.1998 15.7792 7.36781 14.1484 6.97859V6.53125C14.1484 5.3466 13.1846 4.38281 12 4.38281C10.8154 4.38281 9.85156 5.3466 9.85156 6.53125V6.97859C8.22082 7.36785 6.72441 8.1998 5.50898 9.41523C3.91402 11.0102 2.97895 13.0888 2.83926 15.3203H2.58594C2.26234 15.3203 2 15.5827 2 15.9062C2 17.9525 3.66473 19.6172 5.71094 19.6172H18.2109C19.2032 19.6172 20.1465 19.2337 20.8669 18.5373C21.5976 17.831 22 16.8966 22 15.9062C22 15.5827 21.7377 15.3203 21.4141 15.3203ZM11.0234 6.53125C11.0234 5.99277 11.4615 5.55469 12 5.55469C12.5385 5.55469 12.9766 5.99277 12.9766 6.53125V6.77812C12.6543 6.74426 12.3286 6.72656 12 6.72656C11.6714 6.72656 11.3457 6.74426 11.0234 6.77812V6.53125ZM12 7.89844C16.2184 7.89844 19.6852 11.1773 19.9863 15.3203H4.01371C4.3148 11.1773 7.78156 7.89844 12 7.89844ZM18.2109 18.4453H5.71094C4.51246 18.4453 3.50527 17.6107 3.24012 16.4922H20.7546C20.4736 17.5971 19.4226 18.4453 18.2109 18.4453Z" fill="#C1A14A"/>
</svg>
