<svg width="24" height="24" viewBox="0 0 24 24" fill="none" xmlns="http://www.w3.org/2000/svg">
<path d="M21.8268 20.4993L21.5728 20.2274C18.8407 17.3073 16.772 13.9254 15.422 10.1745C15.4434 8.99893 15.8166 7.87401 16.5067 6.91504L16.6398 6.73018C17.484 5.55709 17.2674 3.92484 16.1126 3.01171V1.64453C16.1126 1.28858 15.8218 1 15.4632 1C15.1046 1 14.8139 1.28858 14.8139 1.64453V2.44843C14.5809 2.41371 14.4246 2.41797 14.2544 2.41797C13.5205 2.41797 12.8305 2.70165 12.3116 3.21671L12 3.526L11.6884 3.21671C11.1695 2.70165 10.4795 2.41797 9.74562 2.41797C9.54718 2.41797 9.41164 2.41483 9.18614 2.44843V1.64453C9.18614 1.28858 8.8954 1 8.53679 1C8.17817 1 7.88744 1.28858 7.88744 1.64453V3.01175C6.73328 3.92432 6.51554 5.55636 7.36025 6.73023L7.49328 6.91508C8.18341 7.87405 8.55662 8.99898 8.57804 10.1745C7.22805 13.9255 5.15935 17.3073 2.42688 20.2277L2.1732 20.4993C1.99766 20.6872 1.95095 20.9605 2.05424 21.1954C2.15753 21.4302 2.39117 21.582 2.64935 21.582H7.19848C7.11354 21.731 7.02722 21.8794 6.93921 22.0269C6.68307 22.4558 6.99519 23 7.49783 23H16.5021C17.0045 23 17.317 22.4561 17.0608 22.0269C16.9727 21.8794 16.8864 21.731 16.8015 21.582H21.3506C21.6088 21.582 21.8424 21.4302 21.9458 21.1954C22.049 20.9605 22.0024 20.6872 21.8268 20.4993ZM8.41705 5.98098C8.24051 5.73567 8.14718 5.44662 8.14718 5.14511C8.14718 4.35216 8.79713 3.70703 9.59601 3.70703H9.74562C10.1326 3.70703 10.4964 3.85661 10.7701 4.12821L11.5409 4.89323C11.7944 5.14494 12.2056 5.14494 12.4592 4.89323L13.2299 4.12821C13.5035 3.85661 13.8674 3.70703 14.2544 3.70703H14.404C15.2028 3.70703 15.8528 4.35216 15.8528 5.14511C15.8528 5.44662 15.7595 5.73563 15.5829 5.98098L15.4499 6.16583C14.7073 7.19777 14.2638 8.38663 14.1503 9.63676H9.84964C9.73614 8.38667 9.29263 7.19781 8.55003 6.16583L8.41705 5.98098ZM16.115 20.293C15.2464 18.5416 14.5843 16.6972 14.1404 14.788L14.018 14.2613C13.9373 13.9145 13.5887 13.6982 13.2392 13.7782C12.8898 13.8583 12.6719 14.2043 12.7525 14.5512L12.875 15.0779C13.4137 17.3949 14.2582 19.6213 15.3898 21.7109H8.61012C9.74177 19.6213 10.5863 17.3949 11.125 15.0779L11.2474 14.5512C11.3281 14.2043 11.1102 13.8583 10.7607 13.7782C10.4112 13.6981 10.0626 13.9145 9.98198 14.2613L9.85951 14.788C9.41562 16.6972 8.75354 18.5416 7.88488 20.293H4.11194C6.53004 17.5195 8.40086 14.3748 9.68484 10.9258H14.3151C15.5992 14.3748 17.4702 17.5198 19.888 20.293H16.115Z" fill="#C1A14A"/>
</svg>
