<svg width="24" height="24" viewBox="0 0 24 24" fill="none" xmlns="http://www.w3.org/2000/svg">
<path d="M21.4141 20.8281V15.5547C21.4141 14.5854 20.6255 13.7969 19.6562 13.7969V8.44531C19.6562 7.47605 18.8677 6.6875 17.8984 6.6875H14.1879C14.9136 5.98789 15.5156 5.25105 15.5156 4.23723C15.5156 3.01664 14.6588 2 13.4648 2C12.8884 2 12.3829 2.24332 11.9897 2.7068C11.6455 2.31512 11.1535 2 10.4961 2C9.30059 2 8.44531 3.01836 8.44531 4.23723C8.44531 5.19352 8.97988 5.90496 9.8034 6.6875H6.10156C5.1323 6.6875 4.34375 7.47605 4.34375 8.44531V13.7969C3.37449 13.7969 2.58594 14.5854 2.58594 15.5547V20.8281C2.26234 20.8281 2 21.0905 2 21.4141C2 21.7377 2.26234 22 2.58594 22C3.53055 22 20.4813 22 21.4141 22C21.7377 22 22 21.7377 22 21.4141C22 21.0905 21.7377 20.8281 21.4141 20.8281ZM9.61719 4.23723C9.61719 3.72078 9.92523 3.17188 10.4961 3.17188C11.1526 3.17188 11.4364 4.06496 11.4382 4.07074C11.512 4.3198 11.7408 4.49023 11.9999 4.49023C12.0026 4.49023 12.0054 4.49023 12.008 4.4902C12.2705 4.4866 12.4986 4.30891 12.5661 4.05527C12.5685 4.04645 12.8198 3.17188 13.4648 3.17188C14.0357 3.17188 14.3438 3.72078 14.3438 4.23723C14.3438 4.99555 13.6508 5.6268 12.4409 6.6875H11.5589L11.5132 6.64758C10.2673 5.55789 9.61719 4.95578 9.61719 4.23723ZM5.51562 8.44531C5.51562 8.12223 5.77848 7.85938 6.10156 7.85938C6.5073 7.85938 17.4943 7.85938 17.8984 7.85938C18.2215 7.85938 18.4844 8.12223 18.4844 8.44531V9.03125C18.4844 9.67742 17.9587 10.2031 17.3125 10.2031C16.6561 10.2031 16.1016 9.66648 16.1016 9.03125C16.1016 8.70766 15.8392 8.44531 15.5156 8.44531C15.192 8.44531 14.9297 8.70766 14.9297 9.03125C14.9297 9.67742 14.404 10.2031 13.7578 10.2031C13.1116 10.2031 12.5859 9.67742 12.5859 9.03125C12.5859 8.70766 12.3236 8.44531 12 8.44531C11.6764 8.44531 11.4141 8.70766 11.4141 9.03125C11.4141 9.66648 10.8595 10.2031 10.2031 10.2031C9.55695 10.2031 9.03125 9.67742 9.03125 9.03125C9.03125 8.70766 8.76891 8.44531 8.44531 8.44531C8.12172 8.44531 7.85938 8.70766 7.85938 9.03125C7.85938 9.67742 7.33367 10.2031 6.6875 10.2031C6.04133 10.2031 5.51562 9.67742 5.51562 9.03125V8.44531ZM5.51562 11.0597C5.86066 11.2598 6.26074 11.375 6.6875 11.375C7.38676 11.375 8.01551 11.0671 8.44531 10.5799C8.87512 11.0671 9.50387 11.375 10.2031 11.375C10.8282 11.375 11.4215 11.1334 11.8736 10.6947C11.9149 10.6547 11.9545 10.6135 11.9924 10.5712C12.4224 11.0635 13.0544 11.375 13.7578 11.375C14.4612 11.375 15.0933 11.0635 15.5232 10.5712C15.5611 10.6135 15.6007 10.6547 15.642 10.6947C16.0941 11.1334 16.6874 11.375 17.3125 11.375C17.7393 11.375 18.1393 11.2598 18.4844 11.0597V13.7969H5.51562V11.0597ZM20.2422 20.8281H3.75781V18.1691C4.10285 18.3692 4.50293 18.4844 4.92969 18.4844C5.62895 18.4844 6.2577 18.1765 6.6875 17.6893C7.1173 18.1765 7.74605 18.4844 8.44531 18.4844C9.14875 18.4844 9.78078 18.1729 10.2107 17.6806C10.2486 17.7229 10.2882 17.7641 10.3295 17.8041C10.7816 18.2428 11.3749 18.4844 12 18.4844C12.6993 18.4844 13.328 18.1765 13.7578 17.6893C14.1876 18.1765 14.8164 18.4844 15.5156 18.4844C16.1407 18.4844 16.734 18.2428 17.1861 17.8041C17.2274 17.7641 17.267 17.7229 17.3049 17.6806C17.7349 18.1729 18.3669 18.4844 19.0703 18.4844C19.4971 18.4844 19.8971 18.3692 20.2422 18.1691V20.8281ZM20.2422 16.1406C20.2422 16.7868 19.7165 17.3125 19.0703 17.3125C18.4241 17.3125 17.8984 16.7868 17.8984 16.1406C17.8984 15.817 17.6361 15.5547 17.3125 15.5547C16.9889 15.5547 16.7266 15.817 16.7266 16.1406C16.7266 16.7759 16.172 17.3125 15.5156 17.3125C14.8695 17.3125 14.3438 16.7868 14.3438 16.1406C14.3438 15.817 14.0814 15.5547 13.7578 15.5547C13.4342 15.5547 13.1719 15.817 13.1719 16.1406C13.1719 16.7868 12.6462 17.3125 12 17.3125C11.3436 17.3125 10.7891 16.7759 10.7891 16.1406C10.7891 15.817 10.5267 15.5547 10.2031 15.5547C9.87953 15.5547 9.61719 15.817 9.61719 16.1406C9.61719 16.7868 9.09148 17.3125 8.44531 17.3125C7.79914 17.3125 7.27344 16.7868 7.27344 16.1406C7.27344 15.817 7.01109 15.5547 6.6875 15.5547C6.36391 15.5547 6.10156 15.817 6.10156 16.1406C6.10156 16.7868 5.57586 17.3125 4.92969 17.3125C4.28352 17.3125 3.75781 16.7868 3.75781 16.1406V15.5547C3.75781 15.2316 4.02066 14.9688 4.34375 14.9688C4.74254 14.9688 18.9616 14.9688 19.6562 14.9688C19.9793 14.9688 20.2422 15.2316 20.2422 15.5547V16.1406Z" fill="#C1A14A"/>
</svg>
