<svg width="40" height="40" viewBox="0 0 40 40" fill="none" xmlns="http://www.w3.org/2000/svg">
<g clip-path="url(#clip0_325_1789)">
<path d="M29.9991 15.1168V10.0006C29.9991 7.55569 28.2849 5.35215 25.1724 3.79601C22.4272 2.42344 18.8144 1.66748 14.9996 1.66748C11.1844 1.66748 7.57147 2.42344 4.82633 3.79601C1.71405 5.35215 0 7.55569 0 10.0006V16.667V23.3331V29.9995C0 32.4445 1.71405 34.6479 4.82644 36.2042C7.57158 37.5768 11.1845 38.3326 14.9997 38.3326C17.9061 38.3326 20.6768 37.899 23.0703 37.0767C24.6523 37.8795 26.4403 38.3326 28.3324 38.3326C34.766 38.3326 40.0001 33.0985 40.0001 26.6649C40 20.7972 35.6459 15.9281 29.9991 15.1168ZM3.33364 22.0036C3.78824 22.3108 4.28561 22.6012 4.82644 22.8715C7.57158 24.2441 11.1846 25.0001 14.9997 25.0001C15.6013 25.0001 16.1994 24.9802 16.7919 24.9427C16.7084 25.5049 16.6645 26.0799 16.6645 26.665C16.6645 27.2094 16.7029 27.7451 16.7754 28.2698C16.1897 28.3116 15.5965 28.3327 14.9997 28.3327C8.32265 28.3328 3.33364 25.6932 3.33364 23.3332V22.0036ZM17.872 21.5002C16.9361 21.6103 15.9736 21.6663 14.9996 21.6663C8.32265 21.6664 3.33364 19.027 3.33364 16.667V15.3373C3.78824 15.6445 4.28561 15.9349 4.82644 16.2051C7.57158 17.5778 11.1846 18.3337 14.9997 18.3337C17.0523 18.3337 19.0449 18.113 20.8769 17.6969C19.6285 18.7366 18.6003 20.0313 17.872 21.5002ZM14.9996 5.00112C21.6764 5.00112 26.6653 7.64058 26.6653 10.0006C26.6653 12.3606 21.6764 15.0001 14.9996 15.0001C8.32265 15.0001 3.33364 12.3606 3.33364 10.0006C3.33364 7.64058 8.32265 5.00112 14.9996 5.00112ZM3.33364 29.9996V28.6701C3.78824 28.9773 4.28561 29.2676 4.82644 29.5379C7.57158 30.9105 11.1845 31.6665 14.9997 31.6665C15.9198 31.6665 16.8334 31.6212 17.7303 31.5338C18.2388 32.6367 18.9141 33.6474 19.7241 34.5329C18.2388 34.8371 16.6305 34.9991 14.9996 34.9991C8.32265 34.9991 3.33364 32.3595 3.33364 29.9996ZM28.3323 34.9991C23.7368 34.9991 19.9982 31.2604 19.9982 26.665C19.9982 22.0826 23.716 18.3529 28.2936 18.3319C28.3066 18.3322 28.3191 18.3339 28.3323 18.3339C28.3454 18.3339 28.3578 18.3322 28.3709 18.3319C32.9486 18.3529 36.6664 22.0826 36.6664 26.665C36.6664 31.2604 32.9277 34.9991 28.3323 34.9991Z" fill="black"/>
</g>
<defs>
<clipPath id="clip0_325_1789">
<rect width="40" height="40" fill="white"/>
</clipPath>
</defs>
</svg>
