<svg width="20" height="20" viewBox="0 0 20 20" fill="none" xmlns="http://www.w3.org/2000/svg">
<path d="M17.2391 4.49629H16.5396C16.7352 4.15481 16.8478 3.7597 16.8478 3.3385C16.8478 2.40198 16.3168 1.5845 15.4622 1.20495C14.6076 0.825375 13.6463 0.980334 12.9537 1.60922L11.477 2.94979C11.1628 2.46555 10.6183 2.14432 9.99995 2.14432C9.38067 2.14432 8.83543 2.4665 8.52142 2.95205L7.04226 1.60919C6.34958 0.98037 5.3883 0.825446 4.53376 1.20503C3.67911 1.5845 3.14822 2.40205 3.14822 3.33853C3.14822 3.75974 3.26075 4.15481 3.4564 4.49632H2.76087C1.78992 4.49629 1 5.2876 1 6.26025V8.61221C1 8.93692 1.26279 9.20021 1.58697 9.20021H2.17394V17.236C2.17394 18.2087 2.96386 19 3.9348 19C4.5062 19 15.6243 19 16.0652 19C17.0361 19 17.8261 18.2087 17.8261 17.236V9.20021H18.413C18.7372 9.20021 19 8.93696 19 8.61221V6.26025C19 5.2876 18.21 4.49629 17.2391 4.49629ZM8.23911 17.824H3.93477C3.61112 17.824 3.3478 17.5602 3.3478 17.236V9.20021H8.23908L8.23911 17.824ZM8.23911 8.02421C7.98845 8.02421 2.42639 8.02421 2.1739 8.02421V6.26025C2.1739 5.93603 2.43722 5.67225 2.76087 5.67225C2.96973 5.67225 7.98712 5.67225 8.23911 5.67225V8.02421ZM5.47788 4.49625C4.8406 4.49625 4.32212 3.97689 4.32212 3.3385C4.32212 2.86686 4.57908 2.47118 5.00949 2.28005C5.16671 2.21025 5.32853 2.17595 5.48765 2.17595C5.76419 2.17595 6.03254 2.27963 6.25399 2.48062L8.47427 4.49629L5.47788 4.49625ZM9.99998 3.32032C10.277 3.32032 10.5092 3.51377 10.5706 3.77277L9.99801 4.29255L9.42869 3.77566C9.48892 3.51522 9.72193 3.32032 9.99998 3.32032ZM10.587 17.824H9.41305V9.20021H10.587V17.824ZM10.587 8.02421H9.41305V5.67225C9.83264 5.67225 10.1632 5.67225 10.587 5.67225V8.02421ZM13.742 2.48066C14.0909 2.16398 14.5561 2.08903 14.9865 2.28012C15.4169 2.47122 15.6739 2.86693 15.6739 3.33853C15.6739 3.97693 15.1554 4.49632 14.5181 4.49632H11.5217L13.742 2.48066ZM16.6521 17.236C16.6521 17.5603 16.3888 17.824 16.0652 17.824H11.7609V9.20021H16.6521V17.236ZM17.8261 8.02421C17.5735 8.02421 12.0114 8.02421 11.7609 8.02421V5.67225C12.0079 5.67225 17.0248 5.67225 17.2391 5.67225C17.5627 5.67225 17.8261 5.93603 17.8261 6.26025V8.02421Z" fill="#C1A14A"/>
</svg>
