<svg width="24" height="24" viewBox="0 0 24 24" fill="none" xmlns="http://www.w3.org/2000/svg">
<path d="M20.2196 5.99156H16.0744V5.51629C16.0744 4.17799 14.9857 3.08923 13.6473 3.08923H10.3528C9.01446 3.08923 7.92558 4.17799 7.92558 5.51629V5.99156H5.60326V4.70599C5.60326 4.21075 5.20176 3.80926 4.70652 3.80926C4.21128 3.80926 3.80978 4.21075 3.80978 4.70599V5.99156H3.78037C2.2473 5.99156 1 7.23886 1 8.77193V18.1304C1 19.6635 2.2473 20.9107 3.78037 20.9107H20.2196C21.7527 20.9107 23 19.6634 23 18.1304V8.77193C23 7.23886 21.7527 5.99156 20.2196 5.99156ZM9.71905 5.51629C9.71905 5.16692 10.0033 4.88271 10.3528 4.88271H13.6473C13.9966 4.88271 14.2809 5.16692 14.2809 5.51629V5.99156H9.71905V5.51629ZM21.2065 18.1304C21.2065 18.6746 20.7638 19.1172 20.2196 19.1172H3.78037C3.23623 19.1172 2.79348 18.6744 2.79348 18.1304V8.77193C2.79348 8.22779 3.23623 7.78504 3.78037 7.78504H8.82231H15.1776H20.2195C20.7637 7.78504 21.2064 8.22779 21.2064 8.77193V18.1304H21.2065Z" fill="#C1A14A"/>
<path d="M12 8.94165C9.5134 8.94165 7.49048 10.9646 7.49048 13.4512C7.49048 15.9378 9.5134 17.9608 12 17.9608C14.4866 17.9608 16.5095 15.9379 16.5095 13.4513C16.5095 10.9647 14.4866 8.94165 12 8.94165ZM12 16.1673C10.5023 16.1673 9.28396 14.949 9.28396 13.4513C9.28396 11.9536 10.5023 10.7351 12 10.7351C13.4977 10.7351 14.716 11.9535 14.716 13.4512C14.716 14.9488 13.4977 16.1673 12 16.1673Z" fill="#C1A14A"/>
<path d="M12 15.2696C13.0043 15.2696 13.8185 14.4555 13.8185 13.4512C13.8185 12.4468 13.0043 11.6327 12 11.6327C10.9957 11.6327 10.1815 12.4468 10.1815 13.4512C10.1815 14.4555 10.9957 15.2696 12 15.2696Z" fill="#C1A14A"/>
</svg>
