<svg width="42" height="42" viewBox="0 0 42 42" fill="none" xmlns="http://www.w3.org/2000/svg">
<path d="M38.6439 21.0702C39.0941 20.5085 39.375 19.8056 39.375 19.0312C39.375 18.6683 39.0817 18.375 38.7188 18.375H38.7017C39.1184 17.8251 39.375 17.1478 39.375 16.4062C39.375 16.0433 39.0817 15.75 38.7188 15.75H38.7017C39.1184 15.2001 39.375 14.5228 39.375 13.7812C39.375 13.4183 39.0817 13.125 38.7188 13.125H38.7017C39.1184 12.5751 39.375 11.8978 39.375 11.1562C39.375 10.7933 39.0817 10.5 38.7188 10.5C38.3558 10.5 38.0625 10.7933 38.0625 11.1562C38.0625 12.2417 37.1792 13.125 36.0938 13.125H32.1562C31.3005 13.125 30.5708 12.5764 30.2997 11.8125H36.0938C36.4567 11.8125 36.75 11.5192 36.75 11.1562C36.75 10.7933 36.4567 10.5 36.0938 10.5H29.5312C29.1683 10.5 28.875 10.7933 28.875 11.1562C28.875 11.8978 29.1316 12.5751 29.5483 13.125H29.5312C29.1683 13.125 28.875 13.4183 28.875 13.7812C28.875 14.5228 29.1316 15.2001 29.5483 15.75H29.5312C29.1683 15.75 28.875 16.0433 28.875 16.4062C28.875 17.1478 29.1316 17.8251 29.5483 18.375H29.5312C29.3475 18.375 29.1821 18.4511 29.0633 18.5725C28.9938 18.5391 28.9216 18.5122 28.8474 18.4872C28.6335 16.1602 27.0638 14.2249 24.9375 13.4695V13.125C24.9375 12.0396 24.0542 11.1562 22.9688 11.1562C21.8833 11.1562 21 12.0396 21 13.125V13.4695C18.8737 14.2249 17.304 16.1602 17.0901 18.4872C16.3137 18.751 15.75 19.4795 15.75 20.3438C15.75 20.5747 15.7973 20.7939 15.8708 21H14.7282C14.9546 20.6122 15.0938 20.1679 15.0938 19.6875V17.7188C15.0938 17.3558 14.8004 17.0625 14.4375 17.0625C14.0746 17.0625 13.7812 17.3558 13.7812 17.7188V19.6875C13.7812 20.4113 13.1926 21 12.4688 21H5.90625C5.18241 21 4.59375 20.4113 4.59375 19.6875V15.75H15.0938C15.4567 15.75 15.75 15.4567 15.75 15.0938C15.75 14.7308 15.4567 14.4375 15.0938 14.4375V13.7812C15.0938 12.3336 13.9164 11.1562 12.4688 11.1562H11.1562V10.5C11.1562 9.41456 10.2729 8.53125 9.1875 8.53125C8.10206 8.53125 7.21875 9.41456 7.21875 10.5V11.1562H5.90625C4.45856 11.1562 3.28125 12.3336 3.28125 13.7812V14.4375C2.91834 14.4375 2.625 14.7308 2.625 15.0938C2.625 15.4567 2.91834 15.75 3.28125 15.75V19.6875C3.28125 20.179 3.42562 20.6345 3.66122 21.0282C2.34478 21.168 1.3125 22.2718 1.3125 23.625C1.3125 23.9879 1.60584 24.2812 1.96875 24.2812C2.33166 24.2812 2.625 23.9879 2.625 23.625C2.625 22.9012 3.21366 22.3125 3.9375 22.3125H38.0625C38.7863 22.3125 39.375 22.9012 39.375 23.625V26.5768C39.375 27.0592 39.1191 27.4824 38.6918 27.7069C38.2633 27.9307 37.7705 27.9011 37.3721 27.6255C36.6273 27.1123 35.6409 27.0559 34.797 27.4772L32.76 28.495C31.5591 29.0962 30.1258 29.0948 28.9262 28.495L28.2529 28.1584C26.5716 27.3184 24.5936 27.3755 22.9635 28.3093C21.7232 29.0187 20.1403 29.0246 18.732 28.3198L18.4091 28.1584C16.7278 27.3184 14.7505 27.3755 13.1198 28.3093C11.8781 29.0194 10.2959 29.024 8.88759 28.3198L7.20234 27.4772C6.35906 27.0559 5.37141 27.1117 4.62722 27.6255C4.22953 27.9011 3.73603 27.9307 3.3075 27.7069C2.88094 27.4824 2.625 27.0592 2.625 26.5768V26.25C2.625 25.8871 2.33166 25.5938 1.96875 25.5938C1.60584 25.5938 1.3125 25.8871 1.3125 26.25V29.2018C1.3125 30.158 1.83684 31.0328 2.67947 31.4843C3.27797 31.8052 3.96178 31.8675 4.59375 31.6916V40.0312C4.59375 40.3942 4.88709 40.6875 5.25 40.6875H7.875C8.23791 40.6875 8.53125 40.3942 8.53125 40.0312V32.2311C10.2027 33.052 12.161 32.993 13.7786 32.0696C15.0262 31.3576 16.5375 31.3149 17.8224 31.9574L18.3402 32.2166C19.1317 32.6123 19.9894 32.8086 20.8445 32.8086C21.8039 32.8086 22.7614 32.5618 23.6217 32.0696C24.402 31.6234 25.2847 31.4357 26.1831 31.5269C26.5519 31.561 26.8656 31.3005 26.9023 30.9396C26.9391 30.5793 26.6759 30.2571 26.315 30.2203C25.1508 30.1028 23.9905 30.347 22.9701 30.9297C21.7232 31.6418 20.2105 31.6844 18.9263 31.0419L18.4085 30.7827C16.7291 29.944 14.7545 29.9998 13.1263 30.9297C11.8788 31.6418 10.3674 31.6844 9.0825 31.0419L7.20169 30.1015C6.37087 29.6868 5.37862 29.7498 4.60819 30.263C4.20984 30.5288 3.71963 30.5504 3.29831 30.3266C2.877 30.1009 2.625 29.6809 2.625 29.2018V28.8232C2.64994 28.8376 2.67291 28.8547 2.6985 28.8684C3.55294 29.3186 4.578 29.2543 5.37337 28.7057C5.72316 28.4642 6.19959 28.4432 6.61566 28.6512L8.30091 29.4938C10.1043 30.3949 12.1505 30.3791 13.7727 29.4479C15.0216 28.7319 16.5349 28.688 17.8218 29.3324L18.1447 29.4938C19.948 30.3949 21.9942 30.3791 23.6165 29.4479C24.8653 28.7319 26.3806 28.6893 27.6662 29.3324L28.3395 29.6691C29.1231 30.0615 29.9834 30.2571 30.8431 30.2571C31.7028 30.2571 32.5631 30.0608 33.3467 29.6691L35.3837 28.6512C35.8017 28.4432 36.2762 28.4635 36.626 28.7057C37.4213 29.2543 38.4464 29.3186 39.3008 28.8684C39.3264 28.8547 39.3494 28.8376 39.3743 28.8232V29.2018C39.3743 29.6802 39.1223 30.1009 38.7004 30.3273C38.2784 30.5517 37.7882 30.5307 37.3912 30.2636C36.6194 29.7498 35.6272 29.6868 34.797 30.1022L32.76 31.12C31.5591 31.7212 30.1271 31.7212 28.9262 31.12C28.602 30.9593 28.2083 31.0892 28.0455 31.4134C27.8834 31.7376 28.0147 32.132 28.3388 32.2941C29.1224 32.6865 29.9828 32.8821 30.8424 32.8821C31.7021 32.8821 32.5625 32.6858 33.346 32.2941L33.4688 32.2337V40.0312C33.4688 40.3942 33.7621 40.6875 34.125 40.6875H36.75C37.1129 40.6875 37.4062 40.3942 37.4062 40.0312V31.6916C38.0382 31.8682 38.7227 31.8052 39.3205 31.4843C40.1632 31.0328 40.6875 30.158 40.6875 29.2018V23.625C40.6875 22.3781 39.8121 21.336 38.6439 21.0702ZM8.53125 10.5C8.53125 10.1378 8.82525 9.84375 9.1875 9.84375C9.54975 9.84375 9.84375 10.1378 9.84375 10.5V11.1562H8.53125V10.5ZM4.59375 13.7812C4.59375 13.0574 5.18241 12.4688 5.90625 12.4688H12.4688C13.1926 12.4688 13.7812 13.0574 13.7812 13.7812V14.4375H4.59375V13.7812ZM30.2997 14.4375H37.9503C37.6792 15.2014 36.9495 15.75 36.0938 15.75H32.1562C31.3005 15.75 30.5708 15.2014 30.2997 14.4375ZM30.2997 17.0625H37.9503C37.6792 17.8264 36.9495 18.375 36.0938 18.375H32.1562C31.3005 18.375 30.5708 17.8264 30.2997 17.0625ZM22.3125 13.125C22.3125 12.7628 22.6065 12.4688 22.9688 12.4688C23.331 12.4688 23.625 12.7628 23.625 13.125V13.1637C23.4091 13.1394 23.1906 13.125 22.9688 13.125C22.7469 13.125 22.5284 13.1394 22.3125 13.1637V13.125ZM22.9688 14.4375C25.2781 14.4375 27.1897 16.1529 27.51 18.375H18.4275C18.7477 16.1529 20.6594 14.4375 22.9688 14.4375ZM17.7188 21C17.3565 21 17.0625 20.706 17.0625 20.3438C17.0625 19.9815 17.3565 19.6875 17.7188 19.6875H28.2188C28.581 19.6875 28.875 19.9815 28.875 20.3438C28.875 20.706 28.581 21 28.2188 21H17.7188ZM32.1562 21C31.3005 21 30.5708 20.4514 30.2997 19.6875H37.9503C37.6792 20.4514 36.9495 21 36.0938 21H32.1562ZM6.61566 31.2762L7.21875 31.5774V39.375H5.90625V31.1555C6.14644 31.1292 6.39319 31.1647 6.61566 31.2762ZM34.7812 39.375V31.5774L35.3843 31.2762C35.6081 31.1647 35.8542 31.1292 36.0938 31.1555V39.375H34.7812Z" fill="black"/>
<path d="M11.6767 6.69826L12.0048 7.02639C12.1327 7.15436 12.3007 7.21867 12.4687 7.21867C12.6367 7.21867 12.8048 7.15436 12.9327 7.02639C13.1893 6.7698 13.1893 6.35505 12.9327 6.09845L12.6046 5.77033C12.4655 5.6312 12.3893 5.4468 12.3893 5.24992C12.3893 5.05305 12.4655 4.86864 12.6046 4.72951C13.4033 3.93086 13.4033 2.63148 12.6046 1.83283L12.2765 1.5047C12.0199 1.24811 11.6051 1.24811 11.3485 1.5047C11.0919 1.76129 11.0919 2.17604 11.3485 2.43264L11.6767 2.76076C11.8158 2.89989 11.8919 3.0843 11.8919 3.28117C11.8919 3.47805 11.8158 3.66245 11.6767 3.80158C10.878 4.60023 10.878 5.89961 11.6767 6.69826Z" fill="black"/>
<path d="M9.05166 6.69826L9.37978 7.02639C9.50775 7.15436 9.67575 7.21867 9.84375 7.21867C10.0117 7.21867 10.1797 7.15436 10.3077 7.02639C10.5643 6.7698 10.5643 6.35505 10.3077 6.09845L9.97959 5.77033C9.84047 5.6312 9.76434 5.4468 9.76434 5.24992C9.76434 5.05305 9.84047 4.86864 9.97959 4.72951C10.7782 3.93086 10.7782 2.63148 9.97959 1.83283L9.65147 1.5047C9.39487 1.24811 8.98012 1.24811 8.72353 1.5047C8.46694 1.76129 8.46694 2.17604 8.72353 2.43264L9.05166 2.76076C9.19078 2.89989 9.26691 3.0843 9.26691 3.28117C9.26691 3.47805 9.19078 3.66245 9.05166 3.80158C8.253 4.60023 8.253 5.89961 9.05166 6.69826Z" fill="black"/>
<path d="M6.42666 6.69826L6.75478 7.02639C6.88275 7.15436 7.05075 7.21867 7.21875 7.21867C7.38675 7.21867 7.55475 7.15436 7.68272 7.02639C7.93931 6.7698 7.93931 6.35505 7.68272 6.09845L7.35459 5.77033C7.21547 5.6312 7.13934 5.4468 7.13934 5.24992C7.13934 5.05305 7.21547 4.86864 7.35459 4.72951C8.15325 3.93086 8.15325 2.63148 7.35459 1.83283L7.02647 1.5047C6.76987 1.24811 6.35512 1.24811 6.09853 1.5047C5.84194 1.76129 5.84194 2.17604 6.09853 2.43264L6.42666 2.76076C6.56578 2.89989 6.64191 3.0843 6.64191 3.28117C6.64191 3.47805 6.56578 3.66245 6.42666 3.80158C5.628 4.60023 5.628 5.89961 6.42666 6.69826Z" fill="black"/>
<path d="M24.8017 9.32326L25.1298 9.65139C25.2577 9.77936 25.4257 9.84367 25.5937 9.84367C25.7617 9.84367 25.9298 9.77936 26.0577 9.65139C26.3143 9.3948 26.3143 8.98005 26.0577 8.72345L25.7296 8.39533C25.5905 8.2562 25.5143 8.0718 25.5143 7.87492C25.5143 7.67805 25.5905 7.49364 25.7296 7.35451C26.5283 6.55586 26.5283 5.25648 25.7296 4.45783L25.4015 4.1297C25.1449 3.87311 24.7301 3.87311 24.4735 4.1297C24.2169 4.38629 24.2169 4.80104 24.4735 5.05764L24.8017 5.38576C24.9408 5.52489 25.0169 5.70929 25.0169 5.90617C25.0169 6.10305 24.9408 6.28745 24.8017 6.42658C24.003 7.22523 24.003 8.52461 24.8017 9.32326Z" fill="black"/>
<path d="M22.1767 9.32326L22.5048 9.65139C22.6327 9.77936 22.8007 9.84367 22.9687 9.84367C23.1367 9.84367 23.3048 9.77936 23.4327 9.65139C23.6893 9.3948 23.6893 8.98005 23.4327 8.72345L23.1046 8.39533C22.9655 8.2562 22.8893 8.0718 22.8893 7.87492C22.8893 7.67805 22.9655 7.49364 23.1046 7.35451C23.9033 6.55586 23.9033 5.25648 23.1046 4.45783L22.7765 4.1297C22.5199 3.87311 22.1051 3.87311 21.8485 4.1297C21.5919 4.38629 21.5919 4.80104 21.8485 5.05764L22.1767 5.38576C22.3158 5.52489 22.3919 5.70929 22.3919 5.90617C22.3919 6.10305 22.3158 6.28745 22.1767 6.42658C21.378 7.22523 21.378 8.52461 22.1767 9.32326Z" fill="black"/>
<path d="M19.5517 9.32326L19.8798 9.65139C20.0077 9.77936 20.1757 9.84367 20.3437 9.84367C20.5117 9.84367 20.6798 9.77936 20.8077 9.65139C21.0643 9.3948 21.0643 8.98005 20.8077 8.72345L20.4796 8.39533C20.3405 8.2562 20.2643 8.0718 20.2643 7.87492C20.2643 7.67805 20.3405 7.49364 20.4796 7.35451C21.2783 6.55586 21.2783 5.25648 20.4796 4.45783L20.1515 4.1297C19.8949 3.87311 19.4801 3.87311 19.2235 4.1297C18.9669 4.38629 18.9669 4.80104 19.2235 5.05764L19.5517 5.38576C19.6908 5.52489 19.7669 5.70929 19.7669 5.90617C19.7669 6.10305 19.6908 6.28745 19.5517 6.42658C18.753 7.22523 18.753 8.52461 19.5517 9.32326Z" fill="black"/>
</svg>
