<svg width="32" height="32" viewBox="0 0 32 32" fill="none" xmlns="http://www.w3.org/2000/svg">
<path d="M26.5 10.5H10.5C9.65 10.5 9 9.85 9 9C9 8.15 9.65 7.5 10.5 7.5H26.5C27.35 7.5 28 8.15 28 9C28 9.85 27.35 10.5 26.5 10.5Z" fill="black"/>
<path d="M26.5 17.5H10.5C9.65 17.5 9 16.85 9 16C9 15.15 9.65 14.5 10.5 14.5H26.5C27.35 14.5 28 15.15 28 16C28 16.85 27.35 17.5 26.5 17.5Z" fill="black"/>
<path d="M26.5 24.5H10.5C9.65 24.5 9 23.85 9 23C9 22.15 9.65 21.5 10.5 21.5H26.5C27.35 21.5 28 22.15 28 23C28 23.85 27.35 24.5 26.5 24.5Z" fill="black"/>
<path d="M7 9C7 9.85 6.35 10.5 5.5 10.5C4.65 10.5 4 9.85 4 9C4 8.15 4.65 7.5 5.5 7.5C6.35 7.5 7 8.15 7 9Z" fill="black"/>
<path d="M7 16C7 16.85 6.35 17.5 5.5 17.5C4.65 17.5 4 16.85 4 16C4 15.15 4.65 14.5 5.5 14.5C6.35 14.5 7 15.15 7 16Z" fill="black"/>
<path d="M7 23C7 23.85 6.35 24.5 5.5 24.5C4.65 24.5 4 23.85 4 23C4 22.15 4.65 21.5 5.5 21.5C6.35 21.5 7 22.15 7 23Z" fill="black"/>
</svg>
