<svg width="84" height="84" viewBox="0 0 84 84" fill="none" xmlns="http://www.w3.org/2000/svg">
<g clip-path="url(#clip0_552_15)">
<path d="M71.367 32.7302H69.4098V29.185C71.5034 28.4943 73.0191 26.5208 73.0191 24.199V19.9334C73.0191 19.0275 72.2845 18.2928 71.3785 18.2928H65.8004V14.7476C67.894 14.0569 69.4098 12.0834 69.4098 9.76164V5.49605C69.4098 4.5901 68.6751 3.85544 67.7692 3.85544H60.5505H53.3318C52.4258 3.85544 51.6912 4.5901 51.6912 5.49605V9.76164C51.6912 12.0834 53.2069 14.0569 55.3005 14.7476V18.2928H49.7224C48.8165 18.2928 48.0818 19.0275 48.0818 19.9334V24.199C48.0818 26.5208 49.5976 28.4943 51.6912 29.185V32.7302H40.5235V28.5877C40.5235 26.0659 39.0475 23.8824 36.9142 22.8555V17.579C36.9142 15.4175 35.6365 13.5495 33.797 12.6883V8.43028C33.797 6.43268 32.4862 4.73612 30.6798 4.1537V1.64061C30.6798 0.734666 29.9453 0 29.0392 0C28.1331 0 27.3986 0.734666 27.3986 1.64061V3.93747H24.1174V1.64061C24.1174 0.734666 23.3829 0 22.4768 0C21.5707 0 20.8362 0.734666 20.8362 1.64061V4.1537C19.0299 4.73612 17.719 6.43268 17.719 8.43028V12.6885C15.8796 13.5497 14.6018 15.4175 14.6018 17.5792V22.8557C12.4686 23.8826 10.9925 26.066 10.9925 28.5878V32.8954C7.25273 33.6576 4.43005 36.9718 4.43005 40.9334V78.3461C4.43005 78.6504 4.51471 78.9489 4.67467 79.2079C6.52708 82.2086 9.73514 84.0002 13.2565 84.0002C16.0092 84.0002 18.5707 82.9052 20.4424 80.9942C22.3144 82.9052 24.8757 84.0002 27.6283 84.0002C30.3811 84.0002 32.9423 82.9055 34.8142 80.9941C36.6861 82.9055 39.2473 84.0002 42.0001 84.0002C44.7525 84.0002 47.3142 82.9052 49.186 80.9942C51.0577 82.9052 53.6192 84.0002 56.3718 84.0002C59.1245 84.0002 61.6858 82.9055 63.5579 80.9941C65.4297 82.9055 67.991 84.0002 70.7438 84.0002C74.2652 84.0002 77.4734 82.2086 79.3258 79.2079C79.4856 78.9489 79.5703 78.6506 79.5703 78.3461V40.9333C79.5701 36.4101 75.8902 32.7302 71.367 32.7302ZM7.71128 40.9333C7.71128 39.7071 8.16294 38.5852 8.90728 37.7228C11.5186 38.8316 14.1748 39.8024 16.8644 40.6365L14.6694 48.6914L18.9426 46.7384L21.6342 50.5894L23.8442 42.4791C26.4202 43.0423 29.0174 43.4834 31.627 43.8039L30.5863 51.4617L34.5678 48.9673L37.7392 52.4338L38.8337 44.3804C39.8888 44.4196 40.9445 44.4397 42.0002 44.4397C43.0558 44.4397 44.1114 44.4196 45.1665 44.3804L46.2609 52.4338L49.4324 48.9673L53.4138 51.4617L52.3732 43.8037C54.9826 43.4833 57.5798 43.042 60.1557 42.4787L62.366 50.5894L65.0576 46.7384L69.3307 48.6914L67.1357 40.6365C69.8257 39.8022 72.482 38.8318 75.0934 37.7231C75.8375 38.5856 76.2892 39.7074 76.2892 40.9333V66.8942C75.0125 68.696 72.9707 69.759 70.7439 69.759C68.3688 69.759 66.2043 68.5499 64.954 66.5245C64.6553 66.0404 64.127 65.7457 63.558 65.7457C62.9891 65.7457 62.4608 66.0404 62.162 66.5245C60.9117 68.5499 58.7473 69.759 56.372 69.759C53.9969 69.759 51.8324 68.5499 50.5821 66.5245C50.2834 66.0404 49.7551 65.7457 49.1861 65.7457C48.6172 65.7457 48.0889 66.0404 47.7901 66.5245C46.5398 68.5499 44.3753 69.759 42.0002 69.759C39.6251 69.759 37.4607 68.5499 36.2104 66.5245C35.9114 66.0404 35.3832 65.7457 34.8144 65.7457C34.2456 65.7457 33.7171 66.0404 33.4184 66.5245C32.168 68.5499 30.0036 69.759 27.6285 69.759C25.2534 69.759 23.0891 68.5499 21.8386 66.5245C21.5397 66.0404 21.0114 65.7457 20.4426 65.7457C19.8738 65.7457 19.3454 66.0404 19.0466 66.5245C17.7963 68.5499 15.632 69.759 13.2567 69.759C11.0297 69.759 8.98817 68.696 7.71144 66.894L7.71128 40.9333ZM70.5292 36.0114C52.1761 42.8731 31.8248 42.874 13.4702 36.0114H70.5292ZM60.5505 13.5687C61.106 14.0956 61.776 14.5025 62.5192 14.7478V18.2928H58.5817V14.7476C59.3251 14.5024 59.995 14.0956 60.5505 13.5687ZM58.5817 21.574H62.5192V24.199C62.5192 25.2846 61.6361 26.1678 60.5505 26.1678C59.4649 26.1678 58.5817 25.2846 58.5817 24.199V21.574ZM62.1911 32.7302V29.185C62.9343 28.9397 63.6043 28.533 64.1598 28.0059C64.7153 28.5329 65.3854 28.9397 66.1286 29.185V32.7302H62.1911ZM69.7379 24.199C69.7379 25.2846 68.8548 26.1678 67.7692 26.1678C66.6836 26.1678 65.8004 25.2846 65.8004 24.199V21.574H69.7379V24.199ZM66.1286 9.76164C66.1286 10.8472 65.2454 11.7304 64.1598 11.7304C63.0742 11.7304 62.1911 10.8472 62.1911 9.76164V7.13666H66.1286V9.76164ZM54.9724 7.13666H58.9099V9.76164C58.9099 10.8472 58.0267 11.7304 56.9411 11.7304C55.8555 11.7304 54.9724 10.8472 54.9724 9.76164V7.13666ZM51.363 21.574H55.3005V24.199C55.3005 25.2846 54.4174 26.1678 53.3318 26.1678C52.2462 26.1678 51.363 25.2846 51.363 24.199V21.574ZM54.9724 29.185C55.7156 28.9397 56.3856 28.533 56.9411 28.0059C57.4966 28.5329 58.1667 28.9397 58.9099 29.185V32.7302H54.9724V29.185ZM17.8831 17.579C17.8831 16.4122 18.8325 15.4628 19.9993 15.4628H31.5167C32.6835 15.4628 33.633 16.4122 33.633 17.579V22.2303H17.8831V17.579ZM21.0002 8.43028C21.0002 7.76223 21.5436 7.21869 22.2117 7.21869H29.3042C29.9723 7.21869 30.5156 7.76206 30.5156 8.43028V12.1815H21.0001L21.0002 8.43028ZM14.2737 28.5877C14.2737 26.8914 15.6536 25.5115 17.3499 25.5115H34.1661C35.8624 25.5115 37.2423 26.8914 37.2423 28.5877V32.7302H14.2737V28.5877ZM70.7436 80.7188C68.3685 80.7188 66.204 79.5096 64.9539 77.4841C64.655 77.0002 64.1267 76.7053 63.5577 76.7053C62.9888 76.7053 62.4605 77.0002 62.1617 77.4841C60.9112 79.5096 58.7468 80.7188 56.3717 80.7188C53.9964 80.7188 51.8321 79.5096 50.5818 77.4841C50.283 77.0002 49.7548 76.7053 49.1858 76.7053C48.6168 76.7053 48.0885 77.0002 47.7896 77.4841C46.5395 79.5096 44.375 80.7188 41.9999 80.7188C39.6248 80.7188 37.4603 79.5096 36.21 77.4841C35.9113 77.0002 35.3828 76.7053 34.814 76.7053C34.2452 76.7053 33.7168 77.0002 33.418 77.4841C32.1677 79.5096 30.0033 80.7188 27.6281 80.7188C25.253 80.7188 23.0886 79.5096 21.8383 77.4841C21.5395 77.0002 21.0111 76.7053 20.4423 76.7053C19.8735 76.7053 19.345 77.0002 19.0463 77.4841C17.796 79.5096 15.6317 80.7188 13.2564 80.7188C11.0294 80.7188 8.98784 79.6558 7.71111 77.8538V71.3861C9.32646 72.4519 11.2399 73.0404 13.2564 73.0404C16.0092 73.0404 18.5703 71.9458 20.4423 70.0344C22.3142 71.9458 24.8754 73.0404 27.6281 73.0404C30.3809 73.0404 32.9421 71.9458 34.814 70.0344C36.686 71.9458 39.2471 73.0404 41.9999 73.0404C44.7525 73.0404 47.3138 71.9458 49.1858 70.0344C51.0577 71.9458 53.6189 73.0404 56.3717 73.0404C59.1245 73.0404 61.6858 71.9458 63.5577 70.0344C65.4297 71.9458 67.9908 73.0404 70.7436 73.0404C72.7602 73.0404 74.6735 72.4519 76.2889 71.3861V77.8538C75.0123 79.6558 72.9706 80.7188 70.7436 80.7188Z" fill="black"/>
</g>
<defs>
<clipPath id="clip0_552_15">
<rect width="84" height="84" fill="white"/>
</clipPath>
</defs>
</svg>
