<svg width="32" height="32" viewBox="0 0 32 32" fill="none" xmlns="http://www.w3.org/2000/svg">
<path d="M26.5 4.00001H25V3.50001C25 1.51801 22 1.51551 22 3.50001V4.00001H20V3.50001C20 1.51801 17 1.51551 17 3.50001V4.00001H15V3.50001C15 1.51801 12 1.51551 12 3.50001V4.00001H10V3.50001C10 1.51801 7 1.51551 7 3.50001V4.00001H5.5C4.57207 4.00109 3.68246 4.37019 3.02632 5.02633C2.37018 5.68248 2.00108 6.57209 2 7.50001V26.5C2.00108 27.4279 2.37018 28.3175 3.02632 28.9737C3.68246 29.6298 4.57207 29.9989 5.5 30H26.5C27.4279 29.9989 28.3175 29.6298 28.9737 28.9737C29.6298 28.3175 29.9989 27.4279 30 26.5V7.50001C29.9989 6.57209 29.6298 5.68248 28.9737 5.02633C28.3175 4.37019 27.4279 4.00109 26.5 4.00001ZM5.5 7.00001H7V7.50001C7 9.48201 10 9.48451 10 7.50001V7.00001H12V7.50001C12 9.48201 15 9.48451 15 7.50001V7.00001H17V7.50001C17 9.48201 20 9.48451 20 7.50001V7.00001H22V7.50001C22 9.48201 25 9.48451 25 7.50001V7.00001H26.5C26.6326 7.00014 26.7597 7.05286 26.8534 7.1466C26.9471 7.24034 26.9999 7.36744 27 7.50001V11.5H5V7.50001C5.00013 7.36744 5.05285 7.24034 5.14659 7.1466C5.24033 7.05286 5.36743 7.00014 5.5 7.00001ZM26.5 27H5.5C5.36743 26.9999 5.24033 26.9472 5.14659 26.8534C5.05285 26.7597 5.00013 26.6326 5 26.5V14.5H27V26.5C26.9999 26.6326 26.9471 26.7597 26.8534 26.8534C26.7597 26.9472 26.6326 26.9999 26.5 27Z" fill="black"/>
</svg>
