<svg width="32" height="32" viewBox="0 0 32 32" fill="none" xmlns="http://www.w3.org/2000/svg">
<path d="M26.125 27.5H5.875C4.84693 27.4981 3.86158 27.0885 3.13513 26.3611C2.40867 25.6336 2.00044 24.6477 2 23.6196V11.6748C2.00034 10.6467 2.40852 9.66063 3.13498 8.93307C3.86145 8.20551 4.84685 7.79584 5.875 7.79394H9.49683C9.57775 7.56434 10.155 5.87269 10.281 5.66552C10.4983 5.31066 10.8028 5.01728 11.1654 4.81327C11.5281 4.60927 11.9369 4.50143 12.353 4.5H19.647C20.0631 4.50143 20.4719 4.60927 20.8346 4.81327C21.1973 5.01727 21.5017 5.31064 21.719 5.6655C21.845 5.87267 22.4223 7.56432 22.5032 7.79392H26.125C27.1532 7.79582 28.1386 8.20549 28.865 8.93306C29.5915 9.66062 29.9997 10.6467 30 11.6748V23.6196C29.9996 24.6477 29.5913 25.6336 28.8649 26.3611C28.1384 27.0885 27.1531 27.4981 26.125 27.5ZM5.875 10.7939C5.64224 10.795 5.41939 10.8883 5.25535 11.0534C5.09131 11.2186 4.99948 11.442 5 11.6748V23.6196C4.99958 23.8523 5.09146 24.0757 5.25549 24.2407C5.41952 24.4058 5.64231 24.499 5.875 24.5H26.125C26.3577 24.499 26.5805 24.4058 26.7445 24.2407C26.9085 24.0757 27.0004 23.8523 27 23.6196V11.6748C27.0005 11.442 26.9087 11.2186 26.7447 11.0534C26.5806 10.8883 26.3578 10.795 26.125 10.7939H22.0752C21.6593 10.7925 21.2507 10.6848 20.8882 10.4811C20.5256 10.2773 20.2212 9.98435 20.0037 9.62988C19.8772 9.42183 19.2997 7.7296 19.2188 7.5H12.7812C12.7003 7.7296 12.1227 9.42183 11.9963 9.62988C11.7788 9.98435 11.4744 10.2773 11.1118 10.4811C10.7493 10.6848 10.3407 10.7925 9.9248 10.7939H5.875Z" fill="black"/>
<path d="M16 23C14.8133 23 13.6533 22.6481 12.6666 21.9888C11.6799 21.3295 10.9109 20.3925 10.4567 19.2961C10.0026 18.1997 9.88378 16.9933 10.1153 15.8295C10.3468 14.6656 10.9182 13.5965 11.7574 12.7574C12.5965 11.9182 13.6656 11.3468 14.8295 11.1153C15.9933 10.8838 17.1997 11.0026 18.2961 11.4567C19.3925 11.9109 20.3295 12.6799 20.9888 13.6666C21.6481 14.6533 22 15.8133 22 17C21.9982 18.5908 21.3655 20.1158 20.2407 21.2407C19.1158 22.3655 17.5908 22.9982 16 23ZM16 14C15.4067 14 14.8266 14.1759 14.3333 14.5056C13.8399 14.8352 13.4554 15.3038 13.2284 15.852C13.0013 16.4001 12.9419 17.0033 13.0576 17.5853C13.1734 18.1672 13.4591 18.7018 13.8787 19.1213C14.2982 19.5409 14.8328 19.8266 15.4147 19.9424C15.9967 20.0581 16.5999 19.9987 17.1481 19.7716C17.6962 19.5446 18.1648 19.1601 18.4944 18.6667C18.8241 18.1734 19 17.5933 19 17C18.9991 16.2046 18.6828 15.4421 18.1204 14.8796C17.5579 14.3172 16.7954 14.0009 16 14Z" fill="black"/>
</svg>
