<svg width="32" height="32" viewBox="0 0 32 32" fill="none" xmlns="http://www.w3.org/2000/svg">
<path d="M16 30C8.25 30 2 23.75 2 16C2 8.25 8.25 2 16 2C23.75 2 30 8.25 30 16C30 23.75 23.75 30 16 30ZM16 5C9.9 5 5 9.9 5 16C5 22.1 9.9 27 16 27C22.1 27 27 22.1 27 16C27 9.95 22.05 5 16 5Z" fill="black"/>
<path d="M21.5499 19.45C22.1499 20.05 22.15 21 21.6 21.55C21.05 22.1 20.05 22.15 19.5 21.6C19.5 21.6 19.5 21.6 19.45 21.55L16 18.1L12.55 21.55C11.95 22.15 11 22.1 10.45 21.5C9.89995 20.9 9.89995 20 10.45 19.4L13.9 15.95L10.45 12.5C9.84995 11.9 9.89995 10.95 10.5 10.4C11.1 9.85002 12 9.85002 12.6 10.4L16.0499 13.85L19.5 10.4C20.1 9.80002 21.05 9.85002 21.6 10.45C22.15 11.05 22.15 11.95 21.6 12.55L18.1 16L21.5499 19.45Z" fill="black"/>
</svg>
