<svg width="32" height="32" viewBox="0 0 32 32" fill="none" xmlns="http://www.w3.org/2000/svg">
<path d="M27.6326 6.5H9.18381L8.71981 4.41846C8.61373 3.88359 8.32737 3.4013 7.90853 3.05214C7.48969 2.70298 6.96374 2.50808 6.41852 2.5H3.25006C1.59856 2.5 1.59606 5 3.25006 5H6.28815L10.3186 23.0801C10.4248 23.6153 10.7114 24.098 11.1306 24.4474C11.5497 24.7968 12.076 24.9919 12.6216 25H25.7501C27.4016 25 27.4041 22.5 25.7501 22.5H12.7506L12.3047 20.5H25.8951C26.4545 20.4844 26.9912 20.2753 27.4138 19.9084C27.8364 19.5415 28.1187 19.0395 28.2127 18.4878L29.95 9.54346C30.0323 9.18764 30.0351 8.81806 29.9584 8.46101C29.8816 8.10396 29.7271 7.76821 29.5059 7.47765C29.2846 7.18708 29.0021 6.94884 28.6783 6.77987C28.3545 6.61089 27.9975 6.51534 27.6326 6.5ZM25.7537 18H11.7474L9.74112 9H27.4984C27.505 9.0505 25.7635 17.95 25.7537 18Z" fill="black"/>
<path d="M16 27.75C16 28.0961 15.8974 28.4345 15.7051 28.7222C15.5128 29.01 15.2395 29.2343 14.9197 29.3668C14.5999 29.4992 14.2481 29.5339 13.9086 29.4664C13.5691 29.3988 13.2573 29.2322 13.0126 28.9874C12.7678 28.7427 12.6012 28.4309 12.5336 28.0914C12.4661 27.7519 12.5008 27.4001 12.6332 27.0803C12.7657 26.7605 12.99 26.4872 13.2778 26.2949C13.5655 26.1026 13.9039 26 14.25 26C14.7141 26 15.1592 26.1844 15.4874 26.5126C15.8156 26.8408 16 27.2859 16 27.75Z" fill="black"/>
<path d="M25 27.75C25 28.0961 24.8974 28.4345 24.7051 28.7222C24.5128 29.01 24.2395 29.2343 23.9197 29.3668C23.5999 29.4992 23.2481 29.5339 22.9086 29.4664C22.5691 29.3988 22.2573 29.2322 22.0126 28.9874C21.7678 28.7427 21.6012 28.4309 21.5336 28.0914C21.4661 27.7519 21.5008 27.4001 21.6332 27.0803C21.7657 26.7605 21.99 26.4872 22.2778 26.2949C22.5655 26.1026 22.9039 26 23.25 26C23.7141 26 24.1592 26.1844 24.4874 26.5126C24.8156 26.8408 25 27.2859 25 27.75Z" fill="black"/>
<path d="M24.7501 13H12.7501C11.0986 13 11.096 10.5 12.7501 10.5H24.7501C26.4016 10.5 26.4041 13 24.7501 13Z" fill="black"/>
<path d="M23.7501 16.5H13.2501C11.5986 16.5 11.596 14 13.2501 14H23.7501C25.4016 14 25.4041 16.5 23.7501 16.5Z" fill="black"/>
</svg>
