<svg width="106" height="106" viewBox="0 0 106 106" fill="none" xmlns="http://www.w3.org/2000/svg">
<g clip-path="url(#clip0_602_2378)">
<path d="M104.344 96.0621H97.7188V91.3799C98.4217 91.3146 99.1171 91.2142 99.7891 91.0407C100.578 90.8369 101.101 90.0905 101.023 89.2801L98.1944 59.5472C98.2274 59.5373 98.2579 59.5211 98.2902 59.5091C98.3334 59.4931 98.3746 59.4785 98.416 59.459C99.0234 59.2142 99.3129 58.5851 99.375 57.9682V39.7494H101.031C101.947 39.7494 102.688 39.0078 102.688 38.0932V31.4682C102.644 30.9014 102.363 30.3966 101.905 30.061L53.8733 0.248686C53.338 -0.0828953 52.662 -0.0828953 52.1265 0.248686L4.09541 30.0612C3.63696 30.3969 3.35589 30.9019 3.3125 31.4683V38.0933C3.3125 39.0079 4.05417 39.7496 4.96875 39.7496H6.625V57.9683C6.6886 58.5838 6.97728 59.2125 7.58298 59.4581C7.62554 59.4782 7.66778 59.4931 7.71216 59.5096C7.74363 59.5212 7.77344 59.5371 7.80574 59.5469L4.9762 89.2802C4.89935 90.0906 5.42256 90.8369 6.2111 91.0408C6.88337 91.2144 7.57867 91.3146 8.28142 91.38V96.0622H1.65625C0.741669 96.0622 0 96.8039 0 97.7185V104.343C0 105.258 0.741669 106 1.65625 106H104.344C105.259 106 106 105.258 106 104.343V97.7185C106 96.8039 105.259 96.0621 104.344 96.0621ZM18.2188 96.0621V88.3496C18.5778 88.0607 18.9258 87.7596 19.2572 87.4282L19.3899 87.2955C19.7231 86.9623 19.8985 86.5039 19.8727 86.034L19.8263 85.1517L20.8755 85.3602C21.3067 85.4508 21.7328 85.4952 22.1775 85.4952C24.6102 85.4952 26.8882 84.0824 27.9817 81.8963C28.1402 81.5785 28.1927 81.2178 28.1312 80.8685L23.5489 54.8692C28.2555 51.6294 31.9323 46.9096 33.8327 41.2082L33.8645 41.1132C35.5143 42.3318 37.546 43.0619 39.7502 43.0619H42.9669C44.2326 44.0749 45.8621 44.5486 47.4782 44.3453C48.3863 46.5175 50.5271 48.0307 53.0002 48.0307C55.4733 48.0307 57.6146 46.5175 58.5221 44.3453C60.1459 44.5535 61.773 44.0772 63.0362 43.0619H66.2502C68.4545 43.0619 70.4867 42.3317 72.1365 41.1127L72.1683 41.2082C74.0688 46.9096 77.7455 51.6297 82.4519 54.8695L77.8696 80.8685C77.8065 81.2178 77.8598 81.5785 78.0183 81.8963C79.1118 84.0823 81.3906 85.4952 83.8233 85.4952C84.2682 85.4952 84.6935 85.4507 85.1076 85.3642L86.1745 85.1519L86.1281 86.0338C86.1023 86.5037 86.2769 86.963 86.6101 87.2954L86.7428 87.428C87.0755 87.7613 87.424 88.0627 87.7812 88.3499V96.0617L18.2188 96.0621ZM9.72716 88.1424C9.69635 88.1457 9.66488 88.1464 9.63408 88.1464C9.2273 88.1455 8.81721 88.1293 8.4169 88.0849L11.1419 59.455C12.4959 59.3114 13.8239 59.0711 15.1183 58.7322L16.5226 85.4566C16.2347 85.7147 15.9306 85.954 15.5966 86.1869C13.9299 87.383 11.9041 88.0728 9.72716 88.1424ZM20.5075 56.698L24.7629 80.8405C24.0473 81.8409 22.8326 82.3884 21.5394 82.115L19.6464 81.7385L18.3789 57.6584C19.1024 57.3661 19.8147 57.0506 20.5075 56.698ZM6.625 36.4371V33.1246H29.8125C29.8125 34.2874 30.0237 35.3993 30.3922 36.4371H6.625ZM69.5625 31.4683H72.875V33.1246C72.875 36.7776 69.9039 39.7496 66.25 39.7496H65.1231C65.5176 38.0185 65.1178 36.1908 64.0439 34.7808C64.1727 34.6116 64.2806 34.4302 64.3899 34.2498C66.0203 33.7099 67.4345 32.7849 68.5515 31.5785C68.8849 31.5275 69.2155 31.4683 69.5625 31.4683ZM67.9062 24.8433C67.9062 27.0129 66.8489 28.9608 65.1811 30.1808C65.0683 29.4858 64.8457 28.7995 64.474 28.1567C63.4721 26.4204 61.7177 25.3819 59.8438 25.2075C61.0702 23.936 62.757 23.1871 64.5938 23.1871H67.9062V24.8433ZM55.6704 27.3852C55.7012 27.9432 56.0117 28.4478 56.4952 28.7269C56.9805 29.0075 57.5708 29.0229 58.069 28.7715C59.3499 28.1293 60.8995 28.5879 61.6047 29.8122C62.3131 31.039 61.933 32.6136 60.7393 33.3957C60.2719 33.7015 59.9905 34.2222 59.9905 34.781C59.9905 35.3398 60.2719 35.8607 60.7393 36.1663C61.933 36.9484 62.3131 38.523 61.6047 39.7506C61.5009 39.9303 61.3742 40.088 61.2374 40.2337L61.2347 40.2362C60.4404 41.0792 59.1578 41.3371 58.0691 40.7905C57.5709 40.539 56.9806 40.5544 56.4954 40.8351C56.0117 41.1142 55.7012 41.6187 55.6705 42.1768C55.5897 43.6019 54.4179 44.7187 53.0002 44.7187C51.5832 44.7187 50.4106 43.6019 50.3306 42.176C50.2992 41.618 49.9886 41.1142 49.505 40.8343C49.2494 40.687 48.9631 40.6127 48.6769 40.6127C48.4213 40.6127 48.1657 40.6716 47.9304 40.7905C46.8437 41.3386 45.5588 41.081 44.7636 40.235C44.6263 40.0888 44.499 39.9303 44.3948 39.7497C43.6864 38.5221 44.0665 36.9484 45.2608 36.1663C45.7282 35.8605 46.0096 35.3398 46.0096 34.781C46.0096 34.2222 45.7282 33.7013 45.2608 33.3957C44.0664 32.6136 43.6862 31.0399 44.3948 29.8122C45.1023 28.5855 46.6559 28.1285 47.9305 28.7715C48.4287 29.023 49.0207 29.006 49.5051 28.7277C49.9888 28.448 50.2993 27.9442 50.3308 27.386C50.4108 25.9603 51.5834 24.8433 53.0003 24.8433C54.4181 24.8433 55.5895 25.9601 55.6704 27.3852ZM41.5252 28.1558C41.1542 28.7991 40.9317 29.4856 40.8188 30.1804C39.1509 28.9604 38.0938 27.0129 38.0938 24.8433V23.1871H41.4062C43.2444 23.1871 44.9327 23.937 46.159 25.2104C44.287 25.3864 42.5284 26.4189 41.5252 28.1558ZM37.449 31.5785C38.5658 32.7844 39.9792 33.7091 41.609 34.2492C41.7183 34.4299 41.8264 34.6114 41.9555 34.7808C40.8816 36.1908 40.4819 38.0183 40.8764 39.7496H39.75C36.097 39.7496 33.125 36.7776 33.125 33.1246V31.4683H36.4375C36.785 31.4683 37.1154 31.5276 37.449 31.5785ZM94.8596 59.4551L97.5829 88.0849C97.2126 88.1253 96.8389 88.1455 96.4605 88.1455C96.399 88.1447 96.3328 88.1488 96.1095 88.1293C94.0959 88.0727 92.0691 87.3828 90.3839 86.1738C90.0636 85.9497 89.7628 85.7128 89.4764 85.4564L90.8829 58.7324C92.1773 59.0712 93.5056 59.3115 94.8596 59.4551ZM86.3544 81.7383L84.4429 82.1189C83.2493 82.3647 81.9521 81.8392 81.2372 80.8395L85.4918 56.6973C86.1846 57.0501 86.8973 57.366 87.6211 57.6584L86.3544 81.7383ZM91.0939 90.3222C92.1725 90.7871 93.2826 91.113 94.4064 91.2762V96.0621H91.0939V90.3222ZM96.0627 54.6784C93.6858 52.6576 90.3445 49.0869 89.4054 44.393C89.2275 43.497 88.3654 42.9155 87.4563 43.0942C86.5603 43.2738 85.9779 44.1464 86.1575 45.0433C87.0715 49.6144 89.7747 53.2084 92.2389 55.6612C84.4153 53.8012 77.9368 48.0401 75.3094 40.1603L75.1724 39.7496H96.0627V54.6784ZM99.3752 36.4369H75.608C75.9765 35.3991 76.1877 34.2873 76.1877 33.1244H99.3752V36.4369ZM53 3.60491L95.2223 29.8121H76.1875C76.1875 28.8975 75.4467 28.1558 74.5312 28.1558H70.6526C71.0193 27.1145 71.2188 25.9991 71.2188 24.8433V21.5308C71.2188 20.6163 70.4779 19.8746 69.5625 19.8746H64.5938C61.6794 19.8746 59.0074 21.1163 57.1522 23.2263C56.0723 22.1794 54.61 21.5308 53 21.5308C51.39 21.5308 49.9278 22.1796 48.8479 23.2267C46.9921 21.1164 44.3201 19.8746 41.4062 19.8746H36.4375C35.5229 19.8746 34.7812 20.6163 34.7812 21.5308V24.8433C34.7812 25.9991 34.9807 27.1145 35.3475 28.1558H31.4688C30.5542 28.1558 29.8125 28.8975 29.8125 29.8121H10.7777L53 3.60491ZM30.827 39.7496L30.69 40.1603C28.0638 48.0403 21.5854 53.8014 13.761 55.6613C16.2253 53.2088 18.9286 49.6145 19.8425 45.0433C20.0221 44.1464 19.4406 43.2738 18.5437 43.0942C17.6396 42.9122 16.7735 43.4962 16.5946 44.393C15.6603 49.0647 12.3164 52.6418 9.93733 54.6702V39.7494L30.827 39.7496ZM11.5938 91.2744C12.7382 91.1036 13.8443 90.775 14.9062 90.3197V96.0621H11.5938V91.2744ZM102.688 102.687H3.3125V99.3746H102.688V102.687Z" fill="black"/>
<path d="M59.625 59.625C57.4366 59.625 55.0364 60.3642 53 61.6378C50.9653 60.3642 48.5642 59.625 46.375 59.625C40.8951 59.625 36.4375 64.0826 36.4375 69.5625C36.4375 82.3378 51.9794 85.9382 52.6409 86.0854C52.759 86.1121 52.8794 86.125 53 86.125C53.1206 86.125 53.241 86.1121 53.3591 86.0854C54.0206 85.9382 69.5625 82.3378 69.5625 69.5625C69.5625 64.0826 65.1049 59.625 59.625 59.625ZM53 82.76C50.8391 82.1777 39.75 78.7358 39.75 69.5625C39.75 65.9095 42.722 62.9375 46.375 62.9375C48.2343 62.9375 50.3353 63.6952 51.9932 64.9649C52.5868 65.4194 53.4116 65.4194 54.0068 64.9649C55.6656 63.6952 57.7665 62.9375 59.625 62.9375C63.2789 62.9375 66.25 65.9095 66.25 69.5625C66.25 78.7358 55.1609 82.1777 53 82.76Z" fill="black"/>
<path d="M48.0312 34.7812C48.0312 37.5212 50.2601 39.75 53 39.75C55.7399 39.75 57.9688 37.5212 57.9688 34.7812C57.9688 32.0413 55.7399 29.8125 53 29.8125C50.2601 29.8125 48.0312 32.0413 48.0312 34.7812ZM54.6562 34.7812C54.6562 35.6943 53.9131 36.4375 53 36.4375C52.0869 36.4375 51.3438 35.6943 51.3438 34.7812C51.3438 33.8682 52.0869 33.125 53 33.125C53.9131 33.125 54.6562 33.8682 54.6562 34.7812Z" fill="black"/>
</g>
<defs>
<clipPath id="clip0_602_2378">
<rect width="106" height="106" fill="white"/>
</clipPath>
</defs>
</svg>
