<svg width="48" height="48" viewBox="0 0 48 48" fill="none" xmlns="http://www.w3.org/2000/svg">
<g clip-path="url(#clip0_218_712)">
<path d="M30.3196 1.29441C28.6798 -0.345611 25.9007 -0.538372 24.0001 1.36092C22.1015 -0.536396 19.3219 -0.347022 17.6806 1.29441C15.9525 3.02248 15.9524 5.81934 17.6806 7.54741L23.0023 12.8691C23.5533 13.4202 24.4468 13.4203 24.9979 12.8691L30.3195 7.54741C32.0477 5.81934 32.0478 3.02248 30.3196 1.29441Z" fill="black"/>
<path d="M6.15995 28.8724C6.72637 31.2816 8.47909 33.3034 10.8596 34.1664L9.27836 44.15L5.46877 43.5466C4.69943 43.4245 3.97617 43.9499 3.85425 44.7196C3.73233 45.4893 4.25746 46.2122 5.02728 46.3341C11.858 47.416 15.4844 48 15.6565 48C16.3384 48 16.9384 47.5044 17.0485 46.8095C17.1704 46.0397 16.6453 45.3169 15.8755 45.195L12.0659 44.5916L13.6467 34.6102C17.0562 34.5015 20.1563 31.9988 20.7351 28.3438L21.3056 24.7419L6.15995 28.8724Z" fill="black"/>
<path d="M21.7899 21.6844L22.3835 17.937C22.5054 17.1672 21.9802 16.4444 21.2104 16.3225L9.31704 14.4387C8.5476 14.3167 7.82444 14.8419 7.70252 15.6117L6.06128 25.974L21.7899 21.6844Z" fill="black"/>
<path d="M26.2103 21.6844L41.939 25.974L40.2976 15.6118C40.1756 14.8419 39.4528 14.3168 38.6831 14.4387L26.7897 16.3225C26.0199 16.4444 25.4948 17.1672 25.6167 17.937L26.2103 21.6844Z" fill="black"/>
<path d="M42.5313 43.5466L38.7217 44.15L37.1405 34.1664C39.521 33.3035 41.2737 31.2816 41.8401 28.8724L26.6943 24.7419L27.2648 28.3437C27.8434 31.9969 30.9417 34.5014 34.3532 34.6101L35.934 44.5915L32.1245 45.1949C31.3546 45.3168 30.8295 46.0396 30.9514 46.8094C31.0723 47.5726 31.7895 48.105 32.566 47.9824C38.0079 47.1205 25.6271 49.0814 42.9727 46.3341C43.7425 46.2122 44.2676 45.4893 44.1457 44.7196C44.0239 43.9498 43.3008 43.4252 42.5313 43.5466Z" fill="black"/>
</g>
<defs>
<clipPath id="clip0_218_712">
<rect width="48" height="48" fill="white"/>
</clipPath>
</defs>
</svg>
