<svg width="28" height="28" viewBox="0 0 28 28" fill="none" xmlns="http://www.w3.org/2000/svg">
<path d="M20.5568 11.2234H14.4318C13.9535 11.2234 13.5568 10.8267 13.5568 10.3484C13.5568 9.87006 13.9535 9.47339 14.4318 9.47339H20.5568C21.0351 9.47339 21.4318 9.87006 21.4318 10.3484C21.4318 10.8267 21.0468 11.2234 20.5568 11.2234Z" fill="#939693"/>
<path d="M8.30617 12.1102C8.0845 12.1102 7.86283 12.0285 7.68783 11.8535L6.81283 10.9785C6.4745 10.6401 6.4745 10.0801 6.81283 9.74179C7.15117 9.40345 7.71117 9.40345 8.0495 9.74179L8.30617 9.99845L10.3128 7.99179C10.6512 7.65345 11.2112 7.65345 11.5495 7.99179C11.8879 8.33012 11.8879 8.89012 11.5495 9.22845L8.9245 11.8535C8.76117 12.0168 8.5395 12.1102 8.30617 12.1102Z" fill="#939693"/>
<path d="M20.5568 19.3901H14.4318C13.9535 19.3901 13.5568 18.9935 13.5568 18.5151C13.5568 18.0368 13.9535 17.6401 14.4318 17.6401H20.5568C21.0351 17.6401 21.4318 18.0368 21.4318 18.5151C21.4318 18.9935 21.0468 19.3901 20.5568 19.3901Z" fill="#939693"/>
<path d="M8.30617 20.2766C8.0845 20.2766 7.86283 20.195 7.68783 20.02L6.81283 19.145C6.4745 18.8066 6.4745 18.2466 6.81283 17.9083C7.15117 17.57 7.71117 17.57 8.0495 17.9083L8.30617 18.165L10.3128 16.1583C10.6512 15.82 11.2112 15.82 11.5495 16.1583C11.8879 16.4966 11.8879 17.0566 11.5495 17.395L8.9245 20.02C8.76117 20.1833 8.5395 20.2766 8.30617 20.2766Z" fill="#939693"/>
<path d="M17.5 26.5416H10.5C4.165 26.5416 1.45833 23.8349 1.45833 17.4999V10.4999C1.45833 4.16492 4.165 1.45825 10.5 1.45825H17.5C23.835 1.45825 26.5417 4.16492 26.5417 10.4999V17.4999C26.5417 23.8349 23.835 26.5416 17.5 26.5416ZM10.5 3.20825C5.12167 3.20825 3.20833 5.12159 3.20833 10.4999V17.4999C3.20833 22.8783 5.12167 24.7916 10.5 24.7916H17.5C22.8783 24.7916 24.7917 22.8783 24.7917 17.4999V10.4999C24.7917 5.12159 22.8783 3.20825 17.5 3.20825H10.5Z" fill="#939693"/>
</svg>
