<svg width="24" height="24" viewBox="0 0 24 24" fill="none" xmlns="http://www.w3.org/2000/svg">
<g clip-path="url(#clip0_309_2000)">
<path d="M22.25 6H16.75C15.785 6 15 5.215 15 4.25V1.75C15 0.785 15.785 0 16.75 0H22.25C23.215 0 24 0.785 24 1.75V4.25C24 5.215 23.215 6 22.25 6ZM16.75 1.5C16.612 1.5 16.5 1.612 16.5 1.75V4.25C16.5 4.388 16.612 4.5 16.75 4.5H22.25C22.388 4.5 22.5 4.388 22.5 4.25V1.75C22.5 1.612 22.388 1.5 22.25 1.5H16.75Z" fill="black"/>
<path d="M22.25 15H16.75C15.785 15 15 14.215 15 13.25V10.75C15 9.785 15.785 9 16.75 9H22.25C23.215 9 24 9.785 24 10.75V13.25C24 14.215 23.215 15 22.25 15ZM16.75 10.5C16.612 10.5 16.5 10.612 16.5 10.75V13.25C16.5 13.388 16.612 13.5 16.75 13.5H22.25C22.388 13.5 22.5 13.388 22.5 13.25V10.75C22.5 10.612 22.388 10.5 22.25 10.5H16.75Z" fill="black"/>
<path d="M22.25 24H16.75C15.785 24 15 23.215 15 22.25V19.75C15 18.785 15.785 18 16.75 18H22.25C23.215 18 24 18.785 24 19.75V22.25C24 23.215 23.215 24 22.25 24ZM16.75 19.5C16.612 19.5 16.5 19.612 16.5 19.75V22.25C16.5 22.388 16.612 22.5 16.75 22.5H22.25C22.388 22.5 22.5 22.388 22.5 22.25V19.75C22.5 19.612 22.388 19.5 22.25 19.5H16.75Z" fill="black"/>
<path d="M12.25 2H0.75C0.336 2 0 1.664 0 1.25C0 0.836 0.336 0.5 0.75 0.5H12.25C12.664 0.5 13 0.836 13 1.25C13 1.664 12.664 2 12.25 2Z" fill="black"/>
<path d="M12.25 5H0.75C0.336 5 0 4.664 0 4.25C0 3.836 0.336 3.5 0.75 3.5H12.25C12.664 3.5 13 3.836 13 4.25C13 4.664 12.664 5 12.25 5Z" fill="black"/>
<path d="M12.25 11H0.75C0.336 11 0 10.664 0 10.25C0 9.836 0.336 9.5 0.75 9.5H12.25C12.664 9.5 13 9.836 13 10.25C13 10.664 12.664 11 12.25 11Z" fill="black"/>
<path d="M12.25 14H0.75C0.336 14 0 13.664 0 13.25C0 12.836 0.336 12.5 0.75 12.5H12.25C12.664 12.5 13 12.836 13 13.25C13 13.664 12.664 14 12.25 14Z" fill="black"/>
<path d="M12.25 20H0.75C0.336 20 0 19.664 0 19.25C0 18.836 0.336 18.5 0.75 18.5H12.25C12.664 18.5 13 18.836 13 19.25C13 19.664 12.664 20 12.25 20Z" fill="black"/>
<path d="M12.25 23H0.75C0.336 23 0 22.664 0 22.25C0 21.836 0.336 21.5 0.75 21.5H12.25C12.664 21.5 13 21.836 13 22.25C13 22.664 12.664 23 12.25 23Z" fill="black"/>
</g>
<defs>
<clipPath id="clip0_309_2000">
<rect width="24" height="24" fill="white"/>
</clipPath>
</defs>
</svg>
