<svg width="48" height="48" viewBox="0 0 48 48" fill="none" xmlns="http://www.w3.org/2000/svg">
<path d="M24 4C13 4 4 13 4 24C4 35 13 44 24 44C35 44 44 35 44 24C44 13 35 4 24 4ZM24 40C15.2 40 8 32.8 8 24C8 15.2 15.2 8 24 8C32.8 8 40 15.2 40 24C40 32.8 32.8 40 24 40ZM30.2 25.2L26 22.8V14C26 12.8 25.2 12 24 12C22.8 12 22 12.8 22 14V24V24.2C22 24.4 22 24.4 22.2 24.6C22.2 24.8 22.2 24.8 22.4 25C22.4 25.2 22.6 25.2 22.6 25.4L23 25.6L23.2 25.8L28.4 28.8C28.8 29 29 29 29.4 29C30.6 29 31.4 28.2 31.4 27C31.2 26.2 30.8 25.6 30.2 25.2Z" fill="black"/>
</svg>
