<svg width="32" height="32" viewBox="0 0 32 32" fill="none" xmlns="http://www.w3.org/2000/svg">
<path d="M23.6466 12.0072C22.9093 10.6258 21.8056 9.47427 20.4566 8.67915C19.1077 7.88404 17.5657 7.47606 16 7.50002C12.0499 7.50002 8.7135 10.0325 7.76886 13.5007L7.75 13.5C6.25885 13.4693 4.81635 14.031 3.73856 15.0619C2.66076 16.0929 2.03558 17.509 2 19C2.03343 20.4471 2.62399 21.8254 3.64862 22.8478C4.67324 23.8701 6.05287 24.4577 7.5 24.4879V24.5H23.5C25.19 24.5306 26.8232 23.8899 28.0416 22.7183C29.26 21.5468 29.9643 19.9399 30 18.25C29.9652 16.5861 29.2812 15.0017 28.0941 13.8353C26.907 12.6688 25.3109 12.0127 23.6466 12.0072ZM23.5 21.5H7.75C7.05444 21.5307 6.37495 21.2851 5.85978 20.8168C5.3446 20.3484 5.03553 19.6954 5 19C5 17.307 6.82114 16.1055 8.583 16.6167C8.80043 16.6785 9.02893 16.6907 9.25172 16.6526C9.47451 16.6144 9.68592 16.5269 9.87041 16.3963C10.0549 16.2657 10.2078 16.0954 10.3178 15.898C10.4279 15.7006 10.4923 15.481 10.5063 15.2554C10.6475 12.5889 13.0605 10.5 16 10.5C17.1394 10.4765 18.258 10.8065 19.2022 11.4447C20.1464 12.0829 20.8697 12.9978 21.2727 14.0638C21.3899 14.3927 21.618 14.6706 21.9178 14.8496C22.2176 15.0287 22.5704 15.0977 22.9155 15.0449C25.0693 14.7098 27 16.2583 27 18.25C26.9646 19.1443 26.5765 19.9883 25.9207 20.5973C25.2648 21.2063 24.3945 21.5309 23.5 21.5Z" fill="black"/>
</svg>
