<svg width="106" height="106" viewBox="0 0 106 106" fill="none" xmlns="http://www.w3.org/2000/svg">
<path d="M91.0254 17.2831C91.0254 7.73085 83.2957 0.000508613 73.7429 0.000508613C65.3128 0.000508613 58.3855 6.00193 56.8055 13.8265H32.4522L28.6314 2.36418C28.0277 0.553489 26.0704 -0.425148 24.2591 0.178141C22.4482 0.781845 21.4692 2.73932 22.0731 4.55043L25.1653 13.8269H18.4391C16.2259 13.8269 14.5804 15.8825 15.0671 18.0431L16.6387 25.0184C18.0194 31.1471 17.8558 37.5071 16.1656 43.4106C14.573 48.9738 14.5775 54.7174 16.1799 60.482C19.1802 71.2743 28.173 79.7953 39.0904 82.1892C40.2703 82.448 41.4533 82.6389 42.6344 82.7648V99.0871H32.2648C30.356 99.0871 28.8084 100.635 28.8084 102.543C28.8084 104.452 30.356 106 32.2648 106H59.9169C61.8258 106 63.3733 104.452 63.3733 102.543C63.3733 100.635 61.8258 99.0871 59.9169 99.0871H49.5474V82.7521C65.1817 81.0135 77.1993 67.8355 77.1993 51.8484C77.1993 49.3859 76.9028 46.9287 76.3177 44.5443C75.4453 40.9894 74.9387 37.6659 74.788 34.529C83.8019 33.9774 91.0254 26.5479 91.0254 17.2831ZM69.4211 20.7399C68.6969 23.9542 68.0531 26.4146 67.8692 30.6411C67.8688 30.6457 67.869 30.6505 67.8686 30.655C67.7079 34.3714 68.0158 38.2802 68.7942 42.4363L59.2238 45.9122C55.3531 47.3181 51.032 47.0455 47.3684 45.1648C45.7717 44.3452 44.0656 43.7489 42.3025 43.3771L34.7568 20.7399H69.4211ZM23.3825 23.4988L22.7608 20.7399H27.4693L34.9287 43.1181C33.5681 43.3023 32.2145 43.6131 30.8889 44.0547L22.4205 46.8776C22.5331 46.354 22.6627 45.8325 22.8113 45.3134C24.82 38.2986 25.0175 30.755 23.3825 23.4988ZM40.5711 75.4363C32.1232 73.5836 25.1634 66.9867 22.8405 58.6301C22.4377 57.1809 22.1646 55.7356 22.0184 54.2984L33.0753 50.613C37.0392 49.2917 41.104 49.7195 44.2115 51.3144C49.5799 54.0702 55.9117 54.4694 61.5842 52.4092L70.1476 49.299C70.2387 50.1447 70.2869 50.9954 70.2869 51.8476C70.2865 67.0844 56.2877 78.8823 40.5711 75.4363ZM75.0851 27.5628C75.3352 25.7958 75.4232 25.5525 77.115 18.0429C77.6013 15.8842 75.9577 13.8267 73.7431 13.8267H63.9619C65.3596 9.86306 69.159 6.9137 73.7431 6.9137C79.4741 6.9137 84.1127 11.5514 84.1127 17.2831C84.1125 22.5715 80.1826 26.8947 75.0851 27.5628Z" fill="black"/>
</svg>
