<svg width="119" height="119" viewBox="0 0 119 119" fill="none" xmlns="http://www.w3.org/2000/svg">
<g clip-path="url(#clip0_603_2436)">
<path d="M72.9625 22.9347C77.5371 19.2394 78.5727 15.2892 78.6357 12.6258C78.7896 6.1466 73.6733 1.40518 73.0892 0.886185C71.6426 -0.400505 69.4267 -0.270814 68.1398 1.17602C66.8531 2.62284 66.9828 4.83853 68.4296 6.12545C68.4624 6.15473 71.7037 9.18738 71.6261 12.4597C71.5847 14.2031 70.5807 15.8454 68.5565 17.4804C63.982 21.1757 62.9463 25.126 62.8833 27.7893C62.7292 34.2685 67.8457 39.01 68.4296 39.5292C69.0992 40.1247 69.935 40.418 70.7673 40.418C71.7332 40.418 72.6948 40.0229 73.386 39.2454C74.6727 37.7986 74.55 35.5889 73.1031 34.3022C72.183 33.4655 69.8127 30.6897 69.8934 27.9292C69.9443 26.1956 70.9481 24.5617 72.9625 22.9347Z" fill="black"/>
<path d="M50.7184 22.9347C55.2929 19.2394 56.3286 15.2892 56.3916 12.6258C56.5454 6.1466 51.4291 1.40518 50.845 0.886185C49.3987 -0.400505 47.1825 -0.270814 45.8956 1.17602C44.6089 2.62284 44.7386 4.83853 46.1854 6.12545C46.2182 6.15473 49.4596 9.18738 49.3819 12.4597C49.3406 14.2031 48.3365 15.8454 46.3123 17.4804C41.7378 21.1757 40.7021 25.126 40.6391 27.7893C40.4853 34.2685 45.6016 39.01 46.1854 39.5292C46.855 40.1247 47.6908 40.418 48.5231 40.418C49.4891 40.418 50.4506 40.0229 51.1418 39.2454C52.4285 37.7986 52.3058 35.5889 50.859 34.3022C49.9388 33.4655 47.5686 30.6897 47.6492 27.9292C47.7001 26.1956 48.704 24.5617 50.7184 22.9347Z" fill="black"/>
<path d="M100.908 57.2107H96.7588V54.6396C96.7588 52.7036 95.1892 51.1338 93.2529 51.1338H3.77637C1.84029 51.1338 0.270508 52.7033 0.270508 54.6396V73.1423C0.270508 89.4916 9.31987 103.868 22.9059 111.989H3.77846C1.84238 111.989 0.2726 113.558 0.2726 115.495C0.2726 117.431 1.84192 119.001 3.77846 119.001H93.2532C95.1892 119.001 96.759 117.431 96.759 115.495C96.759 113.558 95.1895 111.989 93.2532 111.989H74.1236C81.8494 107.371 88.1078 100.731 92.0692 92.8538H100.908C110.735 92.8538 118.73 84.859 118.73 75.0322C118.73 65.2053 110.735 57.2107 100.908 57.2107ZM89.7473 73.1423C89.7471 94.5624 71.2502 111.989 48.5146 111.989C25.7791 111.989 7.28222 94.5624 7.28222 73.1423V58.1455H89.7471V73.1423H89.7473ZM100.908 85.8423H94.8752C96.1003 81.8077 96.7588 77.5467 96.7588 73.1423V64.222H100.908C106.869 64.222 111.718 69.0714 111.718 75.0322C111.718 80.9929 106.869 85.8423 100.908 85.8423Z" fill="black"/>
<path d="M28.4742 22.9347C33.0488 19.2394 34.0844 15.2892 34.1474 12.6258C34.3013 6.1466 29.185 1.40518 28.6009 0.886185C27.1543 -0.400505 24.9384 -0.270814 23.6515 1.17602C22.3648 2.62261 22.4945 4.83853 23.9413 6.12545C23.9741 6.15473 27.2154 9.18738 27.1378 12.4597C27.0964 14.2031 26.0924 15.8454 24.0682 17.4804C19.4937 21.1757 18.458 25.126 18.395 27.7893C18.2414 34.2683 23.3577 39.0097 23.9415 39.529C24.6095 40.123 25.4413 40.4152 26.2702 40.4152C27.2363 40.4152 28.1983 40.018 28.8912 39.2391C30.1779 37.7923 30.0482 35.5766 28.6014 34.2897C28.5686 34.2604 25.3272 31.2278 25.4048 27.9555C25.4458 26.2121 26.4498 24.5696 28.4742 22.9347Z" fill="black"/>
</g>
<defs>
<clipPath id="clip0_603_2436">
<rect width="119" height="119" fill="white"/>
</clipPath>
</defs>
</svg>
