<svg width="32" height="32" viewBox="0 0 32 32" fill="none" xmlns="http://www.w3.org/2000/svg">
<path d="M29.5605 4.56053L23.6746 10.4465L25.0591 10.501C27.0144 10.5782 26.9563 13.5482 24.9409 13.499L20.5679 13.3266C20.0721 13.3051 19.6024 13.0984 19.2516 12.7474C18.9008 12.3963 18.6945 11.9265 18.6733 11.4306L18.501 7.05906C18.4234 5.06727 21.4202 4.976 21.499 6.9409L21.5535 8.3254L27.4394 2.43944C28.8406 1.03825 30.9649 3.15736 29.5605 4.56053Z" fill="black"/>
<path d="M13.499 7.05903L13.3266 11.4321C13.3051 11.9279 13.0984 12.3976 12.7473 12.7484C12.3963 13.0991 11.9264 13.3055 11.4306 13.3266L7.05901 13.499C7.03901 13.4995 7.01898 13.5 6.99896 13.5C5.05404 13.5 4.99596 10.5778 6.94085 10.501L8.32535 10.4465L2.43939 4.5605C1.03789 3.16015 3.15674 1.03566 4.56048 2.43941L10.4464 8.32536L10.5009 6.94086C10.5801 4.96759 13.5763 5.0727 13.499 7.05903Z" fill="black"/>
<path d="M27.4395 29.5604L21.5535 23.6745L21.499 25.059C21.4194 27.0556 18.4234 26.9336 18.501 24.9408L18.6734 20.5678C18.6949 20.072 18.9016 19.6023 19.2526 19.2515C19.6037 18.9007 20.0735 18.6944 20.5694 18.6733L24.9409 18.5009C26.9349 18.4412 27.0293 21.4211 25.0591 21.4989L23.6746 21.5534L29.5606 27.4394C30.9871 28.8647 28.8137 30.9347 27.4395 29.5604Z" fill="black"/>
<path d="M13.499 24.9408C13.5762 26.9234 10.581 27.0634 10.501 25.059L10.4465 23.6745L4.56056 29.5604C3.17038 30.9506 1.01822 28.8594 2.43947 27.4394L8.32542 21.5534L6.94092 21.4989C4.9689 21.421 5.06692 18.4372 7.05908 18.5009L11.4321 18.6732C11.9279 18.6948 12.3976 18.9015 12.7484 19.2525C13.0992 19.6036 13.3055 20.0734 13.3267 20.5692L13.499 24.9408Z" fill="black"/>
</svg>
