<svg id="fi_18709812" viewBox="0 0 64 64" xmlns="http://www.w3.org/2000/svg" data-name="Glyph"><path d="m49.17405 15.95383c4.05038-.44977 5.804-1.08636 7.44792-2.2969 3.09877-2.62791.46662-7.734-3.31933-7.10392a4.15787 4.15787 0 0 0 -3.84526-2.55c-5.38517.544-4.54536 5.60456-2.32746 10.65543a2.2802 2.2802 0 0 0 2.04413 1.29539z"></path><path d="m36.26189 15.60974a13.12054 13.12054 0 0 0 4.756 1.21432 1.9084 1.9084 0 0 0 1.72029-1.09289 12.94069 12.94069 0 0 0 1.25482-4.59417 3.21532 3.21532 0 0 0 -6.08177-1.5886 3.213 3.213 0 0 0 -1.64934 6.06134z"></path><path d="m14.87984 42.03118a3.31316 3.31316 0 0 0 -3.9364 1.61919c-2.8521-.26726-4.681 3.619-2.36783 5.57568 1.26742.91787 2.49029 1.36577 5.48452 1.70017a1.88327 1.88327 0 0 0 1.71021-1.093c1.41053-3.39131 2.26615-6.4891-.8905-7.80204z"></path><path d="m56.632 19.24259a2.58939 2.58939 0 0 0 -2.24645-.43512l-22.3636 6.09177a2.58977 2.58977 0 0 0 -1.90243 2.48936v20.70408c-4.29894-1.29108-9.71474 1.69123-9.57273 5.82877.35 8.10373 14.42074 8.11928 14.74367-.04066v-17.53664l17.19265-4.68524v9.04665c-4.31077-1.2877-9.71866 1.68326-9.58281 5.82883.34257 8.07954 14.4 8.09736 14.74363-.00022v-25.23739a2.5639 2.5639 0 0 0 -1.01193-2.05419zm-21.34158 15.00692v-4.40193a.62859.62859 0 0 1 .46551-.60713l15.92774-4.34121a.64393.64393 0 0 1 .7994.61733v4.04771z"></path><path d="m21.97341 12.89778c2.98519 1.1042 5.7296 2.33121 7.114 5.11014a6.53215 6.53215 0 0 1 -1.80141 2.30732 1.02163 1.02163 0 0 0 -.14162 1.42679c1.40587 1.48721 3.51892-2.21752 3.9668-3.30887a9.02524 9.02524 0 0 0 -2.9549-10.66583 19.97106 19.97106 0 0 0 -5.38341-2.77271 2.13459 2.13459 0 0 0 -2.82329 1.99358v19.26705a8.66371 8.66371 0 0 0 -5.98047-2.26671c-10.6028.34553-10.61609 13.12194.00009 13.47891 4.4119 0 8.00424-3.02573 8.00424-6.73949z"></path></svg>