<svg width="42" height="42" viewBox="0 0 42 42" fill="none" xmlns="http://www.w3.org/2000/svg">
<g clip-path="url(#clip0_518_156)">
<path d="M41.9999 33.6328C41.9999 33.1797 41.6324 32.8125 41.1796 32.8125H36.0703L32.707 28.2187H37.4882C37.941 28.2187 38.3085 27.8512 38.3085 27.3984C38.3085 26.9453 37.941 26.5781 37.4882 26.5781H0.820341C0.367248 26.5781 3.05176e-05 26.9453 3.05176e-05 27.3984C3.05176e-05 27.8512 0.367248 28.2187 0.820341 28.2187H9.29293L5.92966 32.8125H0.820341C0.367248 32.8125 3.05176e-05 33.1797 3.05176e-05 33.6328C3.05176e-05 34.0856 0.367248 34.4531 0.820341 34.4531H4.72867L0.158645 40.6948C0.158645 40.6952 0.158966 40.6952 0.159286 40.6955C0.0596312 40.8313 3.05176e-05 40.9983 3.05176e-05 41.1797C3.05176e-05 41.6321 0.366927 41.9993 0.81938 42H0.819701H0.821303H10.1959H10.1988H10.201H31.7989H31.8012H31.8041H41.1787H41.1803C41.1803 42 41.1806 41.9996 41.1809 41.9996C41.6334 41.999 41.9999 41.6321 41.9999 41.1797C41.9999 40.9983 41.9403 40.8313 41.8407 40.6955C41.841 40.6955 41.841 40.6952 41.8413 40.6952L37.2713 34.4531H41.1796C41.6324 34.4531 41.9999 34.0856 41.9999 33.6328ZM34.0368 32.8125H28.8522L26.7374 28.2187H30.6736L34.0368 32.8125ZM20.1797 28.2187V32.8125H14.9537L17.0686 28.2187H20.1797ZM20.1797 34.4531V40.3593H11.4799L14.1988 34.4531H20.1797ZM21.8203 34.4531H27.8012L30.5201 40.3593H21.8203V34.4531ZM21.8203 32.8125V28.2187H24.9314L27.0459 32.8125H21.8203ZM11.3261 28.2187H15.2623L13.1478 32.8125H7.96281L11.3261 28.2187ZM12.3925 34.4531L9.67393 40.3593H2.43757L6.76183 34.4531H12.3925ZM39.5624 40.3593H32.326L29.6075 34.4531H35.2381L39.5624 40.3593Z" fill="black"/>
<path d="M13.2891 14.2689C13.2891 18.5208 16.7482 21.9798 21 21.9798C25.2518 21.9798 28.7109 18.5208 28.7109 14.2689C28.7109 11.0002 26.6662 8.20055 23.7891 7.08031V5.14489C23.7891 4.11726 22.953 3.28124 21.9254 3.28124H21.8306V0.820311C21.8306 0.367217 21.4633 0 21.0103 0C20.5575 0 20.1899 0.367217 20.1899 0.820311V3.28124H20.0746C19.047 3.28124 18.2109 4.11726 18.2109 5.14489V7.08031C15.3334 8.20055 13.2891 11.0002 13.2891 14.2689ZM20.9567 8.20311H21.0429C21.4935 8.26495 22.2 9.28297 22.6015 11.1517H19.3982C19.8 9.28297 20.5065 8.26495 20.9567 8.20311ZM22.8435 12.7924C22.8842 13.2525 22.9072 13.7444 22.9072 14.2689C22.9072 14.7938 22.8842 15.2853 22.8435 15.7455H19.1562C19.1158 15.2853 19.0928 14.7938 19.0928 14.2689C19.0928 13.7444 19.1158 13.2525 19.1562 12.7924H22.8435ZM27.0703 14.2689C27.0703 14.7781 27.0065 15.2725 26.8877 15.7455H24.487C24.5273 15.2581 24.5478 14.7634 24.5478 14.2689C24.5478 13.7748 24.5273 13.2797 24.487 12.7924H26.8877C27.0065 13.2653 27.0703 13.7598 27.0703 14.2689ZM21 20.3392C20.5527 20.3392 19.8128 19.3151 19.3982 17.3861H22.6015C22.1872 19.3151 21.4473 20.3392 21 20.3392ZM17.513 15.7455H15.1123C14.9935 15.2725 14.9297 14.7781 14.9297 14.2689C14.9297 13.7598 14.9935 13.2653 15.1123 12.7924H17.513C17.4727 13.2797 17.4522 13.7748 17.4522 14.2689C17.4522 14.7634 17.4727 15.2581 17.513 15.7455ZM15.7936 17.3861H17.7316C17.8966 18.2654 18.1347 19.0806 18.4436 19.7727C17.3406 19.2584 16.4165 18.423 15.7936 17.3861ZM23.5564 19.773C23.8653 19.0806 24.1031 18.2654 24.2684 17.3861H26.2064C25.5832 18.423 24.6594 19.2584 23.5564 19.773ZM26.2064 11.1517H24.2684C24.1031 10.2728 23.8653 9.45761 23.5564 8.76515C24.6594 9.27977 25.5832 10.1151 26.2064 11.1517ZM19.8516 6.56249V5.14489C19.8516 5.02184 19.9515 4.92187 20.0746 4.92187H21.9254C22.0485 4.92187 22.1484 5.02184 22.1484 5.14489V6.56249H21.2461C21.1644 6.55992 21.0824 6.558 21 6.558C20.9176 6.558 20.8356 6.55992 20.7539 6.56249H19.8516ZM18.4436 8.76515C18.1347 9.45761 17.8966 10.2728 17.7316 11.1517H15.7936C16.4165 10.1151 17.3406 9.27977 18.4436 8.76515Z" fill="black"/>
<path d="M28.046 21.3148C27.7256 21.6352 27.7256 22.1546 28.046 22.4751L29.4607 23.8898C29.621 24.05 29.8308 24.1301 30.0407 24.1301C30.2506 24.1301 30.4605 24.05 30.6207 23.8898C30.9411 23.5694 30.9411 23.0499 30.6207 22.7298L29.206 21.3148C28.8856 20.9947 28.3665 20.9947 28.046 21.3148Z" fill="black"/>
<path d="M28.626 7.46313C28.8359 7.46313 29.0458 7.38302 29.206 7.22281L30.6207 5.80809C30.9411 5.48766 30.9411 4.96823 30.6207 4.6478C30.3006 4.32769 29.7812 4.32769 29.4607 4.6478L28.046 6.06284C27.7256 6.38327 27.7256 6.90269 28.046 7.22281C28.2062 7.38302 28.4161 7.46313 28.626 7.46313Z" fill="black"/>
<path d="M30.3515 14.2688C30.3515 14.7219 30.7188 15.0891 31.1719 15.0891H33.1726C33.6257 15.0891 33.993 14.7219 33.993 14.2688C33.993 13.816 33.6257 13.4485 33.1726 13.4485H31.1719C30.7188 13.4485 30.3515 13.816 30.3515 14.2688Z" fill="black"/>
<path d="M12.8148 21.3148L11.3998 22.7298C11.0797 23.0499 11.0797 23.5694 11.3998 23.8898C11.56 24.05 11.7699 24.1301 11.9798 24.1301C12.19 24.1301 12.3999 24.05 12.5601 23.8898L13.9748 22.4751C14.2952 22.1546 14.2952 21.6352 13.9748 21.3148C13.6544 20.9947 13.1349 20.9947 12.8148 21.3148Z" fill="black"/>
<path d="M12.8148 7.22273C12.9747 7.38294 13.1849 7.46305 13.3948 7.46305C13.6047 7.46305 13.8146 7.38294 13.9748 7.22273C14.2952 6.90261 14.2952 6.38319 13.9748 6.06276L12.5601 4.64804C12.2397 4.32761 11.7202 4.32761 11.3998 4.64804C11.0794 4.96815 11.0794 5.48758 11.3998 5.80801L12.8148 7.22273Z" fill="black"/>
<path d="M8.84787 15.0891H10.849C11.3021 15.0891 11.6693 14.7219 11.6693 14.2688C11.6693 13.816 11.3021 13.4485 10.849 13.4485H8.84787C8.3951 13.4485 8.02756 13.816 8.02756 14.2688C8.02756 14.7219 8.3951 15.0891 8.84787 15.0891Z" fill="black"/>
<path d="M41.1796 28.2187C41.3953 28.2187 41.6068 28.1309 41.7593 27.9781C41.9118 27.8256 42 27.6141 42 27.3984C42 27.1825 41.9122 26.971 41.7593 26.8185C41.6068 26.6659 41.3953 26.5781 41.1796 26.5781C40.9637 26.5781 40.7522 26.6656 40.5997 26.8185C40.4471 26.971 40.3593 27.1825 40.3593 27.3984C40.3593 27.6141 40.4468 27.8256 40.5997 27.9781C40.7522 28.1309 40.9637 28.2187 41.1796 28.2187Z" fill="black"/>
</g>
<defs>
<clipPath id="clip0_518_156">
<rect width="42" height="42" fill="white"/>
</clipPath>
</defs>
</svg>
