<svg width="28" height="28" viewBox="0 0 28 28" fill="none" xmlns="http://www.w3.org/2000/svg">
<path fill-rule="evenodd" clip-rule="evenodd" d="M14 12.2668C12.8395 11.6039 11.3353 11.7678 10.3447 12.7583C9.1578 13.9452 9.1578 15.8695 10.3447 17.0564L13.3572 20.0689C13.5276 20.2394 13.7589 20.3352 14 20.3352C14.2411 20.3352 14.4724 20.2394 14.6428 20.0689L17.6553 17.0564C18.8422 15.8695 18.8422 13.9452 17.6553 12.7583C16.6647 11.7678 15.1605 11.6039 14 12.2668ZM13.3572 14.0439C12.8803 13.5672 12.1071 13.5672 11.6303 14.0439C11.1535 14.5207 11.1535 15.294 11.6303 15.7708L14 18.1404L16.3697 15.7708C16.8465 15.294 16.8465 14.5207 16.3697 14.0439C15.8928 13.5672 15.1196 13.5672 14.6428 14.0439C14.2877 14.3989 13.7122 14.3989 13.3572 14.0439Z" fill="#939693"/>
<path fill-rule="evenodd" clip-rule="evenodd" d="M16.7273 15.2011C16.7273 14.699 17.1343 14.292 17.6364 14.292H23.0909C23.593 14.292 24 14.699 24 15.2011C24 15.7031 23.593 16.1102 23.0909 16.1102H17.6364C17.1343 16.1102 16.7273 15.7031 16.7273 15.2011Z" fill="#939693"/>
<path fill-rule="evenodd" clip-rule="evenodd" d="M4 15.2011C4 14.699 4.40702 14.292 4.90909 14.292H10.3636C10.8657 14.292 11.2727 14.699 11.2727 15.2011C11.2727 15.7031 10.8657 16.1102 10.3636 16.1102H4.90909C4.40702 16.1102 4 15.7031 4 15.2011Z" fill="#939693"/>
<path fill-rule="evenodd" clip-rule="evenodd" d="M4 7.92862C4 7.42655 4.40702 7.01953 4.90909 7.01953H21.8788C23.0503 7.01953 24 7.96923 24 9.14074V24.8983C24 26.0698 23.0503 27.0195 21.8788 27.0195H12.7879C12.2858 27.0195 11.8788 26.6125 11.8788 26.1104C11.8788 25.6084 12.2858 25.2013 12.7879 25.2013H21.8788C22.0462 25.2013 22.1818 25.0657 22.1818 24.8983V9.14074C22.1818 8.97339 22.0462 8.83771 21.8788 8.83771H5.81818V24.8983C5.81818 25.0657 5.95385 25.2013 6.12121 25.2013H7.93939C8.44147 25.2013 8.84848 25.6084 8.84848 26.1104C8.84848 26.6125 8.44147 27.0195 7.93939 27.0195H6.12121C4.9497 27.0195 4 26.0698 4 24.8983V7.92862Z" fill="#939693"/>
<path fill-rule="evenodd" clip-rule="evenodd" d="M19.7577 3.63296C19.7577 3.4203 19.5444 3.2738 19.3458 3.35014L9.80524 7.01959H19.7577V3.63296ZM18.6932 1.65314C20.0825 1.11875 21.5759 2.14434 21.5759 3.63296V7.92868C21.5759 8.43077 21.1688 8.83777 20.6668 8.83777H4.90917C4.4711 8.83777 4.09533 8.52536 4.01537 8.09464C3.93539 7.66394 4.17396 7.23744 4.58283 7.08018L18.6932 1.65314Z" fill="#939693"/>
</svg>
