<svg width="28" height="28" viewBox="0 0 28 28" fill="none" xmlns="http://www.w3.org/2000/svg">
<path d="M10.92 18.1804L10.9508 18.214L12.5496 19.7456C12.9412 20.1191 13.4616 20.3274 14.0028 20.3274C14.5439 20.3274 15.0643 20.1191 15.456 19.7456L17.0548 18.214L17.0856 18.1804L17.6148 17.6036C18.0892 17.0759 18.3456 16.3877 18.3321 15.6782C18.3186 14.9687 18.0362 14.2908 17.542 13.7816C17.3143 13.5507 17.0412 13.3696 16.74 13.2496C16.4388 13.1296 16.116 13.0734 15.792 13.0844C15.4558 13.0918 15.1244 13.1656 14.8169 13.3016C14.5093 13.4376 14.2317 13.6331 14 13.8768C13.7686 13.6334 13.4914 13.4381 13.1844 13.3022C12.8773 13.1662 12.5465 13.0922 12.2108 13.0844C11.8867 13.0734 11.5639 13.1296 11.2627 13.2496C10.9615 13.3696 10.6885 13.5507 10.4608 13.7816C9.96619 14.2905 9.68328 14.9682 9.66925 15.6776C9.65522 16.3871 9.9111 17.0755 10.3852 17.6036L10.92 18.1804ZM11.4548 14.77C11.5486 14.6789 11.6594 14.6072 11.781 14.5592C11.9026 14.5111 12.0325 14.4876 12.1632 14.49H12.1856C12.3374 14.4913 12.4875 14.5229 12.6269 14.583C12.7663 14.6431 12.8924 14.7305 12.9976 14.84L13.4876 15.4C13.5529 15.4716 13.6325 15.5289 13.7212 15.568C13.8099 15.6072 13.9058 15.6274 14.0028 15.6274C14.0997 15.6274 14.1956 15.6072 14.2844 15.568C14.3731 15.5289 14.4526 15.4716 14.518 15.4L15.008 14.84C15.1117 14.7274 15.2371 14.6369 15.3766 14.5739C15.5161 14.5109 15.6669 14.4766 15.82 14.4732C15.9545 14.4671 16.0888 14.4889 16.2145 14.537C16.3403 14.5852 16.4547 14.6588 16.5508 14.7532C16.7899 15.0067 16.9259 15.3404 16.9322 15.6889C16.9384 16.0374 16.8144 16.3756 16.5844 16.6376L16.0692 17.1976L14.4872 18.732C14.3572 18.8575 14.1835 18.9277 14.0028 18.9277C13.822 18.9277 13.6484 18.8575 13.5184 18.732L11.9364 17.2172L11.4212 16.6572C11.1904 16.3951 11.0659 16.0562 11.0721 15.707C11.0783 15.3579 11.2148 15.0237 11.4548 14.77Z" fill="#534918"/>
<path d="M24.2305 5.39372H20.9403L21.0031 5.22724C21.0222 5.1844 21.0358 5.13943 21.0437 5.09333C21.2208 4.21119 21.0376 3.29617 20.5334 2.54511C20.0291 1.79405 19.2443 1.26697 18.3476 1.07726C17.451 0.887554 16.5141 1.05038 15.7387 1.53071C14.9633 2.01104 14.4112 2.77049 14.2012 3.64568L14.0166 4.47808L13.832 3.64568C13.6076 2.78476 13.0515 2.04258 12.2806 1.57503C11.5097 1.10749 10.5838 0.95097 9.69761 1.13836C8.8114 1.32576 8.03377 1.84248 7.52809 2.57997C7.02241 3.31746 6.82804 4.21834 6.9858 5.09333C6.9858 5.14038 7.01165 5.18381 7.02642 5.22724L7.09288 5.39372H3.76949C3.03498 5.39372 2.33055 5.6797 1.81117 6.18874C1.29178 6.69778 1 7.38819 1 8.10808V8.80657C1.0025 9.41637 1.21443 10.0076 1.60163 10.4849C1.98884 10.9622 2.52875 11.2978 3.13436 11.4377V24.2856C3.13631 25.0049 3.42872 25.6942 3.94767 26.2029C4.46663 26.7115 5.16993 26.9981 5.90385 27H22.0814C22.8156 26.999 23.5195 26.7128 24.0386 26.2039C24.5578 25.6951 24.8499 25.0052 24.8509 24.2856V11.4377C25.461 11.2989 26.0054 10.962 26.3956 10.4817C26.7857 10.0015 26.9987 9.40601 27 8.7921V8.10808C27 7.38819 26.7082 6.69778 26.1888 6.18874C25.6695 5.6797 24.965 5.39372 24.2305 5.39372ZM16.0033 4.01845C16.0874 3.6594 16.2931 3.33882 16.5867 3.10885C16.8804 2.87887 17.2448 2.75301 17.6206 2.75175C17.8623 2.75309 18.1008 2.80596 18.3195 2.90669C18.5382 3.00741 18.7319 3.15359 18.8872 3.33506C19.0425 3.51654 19.1557 3.72896 19.2188 3.95759C19.2819 4.18622 19.2935 4.42557 19.2528 4.65904L18.9611 5.40096H15.7005L16.0033 4.01845ZM9.01676 3.47558C9.25505 3.11407 9.62994 2.85998 10.0592 2.76906C10.4884 2.67814 10.9369 2.75782 11.3062 2.99061C11.4926 3.10296 11.654 3.25088 11.7809 3.42559C11.9077 3.60029 11.9975 3.79822 12.0447 4.00759L12.3512 5.38287H9.07215L8.78043 4.64094C8.70402 4.23716 8.78861 3.82003 9.01676 3.47558ZM2.83525 8.80657V8.10808C2.83525 7.86812 2.93251 7.63798 3.10564 7.4683C3.27877 7.29862 3.51358 7.20329 3.75841 7.20329H13.075V9.71136H3.75841C3.51358 9.71136 3.27877 9.61603 3.10564 9.44635C2.93251 9.27667 2.83525 9.04654 2.83525 8.80657ZM23.0045 24.2965C23.0016 24.5346 22.9031 24.7619 22.7303 24.9293C22.5575 25.0966 22.3243 25.1904 22.0814 25.1904H5.90385C5.65901 25.1904 5.4242 25.0951 5.25107 24.9254C5.07795 24.7557 4.98068 24.5256 4.98068 24.2856V11.5209H23.0045V24.2965ZM25.1537 8.80657C25.1537 9.04654 25.0564 9.27667 24.8833 9.44635C24.7102 9.61603 24.4753 9.71136 24.2305 9.71136H14.9213V7.20329H24.2305C24.4753 7.20329 24.7102 7.29862 24.8833 7.4683C25.0564 7.63798 25.1537 7.86812 25.1537 8.10808V8.80657Z" fill="#534918"/>
</svg>
