<svg width="36" height="36" viewBox="0 0 36 36" fill="none" xmlns="http://www.w3.org/2000/svg">
<g clip-path="url(#clip0_610_2245)">
<path d="M33.5391 0H20.4609C19.104 0 18 1.10398 18 2.46094V18.8672C17.188 18.6212 16.3412 18.4566 15.4688 18.3826V16.8619H16.2559C16.8384 16.8619 17.3106 16.3897 17.3106 15.8072C17.3106 15.2248 16.8384 14.7525 16.2559 14.7525H12.5722C11.9897 14.7525 11.5175 15.2248 11.5175 15.8072C11.5175 16.3897 11.9897 16.8619 12.5722 16.8619H13.3594V18.3826C7.36755 18.8902 2.57773 23.6801 2.07014 29.6719H1.75781C0.788555 29.6719 0 30.4604 0 31.4297V32.1328C0 34.2652 1.73482 36 3.86719 36H33.5391C34.896 36 36 34.896 36 33.5391V2.46094C36 1.10398 34.896 0 33.5391 0ZM2.10938 32.1328V31.7812H3.07948H25.7486H26.7188V32.1328C26.7188 33.1021 25.9302 33.8906 24.9609 33.8906H3.86719C2.89793 33.8906 2.10938 33.1021 2.10938 32.1328ZM14.4141 20.4467C19.7265 20.4467 24.1105 24.4971 24.6402 29.6719H4.18788C4.71762 24.4971 9.10167 20.4467 14.4141 20.4467ZM33.8906 33.5391C33.8906 33.7329 33.7329 33.8906 33.5391 33.8906H28.4038C28.6744 33.3628 28.8281 32.7656 28.8281 32.1328V31.4297C28.8281 30.4604 28.0396 29.6719 27.0703 29.6719H26.758C26.3911 25.3412 23.7874 21.6384 20.1094 19.7263V2.46094C20.1094 2.26709 20.2671 2.10938 20.4609 2.10938H33.5391C33.7329 2.10938 33.8906 2.26709 33.8906 2.46094V33.5391Z" fill="black"/>
<path d="M25.6992 7.3125H28.3008C28.8833 7.3125 29.3555 6.84028 29.3555 6.25781C29.3555 5.67534 28.8833 5.20312 28.3008 5.20312H25.6992C25.1167 5.20312 24.6445 5.67534 24.6445 6.25781C24.6445 6.84028 25.1167 7.3125 25.6992 7.3125Z" fill="black"/>
<path d="M30.9727 11.5312H23.0273C22.4449 11.5312 21.9727 12.0035 21.9727 12.5859C21.9727 13.1684 22.4449 13.6406 23.0273 13.6406H30.9727C31.5551 13.6406 32.0273 13.1684 32.0273 12.5859C32.0273 12.0035 31.5551 11.5312 30.9727 11.5312Z" fill="black"/>
<path d="M30.9727 15.75H23.0273C22.4449 15.75 21.9727 16.2222 21.9727 16.8047C21.9727 17.3872 22.4449 17.8594 23.0273 17.8594H30.9727C31.5551 17.8594 32.0273 17.3872 32.0273 16.8047C32.0273 16.2222 31.5551 15.75 30.9727 15.75Z" fill="black"/>
<path d="M13.6535 24.4544C13.6917 24.4544 13.7305 24.4523 13.7694 24.4481C13.9818 24.4249 14.1986 24.4131 14.4141 24.4131C14.9965 24.4131 15.4687 23.9409 15.4687 23.3584C15.4687 22.7759 14.9965 22.3037 14.4141 22.3037C14.1224 22.3037 13.8284 22.3197 13.5401 22.3512C12.9611 22.4145 12.543 22.9352 12.6063 23.5142C12.6654 24.0544 13.1223 24.4544 13.6535 24.4544Z" fill="black"/>
<path d="M7.79143 27.9632C7.94998 28.0481 8.12049 28.0884 8.28861 28.0884C8.66485 28.0884 9.029 27.8865 9.21912 27.5317C9.72608 26.5856 10.4815 25.7941 11.4039 25.2429C11.9039 24.9441 12.067 24.2965 11.7682 23.7965C11.4693 23.2966 10.8221 23.1333 10.3218 23.4322C9.07147 24.1795 8.04722 25.2526 7.35985 26.5354C7.08479 27.0488 7.27793 27.6881 7.79143 27.9632Z" fill="black"/>
</g>
<defs>
<clipPath id="clip0_610_2245">
<rect width="36" height="36" fill="white"/>
</clipPath>
</defs>
</svg>
