<svg width="30" height="30" viewBox="0 0 30 30" fill="none" xmlns="http://www.w3.org/2000/svg">
<path d="M14.9998 25.9375C9.87484 25.9375 8.34109 24.6675 8.08734 24.4125C7.98446 24.3096 7.90687 24.1843 7.86067 24.0463C7.81447 23.9084 7.80092 23.7616 7.82109 23.6175L8.45859 19.16C8.66637 17.7481 9.37333 16.4575 10.4512 15.5223C11.5291 14.587 12.9065 14.0691 14.3336 14.0625H15.6611C17.0881 14.0691 18.4656 14.587 19.5435 15.5223C20.6213 16.4575 21.3283 17.7481 21.5361 19.16L22.1736 23.6175C22.1938 23.7616 22.1802 23.9084 22.134 24.0463C22.0878 24.1843 22.0102 24.3096 21.9073 24.4125C21.6586 24.6675 20.1248 25.9375 14.9998 25.9375ZM9.76484 23.28C11.4369 23.9003 13.2195 24.1668 14.9998 24.0625C16.7806 24.1672 18.5637 23.899 20.2348 23.275L19.6848 19.425C19.5425 18.4588 19.0585 17.5756 18.3207 16.9358C17.5829 16.2959 16.6402 15.9417 15.6636 15.9375H14.3361C13.3595 15.9417 12.4167 16.2959 11.6789 16.9358C10.9411 17.5756 10.4572 18.4588 10.3148 19.425L9.76484 23.28Z" fill="#939693"/>
<path d="M6.87477 22.1875C3.07852 22.1875 1.92477 20.8125 1.73227 20.5375C1.6613 20.4367 1.61106 20.3228 1.58445 20.2024C1.55784 20.0821 1.5554 19.9576 1.57727 19.8363L1.85227 18.285C2.02858 17.2706 2.50808 16.3335 3.22758 15.597C3.94709 14.8605 4.87284 14.3593 5.88284 14.1594C6.89285 13.9596 7.93972 14.0704 8.88551 14.4772C9.83129 14.8841 10.6316 15.568 11.181 16.4388C11.3136 16.6493 11.3572 16.9039 11.3021 17.1465C11.247 17.3891 11.0978 17.5999 10.8873 17.7325C10.6768 17.8651 10.4222 17.9087 10.1796 17.8536C9.93693 17.7985 9.72612 17.6493 9.59352 17.4388C9.24518 16.8892 8.73857 16.458 8.1404 16.202C7.54223 15.9459 6.88053 15.877 6.24244 16.0043C5.60435 16.1316 5.01977 16.4492 4.56568 16.9152C4.11159 17.3812 3.80926 17.9738 3.69852 18.615L3.51602 19.645C4.55599 20.1632 5.71568 20.3937 6.87477 20.3125C7.56303 20.3231 8.25029 20.256 8.92352 20.1125C9.04457 20.0809 9.17072 20.0739 9.29454 20.0918C9.41836 20.1097 9.53734 20.1522 9.64447 20.2168C9.75161 20.2814 9.84472 20.3668 9.91834 20.468C9.99196 20.5691 10.0446 20.684 10.0731 20.8058C10.1017 20.9276 10.1055 21.0539 10.0845 21.1772C10.0635 21.3006 10.0179 21.4184 9.95065 21.5239C9.88336 21.6294 9.79563 21.7203 9.69265 21.7913C9.58967 21.8624 9.47351 21.9121 9.35102 21.9375C8.53779 22.1148 7.707 22.1986 6.87477 22.1875Z" fill="#939693"/>
<path d="M6.875 13.4375C6.19513 13.4375 5.53052 13.2359 4.96523 12.8582C4.39993 12.4805 3.95934 11.9436 3.69917 11.3155C3.43899 10.6874 3.37092 9.99619 3.50355 9.32938C3.63619 8.66257 3.96358 8.05006 4.44432 7.56932C4.92507 7.08858 5.53757 6.76119 6.20438 6.62855C6.87119 6.49592 7.56236 6.56399 8.19048 6.82417C8.8186 7.08434 9.35546 7.52493 9.73318 8.09023C10.1109 8.65552 10.3125 9.32013 10.3125 10C10.3118 10.9115 9.94946 11.7854 9.30495 12.4299C8.66044 13.0745 7.78648 13.4368 6.875 13.4375ZM6.875 8.4375C6.56597 8.4375 6.26387 8.52914 6.00692 8.70083C5.74997 8.87252 5.5497 9.11655 5.43144 9.40206C5.31318 9.68757 5.28223 10.0017 5.34252 10.3048C5.40281 10.6079 5.55163 10.8863 5.77015 11.1049C5.98867 11.3234 6.26708 11.4722 6.57017 11.5325C6.87327 11.5928 7.18744 11.5618 7.47294 11.4436C7.75845 11.3253 8.00248 11.125 8.17417 10.8681C8.34586 10.6111 8.4375 10.309 8.4375 10C8.43684 9.5858 8.27201 9.18876 7.97913 8.89588C7.68624 8.60299 7.2892 8.43816 6.875 8.4375Z" fill="#939693"/>
<path d="M23.1249 22.1875C22.2927 22.1986 21.4619 22.1147 20.6487 21.9375C20.5262 21.912 20.41 21.8623 20.307 21.7913C20.2041 21.7202 20.1163 21.6293 20.049 21.5238C19.9817 21.4184 19.9362 21.3005 19.9152 21.1772C19.8942 21.0539 19.898 20.9276 19.9266 20.8058C19.9551 20.6839 20.0077 20.5691 20.0813 20.4679C20.155 20.3668 20.2481 20.2814 20.3552 20.2168C20.4624 20.1521 20.5813 20.1096 20.7052 20.0917C20.829 20.0738 20.9551 20.0809 21.0762 20.1125C21.7494 20.2559 22.4367 20.323 23.1249 20.3125C24.2851 20.3935 25.4456 20.1594 26.4837 19.635L26.3024 18.6137C26.1733 17.8646 25.7837 17.1852 25.2022 16.6955C24.6208 16.2058 23.8851 15.9373 23.1249 15.9375C22.5815 15.9352 22.0465 16.0718 21.5707 16.3344C21.0949 16.5969 20.6941 16.9766 20.4062 17.4375C20.3405 17.5417 20.255 17.632 20.1544 17.7032C20.0539 17.7743 19.9403 17.825 19.8201 17.8523C19.7 17.8796 19.5757 17.8829 19.4542 17.8621C19.3328 17.8414 19.2167 17.7969 19.1124 17.7312C19.0082 17.6656 18.9179 17.58 18.8467 17.4795C18.7756 17.3789 18.7249 17.2653 18.6976 17.1452C18.6425 16.9026 18.6861 16.648 18.8187 16.4375C19.3681 15.5662 20.1687 14.882 21.1148 14.4749C22.061 14.0679 23.1083 13.9572 24.1186 14.1574C25.129 14.3576 26.055 14.8593 26.7744 15.5964C27.4939 16.3335 27.973 17.2713 28.1487 18.2862L28.4224 19.835C28.4443 19.9563 28.4419 20.0808 28.4152 20.2011C28.3886 20.3215 28.3384 20.4354 28.2674 20.5362C28.0749 20.8125 26.9212 22.1875 23.1249 22.1875Z" fill="#939693"/>
<path d="M23.125 13.4375C22.4451 13.4375 21.7805 13.2359 21.2152 12.8582C20.6499 12.4805 20.2093 11.9436 19.9492 11.3155C19.689 10.6874 19.6209 9.99619 19.7536 9.32938C19.8862 8.66257 20.2136 8.05006 20.6943 7.56932C21.1751 7.08858 21.7876 6.76119 22.4544 6.62855C23.1212 6.49592 23.8124 6.56399 24.4405 6.82417C25.0686 7.08434 25.6055 7.52493 25.9832 8.09023C26.3609 8.65552 26.5625 9.32013 26.5625 10C26.5618 10.9115 26.1995 11.7854 25.5549 12.4299C24.9104 13.0745 24.0365 13.4368 23.125 13.4375ZM23.125 8.4375C22.816 8.4375 22.5139 8.52914 22.2569 8.70083C22 8.87252 21.7997 9.11655 21.6814 9.40206C21.5632 9.68757 21.5322 10.0017 21.5925 10.3048C21.6528 10.6079 21.8016 10.8863 22.0201 11.1049C22.2387 11.3234 22.5171 11.4722 22.8202 11.5325C23.1233 11.5928 23.4374 11.5618 23.7229 11.4436C24.0085 11.3253 24.2525 11.125 24.4242 10.8681C24.5959 10.6111 24.6875 10.309 24.6875 10C24.6868 9.5858 24.522 9.18876 24.2291 8.89588C23.9362 8.60299 23.5392 8.43816 23.125 8.4375Z" fill="#939693"/>
<path d="M15 13.4375C14.0729 13.4375 13.1666 13.1626 12.3958 12.6475C11.6249 12.1324 11.0241 11.4004 10.6693 10.5438C10.3145 9.6873 10.2217 8.7448 10.4026 7.83552C10.5834 6.92623 11.0299 6.091 11.6854 5.43544C12.341 4.77988 13.1762 4.33344 14.0855 4.15257C14.9948 3.9717 15.9373 4.06453 16.7938 4.41932C17.6504 4.7741 18.3824 5.37491 18.8975 6.14577C19.4126 6.91662 19.6875 7.8229 19.6875 8.75C19.6862 9.9928 19.1919 11.1843 18.3131 12.0631C17.4343 12.9419 16.2428 13.4362 15 13.4375ZM15 5.9375C14.4437 5.9375 13.9 6.10245 13.4375 6.41149C12.9749 6.72054 12.6145 7.15979 12.4016 7.6737C12.1887 8.18762 12.133 8.75312 12.2415 9.29869C12.3501 9.84427 12.6179 10.3454 13.0113 10.7387C13.4046 11.1321 13.9057 11.3999 14.4513 11.5085C14.9969 11.617 15.5624 11.5613 16.0763 11.3484C16.5902 11.1355 17.0295 10.7751 17.3385 10.3125C17.6476 9.85003 17.8125 9.30626 17.8125 8.75C17.8118 8.00428 17.5153 7.2893 16.988 6.76199C16.4607 6.23469 15.7457 5.93816 15 5.9375Z" fill="#939693"/>
</svg>
