<svg width="28" height="28" viewBox="0 0 28 28" fill="none" xmlns="http://www.w3.org/2000/svg">
<path d="M24.5 13.125H18.375C16.4552 13.125 14.875 14.7052 14.875 16.625C14.875 18.5448 16.4552 20.125 18.375 20.125H21.875V22.75C21.875 23.2304 21.4804 23.625 21 23.625H7C5.55975 23.625 4.375 22.4403 4.375 21V7.875C4.375 6.43475 5.55975 5.25 7 5.25H8.75C9.23038 5.25 9.625 4.85538 9.625 4.375C9.625 3.89462 9.23038 3.5 8.75 3.5H7C4.59987 3.5 2.625 5.47487 2.625 7.875V21C2.625 23.4001 4.59987 25.375 7 25.375H21C22.4403 25.375 23.625 24.1903 23.625 22.75V20.125H24.5C24.9804 20.125 25.375 19.7304 25.375 19.25V14C25.375 13.5196 24.9804 13.125 24.5 13.125ZM23.625 18.375H18.375C17.4151 18.375 16.625 17.5849 16.625 16.625C16.625 15.6651 17.4151 14.875 18.375 14.875H23.625V18.375Z" fill="#939693"/>
<path d="M6.68494 7.06124C5.70844 7.48737 6.03131 8.74999 6.99994 8.74999H20.9999C21.4803 8.74999 21.8749 9.14462 21.8749 9.62499V10.5C21.8749 10.9804 22.2696 11.375 22.7499 11.375C23.2303 11.375 23.6249 10.9804 23.6249 10.5V9.62499C23.6241 8.92937 23.3476 8.26174 22.8549 7.76999C22.3632 7.27737 21.6956 7.00087 20.9999 6.99999H20.7199L19.1887 3.17624C19.0111 2.73437 18.5036 2.51387 18.0599 2.68624L6.68494 7.06124ZM18.8299 6.99999H11.7162L17.8849 4.62874L18.8299 6.99999Z" fill="#939693"/>
</svg>
