<svg width="28" height="28" viewBox="0 0 28 28" fill="none" xmlns="http://www.w3.org/2000/svg">
<path d="M26.9062 1.91406H1.09375C0.489624 1.91406 0 2.40369 0 3.00781C0 3.61194 0.489624 4.10156 1.09375 4.10156H2.1875V23.5308C2.1875 24.9396 3.3338 26.0859 4.74265 26.0859C6.06604 26.0859 7.15936 25.0926 7.28604 23.7754L8.71518 8.91406H19.3397L20.7686 23.7754C20.8953 25.0926 21.9886 26.0859 23.312 26.0859C24.7209 26.0859 25.8672 24.9396 25.8672 23.5308V19.8516C25.8672 19.2474 25.3776 18.7578 24.7734 18.7578C24.1693 18.7578 23.6797 19.2474 23.6797 19.8516V23.5308C23.6797 23.7335 23.5148 23.8984 23.312 23.8984C23.1217 23.8984 22.9643 23.7555 22.9461 23.566L21.5373 8.91406H23.6797V14.4375C23.6797 15.0416 24.1693 15.5313 24.7734 15.5313C25.3776 15.5313 25.8672 15.0416 25.8672 14.4375V4.10156H26.9062C27.5104 4.10156 28 3.61194 28 3.00781C28 2.40369 27.5104 1.91406 26.9062 1.91406ZM5.10858 23.566C5.09042 23.7555 4.9332 23.8984 4.74265 23.8984C4.53992 23.8984 4.375 23.7335 4.375 23.5308V8.91406H6.51764L5.10858 23.566ZM23.6797 6.72656H4.375V4.10156H23.6797V6.72656Z" fill="#939693"/>
</svg>
