<svg width="36" height="36" viewBox="0 0 36 36" fill="none" xmlns="http://www.w3.org/2000/svg">
<g clip-path="url(#clip0_133_3057)">
<path d="M36 24.3529V21.1765C36 19.7961 35.1148 18.6192 33.8824 18.1821V10.5882C33.8824 8.83671 32.4575 7.41174 30.7059 7.41174H28.5882C26.8367 7.41174 25.4118 8.83671 25.4118 10.5882V18H22.2353V10.5882C22.2353 8.83671 20.8104 7.41174 19.0588 7.41174H16.9412C15.1896 7.41174 13.7647 8.83671 13.7647 10.5882V18H10.5882V10.5882C10.5882 8.83671 9.16334 7.41174 7.41177 7.41174H5.29412C3.54261 7.41174 2.11765 8.83671 2.11765 10.5882V18.1821C0.885247 18.6192 0 19.7961 0 21.1765V24.3529H5.29412V26.4706H3.17647V28.5882H9.52941V26.4706H7.41177V24.3529H16.9412V26.4706H14.8235V28.5882H21.1765V26.4706H19.0588V24.3529H28.5882V26.4706H26.4706V28.5882H32.8235V26.4706H30.7059V24.3529H36ZM27.5294 10.5882C27.5294 10.0044 28.0043 9.52939 28.5882 9.52939H30.7059C31.2898 9.52939 31.7647 10.0044 31.7647 10.5882V18H27.5294V10.5882ZM15.8824 10.5882C15.8824 10.0044 16.3573 9.52939 16.9412 9.52939H19.0588C19.6427 9.52939 20.1176 10.0044 20.1176 10.5882V18H15.8824V10.5882ZM5.29412 9.52939H7.41177C7.9956 9.52939 8.47059 10.0044 8.47059 10.5882V18H4.23529V10.5882C4.23529 10.0044 4.71028 9.52939 5.29412 9.52939ZM2.11765 21.1765C2.11765 20.5926 2.59264 20.1176 3.17647 20.1176H32.8235C33.4074 20.1176 33.8824 20.5926 33.8824 21.1765V22.2353H2.11765V21.1765Z" fill="#939693"/>
</g>
<defs>
<clipPath id="clip0_133_3057">
<rect width="36" height="36" fill="white"/>
</clipPath>
</defs>
</svg>
