<svg width="32" height="32" viewBox="0 0 32 32" fill="none" xmlns="http://www.w3.org/2000/svg">
<g clip-path="url(#clip0_514_129)">
<path d="M29 32H3C1.346 32 0 30.654 0 29V13.236C0 12.093 0.635 11.065 1.658 10.553L4.553 9.10598C5.048 8.85798 5.648 9.05998 5.895 9.55298C6.142 10.047 5.942 10.648 5.448 10.895L2.553 12.342C2.212 12.512 2 12.855 2 13.236V29C2 29.552 2.449 30 3 30H29C29.551 30 30 29.552 30 29V13.236C30 12.855 29.788 12.512 29.447 12.342L26.552 10.895C26.058 10.648 25.858 10.047 26.105 9.55298C26.352 9.05998 26.952 8.85798 27.447 9.10598L30.342 10.553C31.365 11.064 32 12.093 32 13.236V29C32 30.654 30.654 32 29 32Z" fill="black"/>
<path d="M16.0001 24C15.8381 24 15.6761 23.961 15.5291 23.883L0.529089 15.883C0.0420888 15.623 -0.141911 15.017 0.117089 14.53C0.376089 14.043 0.982089 13.857 1.47009 14.118L16.0001 21.866L30.5291 14.117C31.0171 13.857 31.6221 14.042 31.8821 14.529C32.1421 15.016 31.9581 15.622 31.4701 15.882L16.4701 23.882C16.3241 23.961 16.1621 24 16.0001 24Z" fill="black"/>
<path d="M5 17.75C4.448 17.75 4 17.303 4 16.75V3C4 1.346 5.346 0 7 0H25C26.654 0 28 1.346 28 3V16.5C28 17.053 27.552 17.5 27 17.5C26.448 17.5 26 17.053 26 16.5V3C26 2.449 25.551 2 25 2H7C6.449 2 6 2.449 6 3V16.75C6 17.303 5.552 17.75 5 17.75Z" fill="black"/>
<path d="M16.0001 17C15.7291 17 15.4711 16.891 15.2821 16.696L11.1531 12.44C10.0861 11.335 9.73708 9.93201 10.1951 8.58801C10.6541 7.24001 11.8351 6.23801 13.2041 6.03701C14.2081 5.89301 15.1841 6.19001 16.0001 6.87701C16.8171 6.19001 17.7951 5.89101 18.7961 6.03601C20.1651 6.23801 21.3461 7.23901 21.8051 8.58701C22.2631 9.93101 21.9141 11.334 20.8481 12.438L16.7171 16.696C16.5291 16.891 16.2711 17 16.0001 17ZM13.7001 8.00001C13.6321 8.00001 13.5641 8.00501 13.4951 8.01501C12.8791 8.10601 12.3001 8.60601 12.0871 9.23201C11.9381 9.67001 11.9041 10.339 12.5891 11.048L16.0001 14.564L19.4121 11.047C20.0951 10.339 20.0611 9.67001 19.9121 9.23201C19.6991 8.60601 19.1201 8.10601 18.5041 8.01501C17.8921 7.92301 17.3051 8.24001 16.8131 8.93001C16.4371 9.45401 15.5621 9.45401 15.1861 8.93001C14.7491 8.31801 14.2391 8.00001 13.7001 8.00001Z" fill="black"/>
</g>
<defs>
<clipPath id="clip0_514_129">
<rect width="32" height="32" fill="white"/>
</clipPath>
</defs>
</svg>
