<svg width="32" height="32" viewBox="0 0 32 32" fill="none" xmlns="http://www.w3.org/2000/svg">
<path d="M13.3501 28.884C13.1463 28.6999 12.9017 28.5667 12.6364 28.4955C12.3712 28.4243 12.0928 28.4171 11.8242 28.4745L11.7929 28.4812C9.29004 29.0128 8.12033 28.4559 7.28218 25.8611L7.27533 25.8399C7.1907 25.5788 7.04532 25.3415 6.85114 25.1475C6.65696 24.9535 6.41952 24.8084 6.15833 24.724L6.13912 24.7178C3.55934 23.8842 2.98367 22.7279 3.51851 20.2073L3.52551 20.1743C3.58241 19.9059 3.57494 19.6278 3.5037 19.3628C3.43247 19.0978 3.2995 18.8534 3.11567 18.6497C1.32294 16.6676 1.32 15.3357 3.11567 13.3503C3.29962 13.1468 3.43273 12.9026 3.50409 12.6377C3.57545 12.3728 3.58303 12.0948 3.5262 11.8264L3.51899 11.7922C2.98785 9.2883 3.54329 8.12088 6.1396 7.28197L6.15763 7.27614C6.41934 7.1914 6.6572 7.04577 6.85168 6.85123C7.04617 6.65669 7.19173 6.41879 7.2764 6.15706L7.28217 6.13915C7.55267 5.30297 7.88862 4.2622 8.88764 3.68432C9.87544 3.11254 10.9389 3.33813 11.7924 3.51882C12.0654 3.58224 12.3496 3.57871 12.621 3.50852C12.8923 3.43834 13.1426 3.30358 13.3505 3.11574C15.3323 1.3227 16.666 1.32109 18.6498 3.11598C18.8576 3.30377 19.1078 3.43848 19.3789 3.50863C19.6501 3.57878 19.9342 3.58227 20.207 3.51882C22.7775 2.97565 23.8989 3.60414 24.7177 6.13893C24.8013 6.40792 24.949 6.65254 25.1481 6.85172C25.3472 7.0509 25.5918 7.19866 25.8608 7.28224C28.4406 8.11581 29.0162 9.27207 28.4814 11.7927L28.4744 11.8257C28.4175 12.0942 28.425 12.3723 28.4962 12.6373C28.5674 12.9023 28.7004 13.1466 28.8842 13.3504C30.677 15.3325 30.6799 16.6643 28.8842 18.6497C28.7003 18.853 28.5673 19.097 28.4958 19.3617C28.4244 19.6263 28.4168 19.9042 28.4734 20.1724L28.4809 20.2078C29.0121 22.7117 28.4566 23.8791 25.8603 24.718L25.8403 24.7245C25.5788 24.8092 25.3412 24.9548 25.147 25.1493C24.9528 25.3438 24.8076 25.5817 24.7234 25.8433L24.7178 25.8609C23.8778 28.4572 22.7104 29.0129 20.2075 28.4812L20.1714 28.4736C19.9035 28.417 19.626 28.4247 19.3616 28.4959C19.0973 28.5672 18.8535 28.7 18.6503 28.8835L18.6494 28.8843C16.6676 30.6773 15.3338 30.6789 13.3501 28.884ZM15.3623 26.6589L15.3784 26.6736C15.5489 26.8278 15.7705 26.9131 16.0004 26.913C16.2302 26.9129 16.4518 26.8274 16.6221 26.673L16.6376 26.6589C18.0895 25.3468 18.8096 25.1177 20.8295 25.5466C20.9373 25.58 21.0509 25.5904 21.163 25.5774C21.2751 25.5643 21.3832 25.528 21.4805 25.4708C21.5777 25.4135 21.6619 25.3366 21.7278 25.245C21.7936 25.1533 21.8396 25.0489 21.8627 24.9385C22.4821 23.0227 23.0142 22.4845 24.9379 21.8635C25.0484 21.8403 25.1528 21.7943 25.2445 21.7285C25.3362 21.6626 25.4131 21.5783 25.4704 21.481C25.5277 21.3838 25.564 21.2756 25.5771 21.1635C25.5901 21.0513 25.5797 20.9377 25.5463 20.8299C25.1193 18.8164 25.3407 18.096 26.6591 16.6372C26.7544 16.5606 26.8312 16.4635 26.884 16.3533C26.9368 16.243 26.9642 16.1223 26.9642 16C26.9642 15.8778 26.9368 15.7571 26.884 15.6468C26.8312 15.5365 26.7544 15.4395 26.6591 15.3628C25.3399 13.9031 25.1205 13.1845 25.5463 11.1707L25.5466 11.1696C25.5923 10.9548 25.5567 10.7306 25.4466 10.5405C25.3366 10.3504 25.1599 10.208 24.9508 10.1407L24.9384 10.1367C23.0138 9.51544 22.4825 8.97735 21.8632 7.06178L21.8595 7.05008C21.792 6.84108 21.6495 6.66445 21.4596 6.55426C21.2696 6.44408 21.0455 6.40815 20.8306 6.4534L20.8295 6.45362C18.8152 6.88052 18.0967 6.65968 16.6376 5.34107L16.6313 5.33531C16.4581 5.1786 16.2329 5.09189 15.9994 5.09204C15.7658 5.09219 15.5407 5.17918 15.3678 5.3361L15.3623 5.34107C13.9044 6.65863 13.182 6.88141 11.1704 6.45338C11.0626 6.42483 10.9502 6.41794 10.8398 6.43312C10.7293 6.4483 10.6229 6.48523 10.5268 6.5418C10.4307 6.59836 10.3468 6.67342 10.2799 6.76263C10.2131 6.85184 10.1645 6.95344 10.1372 7.06153C9.50547 9.01553 8.96212 9.52858 6.98762 10.1602C6.79491 10.2218 6.63205 10.353 6.53081 10.5281C6.42958 10.7033 6.39724 10.9099 6.4401 11.1076C6.8826 13.1659 6.67699 13.8843 5.34079 15.3628C5.24699 15.4404 5.17148 15.5377 5.11965 15.6479C5.06782 15.758 5.04095 15.8783 5.04095 16C5.04095 16.1217 5.06782 16.242 5.11965 16.3521C5.17148 16.4623 5.24699 16.5596 5.34079 16.6372C6.66006 18.097 6.87942 18.8155 6.45358 20.8294L6.45335 20.8304C6.40761 21.0453 6.44322 21.2694 6.55329 21.4595C6.66336 21.6496 6.84006 21.792 7.04916 21.8593L7.06149 21.8633C8.98614 22.4846 9.51741 23.0227 10.1367 24.9382L10.1405 24.9499C10.2079 25.159 10.3504 25.3356 10.5404 25.4458C10.7303 25.5559 10.9544 25.5919 11.1693 25.5466L11.1704 25.5464C13.1686 25.1234 13.8842 25.3231 15.3623 26.6589Z" fill="black"/>
<path d="M10.6894 18.9395L19.1894 10.4395C20.5906 9.0383 22.7145 11.1571 21.3105 12.5605L12.8105 21.0605C11.415 22.4561 9.27224 20.3561 10.6894 18.9395Z" fill="black"/>
<path d="M14.5 11.75C14.5 12.0961 14.3974 12.4345 14.2051 12.7222C14.0128 13.01 13.7395 13.2343 13.4197 13.3668C13.0999 13.4992 12.7481 13.5339 12.4086 13.4664C12.0691 13.3989 11.7573 13.2322 11.5126 12.9874C11.2678 12.7427 11.1012 12.4309 11.0336 12.0914C10.9661 11.7519 11.0008 11.4001 11.1332 11.0803C11.2657 10.7605 11.49 10.4872 11.7778 10.2949C12.0655 10.1026 12.4039 10 12.75 10C13.2141 10 13.6592 10.1844 13.9874 10.5126C14.3156 10.8408 14.5 11.2859 14.5 11.75Z" fill="black"/>
<path d="M21 19.75C21 20.0961 20.8974 20.4345 20.7051 20.7222C20.5128 21.01 20.2395 21.2343 19.9197 21.3668C19.5999 21.4992 19.2481 21.5339 18.9086 21.4664C18.5691 21.3988 18.2573 21.2322 18.0126 20.9874C17.7678 20.7427 17.6012 20.4309 17.5336 20.0914C17.4661 19.7519 17.5008 19.4001 17.6332 19.0803C17.7657 18.7605 17.99 18.4872 18.2778 18.2949C18.5655 18.1026 18.9039 18 19.25 18C19.7141 18 20.1592 18.1844 20.4874 18.5126C20.8156 18.8408 21 19.2859 21 19.75Z" fill="black"/>
</svg>
