<svg width="42" height="42" viewBox="0 0 42 42" fill="none" xmlns="http://www.w3.org/2000/svg">
<g clip-path="url(#clip0_518_149)">
<path d="M17.3087 16.0784C17.3087 15.3988 16.7577 14.8479 16.0782 14.8479C9.97029 14.8479 4.92206 19.8049 4.92206 25.922C4.92206 26.6016 5.47297 27.1525 6.15251 27.1525C6.83206 27.1525 7.38297 26.6016 7.38297 25.922C7.38297 21.1727 11.2836 17.3088 16.0782 17.3088C16.7577 17.3088 17.3087 16.758 17.3087 16.0784Z" fill="black"/>
<path d="M26.0039 24.6917C25.3243 24.6917 24.7734 25.2426 24.7734 25.9221C24.7734 30.6714 20.8728 34.5353 16.0782 34.5353C15.3987 34.5353 14.8477 35.0862 14.8477 35.7658C14.8477 36.4453 15.3987 36.9962 16.0782 36.9962C22.1861 36.9962 27.2343 32.0392 27.2343 25.9221C27.2343 25.2426 26.6834 24.6917 26.0039 24.6917Z" fill="black"/>
<path d="M19.7697 25.9221C19.7697 23.8867 18.1137 22.2307 16.0782 22.2307C14.0428 22.2307 12.3868 23.8867 12.3868 25.9221C12.3868 27.9576 14.0428 29.6135 16.0782 29.6135C18.1137 29.6135 19.7697 27.9576 19.7697 25.9221ZM14.8478 25.9221C14.8478 25.2436 15.3998 24.6917 16.0782 24.6917C16.7567 24.6917 17.3087 25.2436 17.3087 25.9221C17.3087 26.6006 16.7567 27.1526 16.0782 27.1526C15.3998 27.1526 14.8478 26.6006 14.8478 25.9221Z" fill="black"/>
<path d="M42 1.23088C42 0.453479 41.2873 -0.128035 40.5282 0.0243779L28.2237 2.48529C27.6485 2.6003 27.2345 3.10528 27.2345 3.6918V12.5987C26.8494 12.4621 26.4354 12.387 26.0041 12.387C25.6317 12.387 25.2723 12.443 24.9332 12.546C22.3444 10.8526 19.2275 9.92611 16.0784 9.92611C7.21295 9.92611 0.000427246 17.1019 0.000427246 25.922C0.000427246 34.7648 7.23666 42 16.0784 42C24.9212 42 32.1564 34.7638 32.1564 25.922C32.1564 22.7743 31.2526 19.7557 29.5369 17.148C29.6397 16.8092 29.6954 16.4502 29.6954 16.0784V9.62235L39.5391 7.65362V10.1377C39.154 10.0012 38.74 9.92611 38.3086 9.92611C36.2732 9.92611 34.6173 11.5821 34.6173 13.6175C34.6173 15.6529 36.2732 17.3088 38.3086 17.3088C40.3441 17.3088 42 15.6529 42 13.6175C42 12.4587 42 2.5099 42 1.23088ZM27.2345 16.0784C27.2345 16.7569 26.6826 17.3088 26.0041 17.3088C25.3256 17.3088 24.7736 16.7569 24.7736 16.0784C24.7736 15.3999 25.3256 14.8479 26.0041 14.8479C26.6826 14.8479 27.2345 15.3999 27.2345 16.0784ZM16.0784 39.5391C8.5699 39.5391 2.46134 33.4305 2.46134 25.922C2.46134 18.4588 8.5699 12.387 16.0784 12.387C18.4602 12.387 20.8172 13.0097 22.8522 14.159C22.5102 14.7186 22.3127 15.3759 22.3127 16.0784C22.3127 18.1138 23.9687 19.7698 26.0041 19.7698C26.7081 19.7698 27.3667 19.5714 27.9271 19.228C29.0874 21.2594 29.6954 23.547 29.6954 25.922C29.6954 33.4305 23.5868 39.5391 16.0784 39.5391ZM29.6954 7.11279V4.70052L39.5391 2.73179V5.14398L29.6954 7.11279ZM38.3086 14.8479C37.6302 14.8479 37.0782 14.296 37.0782 13.6175C37.0782 12.939 37.6302 12.387 38.3086 12.387C38.9871 12.387 39.5391 12.939 39.5391 13.6175C39.5391 14.296 38.9871 14.8479 38.3086 14.8479Z" fill="black"/>
</g>
<defs>
<clipPath id="clip0_518_149">
<rect width="42" height="42" fill="white"/>
</clipPath>
</defs>
</svg>
