<svg width="32" height="32" viewBox="0 0 32 32" fill="none" xmlns="http://www.w3.org/2000/svg">
<path d="M25.793 7.7041C24.5084 6.37691 20.9338 2.71973 20.9338 2.71973C20.7147 2.49204 20.4518 2.31094 20.161 2.18727C19.8702 2.0636 19.5575 1.9999 19.2415 2H7.8999C7.25377 2.01076 6.63828 2.27731 6.18839 2.7412C5.73851 3.20509 5.49095 3.82846 5.5 4.47461V27.5254C5.49095 28.1715 5.73851 28.7949 6.18839 29.2588C6.63828 29.7227 7.25377 29.9892 7.8999 30H24.1001C24.7462 29.9892 25.3617 29.7227 25.8116 29.2588C26.2615 28.7949 26.509 28.1715 26.5 27.5254V9C26.5 8.50588 26.3516 8.28125 25.793 7.7041ZM20 6.05911L22.8669 9H20V6.05911ZM23.5 27H8.5V5H17V9.44433C16.9935 10.1145 17.253 10.7599 17.7217 11.239C18.1903 11.7181 18.8298 11.9918 19.5 12H23.5V27Z" fill="black"/>
<path d="M18.4999 16H13.4999C11.5179 16 11.5154 13 13.4999 13H18.4999C20.4819 13 20.4844 16 18.4999 16Z" fill="black"/>
<path d="M20.4999 21H11.4999C9.51789 21 9.51539 18 11.4999 18H20.4999C22.4819 18 22.4844 21 20.4999 21Z" fill="black"/>
<path d="M20.4999 25.5H11.4999C9.51789 25.5 9.51539 22.5 11.4999 22.5H20.4999C22.4819 22.5 22.4844 25.5 20.4999 25.5Z" fill="black"/>
</svg>
