<svg width="37" height="37" viewBox="0 0 37 37" fill="none" xmlns="http://www.w3.org/2000/svg">
<g clip-path="url(#clip0_559_74)">
<path d="M15.8022 17.3438H1.15625C0.517998 17.3438 0 16.8258 0 16.1875C0 15.5492 0.517998 15.0312 1.15625 15.0312H15.8022C16.4404 15.0312 16.9584 15.5492 16.9584 16.1875C16.9584 16.8258 16.4404 17.3438 15.8022 17.3438Z" fill="black"/>
<path d="M10.021 23.125C9.72484 23.125 9.429 23.0124 9.20374 22.786C8.75208 22.3341 8.75208 21.6018 9.20374 21.1501L14.168 16.1861L9.20374 11.2235C8.75208 10.7716 8.75208 10.0393 9.20374 9.58765C9.6554 9.13599 10.3876 9.13599 10.8396 9.58765L16.6208 15.3689C17.0725 15.8206 17.0725 16.5528 16.6208 17.0048L10.8396 22.786C10.6129 23.0124 10.3168 23.125 10.021 23.125Z" fill="black"/>
<path d="M24.6665 37C22.966 37 21.5834 35.6171 21.5834 33.9166V6.16656C21.5834 4.84856 22.4221 3.67227 23.6706 3.23896L32.933 0.151017C35.005 -0.484131 36.9999 1.05293 36.9999 3.08342V30.8334C36.9999 32.15 36.1613 33.3246 34.9141 33.7593L25.6486 36.849C25.311 36.9537 24.9982 37 24.6665 37ZM33.9165 2.31249C33.8163 2.31249 33.7316 2.32491 33.6407 2.35258L24.417 5.4281C24.1146 5.53311 23.8959 5.83826 23.8959 6.16656V33.9166C23.8959 34.4425 24.4661 34.797 24.9426 34.6474L34.1663 31.5719C34.467 31.4669 34.6874 31.1617 34.6874 30.8334V3.08342C34.6874 2.65942 34.3422 2.31249 33.9165 2.31249Z" fill="black"/>
<path d="M13.4896 7.70843C12.8514 7.70843 12.3334 7.19043 12.3334 6.55218V4.23968C12.3334 1.90092 14.234 0 16.5728 0H33.9165C34.5548 0 35.0728 0.517998 35.0728 1.15625C35.0728 1.7945 34.5548 2.3125 33.9165 2.3125H16.5728C15.5105 2.3125 14.6459 3.17743 14.6459 4.23968V6.55218C14.6459 7.19043 14.1279 7.70843 13.4896 7.70843Z" fill="black"/>
<path d="M22.7396 32.3749H16.5728C14.234 32.3749 12.3334 30.474 12.3334 28.1353V25.8228C12.3334 25.1845 12.8514 24.6665 13.4896 24.6665C14.1279 24.6665 14.6459 25.1845 14.6459 25.8228V28.1353C14.6459 29.1975 15.5105 30.0624 16.5728 30.0624H22.7396C23.3779 30.0624 23.8959 30.5804 23.8959 31.2187C23.8959 31.8569 23.3779 32.3749 22.7396 32.3749Z" fill="black"/>
</g>
<defs>
<clipPath id="clip0_559_74">
<rect width="37" height="37" fill="white"/>
</clipPath>
</defs>
</svg>
