<svg width="40" height="40" viewBox="0 0 40 40"  xmlns="http://www.w3.org/2000/svg">
<mask id="mask0_577_1544" style="mask-type:luminance" maskUnits="userSpaceOnUse" x="0" y="0" width="40" height="40">
<path d="M0 4.92732e-06H40V40H0V4.92732e-06Z" />
</mask>

<path fill-rule="evenodd" clip-rule="evenodd" d="M4.94675 17.6304C5.59396 17.6304 6.11863 17.1057 6.11863 16.4585V7.62983C6.11863 6.73371 6.84525 6.00694 7.74198 6.00694H32.258C33.1547 6.00694 33.8814 6.73371 33.8814 7.62983V16.4585C33.8814 17.1057 34.406 17.6304 35.0532 17.6304C35.7004 17.6304 36.2251 17.1057 36.2251 16.4585V7.62983C36.2251 5.43891 34.4488 3.66319 32.258 3.66319H7.74198C5.55122 3.66319 3.77488 5.43891 3.77488 7.62983V16.4585C3.77488 17.1057 4.29954 17.6304 4.94675 17.6304Z" fill="#534918"/>
<path fill-rule="evenodd" clip-rule="evenodd" d="M-3.24249e-05 31.4927C-3.24249e-05 32.9419 1.17483 34.1167 2.62403 34.1167H37.376C38.8253 34.1167 40 32.9418 40 31.4927V22.5878C40 21.1387 38.8253 19.9638 37.376 19.9638H2.62403C1.17483 19.9638 -3.24249e-05 21.1386 -3.24249e-05 22.5878V31.4927ZM2.62403 31.7729C2.46917 31.7729 2.34372 31.6474 2.34372 31.4927V22.5878C2.34372 22.4331 2.46917 22.3076 2.62403 22.3076H37.376C37.5308 22.3076 37.6562 22.433 37.6562 22.5878V31.4927C37.6562 31.6475 37.5308 31.7729 37.376 31.7729H2.62403Z" fill="#534918"/>
<path fill-rule="evenodd" clip-rule="evenodd" d="M3.12428 22.3076C3.77149 22.3076 4.29615 21.783 4.29615 21.1357V19.291C4.29615 18.3741 5.03968 17.6304 5.95725 17.6304H34.0427C34.9603 17.6304 35.7038 18.3741 35.7038 19.291V21.1357C35.7038 21.783 36.2285 22.3076 36.8757 22.3076C37.5229 22.3076 38.0476 21.783 38.0476 21.1357V19.291C38.0476 17.0793 36.2544 15.2866 34.0427 15.2866H5.95725C3.7456 15.2866 1.9524 17.0793 1.9524 19.291V21.1357C1.9524 21.783 2.47707 22.3076 3.12428 22.3076Z" fill="#534918"/>
<path fill-rule="evenodd" clip-rule="evenodd" d="M10.2923 15.2866C10.14 15.2866 10.017 15.1633 10.017 15.0115V13.2281C10.017 13.0765 10.14 12.9531 10.2923 12.9531H16.5851C16.7373 12.9531 16.8603 13.0764 16.8603 13.2281V15.0115C16.8603 15.1634 16.7372 15.2866 16.5851 15.2866C15.9379 15.2866 15.4132 15.8113 15.4132 16.4585C15.4132 17.1057 15.9379 17.6304 16.5851 17.6304C18.0314 17.6304 19.2041 16.458 19.2041 15.0115V13.2281C19.2041 11.7817 18.0313 10.6094 16.5851 10.6094H10.2923C8.84597 10.6094 7.67321 11.7816 7.67321 13.2281V15.0115C7.67321 16.4581 8.84593 17.6304 10.2923 17.6304C10.9395 17.6304 11.4641 17.1057 11.4641 16.4585C11.4641 15.8113 10.9395 15.2866 10.2923 15.2866Z" fill="#534918"/>
<path fill-rule="evenodd" clip-rule="evenodd" d="M23.4149 15.2866C23.2627 15.2866 23.1396 15.1633 23.1396 15.0115V13.2281C23.1396 13.0765 23.2627 12.9531 23.4149 12.9531H29.7078C29.8599 12.9531 29.983 13.0764 29.983 13.2281V15.0115C29.983 15.1634 29.8599 15.2866 29.7078 15.2866C29.0605 15.2866 28.5359 15.8113 28.5359 16.4585C28.5359 17.1057 29.0605 17.6304 29.7078 17.6304C31.1541 17.6304 32.3267 16.458 32.3267 15.0115V13.2281C32.3267 11.7817 31.154 10.6094 29.7078 10.6094H23.4149C21.9688 10.6094 20.7959 11.7816 20.7959 13.2281V15.0115C20.7959 16.4581 21.9687 17.6304 23.4149 17.6304C24.0622 17.6304 24.5868 17.1057 24.5868 16.4585C24.5868 15.8113 24.0622 15.2866 23.4149 15.2866Z" fill="#534918"/>
<path fill-rule="evenodd" clip-rule="evenodd" d="M3.666 36.3374C4.31321 36.3374 4.83788 35.8127 4.83788 35.1655V32.9447C4.83788 32.2975 4.31321 31.7729 3.666 31.7729C3.01879 31.7729 2.49413 32.2975 2.49413 32.9447V35.1655C2.49413 35.8127 3.01879 36.3374 3.666 36.3374Z" fill="#534918"/>
<path fill-rule="evenodd" clip-rule="evenodd" d="M36.334 36.3374C36.9812 36.3374 37.5059 35.8127 37.5059 35.1655V32.9447C37.5059 32.2975 36.9812 31.7729 36.334 31.7729C35.6868 31.7729 35.1621 32.2975 35.1621 32.9447V35.1655C35.1621 35.8127 35.6868 36.3374 36.334 36.3374Z" fill="#534918"/>

</svg>
