<svg width="85" height="85" viewBox="0 0 85 85" fill="none" xmlns="http://www.w3.org/2000/svg">
<g clip-path="url(#clip0_590_37)">
<path d="M58.4145 22.4732C56.7656 20.8058 54.0789 20.7848 52.4042 22.4263L20.9896 53.4745L7.33336 39.3369C5.70459 37.6394 3.0081 37.5836 1.3107 39.2124C-0.386899 40.8412 -0.442618 43.5377 1.18616 45.2351C1.19354 45.2426 1.20073 45.2502 1.20811 45.2578L17.859 62.5134C18.6558 63.3263 19.7449 63.7867 20.8833 63.7913H20.9302C22.047 63.7878 23.1178 63.3457 23.9119 62.5603L58.3761 28.4835C60.0412 26.8322 60.0582 24.1457 58.4145 22.4732Z" fill="black"/>
<path d="M43.4164 62.5134C44.2113 63.3243 45.2969 63.7842 46.4323 63.7912H46.4791C47.5959 63.7877 48.6668 63.3457 49.4609 62.5603L83.9253 28.4835C85.4875 26.7244 85.3279 24.0322 83.569 22.47C81.9744 21.0538 79.5783 21.0352 77.9618 22.4263L46.56 53.4745L45.4397 52.3116C43.8111 50.614 41.1146 50.5581 39.417 52.1869C37.7194 53.8155 37.6635 56.5119 39.2923 58.2095C39.2996 58.2173 39.307 58.2248 39.3144 58.2324L43.4164 62.5134Z" fill="black"/>
</g>
<defs>
<clipPath id="clip0_590_37">
<rect width="85" height="85" fill="white"/>
</clipPath>
</defs>
</svg>
