<svg width="32" height="32" viewBox="0 0 32 32" fill="none" xmlns="http://www.w3.org/2000/svg">
<path d="M27.45 30H4.55C3.15 30 2 28.9 2 27.5V21.5C2 20.65 2.65 20 3.5 20C4.35 20 5 20.65 5 21.5V27H27V21.5C27 20.65 27.65 20 28.5 20C29.35 20 30 20.65 30 21.5V27.5C30 28.9 28.85 30 27.45 30Z" fill="black"/>
<path d="M25.1 15.5C24.55 14.9 23.6 14.85 23 15.4L17.5 20.45V3.5C17.5 2.65 16.85 2 16 2C15.15 2 14.5 2.65 14.5 3.5V20.45L8.99996 15.4C8.34996 14.85 7.39996 14.95 6.89996 15.55C6.39996 16.15 6.44996 17.05 6.99996 17.6L14.25 24.3C15.25 25.2 16.75 25.2 17.75 24.3L25 17.6C25.6 17.05 25.65 16.1 25.1 15.5Z" fill="black"/>
</svg>
