<svg width="32" height="32" viewBox="0 0 32 32" fill="none" xmlns="http://www.w3.org/2000/svg">
<path d="M29.4976 17.5741L26.6145 20.758C25.2976 22.214 23.0396 20.2356 24.3903 18.7439L25.2898 17.7504H17.5004V25.2897L18.4938 24.3902C19.962 23.0585 21.9801 25.2815 20.508 26.6144L17.3255 29.496C16.9606 29.8204 16.4893 29.9997 16.001 30C15.5127 30.0003 15.0412 29.8215 14.6759 29.4974L11.492 26.6145C10.0179 25.2798 12.0391 23.0596 13.5062 24.3903L14.4996 25.2897V17.7504H6.7102L7.60964 18.7439C8.96542 20.2412 6.689 22.1992 5.38546 20.758L2.50384 17.5756C2.17952 17.2106 2.00027 16.7393 2 16.2511C1.99973 15.7628 2.17846 15.2914 2.50237 14.926L5.38546 11.7421C6.71556 10.2718 8.94206 12.2847 7.60964 13.7563L6.7102 14.7497H14.4996V6.71037L13.5062 7.60978C12.0383 8.94115 10.0195 6.71876 11.492 5.38561L14.6745 2.50404C15.0394 2.17961 15.5107 2.00027 15.999 2C16.4873 1.99973 16.9587 2.17855 17.3241 2.50258L20.508 5.38558C22.0067 6.74245 19.9313 8.91284 18.4938 7.60976L17.5004 6.71035V14.7497H25.2898L24.3903 13.7563C23.0596 12.2866 25.2831 10.269 26.6145 11.7421L29.4961 14.9245C29.8205 15.2895 29.9997 15.7608 30 16.2491C30.0003 16.7373 29.8215 17.2087 29.4976 17.5741Z" fill="black"/>
</svg>
