<svg enable-background="new 0 0 32 32" height="512" viewBox="0 0 32 32" width="512" xmlns="http://www.w3.org/2000/svg"><g id="_x30_1"><path d="m27.82 9.01h-2.42v-2.51c0-1.2-.98-2.18-2.18-2.18h-19.04c-1.2 0-2.18.98-2.18 2.18v14.33c0 1.2.98 2.18 2.18 2.18h2.44v2.5c0 1.22.96 2.18 2.18 2.18h19.03c1.22 0 2.18-.96 2.18-2.18v-14.33c-.01-1.22-.97-2.17-2.19-2.17zm-23.64 12c-.1 0-.18-.08-.18-.18v-14.33c0-.1.08-.18.18-.18h19.04c.09 0 .18.08.18.18v2.51h-14.61c-1.22 0-2.18.96-2.18 2.18v9.82zm4.44 4.49v-2.5-2.69l2.86-1.56c1.01-.55 2.3-.18 2.87.82l3.47 6.11h-9.03c-.1 0-.17-.07-.17-.18zm9.43-3.46 1.82-.99c.87-.47 1.97-.16 2.46.7l2.23 3.93h-4.44zm9.95 3.46c0 .11-.07.18-.18.18h-.96l-2.79-4.92c-1.02-1.8-3.33-2.46-5.15-1.47l-1.85 1.01-.98-1.72c-1.11-1.94-3.6-2.66-5.56-1.59l-1.9 1.04v-6.85c0-.11.07-.18.18-.18h16.6 2.43c.11 0 .18.07.18.18v14.32zm-2.36-10.68c0 1.04-.84 1.88-1.88 1.88s-1.88-.84-1.88-1.88.84-1.88 1.88-1.88c1.04.01 1.88.85 1.88 1.88z"/></g></svg>