<svg fill="none" height="512" viewBox="0 0 24 24" width="512" xmlns="http://www.w3.org/2000/svg"><path clip-rule="evenodd" d="m13.5435 1.76004c-.9501-.57003-2.1369-.57003-3.087 0l-7.99999 4.8c-.90361.54217-1.45651 1.51869-1.45651 2.57248v10.86758c0 1.6569 1.34315 3 3 3h16c1.6569 0 3-1.3431 3-3v-10.86758c0-1.05379-.5529-2.03031-1.4565-2.57248zm-2.058 1.71499c.3167-.19001.7123-.19001 1.029 0l7.881 4.72858c-.0032.00238-.0063.00478-.0094.00721l-7.7721 6.04498c-.3611.2809-.8668.2809-1.2279 0l-7.77211-6.04498c-.00313-.00244-.00627-.00485-.00941-.00724zm-8.4855 6.79197v9.7331c0 .5523.44772 1 1 1h16c.5523 0 1-.4477 1-1v-9.733l-7.1581 5.5674c-1.0834.8426-2.6003.8426-3.6837 0z" fill="rgb(0,0,0)" fill-rule="evenodd"/></svg>