<svg width="42" height="42" viewBox="0 0 42 42" fill="none" xmlns="http://www.w3.org/2000/svg">
<g clip-path="url(#clip0_518_178)">
<path d="M7.38281 39.1438L19.7695 34.2219V9.84375H17.3086C14.7491 9.84375 12.7632 11.2745 11.0111 12.5368C9.80208 13.4079 8.64388 14.2418 7.38281 14.5921V9.84375H4.92188V7.17117C6.35406 6.66323 7.38281 5.29553 7.38281 3.69141C7.38281 1.65596 5.72685 0 3.69141 0C1.65596 0 0 1.65596 0 3.69141C0 5.29553 1.02875 6.66323 2.46094 7.17117V9.84375H0V42H7.38281V39.1438ZM3.69141 2.46094C4.36989 2.46094 4.92188 3.01293 4.92188 3.69141C4.92188 4.36989 4.36989 4.92188 3.69141 4.92188C3.01293 4.92188 2.46094 4.36989 2.46094 3.69141C2.46094 3.01293 3.01293 2.46094 3.69141 2.46094ZM7.38281 36.4956V33.8429L17.3086 29.8988V32.5516L7.38281 36.4956ZM12.4498 14.5335C14.0406 13.3873 15.5433 12.3047 17.3086 12.3047V27.2507L7.38281 31.1948V17.1145C9.36551 16.7546 10.989 15.5859 12.4498 14.5335ZM4.92188 39.5391H2.46094V12.3047H4.92188V39.5391Z" fill="black"/>
<path d="M42 3.69141C42 1.65596 40.344 0 38.3086 0C36.2732 0 34.6172 1.65596 34.6172 3.69141C34.6172 5.29553 35.6459 6.66323 37.0781 7.17117V9.84375H34.6172V14.592C33.356 14.2417 32.1978 13.4078 30.9889 12.5368C29.2368 11.2745 27.2509 9.84375 24.6914 9.84375H22.2305V34.2219L34.6172 39.1438V42H42V9.84375H39.5391V7.17117C40.9712 6.66323 42 5.29553 42 3.69141ZM29.5502 14.5335C31.011 15.5859 32.6345 16.7546 34.6172 17.1145V31.1948L24.6914 27.2507V12.3047C26.4567 12.3047 27.9594 13.3873 29.5502 14.5335ZM24.6914 32.5516V29.8988L34.6172 33.8429V36.4956L24.6914 32.5516ZM39.5391 39.5391H37.0781V12.3047H39.5391V39.5391ZM38.3086 2.46094C38.9871 2.46094 39.5391 3.01293 39.5391 3.69141C39.5391 4.36989 38.9871 4.92188 38.3086 4.92188C37.6301 4.92188 37.0781 4.36989 37.0781 3.69141C37.0781 3.01293 37.6301 2.46094 38.3086 2.46094Z" fill="black"/>
</g>
<defs>
<clipPath id="clip0_518_178">
<rect width="42" height="42" fill="white"/>
</clipPath>
</defs>
</svg>
