<svg width="94" height="94" viewBox="0 0 94 94" fill="none" xmlns="http://www.w3.org/2000/svg">
<g opacity="0.7" clip-path="url(#clip0_123_1807)">
<path d="M31.2804 80.1296C18.6935 79.4174 8.67133 68.9526 8.67133 56.1894C8.67133 42.9667 19.4279 32.2092 32.6494 32.2092C38.5627 32.2092 44.2407 34.379 48.6378 38.3187C53.716 42.8608 56.6294 49.375 56.6294 56.1892C56.6294 61.9038 54.5794 67.4066 50.9219 71.7141C53.5159 73.3949 56.494 74.3989 59.5978 74.6279C63.333 69.1903 65.3007 62.8457 65.3007 56.1892C65.3007 49.0577 63.043 42.284 58.7721 36.6005C55.3783 32.0827 50.8615 28.5062 45.7097 26.257C42.8543 25.0081 39.8687 24.1866 36.7934 23.7991C43.0093 19.2233 45.3863 15.3882 45.3863 12.0432C45.3863 8.02923 42.1324 4.77533 38.1184 4.77533C35.9374 4.77533 33.9823 5.73731 32.6502 7.25855C31.318 5.73731 29.3628 4.77533 27.1819 4.77533C23.1679 4.77533 19.914 8.02923 19.914 12.0432C19.914 15.3887 22.2917 19.2244 28.5098 23.8011C12.4543 25.8417 0 39.5885 0 56.1894C0 74.1922 14.6464 88.8388 32.6494 88.8388C35.1385 88.8388 37.582 88.5626 39.9608 88.0182C36.6925 85.857 33.7572 83.1968 31.2804 80.1296Z" fill="#534918"/>
<path d="M60.9652 23.5401C58.476 23.5401 56.0324 23.8163 53.6537 24.3605C56.922 26.5219 59.8573 29.1821 62.3343 32.2493C74.9212 32.9614 84.9433 43.4263 84.9433 56.1894C84.9433 69.412 74.1869 80.1695 60.9654 80.1695C55.0524 80.1695 49.3741 77.9997 44.9768 74.06C39.8987 69.5177 36.9853 63.0035 36.9853 56.1894C36.9853 50.4747 39.0353 44.9717 42.6928 40.6644C40.0987 38.9837 37.1206 37.9796 34.0169 37.7507C30.2814 43.1882 28.314 49.5327 28.314 56.1892C28.314 63.3208 30.5715 70.0943 34.8428 75.778C38.2364 80.2958 42.7531 83.8724 47.905 86.1215C52.028 87.9247 56.4214 88.8386 60.9654 88.8386C78.9683 88.8386 93.6147 74.1922 93.6147 56.1892C93.6145 38.1865 78.9681 23.5401 60.9652 23.5401Z" fill="#534918"/>
</g>
<defs>
<clipPath id="clip0_123_1807">
<rect width="93.6145" height="93.6145" fill="white"/>
</clipPath>
</defs>
</svg>
