<svg width="98" height="96" viewBox="0 0 98 96" fill="none" xmlns="http://www.w3.org/2000/svg">
<g opacity="0.7" clip-path="url(#clip0_123_1839)">
<path d="M25.8722 17.2317C29.0936 17.2317 31.7051 14.6725 31.7051 11.5157C31.7051 9.41196 29.1148 4.68734 27.3864 1.76927C26.7119 0.630212 25.0327 0.630212 24.358 1.76927C22.6298 4.68734 20.0393 9.41196 20.0393 11.5157C20.0393 14.6725 22.6509 17.2317 25.8722 17.2317Z" fill="#534918"/>
<path d="M48.9999 17.2317C52.2213 17.2317 54.8328 14.6725 54.8328 11.5157C54.8328 9.41196 52.2425 4.68734 50.5141 1.76927C49.8396 0.630212 48.1604 0.630212 47.4857 1.76927C45.7575 4.68734 43.167 9.41196 43.167 11.5157C43.167 14.6725 45.7783 17.2317 48.9999 17.2317Z" fill="#534918"/>
<path d="M72.1276 17.2317C75.349 17.2317 77.9605 14.6725 77.9605 11.5157C77.9605 9.41196 75.3702 4.68734 73.6418 1.76927C72.9671 0.630212 71.2881 0.630212 70.6134 1.76927C68.8852 4.68734 66.2947 9.41196 66.2947 11.5157C66.2947 14.6725 68.9062 17.2317 72.1276 17.2317Z" fill="#534918"/>
<path d="M22.6608 21.9283C21.2341 21.9283 20.0774 23.0618 20.0774 24.46V44.8832H31.667V24.4602C31.667 23.062 30.5106 21.9285 29.0836 21.9285H22.6608V21.9283Z" fill="#534918"/>
<path d="M45.7885 21.9283C44.3617 21.9283 43.2051 23.0618 43.2051 24.46V44.8832H54.7947V24.4602C54.7947 23.062 53.6381 21.9285 52.2113 21.9285H45.7885V21.9283Z" fill="#534918"/>
<path d="M68.9162 21.9283C67.4894 21.9283 66.3328 23.0618 66.3328 24.46V44.8832H77.9224V24.4602C77.9224 23.062 76.7657 21.9285 75.339 21.9285H68.9162V21.9283Z" fill="#534918"/>
<path d="M12.6807 66.7679C13.1481 66.7679 13.6265 66.7034 14.1019 66.5654L21.3497 64.4637C23.7187 63.7767 26.1892 63.4332 28.6595 63.4332C31.1298 63.4332 33.6003 63.7767 35.9693 64.4637L41.6901 66.1227C44.0591 66.8097 46.5296 67.1532 48.9999 67.1532C51.4702 67.1532 53.9406 66.8097 56.3097 66.1227L62.0304 64.4637C64.3995 63.7767 66.8699 63.4332 69.3402 63.4332C71.8105 63.4332 74.281 63.7767 76.65 64.4637L83.8978 66.5654C84.3731 66.7032 84.8518 66.7679 85.319 66.7679C87.6385 66.7679 89.6806 65.1777 89.6806 63.0655V55.8145C89.6806 53.4107 87.3799 51.462 84.5417 51.462H13.4582C10.62 51.462 8.31934 53.4107 8.31934 55.8145V63.0655C8.31934 65.1777 10.3616 66.7679 12.6807 66.7679Z" fill="#534918"/>
<path d="M95.1289 89.46H87.2916V72.2121C86.6464 72.3304 85.9864 72.3928 85.3191 72.3928C84.2871 72.3928 83.2604 72.247 82.2679 71.9592L75.0201 69.8575C73.1916 69.3272 71.2806 69.0583 69.3404 69.0583C67.4001 69.0583 65.4891 69.3272 63.6606 69.8575L57.9398 71.5165C55.0523 72.3538 52.0447 72.7783 49.0002 72.7783C45.9557 72.7783 42.9479 72.3538 40.0604 71.5165L34.3396 69.8575C32.5111 69.3272 30.6001 69.0583 28.6598 69.0583C26.7195 69.0583 24.8085 69.3272 22.98 69.8575L15.7323 71.9592C14.7396 72.247 13.7131 72.393 12.681 72.393C12.0136 72.393 11.3536 72.3306 10.7086 72.2123V89.4602H2.87109C1.28548 89.4602 0 90.7195 0 92.2727C0 93.826 1.28548 95.0852 2.87109 95.0852H95.1289C96.7145 95.0852 98 93.826 98 92.2727C98 90.7195 96.7145 89.46 95.1289 89.46Z" fill="#534918"/>
</g>
<defs>
<clipPath id="clip0_123_1839">
<rect width="98" height="96" fill="white"/>
</clipPath>
</defs>
</svg>
