<svg width="99" height="97" viewBox="0 0 99 97" fill="none" xmlns="http://www.w3.org/2000/svg">
<g opacity="0.7" clip-path="url(#clip0_123_1811)">
<path d="M18.3886 25.0539V7.01508C18.3886 5.97284 18.5111 4.97068 18.7972 4.00861H7.15111C3.22821 4.00861 0 7.17543 0 11.0237V29.0626C0 32.9109 3.22821 36.0777 7.15111 36.0777H8.66305L13.8936 42.8924C14.4657 43.6139 15.3238 44.0549 16.2228 44.095H16.3454C17.2444 44.095 18.0616 43.7342 18.6337 43.0527L24.7633 36.1979C20.963 33.8729 18.3886 29.744 18.3886 25.0539Z" fill="#534918"/>
<path d="M90.9212 4.00861H79.2751C79.5612 4.97068 79.6838 5.97284 79.6838 7.01508V25.0539C79.6838 29.744 77.1094 33.8729 73.3091 36.1979L79.4386 43.0527C80.0107 43.7342 80.828 44.095 81.727 44.095H81.8495C82.7485 44.0549 83.6067 43.6139 84.1788 42.8924L89.3684 36.0777H90.9212C94.8441 36.0777 98.0723 32.9109 98.0723 29.0626V11.0237C98.0723 7.17543 94.8441 4.00861 90.9212 4.00861Z" fill="#534918"/>
<path d="M49.0361 40.0864C48.9994 40.0864 48.9585 40.0864 48.9217 40.0864C47.9982 40.0503 47.1401 39.6093 46.5843 38.8838L41.3742 32.0691H31.6692C27.7258 32.0691 24.5181 28.9223 24.5181 25.054V7.01511C24.5181 3.14678 27.7258 0 31.6692 0H66.4031C70.3464 0 73.5542 3.14678 73.5542 7.01511V25.054C73.5542 28.9223 70.3464 32.0691 66.4031 32.0691H57.5766L51.3408 39.0601C50.7606 39.7136 49.9188 40.0864 49.0361 40.0864Z" fill="#534918"/>
<path d="M16.3453 68.1468C20.859 68.1468 24.518 64.5573 24.518 60.1295C24.518 55.7017 20.859 52.1122 16.3453 52.1122C11.8316 52.1122 8.17261 55.7017 8.17261 60.1295C8.17261 64.5573 11.8316 68.1468 16.3453 68.1468Z" fill="#534918"/>
<path d="M27.2559 73.7589C23.1287 76.8055 20.4317 81.696 20.4317 87.1878V88.19H3.06476C1.38936 88.19 0 86.8271 0 85.1835V83.1792C0 77.0861 5.02621 72.1555 11.2375 72.1555H21.4533C23.5782 72.1555 25.5805 72.7568 27.2559 73.7589Z" fill="#534918"/>
<path d="M81.7269 68.1468C86.2405 68.1468 89.8996 64.5573 89.8996 60.1295C89.8996 55.7017 86.2405 52.1122 81.7269 52.1122C77.2132 52.1122 73.5542 55.7017 73.5542 60.1295C73.5542 64.5573 77.2132 68.1468 81.7269 68.1468Z" fill="#534918"/>
<path d="M98.0723 83.1792V85.1835C98.0723 86.8271 96.683 88.19 95.0076 88.19H77.6406V87.1878C77.6406 81.696 74.9436 76.8055 70.8164 73.7589C72.4918 72.7568 74.4941 72.1555 76.619 72.1555H86.8349C93.0461 72.1555 98.0723 77.0861 98.0723 83.1792Z" fill="#534918"/>
<path d="M49.0361 70.1511C55.8066 70.1511 61.2952 64.7669 61.2952 58.1252C61.2952 51.4835 55.8066 46.0993 49.0361 46.0993C42.2657 46.0993 36.7771 51.4835 36.7771 58.1252C36.7771 64.7669 42.2657 70.1511 49.0361 70.1511Z" fill="#534918"/>
<path d="M60.2736 76.1641H37.7987C31.5997 76.1641 26.5613 81.1067 26.5613 87.1878V93.2008C26.5613 94.8603 27.9343 96.2072 29.626 96.2072H68.4463C70.1381 96.2072 71.5111 94.8603 71.5111 93.2008V87.1878C71.5111 81.1067 66.4726 76.1641 60.2736 76.1641Z" fill="#534918"/>
</g>
<defs>
<clipPath id="clip0_123_1811">
<rect width="98.0723" height="96.2072" fill="white"/>
</clipPath>
</defs>
</svg>
