<svg width="94" height="94" viewBox="0 0 94 94" fill="none" xmlns="http://www.w3.org/2000/svg">
<g opacity="0.7" clip-path="url(#clip0_123_1831)">
<path d="M50.6606 58.4094C64.4749 56.0903 74.4169 41.029 74.4169 27.4168C74.4167 12.2989 62.1179 0 47.0001 0C31.8823 0 19.5835 12.2989 19.5835 27.4166C19.5835 41.0288 29.5255 56.0903 43.3398 58.4093L39.5589 63.4507C39.1133 64.0436 39.0424 64.8372 39.3734 65.5009C39.7063 66.1646 40.3832 66.5834 41.1253 66.5834H44.8954C44.6273 68.2484 44.0202 69.3199 43.3418 70.5077C42.3032 72.3264 41.1251 74.3861 41.1251 78.3334C41.1251 82.2807 42.3032 84.3404 43.3416 86.1591C44.2539 87.756 45.0417 89.1348 45.0417 92.0418C45.0417 93.1243 45.9176 94.0002 47.0001 94.0002C48.0826 94.0002 48.9585 93.1243 48.9585 92.0418C48.9585 88.0945 47.7804 86.0348 46.742 84.2161C45.8297 82.6192 45.0419 81.2404 45.0419 78.3334C45.0419 75.4264 45.8299 74.0476 46.742 72.4507C47.5872 70.9702 48.49 69.2716 48.8096 66.5834H52.8751C53.6172 66.5834 54.2941 66.1646 54.627 65.5009C54.9578 64.8372 54.8871 64.0436 54.4415 63.4507L50.6606 58.4094ZM40.0388 13.3812C35.2367 15.7757 32.0179 20.3694 31.431 25.6743C31.3201 26.6764 30.471 27.4166 29.486 27.4166C29.4153 27.4166 29.3406 27.4128 29.2679 27.405C28.1931 27.2846 27.4185 26.3169 27.5371 25.2421C28.2734 18.6098 32.2933 12.8648 38.2908 9.87753C39.2681 9.39376 40.4346 9.78959 40.9186 10.7553C41.4005 11.7232 41.0065 12.8993 40.0388 13.3812Z" fill="#534918"/>
<path d="M93.9999 39.1666C93.9999 30.7347 88.5744 23.2858 80.4981 20.6332C79.8498 20.4228 79.1422 20.5567 78.6239 20.9965C78.1038 21.4364 77.8494 22.1115 77.9489 22.7827C78.2109 24.5364 78.3333 26.009 78.3333 27.4166C78.3333 37.9351 72.9307 49.1686 64.5715 56.0382C64.1107 56.4169 63.8467 56.9868 63.8562 57.5835C63.8658 58.182 64.1489 58.7425 64.6231 59.1058C66.7599 60.7439 69.0721 61.8052 71.4256 62.311L70.7065 63.7491C70.4024 64.3553 70.4349 65.0763 70.7926 65.6539C71.1502 66.2315 71.7794 66.5834 72.4583 66.5834H72.6674C73.0756 68.5022 74.0304 69.7253 74.845 70.7449C75.7669 71.8963 76.3749 72.6554 76.3749 74.4168C76.3749 76.1782 75.7667 76.9374 74.845 78.0887C73.7817 79.4197 72.4583 81.0739 72.4583 84.2084C72.4583 85.2909 73.3342 86.1668 74.4167 86.1668C75.4992 86.1668 76.3751 85.2909 76.3751 84.2084C76.3751 82.447 76.9833 81.6879 77.905 80.5365C78.9684 79.2055 80.2917 77.5513 80.2917 74.4168C80.2917 71.2823 78.9684 69.6281 77.905 68.2971C77.3939 67.6587 76.9951 67.1269 76.7269 66.492C77.2595 66.3894 77.7491 66.125 78.0407 65.6541C78.3983 65.0765 78.4308 64.3555 78.1268 63.7493L77.4049 62.3053C86.8207 60.237 93.9999 48.8112 93.9999 39.1666Z" fill="#534918"/>
<path d="M31.4634 57.5567C22.016 50.9587 15.6666 38.8453 15.6666 27.4166C15.6666 23.4312 16.4316 19.5105 17.9386 15.7623C18.2274 15.0452 18.0667 14.2247 17.5293 13.67C16.9863 13.1115 16.1676 12.9241 15.4505 13.192C6.20969 16.5675 0 25.4316 0 35.25C0 46.9427 8.73814 60.3565 20.4755 62.3782L19.7899 63.7491C19.4859 64.3553 19.5184 65.0763 19.876 65.6539C20.1911 66.1626 20.7298 66.4516 21.3145 66.5241C21.0375 67.6683 20.5289 68.4889 19.9124 69.4139C18.8929 70.9417 17.625 72.8447 17.625 76.375C17.625 79.9053 18.8929 81.8083 19.9122 83.3363C20.8225 84.7019 21.5416 85.7805 21.5416 88.125C21.5416 89.2075 22.4175 90.0834 23.5 90.0834C24.5825 90.0834 25.4584 89.2075 25.4584 88.125C25.4584 84.5947 24.1905 82.6917 23.1712 81.1637C22.2609 79.7981 21.5418 78.7195 21.5418 76.375C21.5418 74.0303 22.2609 72.9517 23.1712 71.5863C23.9792 70.375 24.9161 68.8897 25.281 66.5834H25.4584C26.1373 66.5834 26.7665 66.2315 27.1241 65.6539C27.4818 65.0763 27.5143 64.3553 27.2102 63.7491L26.5003 62.3288C28.0597 62.0547 29.6153 61.6418 31.15 60.9473C31.7926 60.6566 32.2286 60.0445 32.2936 59.3427C32.3584 58.643 32.041 57.9602 31.4634 57.5567Z" fill="#534918"/>
</g>
<defs>
<clipPath id="clip0_123_1831">
<rect width="94" height="94" fill="white"/>
</clipPath>
</defs>
</svg>
