<svg width="90" height="88" viewBox="0 0 90 88" fill="none" xmlns="http://www.w3.org/2000/svg">
<g opacity="0.7" clip-path="url(#clip0_123_1821)">
<path d="M72.3082 4.17766C66.6405 -1.38245 57.419 -1.38245 51.7513 4.17664C49.7041 6.18398 48.3452 8.68636 47.7848 11.4086H27.2991L24.0857 1.95133C23.5795 0.457653 21.9355 -0.351877 20.409 0.147609C18.8853 0.645216 18.062 2.26052 18.5703 3.75436L21.1712 11.4089H15.5125C13.6489 11.4089 12.2672 13.104 12.6762 14.8876L13.9972 20.6426C15.1594 25.7005 15.0211 30.9485 13.5996 35.8197C12.2607 40.4092 12.2644 45.1477 13.6122 49.9028C16.1352 58.8089 23.6986 65.8393 32.8822 67.815C33.8725 68.0277 34.8651 68.1829 35.8566 68.287V81.7574H27.1424C25.5364 81.7574 24.2353 83.0339 24.2353 84.6093C24.2353 86.1846 25.5366 87.4612 27.1424 87.4612H50.4005C52.0066 87.4612 53.3077 86.1846 53.3077 84.6093C53.3077 83.0339 52.0064 81.7574 50.4005 81.7574H41.6712V68.2605C46.5758 67.726 51.2489 65.8767 55.1608 62.7887C61.3729 57.8869 64.936 50.5935 64.936 42.7804C64.936 40.7519 64.6861 38.7244 64.194 36.7544C63.4588 33.8154 63.0366 31.0701 62.911 28.4769C66.4162 28.2659 69.7731 26.83 72.3082 24.3438C77.975 18.7837 77.975 9.73761 72.3082 4.17766ZM25.8838 36.3501L18.9215 38.627C19.0131 38.2146 19.0697 37.7982 19.1892 37.3892C20.8795 31.6009 21.0449 25.3771 19.6698 19.3889L19.1474 17.1125H23.109L29.3787 35.5645C28.2017 35.7145 27.0299 35.9748 25.8838 36.3501ZM57.8798 19.3472C56.743 24.2963 56.9145 29.9752 57.866 34.9789L49.7155 37.8822C46.4599 39.0435 42.8269 38.8171 39.7445 37.2659C38.4384 36.6077 37.0394 36.1439 35.5989 35.8354L29.2373 17.1127H58.3936L57.8798 19.3472Z" fill="#534918"/>
</g>
<defs>
<clipPath id="clip0_123_1821">
<rect width="89.1566" height="87.4611" fill="white"/>
</clipPath>
</defs>
</svg>
