<svg width="97" height="97" viewBox="0 0 97 97" fill="none" xmlns="http://www.w3.org/2000/svg">
<g opacity="0.7">
<path d="M92.0609 27.8164C92.0427 27.6903 91.9575 27.2665 91.6223 27.1105L52.8996 9.0765C51.8171 8.57217 50.2136 8.30106 49.1723 8.79232L9.73729 27.389C9.71342 27.4002 9.62097 27.5421 9.62343 27.8193C9.62646 28.155 9.78124 28.5629 10.0707 28.6929L14.9717 30.8964C14.7443 36.1607 15.088 45.5184 15.0723 50.7641C12.5827 51.2848 10.7067 53.4964 10.7067 56.1384C10.7067 58.484 12.1858 60.4899 14.2599 61.2748C14.2631 61.4446 14.2652 61.6149 14.2707 61.7831C14.2614 61.8449 14.2561 61.9082 14.255 61.9724C14.1159 70.3706 10.814 77.4369 5.63771 80.4137C4.75164 80.9236 4.67776 82.1776 5.49998 82.787L12.7854 88.1872C13.3396 88.5977 14.0985 88.5479 14.5951 88.09C20.4952 82.6472 19.3975 76.6866 18.2354 70.376C17.7224 67.5908 17.1944 64.7225 17.1063 61.552C19.7023 61.1174 21.6876 58.8557 21.6876 56.1382C21.6876 53.7099 20.1027 51.6462 17.9133 50.9239C17.9345 45.9897 17.6318 37.4598 17.7714 32.1551C50.8473 47.6922 48.7248 46.6951 48.8143 46.7371C50.0711 47.3229 51.6381 47.4425 52.5363 47.0194L91.9725 28.4223C92.0119 28.3859 92.1089 28.1491 92.0609 27.8164Z" fill="#534918"/>
<path d="M47.6101 49.3113L25.7324 39.0306V54.6722C25.7324 61.0632 37.4315 66.4626 51.2796 66.4626C65.1283 66.4626 76.8279 61.0632 76.8279 54.6722V38.7064L53.748 49.5901C51.9165 50.4531 49.458 50.1727 47.6101 49.3113Z" fill="#534918"/>
</g>
</svg>
