<svg width="119" height="119" viewBox="0 0 119 119" fill="none" xmlns="http://www.w3.org/2000/svg">
<g clip-path="url(#clip0_603_2430)">
<path d="M114.352 0H39.9766C37.4092 0 35.3281 2.08111 35.3281 4.64844V26.9609C35.3281 29.5283 37.4092 31.6094 39.9766 31.6094C42.5439 31.6094 44.625 29.5283 44.625 26.9609V9.29687H90.2143L66.1408 18.9263C64.376 19.6322 63.2188 21.3414 63.2188 23.2422V100.406H44.625V82.7422C44.625 80.1749 42.5439 78.0937 39.9766 78.0937C37.4092 78.0937 35.3281 80.1749 35.3281 82.7422V105.055C35.3281 107.622 37.4092 109.703 39.9766 109.703H63.2188V114.352C63.2188 115.894 63.9839 117.336 65.2613 118.201C66.5382 119.066 68.1619 119.241 69.5936 118.668L116.078 100.074C117.843 99.3678 119 97.6586 119 95.7578V4.64844C119 2.0832 116.917 0 114.352 0ZM109.703 92.6106L72.5156 107.486V26.3894L109.703 11.5144V92.6106Z" fill="black"/>
<path d="M86.4609 73.4453C89.0282 73.4453 91.1094 71.3641 91.1094 68.7969C91.1094 66.2296 89.0282 64.1484 86.4609 64.1484C83.8937 64.1484 81.8125 66.2296 81.8125 68.7969C81.8125 71.3641 83.8937 73.4453 86.4609 73.4453Z" fill="black"/>
<path d="M36.6897 60.8618C34.8742 62.6773 34.8742 65.6204 36.6897 67.4356C38.5051 69.2511 41.4483 69.2511 43.2635 67.4356L52.5597 58.1392C54.3735 56.3268 54.3677 53.3709 52.5597 51.5642L43.2635 42.2678C41.448 40.4524 38.5049 40.4524 36.6897 42.2678C34.8744 44.0833 34.8742 47.0264 36.6897 48.8417L38.0512 50.2032H4.64844C2.08111 50.2032 0 52.2843 0 54.8516C0 57.419 2.08111 59.5001 4.64844 59.5001H38.0512L36.6897 60.8618Z" fill="black"/>
</g>
<defs>
<clipPath id="clip0_603_2430">
<rect width="119" height="119" fill="white"/>
</clipPath>
</defs>
</svg>
