<svg width="84" height="84" viewBox="0 0 84 84" fill="none" xmlns="http://www.w3.org/2000/svg">
<path d="M63 70H21C17.15 70 14 66.85 14 63V21C14 17.15 17.15 14 21 14H35C37.1 14 38.5 15.4 38.5 17.5C38.5 19.6 37.1 21 35 21H21V63H63V49C63 46.9 64.4 45.5 66.5 45.5C68.6 45.5 70 46.9 70 49V63C70 66.85 66.85 70 63 70Z" fill="black"/>
<path d="M70 35C67.9 35 66.5 33.6 66.5 31.5V17.5H52.5C50.4 17.5 49 16.1 49 14C49 11.9 50.4 10.5 52.5 10.5H70C72.1 10.5 73.5 11.9 73.5 14V31.5C73.5 33.6 72.1 35 70 35Z" fill="black"/>
<path d="M45.5 42C44.45 42 43.75 41.65 43.05 40.95C41.65 39.55 41.65 37.45 43.05 36.05L67.55 11.55C68.95 10.15 71.05 10.15 72.45 11.55C73.85 12.95 73.85 15.05 72.45 16.45L47.95 40.95C47.25 41.65 46.55 42 45.5 42Z" fill="black"/>
</svg>
