<svg width="32" height="32" viewBox="0 0 32 32" fill="none" xmlns="http://www.w3.org/2000/svg">
<path d="M18.1001 23C17.2501 23 16.6001 22.35 16.6001 21.5C16.6001 21.1 16.75 20.75 17 20.5L21.1001 16.05L16.9 11.5C16.35 10.9 16.35 9.95005 17 9.40005C17.65 8.85005 18.5501 8.85005 19.1001 9.50005L24.0001 14.7501C24.7001 15.5001 24.7001 16.65 24.0001 17.35L19.2001 22.5C18.9001 22.85 18.5001 23 18.1001 23Z" fill="black"/>
<path d="M11.1001 23C10.2501 23 9.60005 22.35 9.60005 21.5C9.60005 21.1 9.75005 20.75 10 20.5L14.1001 16.05L9.90005 11.5C9.35005 10.9 9.35005 9.95005 10 9.40005C10.6 8.85005 11.5501 8.85005 12.1001 9.50005L17.0001 14.7501C17.7001 15.5001 17.7001 16.65 17.0001 17.35L12.2 22.5C11.9 22.85 11.5001 23 11.1001 23Z" fill="black"/>
<path d="M16 30C8.25 30 2 23.75 2 16C2 8.25 8.25 2 16 2C23.75 2 30 8.25 30 16C30 23.75 23.75 30 16 30ZM16 5C9.9 5 5 9.9 5 16C5 22.1 9.9 27 16 27C22.1 27 27 22.1 27 16C27 9.95 22.05 5 16 5Z" fill="black"/>
</svg>
