<svg width="32" height="32" viewBox="0 0 32 32" fill="none" xmlns="http://www.w3.org/2000/svg">
<path d="M13.9001 23.0001C13.5001 23.0001 13.1001 22.8501 12.8001 22.5001L8.0001 17.3501C7.3001 16.6001 7.3001 15.4501 8.0001 14.7501L12.9001 9.50005C13.4501 8.90005 14.4001 8.85005 15.0001 9.40005C15.6001 9.95005 15.6501 10.9001 15.1001 11.5001L10.9001 16.05L15.0001 20.5001C15.5501 21.1001 15.5501 22.0501 14.9001 22.6001C14.6501 22.8501 14.3001 23.0001 13.9001 23.0001Z" fill="black"/>
<path d="M20.9001 23.0001C20.5001 23.0001 20.1001 22.8501 19.8001 22.5001L15.0001 17.3501C14.3001 16.6001 14.3001 15.4501 15.0001 14.7501L19.9001 9.50005C20.4501 8.90005 21.4001 8.85005 22.0001 9.40005C22.6001 9.95005 22.6501 10.9001 22.1001 11.5001L17.9001 16.05L22.0001 20.5001C22.5501 21.1001 22.5501 22.0501 21.9001 22.6001C21.6501 22.8501 21.3001 23.0001 20.9001 23.0001Z" fill="black"/>
<path d="M16 30C8.25 30 2 23.75 2 16C2 8.25 8.25 2 16 2C23.75 2 30 8.25 30 16C30 23.75 23.75 30 16 30ZM16 5C9.9 5 5 9.9 5 16C5 22.1 9.9 27 16 27C22.1 27 27 22.1 27 16C27 9.95 22.05 5 16 5Z" fill="black"/>
</svg>
