<svg width="32" height="32" viewBox="0 0 32 32" fill="none" xmlns="http://www.w3.org/2000/svg">
<path d="M9.39996 30C8.69996 30 8.04996 29.8 7.49996 29.4C6.44996 28.65 5.89996 27.35 6.09996 26.05L7.04996 20.35C7.09996 20.2 7.04996 20.05 6.94996 19.95L2.99996 15.9C2.09996 14.95 1.79996 13.6 2.19996 12.4C2.59996 11.2 3.59996 10.35 4.84996 10.15L10.3 9.30002C10.4 9.30002 10.5 9.20002 10.55 9.10002L13 3.90002C13.75 2.25002 15.7 1.50002 17.35 2.30002C18.05 2.65002 18.65 3.20002 18.95 3.90002L21.4 9.10002C21.45 9.20002 21.55 9.30002 21.65 9.30002L27.15 10.15C28.4 10.35 29.4 11.2 29.8 12.4C30.2 13.65 29.9 15 29 15.9L25.05 19.95C24.95 20.05 24.9 20.2 24.95 20.35L25.9 26.05C26.15 27.35 25.6 28.65 24.5 29.4C23.5 30.15 22.15 30.2 21.05 29.6L16.15 26.9C16.05 26.85 15.95 26.85 15.9 26.9L11 29.6C10.5 29.85 9.94996 30 9.39996 30ZM16 5.00002C15.85 5.00002 15.75 5.10002 15.7 5.20002L13.25 10.4C12.8 11.4 11.85 12.1 10.75 12.3L5.29996 13.15C5.14996 13.2 5.04996 13.25 5.04996 13.4C4.99996 13.55 5.04996 13.75 5.14996 13.85L9.09996 17.9C9.84996 18.7 10.2 19.8 10.05 20.9L9.09996 26.5C9.04996 26.65 9.14996 26.85 9.24996 26.95C9.34996 27 9.44996 27 9.54996 26.95L14.45 24.25C15.45 23.7 16.6 23.7 17.6 24.25L22.5 26.95C22.6 27 22.7 27 22.8 26.95C22.95 26.85 23 26.7 22.95 26.5L22 20.8C21.8 19.7 22.15 18.6 22.95 17.8L26.9 13.75C27 13.65 27.05 13.45 27 13.3C26.95 13.15 26.85 13.1 26.75 13.05L21.3 12.2C20.2 12.05 19.25 11.3 18.8 10.3L16.35 5.10002C16.25 5.10002 16.15 5.00002 16 5.00002Z" fill="black"/>
</svg>
