<svg width="32" height="32" viewBox="0 0 32 32" fill="none" xmlns="http://www.w3.org/2000/svg">
<path d="M19.9999 9.5H16.9999C15.0179 9.5 15.0153 6.5 16.9999 6.5H19.9999C21.9819 6.5 21.9845 9.5 19.9999 9.5Z" fill="black"/>
<path d="M27.5 11H25.5V4.45215C25.5188 3.82238 25.2874 3.2108 24.8564 2.75125C24.4254 2.29169 23.8299 2.02157 23.2002 2H8.7998C8.17012 2.02157 7.57463 2.29169 7.14362 2.75125C6.71261 3.2108 6.48119 3.82238 6.5 4.45215V8.5H4.56885C3.90478 8.48428 3.26155 8.7324 2.78006 9.19001C2.29857 9.64761 2.01807 10.2774 2 10.9414V27.6279C2.01812 28.2736 2.2914 28.8858 2.75998 29.3304C3.22856 29.775 3.85425 30.0158 4.5 30H27.5C28.1457 30.0158 28.7714 29.775 29.24 29.3304C29.7086 28.8858 29.9819 28.2736 30 27.6279V13.3721C29.9819 12.7264 29.7086 12.1142 29.24 11.6696C28.7714 11.225 28.1457 10.9842 27.5 11ZM9.5 5H22.5V11H16.5244L13.9795 9.04346C13.5145 8.68971 12.9461 8.49875 12.3618 8.5H9.5V5ZM12.2524 11.5L14.7974 13.4565C15.2622 13.8102 15.8305 14.0012 16.4146 14H27V15.5H5V11.5H12.2524ZM5 27V18.5H27V27H5Z" fill="black"/>
</svg>
