<svg width="32" height="32" viewBox="0 0 32 32" fill="none" xmlns="http://www.w3.org/2000/svg">
<path d="M28.5 5.5H23.75C22.95 2.85 20.15 1.4 17.5 2.25C15.95 2.75 14.7 3.95 14.25 5.5H3.5C2.65 5.5 2 6.15 2 7C2 7.85 2.65 8.5 3.5 8.5H14.25C15.1 11.15 17.9 12.6 20.5 11.75C22.05 11.25 23.3 10.05 23.75 8.5H28.5C29.35 8.5 30 7.85 30 7C30 6.15 29.35 5.5 28.5 5.5ZM19 9C17.9 9 17 8.1 17 7C17 5.9 17.9 5 19 5C20.1 5 21 5.9 21 7C21 8.1 20.1 9 19 9Z" fill="black"/>
<path d="M28.5 14.5H13.25C12.4 11.85 9.6 10.4 7 11.25C5.45 11.75 4.2 12.95 3.75 14.5H3.5C2.65 14.5 2 15.15 2 16C2 16.85 2.65 17.5 3.5 17.5H3.75C4.6 20.15 7.4 21.6 10 20.75C11.55 20.25 12.8 19.05 13.25 17.5H28.5C29.35 17.5 30 16.85 30 16C30 15.15 29.35 14.5 28.5 14.5ZM8.5 18C7.4 18 6.5 17.1 6.5 16C6.5 14.9 7.4 14 8.5 14C9.6 14 10.5 14.9 10.5 16C10.5 17.1 9.6 18 8.5 18Z" fill="black"/>
<path d="M28.5 23.5H27.75C26.9 20.85 24.1 19.4 21.5 20.25C19.95 20.75 18.7 21.95 18.25 23.5H3.5C2.65 23.5 2 24.15 2 25C2 25.85 2.65 26.5 3.5 26.5H18.25C19.1 29.15 21.9 30.6 24.5 29.75C26.05 29.25 27.3 28.05 27.75 26.5H28.5C29.35 26.5 30 25.85 30 25C30 24.15 29.35 23.5 28.5 23.5ZM23 27C21.9 27 21 26.1 21 25C21 23.9 21.9 23 23 23C24.1 23 25 23.9 25 25C25 26.1 24.1 27 23 27Z" fill="black"/>
</svg>
