<svg width="44" height="44" viewBox="0 0 44 44" fill="none" xmlns="http://www.w3.org/2000/svg">
<path d="M8.93939 28.2734H8.93854C8.22663 28.2734 7.6499 28.8506 7.6499 29.5625C7.6499 30.2744 8.22749 30.8516 8.93939 30.8516C9.65139 30.8516 10.2285 30.2744 10.2285 29.5625C10.2285 28.8506 9.65139 28.2734 8.93939 28.2734Z" fill="#534918"/>
<path d="M42.7109 32.3984H40.4744C40.4749 32.3697 40.4766 32.3413 40.4766 32.3125C40.4766 31.8411 40.4058 31.3827 40.2741 30.9484C42.0568 30.0397 43.2266 28.1932 43.2266 26.125C43.2266 23.2168 40.9219 20.8367 38.0428 20.7157C37.7256 19.9054 37.2142 19.1761 36.5469 18.597C35.5632 17.7435 34.3036 17.2734 33 17.2734C31.3288 17.2734 29.7727 18.0564 28.7612 19.3234C28.0112 18.5827 27.0175 18.0969 25.9219 17.9854C25.0543 16.6956 23.5927 15.8984 22 15.8984C20.4074 15.8984 18.9457 16.6956 18.0781 17.9854C16.396 18.1565 14.9535 19.2099 14.2653 20.7139C13.3211 20.7474 12.4277 21.0571 11.6743 21.6028C10.8495 21.0456 9.92793 20.7109 8.9375 20.7109C4.99924 20.7109 2.14844 25.9982 2.14844 29.5625C2.14844 30.5521 2.36534 31.5182 2.7702 32.3984H1.28906C0.577156 32.3984 0 32.9756 0 33.6875C0 38.1892 3.6624 41.8516 8.16406 41.8516H35.8359C40.3376 41.8516 44 38.1892 44 33.6875C44 32.9756 43.4228 32.3984 42.7109 32.3984ZM33 19.8516C34.3912 19.8516 35.5965 20.8865 35.8037 22.2589C35.8557 22.6031 36.0448 22.9117 36.3278 23.1144C36.6108 23.3172 36.9639 23.3967 37.3064 23.3352C37.4766 23.3046 37.647 23.2891 37.8126 23.2891C39.3763 23.2891 40.6485 24.5613 40.6485 26.125C40.6485 27.2988 39.9303 28.3366 38.8636 28.7605C38.5021 28.4425 38.0914 28.1774 37.6417 27.9804C37.2946 26.1754 35.9176 24.7325 34.1482 24.2894C33.7351 22.6395 32.4522 21.3316 30.8175 20.8809C31.3479 20.244 32.1446 19.8516 33 19.8516ZM14.4375 23.2891C14.5952 23.2891 14.7517 23.3058 14.9027 23.3391C15.2455 23.4142 15.6039 23.3466 15.8956 23.1516C16.1873 22.9566 16.3868 22.6511 16.4484 22.3057C16.6304 21.282 17.5195 20.5391 18.5625 20.5391C18.6241 20.5391 18.6771 20.5412 18.7244 20.5456C19.2813 20.5966 19.8055 20.2855 20.0268 19.7734C20.3672 18.9856 21.1417 18.4766 22 18.4766C22.8583 18.4766 23.6328 18.9856 23.9732 19.7734C24.1945 20.2855 24.7198 20.5969 25.2756 20.5456C25.3229 20.5412 25.3759 20.5391 25.4375 20.5391C26.4805 20.5391 27.3696 21.2821 27.5517 22.3057C27.6133 22.6511 27.8128 22.9566 28.1045 23.1516C28.3962 23.3466 28.7547 23.4142 29.0974 23.3391C29.2484 23.3059 29.4049 23.2891 29.5626 23.2891C30.7472 23.2891 31.711 24.2529 31.711 25.4375C31.711 26.1494 32.2882 26.7266 33.0001 26.7266C34.1847 26.7266 35.1485 27.6904 35.1485 28.875L35.1486 28.8953C35.1249 29.5263 35.5619 30.0816 36.1807 30.2071C37.176 30.4088 37.8984 31.2942 37.8984 32.3125C37.8984 32.3413 37.8974 32.3698 37.8963 32.3984H15.1048C15.5096 31.5182 15.7266 30.5521 15.7266 29.5625C15.7266 27.6673 14.9206 25.2851 13.5737 23.4695C13.8424 23.3515 14.1348 23.2891 14.4375 23.2891ZM4.72656 29.5625C4.72656 28.2936 5.27545 26.6406 6.12485 25.3511C6.98801 24.0407 8.01324 23.2891 8.9375 23.2891C9.86176 23.2891 10.887 24.0407 11.7501 25.3511C12.5996 26.6405 13.1484 28.2936 13.1484 29.5625C13.1484 30.6157 12.7527 31.6263 12.0502 32.3984H5.82484C5.1223 31.6263 4.72656 30.6157 4.72656 29.5625ZM35.8359 39.2734H8.16406C5.52741 39.2734 3.3116 37.4374 2.72826 34.9766H38.8932C38.8954 34.9766 38.8976 34.9769 38.8999 34.9769C38.903 34.9769 38.9061 34.9766 38.9091 34.9766H41.2718C40.6884 37.4374 38.4726 39.2734 35.8359 39.2734Z" fill="#534918"/>
<path d="M24.7519 30.1641C25.4639 30.1641 26.041 29.5869 26.041 28.875C26.041 28.1631 25.4639 27.5859 24.7519 27.5859H24.751C24.0391 27.5859 23.4624 28.1631 23.4624 28.875C23.4624 29.5869 24.0399 30.1641 24.7519 30.1641Z" fill="#534918"/>
<path d="M19.2519 26.7266C19.9639 26.7266 20.541 26.1494 20.541 25.4375C20.541 24.7256 19.9639 24.1484 19.2519 24.1484H19.251C18.5391 24.1484 17.9624 24.7256 17.9624 25.4375C17.9624 26.1494 18.5399 26.7266 19.2519 26.7266Z" fill="#534918"/>
<path d="M21.2803 7.56242C21.2803 7.66383 21.2554 7.85882 21.0883 8.02589C20.585 8.52931 20.5849 9.34546 21.0883 9.84888C21.3399 10.1007 21.6699 10.2265 21.9998 10.2265C22.3296 10.2265 22.6596 10.1006 22.9112 9.84896C23.522 9.23821 23.8583 8.42618 23.8583 7.56242C23.8583 6.69867 23.522 5.88664 22.9112 5.27589C22.7442 5.10882 22.7192 4.91383 22.7192 4.81242C22.7192 4.71102 22.7442 4.51603 22.9112 4.34896C23.4146 3.84554 23.4146 3.02939 22.9112 2.52597C22.408 2.02255 21.5917 2.02264 21.0882 2.52597C20.4775 3.13664 20.1411 3.94867 20.1411 4.81242C20.1411 5.67618 20.4775 6.48821 21.0882 7.09896C21.2554 7.26603 21.2803 7.46102 21.2803 7.56242Z" fill="#534918"/>
<path d="M12.3428 11.6874C12.3428 11.7888 12.3179 11.9838 12.1508 12.1509C11.6475 12.6543 11.6474 13.4705 12.1508 13.9739C12.4024 14.2257 12.7324 14.3515 13.0623 14.3515C13.3921 14.3515 13.7221 14.2256 13.9737 13.974C14.5845 13.3632 14.9208 12.5512 14.9208 11.6874C14.9208 10.8237 14.5845 10.0116 13.9737 9.40089C13.8067 9.23382 13.7817 9.03883 13.7817 8.93743C13.7817 8.83602 13.8067 8.64103 13.9737 8.47396C14.4771 7.97054 14.4771 7.15439 13.9737 6.65097C13.4704 6.14764 12.6542 6.14755 12.1507 6.65097C11.54 7.26164 11.2036 8.07367 11.2036 8.93743C11.2036 9.80118 11.54 10.6132 12.1507 11.224C12.3179 11.391 12.3428 11.586 12.3428 11.6874Z" fill="#534918"/>
<path d="M30.2178 11.6874C30.2178 11.7888 30.1929 11.9838 30.0258 12.1509C29.5225 12.6543 29.5224 13.4705 30.0258 13.9739C30.2774 14.2257 30.6074 14.3515 30.9373 14.3515C31.2671 14.3515 31.5971 14.2256 31.8487 13.974C32.4595 13.3632 32.7958 12.5512 32.7958 11.6874C32.7958 10.8237 32.4595 10.0116 31.8487 9.40089C31.6817 9.23382 31.6567 9.03883 31.6567 8.93743C31.6567 8.83602 31.6817 8.64103 31.8487 8.47396C32.3521 7.97054 32.3521 7.15439 31.8487 6.65097C31.3455 6.14764 30.5292 6.14755 30.0257 6.65097C29.415 7.26164 29.0786 8.07367 29.0786 8.93743C29.0786 9.80118 29.415 10.6132 30.0257 11.224C30.1929 11.391 30.2178 11.586 30.2178 11.6874Z" fill="#534918"/>
</svg>
