<svg width="44" height="44" viewBox="0 0 44 44" fill="none" xmlns="http://www.w3.org/2000/svg">
<path fill-rule="evenodd" clip-rule="evenodd" d="M23.3748 38.4998V29.3217L32.7523 16.4283C32.7716 16.4214 32.7894 16.4145 32.8087 16.4077C33.2899 16.5149 33.7918 16.5713 34.306 16.5713C38.0997 16.5713 41.181 13.4913 41.181 9.6963C41.181 5.9013 38.0997 2.8213 34.306 2.8213C31.0102 2.8213 28.2547 5.14505 27.585 8.24292H15.6872L10.5969 3.15268C10.0607 2.61643 9.18893 2.61643 8.65268 3.15268C8.11643 3.68893 8.11643 4.56068 8.65268 5.09693L12.0297 8.47392C11.0438 8.82042 10.2078 9.53405 9.71829 10.4952C9.01429 11.8784 9.14629 13.5381 10.0593 14.7934L20.6248 29.3217V38.4998H16.4998C15.7408 38.4998 15.1248 39.1158 15.1248 39.8748C15.1248 40.6338 15.7408 41.2498 16.4998 41.2498H27.4998C28.2588 41.2498 28.8748 40.6338 28.8748 39.8748C28.8748 39.1158 28.2588 38.4998 27.4998 38.4998H23.3748ZM29.2997 16.4998H14.6999L21.9998 26.5373L29.2997 16.4998ZM34.4669 13.8186C36.6683 13.7333 38.431 11.9197 38.431 9.6963C38.431 7.4193 36.583 5.5713 34.306 5.5713C32.5405 5.5713 31.0322 6.6823 30.445 8.24292H30.6045C32.1569 8.24292 33.5773 9.1133 34.2813 10.4952C34.8134 11.5429 34.8684 12.7488 34.4669 13.8186ZM14.5473 10.9929L17.3055 13.7498H12.6993L12.2827 13.1764C11.9788 12.757 11.9348 12.2043 12.1699 11.7437C12.4037 11.2831 12.8781 10.9929 13.3951 10.9929H14.5473ZM18.4372 10.9929H30.6045C31.1215 10.9929 31.5959 11.2831 31.8297 11.7437C32.0648 12.2043 32.0208 12.757 31.7169 13.1764L31.3003 13.7498H21.1941L18.4372 10.9929Z" fill="#534918"/>
</svg>
