<svg width="44" height="44" viewBox="0 0 44 44" fill="none" xmlns="http://www.w3.org/2000/svg">
<path d="M39.3538 19.4753L28.7374 12.5123C29.063 11.4654 29.0566 10.3434 28.7191 9.30025C28.3816 8.25714 27.7294 7.34407 26.8523 6.68639C26.8935 6.65202 26.9293 6.61352 26.9719 6.58052C27.6473 6.05699 28.4191 5.67153 29.2434 5.44614C29.4174 5.39811 29.5804 5.31626 29.7228 5.20528C29.8652 5.09429 29.9844 4.95633 30.0735 4.79929C30.1626 4.64224 30.22 4.46918 30.2422 4.28998C30.2644 4.11078 30.2512 3.92896 30.2031 3.75489C30.1551 3.58082 30.0733 3.41792 29.9623 3.27549C29.8513 3.13305 29.7133 3.01387 29.5563 2.92475C29.3992 2.83563 29.2262 2.77831 29.047 2.75607C28.8678 2.73383 28.6859 2.74711 28.5119 2.79514C26.7924 3.25207 25.2493 4.21376 24.0816 5.55614C23.8803 5.52604 23.6774 5.50722 23.4739 5.49977C22.6736 5.50261 21.8837 5.68117 21.16 6.02283C20.4363 6.36449 19.7964 6.86091 19.2856 7.47702C18.1532 7.01911 16.919 6.87196 15.7106 7.05077C13.2035 7.38671 10.8308 8.38326 8.83563 9.93827C6.36329 11.8321 4.71087 14.6016 4.21838 17.6768C4.10388 18.6674 4.07261 19.666 4.12488 20.6619V37.1248C4.12888 38.2199 4.56665 39.2689 5.34234 40.042C6.11804 40.8151 7.16846 41.2494 8.26363 41.2498H35.8461C36.9391 41.2465 37.9865 40.8109 38.7593 40.038C39.5322 39.2651 39.9679 38.2178 39.9711 37.1248V20.6248C39.9722 20.3969 39.9163 20.1723 39.8085 19.9716C39.7006 19.7708 39.5443 19.6002 39.3538 19.4753ZM6.87488 21.9998H37.2211V27.6483C35.9282 27.8404 34.6987 28.3345 33.6324 29.0906C32.649 29.8081 31.4631 30.1947 30.2458 30.1947C29.0284 30.1947 27.8426 29.8081 26.8591 29.0906C25.4442 28.0671 23.7364 27.5284 21.9903 27.5548C20.2451 27.5279 18.5383 28.0673 17.1255 29.092C16.155 29.8319 14.9617 30.2198 13.7416 30.192C12.5231 30.2206 11.3314 29.8325 10.3633 29.092C9.3248 28.3554 8.13155 27.8663 6.87488 27.662V21.9998ZM23.4739 8.24977C24.0178 8.24977 24.5495 8.41105 25.0017 8.71323C25.4539 9.0154 25.8064 9.44489 26.0146 9.94739C26.2227 10.4499 26.2772 11.0028 26.171 11.5363C26.0649 12.0697 25.803 12.5597 25.4184 12.9443C25.0338 13.3289 24.5438 13.5908 24.0104 13.6969C23.4769 13.803 22.924 13.7486 22.4215 13.5404C21.919 13.3323 21.4895 12.9798 21.1873 12.5276C20.8852 12.0753 20.7239 11.5437 20.7239 10.9998C20.7239 10.2704 21.0136 9.57095 21.5293 9.05522C22.0451 8.5395 22.7445 8.24977 23.4739 8.24977ZM6.93401 18.07C7.33367 15.6752 8.63626 13.5247 10.5736 12.0613C12.1881 10.8225 14.101 10.0318 16.119 9.76914C16.7778 9.66892 17.451 9.72978 18.0811 9.94652C18.0111 10.2933 17.9752 10.646 17.9739 10.9998C17.9747 12.0858 18.2969 13.1474 18.9001 14.0505C19.5033 14.9537 20.3604 15.6581 21.3634 16.0748C22.3663 16.4916 23.4702 16.6021 24.5358 16.3924C25.6014 16.1827 26.5811 15.6622 27.3514 14.8965L33.9926 19.2498H6.85288C6.85595 18.8552 6.88304 18.4613 6.93401 18.07ZM35.8461 38.4998H8.26363C8.08191 38.5016 7.90163 38.4674 7.73322 38.3991C7.56481 38.3308 7.4116 38.2298 7.28246 38.1019C7.15332 37.9741 7.05081 37.8219 6.98085 37.6542C6.91089 37.4864 6.87487 37.3065 6.87488 37.1248V30.4533C7.59536 30.6474 8.27462 30.9708 8.87963 31.4075C10.2915 32.432 11.9974 32.9714 13.7416 32.9448C15.4872 32.9715 17.1944 32.4322 18.6078 31.4075C19.5776 30.6674 20.7706 30.2795 21.9903 30.3075C23.2117 30.2789 24.4066 30.6668 25.3783 31.4075C26.8048 32.4071 28.5045 32.9433 30.2464 32.9433C31.9884 32.9433 33.688 32.4071 35.1146 31.4075C35.7466 30.9479 36.4621 30.6159 37.2211 30.4299V37.1248C37.2211 37.4894 37.0763 37.8392 36.8184 38.097C36.5605 38.3549 36.2108 38.4998 35.8461 38.4998Z" fill="#534918"/>
</svg>
