<svg width="44" height="44" viewBox="0 0 44 44" fill="none" xmlns="http://www.w3.org/2000/svg">
<path fill-rule="evenodd" clip-rule="evenodd" d="M10.378 7.60393C10.872 5.43826 12.8099 3.82227 15.1251 3.82227C17.4404 3.82227 19.3782 5.43833 19.8722 7.60392C21.8847 8.20172 23.3524 10.064 23.3524 12.271C23.3524 13.0716 23.1579 13.8304 22.8128 14.4993L20.5217 13.3172C20.6828 13.005 20.7743 12.6505 20.7743 12.271C20.7743 11.0543 19.8247 10.0584 18.6263 9.98529L17.4158 9.9114V8.69862C17.4158 8.69146 17.4158 8.68491 17.4159 8.67916C17.4094 7.41954 16.3863 6.40039 15.1251 6.40039C13.864 6.40039 12.8408 7.41949 12.8343 8.67915C12.8344 8.68491 12.8344 8.69146 12.8344 8.69862V9.9114L11.6239 9.98529C10.4255 10.0584 9.47583 11.0544 9.47583 12.271C9.47583 12.8276 9.67308 13.3347 10.0033 13.7321L8.02028 15.3797C7.32041 14.5373 6.89771 13.4523 6.89771 12.271C6.89771 10.0641 8.36547 8.20174 10.378 7.60393Z" fill="#534918"/>
<path fill-rule="evenodd" clip-rule="evenodd" d="M7.45674 13.7707C9.30248 12.7705 11.6571 13.0495 13.2177 14.61C13.9261 15.3184 14.3696 16.1912 14.55 17.1041C14.8306 17.1595 15.1075 17.2399 15.3772 17.3453L14.4387 19.7465C14.1198 19.6219 13.7766 19.5711 13.4364 19.5954L11.9528 19.7013L12.0588 18.2177C12.1047 17.5741 11.883 16.9214 11.3947 16.433C10.5343 15.5727 9.15868 15.54 8.25957 16.3356L7.35136 17.1393L6.49381 16.2818C6.48855 16.2765 6.48386 16.2717 6.47982 16.2676C5.5845 15.3818 4.14074 15.3848 3.24909 16.2764C2.35744 17.1681 2.35448 18.6119 3.24022 19.5072C3.24438 19.5112 3.24916 19.5159 3.25442 19.5212L4.11201 20.3788L3.30823 21.287C2.71325 21.9593 2.57961 22.9021 2.91522 23.6961L0.540502 24.6998C-0.0307564 23.3482 0.0356067 21.7896 0.743339 20.484C-0.438616 18.6034 -0.211035 16.0905 1.42608 14.4534C3.06323 12.8163 5.57613 12.5887 7.45674 13.7707Z" fill="#534918"/>
<path fill-rule="evenodd" clip-rule="evenodd" d="M32.1004 10.9951L35.1776 14.0722C36.2353 15.13 36.876 16.4511 37.0966 17.8249L34.5511 18.2336C34.4136 17.3775 34.0159 16.5566 33.3546 15.8953L32.1004 14.6411L30.7534 15.9882C30.2307 16.5109 29.8736 17.132 29.6786 17.7908L27.2065 17.059C27.5205 15.9985 28.0962 14.9994 28.9304 14.1651L32.1004 10.9951Z" fill="#534918"/>
<path fill-rule="evenodd" clip-rule="evenodd" d="M39.7485 17.5059C37.6128 17.5059 35.8813 19.2373 35.8813 21.373V22.9245H37.5546C39.6904 22.9245 41.4218 21.1931 41.4218 19.0573V17.5059H39.7485ZM33.3032 21.373C33.3032 17.8134 36.1889 14.9277 39.7485 14.9277H43.9999V19.0573C43.9999 22.6169 41.1143 25.5026 37.5546 25.5026H33.3032V21.373Z" fill="#534918"/>
<path fill-rule="evenodd" clip-rule="evenodd" d="M12.9766 21.6353C12.9766 16.6517 17.0165 12.6118 22 12.6118C26.9835 12.6118 31.0234 16.6517 31.0234 21.6353V24.2134H28.4453V21.6353C28.4453 18.0756 25.5597 15.1899 22 15.1899C18.4403 15.1899 15.5547 18.0756 15.5547 21.6353V24.2134H12.9766V21.6353Z" fill="#534918"/>
<path fill-rule="evenodd" clip-rule="evenodd" d="M0 22.9243H44V28.576C44 32.1357 41.1143 35.0213 37.5547 35.0213H6.44531C2.88567 35.0213 0 32.1356 0 28.576V22.9243ZM2.57812 25.5024V28.576C2.57812 30.7118 4.30953 32.4432 6.44531 32.4432H37.5547C39.6905 32.4432 41.4219 30.7118 41.4219 28.576V25.5024H2.57812Z" fill="#534918"/>
<path fill-rule="evenodd" clip-rule="evenodd" d="M7.73438 37.5997V33.7324H5.15625V40.1778H38.8438V33.7324H36.2656V37.5997H7.73438Z" fill="#534918"/>
<path fill-rule="evenodd" clip-rule="evenodd" d="M22 20.3462C21.288 20.3462 20.7109 20.9233 20.7109 21.6353V24.2134H18.1328V21.6353C18.1328 19.4994 19.8642 17.7681 22 17.7681C24.1358 17.7681 25.8672 19.4994 25.8672 21.6353V24.2134H23.2891V21.6353C23.2891 20.9233 22.712 20.3462 22 20.3462Z" fill="#534918"/>
</svg>
