<svg width="44" height="44" viewBox="0 0 44 44" fill="none" xmlns="http://www.w3.org/2000/svg">
<g clip-path="url(#clip0_602_1599)">
<path fill-rule="evenodd" clip-rule="evenodd" d="M15.1272 10.5471C15.2404 9.87256 14.6553 9.28741 13.9808 9.40067L8.45452 10.3285C7.65679 10.4625 7.34343 11.4418 7.91556 12.0139L10.5917 14.6901C11.263 15.3613 11.263 16.4496 10.5917 17.1208C9.92052 17.792 8.83227 17.792 8.16106 17.1208L5.48488 14.4446C2.93714 11.8969 4.33189 7.53507 7.88532 6.9385M7.88532 6.9385L13.4115 6.01064C13.4115 6.01063 13.4115 6.01064 13.4115 6.01064C16.4156 5.50621 19.0217 8.11223 18.5172 11.1163C18.5172 11.1163 18.5172 11.1163 18.5172 11.1163L17.7782 15.5179C17.621 16.454 16.7347 17.0855 15.7985 16.9283C14.8624 16.7711 14.2309 15.8848 14.3881 14.9487L15.1272 10.5471" fill="#534918"/>
<path fill-rule="evenodd" clip-rule="evenodd" d="M5.73047 31.3569C6.67971 31.3569 7.44922 32.1264 7.44922 33.0757V36.3325C7.44922 37.2818 6.67971 38.0513 5.73047 38.0513C4.78123 38.0513 4.01172 37.2818 4.01172 36.3325V33.0757C4.01172 32.1264 4.78123 31.3569 5.73047 31.3569Z" fill="#534918"/>
<path fill-rule="evenodd" clip-rule="evenodd" d="M0 25.3179C0 24.3686 0.769511 23.5991 1.71875 23.5991H42.2812C43.2305 23.5991 44 24.3686 44 25.3179V32.5523C44 33.5015 43.2305 34.271 42.2812 34.271H39.9854L39.9883 36.3299C39.9897 37.2791 39.2213 38.0498 38.2721 38.0511C37.3229 38.0525 36.5522 37.2841 36.5509 36.3349L36.5454 32.5548C36.5447 32.0985 36.7255 31.6607 37.0479 31.3378C37.3703 31.0149 37.8078 30.8335 38.2641 30.8335H40.5625V27.0366H3.4375V30.8335H29.6704C30.6196 30.8335 31.3891 31.603 31.3891 32.5523C31.3891 33.5015 30.6196 34.271 29.6704 34.271H1.71875C0.769511 34.271 0 33.5015 0 32.5523V25.3179Z" fill="#534918"/>
<path fill-rule="evenodd" clip-rule="evenodd" d="M8.49985 17.4627C8.10297 16.9057 7.27545 16.9057 6.87857 17.4627L3.62706 22.0264C3.62706 22.0264 3.62705 22.0264 3.62704 22.0264C3.15762 22.6854 3.62871 23.5993 4.43772 23.5993H10.9407C11.8899 23.5993 12.6595 24.3688 12.6595 25.3181C12.6595 26.2673 11.8899 27.0368 10.9407 27.0368H4.43772C0.834549 27.0368 -1.26321 22.9662 0.827415 20.0318L0.827438 20.0318L4.07897 15.4681C5.84651 12.9872 9.53191 12.9872 11.2995 15.4681L13.4104 18.4309C13.9612 19.204 13.781 20.2772 13.0079 20.828C12.2349 21.3789 11.1616 21.1987 10.6108 20.4256L8.49985 17.4627Z" fill="#534918"/>
<path fill-rule="evenodd" clip-rule="evenodd" d="M17.5082 17.4627C17.1113 16.9057 16.2838 16.9057 15.8869 17.4627L12.6354 22.0264C12.6354 22.0264 12.6353 22.0264 12.6353 22.0264C12.1659 22.6854 12.637 23.5993 13.446 23.5993H19.949C20.8982 23.5993 21.6678 24.3688 21.6678 25.3181C21.6678 26.2673 20.8982 27.0368 19.949 27.0368H13.446C9.84285 27.0368 7.74509 22.9662 9.83572 20.0318L9.83574 20.0318L13.0873 15.4681C14.8548 12.9872 18.5402 12.9872 20.3078 15.4681C20.3078 15.4681 20.3078 15.4681 20.3078 15.4681L22.3268 18.3018C22.8776 19.0749 22.6974 20.1482 21.9243 20.699C21.1512 21.2498 20.078 21.0696 19.5272 20.2965L17.5082 17.4627L18.8954 16.4744L17.5082 17.4627Z" fill="#534918"/>
<path fill-rule="evenodd" clip-rule="evenodd" d="M26.5165 17.4627C26.1196 16.9057 25.2921 16.9057 24.8952 17.4627L21.6437 22.0264L21.6437 22.0264C21.1743 22.6853 21.6452 23.5993 22.4544 23.5993H28.9574C29.7665 23.5993 30.2375 22.6853 29.768 22.0264L29.768 22.0264L26.5165 17.4627ZM22.0956 15.4681C23.8632 12.9872 27.5486 12.9872 29.3161 15.4681L32.5676 20.0318C32.5676 20.0318 32.5676 20.0318 32.5676 20.0318C34.6585 22.9663 32.5604 27.0368 28.9574 27.0368H22.4544C18.8513 27.0368 16.7533 22.9663 18.8441 20.0318C18.8441 20.0318 18.8441 20.0318 18.8441 20.0318L22.0956 15.4681Z" fill="#534918"/>
<path fill-rule="evenodd" clip-rule="evenodd" d="M29.9575 17.4209C29.9575 16.4717 30.727 15.7021 31.6763 15.7021H42.2813C43.2305 15.7021 44.0001 16.4717 44.0001 17.4209V20.8749C44.0001 24.2781 41.2413 27.0369 37.8381 27.0369H36.1195C32.7163 27.0369 29.9575 24.2781 29.9575 20.8749V17.4209ZM33.395 19.1396V20.8749C33.395 22.3796 34.6148 23.5994 36.1195 23.5994H37.8381C39.3428 23.5994 40.5626 22.3796 40.5626 20.8749V19.1396H33.395Z" fill="#534918"/>
</g>
<defs>
<clipPath id="clip0_602_1599">
<rect width="44" height="44" fill="white"/>
</clipPath>
</defs>
</svg>
