<svg width="44" height="44" viewBox="0 0 44 44" fill="none" xmlns="http://www.w3.org/2000/svg">
<path fill-rule="evenodd" clip-rule="evenodd" d="M13.2942 33.9531C14.0061 33.9531 14.5833 34.5303 14.5833 35.2422V39.4516H29.4169V35.2422C29.4169 34.5303 29.9941 33.9531 30.706 33.9531C31.4179 33.9531 31.995 34.5303 31.995 35.2422V40.7406C31.995 41.4526 31.4179 42.0297 30.706 42.0297H13.2942C12.5823 42.0297 12.0051 41.4526 12.0051 40.7406V35.2422C12.0051 34.5303 12.5823 33.9531 13.2942 33.9531Z" fill="#534918"/>
<path fill-rule="evenodd" clip-rule="evenodd" d="M0 19.5103C0 18.7983 0.577133 18.2212 1.28906 18.2212H42.7109C43.4229 18.2212 44 18.7983 44 19.5103V21.2787C44 29.7159 37.1603 36.5555 28.7231 36.5555H15.2769C6.83966 36.5555 0 29.7159 0 21.2787V19.5103ZM2.57812 20.7993V21.2787C2.57812 28.292 8.26352 33.9774 15.2769 33.9774H28.7231C35.7365 33.9774 41.4219 28.292 41.4219 21.2787V20.7993H2.57812Z" fill="#534918"/>
<path fill-rule="evenodd" clip-rule="evenodd" d="M0.699951 24.6895C0.699951 23.9775 1.27708 23.4004 1.98901 23.4004H42.0108C42.7227 23.4004 43.2999 23.9775 43.2999 24.6895C43.2999 25.4014 42.7227 25.9785 42.0108 25.9785H1.98901C1.27708 25.9785 0.699951 25.4014 0.699951 24.6895Z" fill="#534918"/>
<path fill-rule="evenodd" clip-rule="evenodd" d="M21.9999 4.54883C20.7188 4.54883 19.6009 5.2514 19.0112 6.29864C18.6952 6.85981 18.0136 7.10168 17.4146 6.86518C17.0222 6.71025 16.5966 6.62413 16.1513 6.62413C14.3977 6.62413 12.9511 7.94235 12.7497 9.6412C12.6747 10.2741 12.1484 10.7572 11.5114 10.7778C9.66957 10.8375 8.19583 12.3477 8.19583 14.2023C8.19583 14.3233 8.202 14.4401 8.21407 14.554C8.28344 15.2077 7.84975 15.8089 7.20752 15.9493C5.66776 16.2859 4.51685 17.6578 4.51685 19.2962V19.3217C4.51685 20.0336 3.93971 20.6107 3.22778 20.6107C2.51585 20.6107 1.93872 20.0336 1.93872 19.3217V19.2962C1.93872 16.7968 3.46439 14.6575 5.63427 13.7527C5.83372 11.0567 7.81264 8.85877 10.4 8.32293C11.1421 5.8489 13.4346 4.04601 16.1513 4.04601C16.5644 4.04601 16.9677 4.08841 17.3571 4.16825C18.4567 2.82874 20.1267 1.9707 21.9999 1.9707C23.8731 1.9707 25.543 2.82875 26.6427 4.16825C27.032 4.08842 27.4353 4.04601 27.8484 4.04601C30.5652 4.04601 32.8577 5.8489 33.5997 8.32293C36.1871 8.85877 38.1661 11.0567 38.3655 13.7527C40.5354 14.6575 42.061 16.7968 42.061 19.2962V19.3217C42.061 20.0336 41.4839 20.6107 40.772 20.6107C40.0601 20.6107 39.4829 20.0336 39.4829 19.3217V19.2962C39.4829 17.6578 38.332 16.2859 36.7922 15.9493C36.1503 15.8089 35.7166 15.2081 35.7856 14.5546C35.7977 14.4399 35.8039 14.3229 35.8039 14.2023C35.8039 12.3477 34.3302 10.8375 32.4884 10.7778C31.8514 10.7572 31.3251 10.2741 31.25 9.6412C31.0487 7.94235 29.6021 6.62413 27.8484 6.62413C27.4032 6.62413 26.9777 6.71024 26.5851 6.86521C25.9861 7.10167 25.3045 6.85979 24.9886 6.29864C24.3989 5.2514 23.281 4.54883 21.9999 4.54883Z" fill="#534918"/>
<path d="M23.2891 8.76562C23.2891 9.47755 22.7119 10.0547 22 10.0547C21.2881 10.0547 20.7109 9.47755 20.7109 8.76562C20.7109 8.0537 21.2881 7.47656 22 7.47656C22.7119 7.47656 23.2891 8.0537 23.2891 8.76562Z" fill="#534918"/>
<path d="M28.7891 10.6562C28.7891 11.3682 28.2119 11.9453 27.5 11.9453C26.7881 11.9453 26.2109 11.3682 26.2109 10.6562C26.2109 9.94432 26.7881 9.36719 27.5 9.36719C28.2119 9.36719 28.7891 9.94432 28.7891 10.6562Z" fill="#534918"/>
<path d="M17.7891 10.6562C17.7891 11.3682 17.2119 11.9453 16.5 11.9453C15.7881 11.9453 15.2109 11.3682 15.2109 10.6562C15.2109 9.94432 15.7881 9.36719 16.5 9.36719C17.2119 9.36719 17.7891 9.94432 17.7891 10.6562Z" fill="#534918"/>
<path d="M23.2891 14.3516C23.2891 15.0635 22.7119 15.6406 22 15.6406C21.2881 15.6406 20.7109 15.0635 20.7109 14.3516C20.7109 13.6396 21.2881 13.0625 22 13.0625C22.7119 13.0625 23.2891 13.6396 23.2891 14.3516Z" fill="#534918"/>
<path d="M14.5234 14.3516C14.5234 15.0635 13.9463 15.6406 13.2344 15.6406C12.5224 15.6406 11.9453 15.0635 11.9453 14.3516C11.9453 13.6396 12.5224 13.0625 13.2344 13.0625C13.9463 13.0625 14.5234 13.6396 14.5234 14.3516Z" fill="#534918"/>
<path d="M32.0547 14.3516C32.0547 15.0635 31.4776 15.6406 30.7656 15.6406C30.0537 15.6406 29.4766 15.0635 29.4766 14.3516C29.4766 13.6396 30.0537 13.0625 30.7656 13.0625C31.4776 13.0625 32.0547 13.6396 32.0547 14.3516Z" fill="#534918"/>
</svg>
