<svg width="32" height="32" viewBox="0 0 32 32" fill="none" xmlns="http://www.w3.org/2000/svg">
<path d="M24.8438 2C21.2536 2 10.7462 2 7.15605 2C6.48176 1.97301 5.81401 2.14124 5.23299 2.4845C4.65198 2.82775 4.1824 3.33143 3.88066 3.93504C3.57892 4.53865 3.45783 5.21654 3.53195 5.88729C3.60607 6.55804 3.87224 7.19314 4.29849 7.71631L11.7738 16.8518C11.92 17.0304 11.9999 17.2542 11.9999 17.485V28.1831C11.9999 29.7588 13.9547 30.4789 15.2321 29.6616L19.1662 27.1465C19.4184 26.9903 19.6271 26.773 19.7729 26.5146C19.9186 26.2562 19.9967 25.9651 19.9999 25.6685V17.4855C19.9999 17.2547 20.0798 17.0309 20.226 16.8523L27.7016 7.71631C28.1277 7.19309 28.3938 6.55799 28.4679 5.88724C28.542 5.2165 28.4208 4.53864 28.1191 3.93505C27.8173 3.33146 27.3478 2.8278 26.7668 2.48455C26.1858 2.1413 25.518 1.97305 24.8438 2ZM25.3795 5.8169L17.339 15.6436C17.1298 15.9171 17.0112 16.2491 16.9999 16.5933V24.9707L14.9999 26.2495V16.5928C14.9879 16.2487 14.8694 15.9169 14.6608 15.6431L6.62051 5.81689C6.55994 5.74382 6.52148 5.65499 6.50965 5.56082C6.49782 5.46666 6.5131 5.37107 6.55371 5.28529C6.59432 5.19951 6.65857 5.1271 6.7389 5.07656C6.81924 5.02602 6.91232 4.99946 7.00723 5H24.9926C25.0875 4.99951 25.1805 5.0261 25.2608 5.07663C25.3411 5.12717 25.4054 5.19956 25.446 5.28531C25.4866 5.37106 25.5019 5.46662 25.4902 5.56078C25.4784 5.65493 25.44 5.74378 25.3795 5.8169Z" fill="black"/>
</svg>
