<svg width="123" height="123" viewBox="0 0 123 123" fill="none" xmlns="http://www.w3.org/2000/svg">
<g clip-path="url(#clip0_603_2460)">
<path d="M84.1256 53.3291C84.068 53.3291 84.0103 53.3291 83.9527 53.3291C80.2314 53.4252 77.291 56.5242 77.3871 60.2575C77.4856 63.9162 80.4813 66.8207 84.1184 66.8207C84.1809 66.8207 84.2433 66.8207 84.3058 66.8183C88.0294 66.7222 90.9675 63.6231 90.8738 59.8995C90.7801 56.2335 87.7748 53.3291 84.128 53.3291H84.1256Z" fill="black"/>
<path d="M95.3519 35.3623C95.2919 35.3623 95.2318 35.3623 95.1717 35.3623C91.4481 35.4632 88.5101 38.5574 88.6037 42.2883C88.7022 45.947 91.7028 48.8515 95.3375 48.8515C95.4 48.8515 95.4648 48.8515 95.5297 48.8491C99.2509 48.7554 102.194 45.6539 102.098 41.9327C101.999 38.2667 99.0011 35.3623 95.3519 35.3623Z" fill="black"/>
<path d="M122.993 87.4139C122.705 71.3663 120.809 55.1385 117.701 38.7593C115.169 27.3794 106.059 17.2439 91.5032 16.5016C91.1284 16.4871 90.7633 16.4775 90.4077 16.4775C80.6927 16.4775 78.3023 22.0654 66.8455 22.0654C66.7326 22.0654 66.6197 22.0654 66.5044 22.0654C64.8444 22.0558 63.1844 22.051 61.5244 22.051C59.8643 22.051 58.1779 22.0558 56.5035 22.0654C56.3881 22.0654 56.2752 22.0654 56.1623 22.0654C44.7055 22.0654 42.3056 16.4799 32.6001 16.4799C32.2446 16.4799 31.8794 16.4871 31.5047 16.504C16.9465 17.2463 7.5533 27.3554 5.2975 38.7617C2.18406 55.1409 0.28861 71.3639 0.000328372 87.4115C-0.0693396 98.5848 10.9622 106.018 18.2413 106.527C18.5368 106.549 18.8299 106.561 19.123 106.561C32.7707 106.561 43.6509 82.7942 51.9846 82.7918C55.1629 82.8111 58.3436 82.8207 61.522 82.8207C64.7003 82.8207 67.8521 82.8111 71.016 82.7918C79.3497 82.7918 90.2252 106.563 103.88 106.563C104.173 106.563 104.466 106.551 104.762 106.529C112.038 106.02 123.356 98.5368 122.993 87.4139ZM104.123 97.4245C104.106 97.4245 104.091 97.4245 104.075 97.4269C104.01 97.4317 103.945 97.4341 103.88 97.4341C102.652 97.4341 100.812 96.514 98.703 94.842C95.8923 92.615 93.0143 89.4391 90.2324 86.3689C84.3106 79.8345 78.7179 73.6653 71.016 73.6629C70.9968 73.6629 70.98 73.6629 70.9608 73.6629C67.8281 73.6822 64.6522 73.6894 61.5195 73.6894C58.3869 73.6894 55.1822 73.6797 52.0375 73.6605C52.0183 73.6605 52.0015 73.6605 51.9822 73.6605C44.2827 73.6605 38.6877 79.8322 32.7659 86.3665C29.984 89.4367 27.106 92.6102 24.2952 94.8372C22.186 96.5092 20.3482 97.4293 19.1206 97.4293C19.0557 97.4293 18.9909 97.4269 18.9284 97.4221C18.9116 97.4221 18.8948 97.4197 18.8779 97.4173C15.8894 97.2083 9.12683 93.2492 9.12923 87.5076C9.3983 72.6275 11.0751 57.2477 14.2534 40.4962C15.0342 36.59 17.045 33.0009 19.923 30.3847C23.0796 27.5139 27.2285 25.8683 31.9203 25.6209C32.1509 25.6113 32.3767 25.6064 32.5953 25.6064C35.3604 25.6064 36.994 26.3103 39.7015 27.4779C43.3338 29.0442 48.3067 31.1919 56.1575 31.1919H56.5683C58.2115 31.1823 59.8763 31.1775 61.5195 31.1775C63.1627 31.1775 64.8011 31.1823 66.4299 31.1919H66.8407C74.6916 31.1919 79.6645 29.0442 83.2944 27.4779C85.9994 26.3103 87.633 25.604 90.4029 25.604C90.6215 25.604 90.8498 25.6088 91.0804 25.6185C101.713 26.1806 107.174 33.7023 108.757 40.6115C111.926 57.3438 113.595 72.7068 113.862 87.5725C113.862 87.6181 113.862 87.6614 113.864 87.707C114.044 93.2204 107.099 97.2107 104.118 97.4197L104.123 97.4245Z" fill="black"/>
<path d="M45.6477 46.5289H38.8395V39.7207C38.8395 37.2006 36.7951 35.1562 34.275 35.1562C31.755 35.1562 29.7106 37.2006 29.7106 39.7207V46.5289H22.9023C20.3823 46.5289 18.3379 48.5733 18.3379 51.0934C18.3379 53.6135 20.3823 55.6579 22.9023 55.6579H29.7106V62.4661C29.7106 64.9862 31.755 67.0305 34.275 67.0305C36.7951 67.0305 38.8395 64.9862 38.8395 62.4661V55.6579H45.6477C48.1678 55.6579 50.2122 53.6135 50.2122 51.0934C50.2122 48.5733 48.1678 46.5289 45.6477 46.5289Z" fill="black"/>
</g>
<defs>
<clipPath id="clip0_603_2460">
<rect width="123" height="123" fill="white"/>
</clipPath>
</defs>
</svg>
