<svg width="88" height="88" viewBox="0 0 88 88" fill="none" xmlns="http://www.w3.org/2000/svg">
<g clip-path="url(#clip0_552_33)">
<path d="M85.0667 39.5999H80.6667V25.9922C81.1111 25.7368 81.4806 25.369 81.738 24.9257C81.9955 24.4824 82.1318 23.9792 82.1333 23.4666V19.0666C82.1333 18.2886 81.8243 17.5425 81.2742 16.9924C80.7241 16.4423 79.978 16.1333 79.2 16.1333H58.6667V11.7333C58.6665 11.154 58.4948 10.5877 58.1732 10.1059C57.8516 9.62407 57.3946 9.24824 56.8597 9.02579C57.0849 8.48995 57.2006 7.91448 57.2 7.33326V4.39993C57.2021 3.74789 57.0582 3.10365 56.7791 2.51439C56.4999 1.92512 56.0925 1.40576 55.5867 0.994325C55.0729 0.575213 54.4715 0.276839 53.827 0.121228C53.1825 -0.0343829 52.5112 -0.0432578 51.8628 0.0952584C49.5455 0.60568 47.3835 1.66158 45.5561 3.17526C44.5426 2.86046 43.4574 2.86046 42.4439 3.17526C40.6139 1.66052 38.4487 0.604579 36.1284 0.0952584C35.4822 -0.0394924 34.8141 -0.0284478 34.1727 0.127588C33.5313 0.283624 32.9328 0.580724 32.4207 0.997259C31.9139 1.40766 31.5053 1.92623 31.2249 2.51499C30.9444 3.10376 30.7993 3.74779 30.8 4.39993V7.33326C30.7996 7.91399 30.9153 8.48894 31.1403 9.02433C30.6052 9.24687 30.148 9.62292 29.8264 10.105C29.5048 10.5872 29.3332 11.1537 29.3333 11.7333V16.1333H8.8C8.02203 16.1333 7.27593 16.4423 6.72582 16.9924C6.17571 17.5425 5.86667 18.2886 5.86667 19.0666V23.4666C5.86821 23.9792 6.00454 24.4824 6.26197 24.9257C6.5194 25.369 6.88887 25.7368 7.33333 25.9922V39.5999H2.93333C2.15536 39.5999 1.40926 39.909 0.859153 40.4591C0.309047 41.0092 0 41.7553 0 42.5333L0 48.3999C0 49.1779 0.309047 49.924 0.859153 50.4741C1.40926 51.0242 2.15536 51.3333 2.93333 51.3333H4.4V85.0666C4.4 85.8446 4.70905 86.5907 5.25915 87.1408C5.80926 87.6909 6.55537 87.9999 7.33333 87.9999H11.7333C12.5113 87.9999 13.2574 87.6909 13.8075 87.1408C14.3576 86.5907 14.6667 85.8446 14.6667 85.0666V61.5999H73.3333V85.0666C73.3333 85.8446 73.6424 86.5907 74.1925 87.1408C74.7426 87.6909 75.4887 87.9999 76.2667 87.9999H80.6667C81.4446 87.9999 82.1907 87.6909 82.7409 87.1408C83.291 86.5907 83.6 85.8446 83.6 85.0666V51.3333H85.0667C85.8446 51.3333 86.5907 51.0242 87.1409 50.4741C87.691 49.924 88 49.1779 88 48.3999V42.5333C88 41.7553 87.691 41.0092 87.1409 40.4591C86.5907 39.909 85.8446 39.5999 85.0667 39.5999ZM57.2 39.5999V26.3999H77.7333V39.5999H57.2ZM30.8 39.5999H19.6739L30.8 28.4738V39.5999ZM33.7333 19.0666H39.6V39.5999H33.7333V19.0666ZM46.9333 11.7333V16.1333H41.0667V11.7333H46.9333ZM42.5333 19.0666H45.4667V39.5999H42.5333V19.0666ZM48.4 19.0666H54.2667V39.5999H48.4V19.0666ZM64.5333 23.4666V19.0666H70.4V23.4666H64.5333ZM79.2 23.4666H73.3333V19.0666H79.2V23.4666ZM61.6 19.0666V23.4666H57.2V19.0666H61.6ZM55.7333 16.1333H49.8667V11.7333H55.7333V16.1333ZM52.4671 2.96553C52.6866 2.91766 52.9141 2.92012 53.1325 2.97269C53.351 3.02527 53.5547 3.12662 53.7284 3.26913C53.8973 3.40507 54.0334 3.57733 54.1266 3.7731C54.2198 3.96886 54.2677 4.18311 54.2667 4.39993V7.33326C54.2667 7.72224 54.1121 8.0953 53.8371 8.37035C53.562 8.6454 53.189 8.79993 52.8 8.79993H49.8667C49.8645 7.30298 49.2869 5.86417 48.2533 4.78126C49.5313 3.91651 50.9608 3.3005 52.4671 2.96553ZM46.9333 8.79993H41.0667C41.0667 8.02196 41.3757 7.27585 41.9258 6.72575C42.4759 6.17564 43.222 5.86659 44 5.86659C44.778 5.86659 45.5241 6.17564 46.0742 6.72575C46.6243 7.27585 46.9333 8.02196 46.9333 8.79993ZM33.7333 4.39993C33.7319 4.18262 33.7796 3.9678 33.8728 3.77149C33.966 3.57518 34.1023 3.40245 34.2716 3.26619C34.4453 3.12672 34.6475 3.0271 34.8639 2.97439C35.0804 2.92167 35.3058 2.91715 35.5241 2.96113C37.0337 3.29664 38.4663 3.91417 39.7467 4.78126C38.7131 5.86417 38.1355 7.30298 38.1333 8.79993H35.2C34.811 8.79993 34.438 8.6454 34.1629 8.37035C33.8879 8.0953 33.7333 7.72224 33.7333 7.33326V4.39993ZM32.2667 11.7333H38.1333V16.1333H32.2667V11.7333ZM30.8 19.0666V23.4666H26.4V19.0666H30.8ZM18.4595 26.3999L10.2667 34.5927V26.3999H18.4595ZM17.6 23.4666V19.0666H23.4667V23.4666H17.6ZM8.8 19.0666H14.6667V23.4666H8.8V19.0666ZM10.2667 38.7405L22.6072 26.3999H28.7261L15.5261 39.5999H10.2667V38.7405ZM7.33333 85.0666V51.3333H11.7333V85.0666H7.33333ZM14.6667 58.6666V51.3333H73.3333V58.6666H14.6667ZM80.6667 85.0666H76.2667V51.3333H80.6667V85.0666ZM2.93333 48.3999V42.5333H85.0667V48.3999H2.93333Z" fill="black"/>
</g>
<defs>
<clipPath id="clip0_552_33">
<rect width="88" height="88" fill="white"/>
</clipPath>
</defs>
</svg>
