<svg fill="none" height="24" viewBox="0 0 24 24" width="24" xmlns="http://www.w3.org/2000/svg" id="fi_12379311"><path clip-rule="evenodd" d="m14 5c0 1.10457.8954 2 2 2s2-.89543 2-2-.8954-2-2-2-2 .89543-2 2zm0 7c0 1.1046.8954 2 2 2s2-.8954 2-2-.8954-2-2-2-2 .8954-2 2zm2 9c-1.1046 0-2-.8954-2-2s.8954-2 2-2 2 .8954 2 2-.8954 2-2 2zm-9-16c0 1.10457.89543 2 2 2 1.1046 0 2-.89543 2-2s-.8954-2-2-2c-1.10457 0-2 .89543-2 2zm2 9c-1.10457 0-2-.8954-2-2s.89543-2 2-2c1.1046 0 2 .8954 2 2s-.8954 2-2 2zm-2 5c0 1.1046.89543 2 2 2 1.1046 0 2-.8954 2-2s-.8954-2-2-2c-1.10457 0-2 .8954-2 2z" fill="#160b34" fill-rule="evenodd"></path></svg>