<svg width="42" height="42" viewBox="0 0 42 42" fill="none" xmlns="http://www.w3.org/2000/svg">
<path d="M21 20.3438C20.6106 20.3438 20.23 20.2283 19.9062 20.012C19.5825 19.7956 19.3301 19.4882 19.1811 19.1284C19.0321 18.7687 18.9931 18.3728 19.0691 17.9909C19.145 17.609 19.3325 17.2582 19.6079 16.9829C19.8832 16.7075 20.234 16.52 20.6159 16.4441C20.9978 16.3681 21.3937 16.4071 21.7534 16.5561C22.1131 16.7051 22.4206 16.9575 22.637 17.2812C22.8533 17.605 22.9688 17.9856 22.9688 18.375C22.9688 18.8971 22.7613 19.3979 22.3921 19.7671C22.0229 20.1363 21.5221 20.3438 21 20.3438ZM21 17.7188C20.8702 17.7188 20.7433 17.7572 20.6354 17.8293C20.5275 17.9015 20.4434 18.004 20.3937 18.1239C20.344 18.2438 20.331 18.3757 20.3564 18.503C20.3817 18.6303 20.4442 18.7473 20.536 18.839C20.6277 18.9308 20.7447 18.9933 20.872 19.0186C20.9993 19.044 21.1312 19.031 21.2511 18.9813C21.3711 18.9316 21.4735 18.8475 21.5457 18.7396C21.6178 18.6317 21.6563 18.5048 21.6563 18.375C21.6563 18.201 21.5871 18.034 21.464 17.911C21.341 17.7879 21.174 17.7188 21 17.7188Z" fill="black"/>
<path d="M12.4688 26.9062C9.62391 26.9062 6.5625 25.2656 6.5625 21.6562C6.5625 21.4822 6.63164 21.3153 6.75471 21.1922C6.87778 21.0691 7.0447 21 7.21875 21C7.3928 21 7.55972 21.0691 7.68279 21.1922C7.80586 21.3153 7.875 21.4822 7.875 21.6562C7.875 24.7643 10.7625 25.5938 12.4688 25.5938C14.175 25.5938 17.0625 24.7643 17.0625 21.6562C17.0625 21.4822 17.1316 21.3153 17.2547 21.1922C17.3778 21.0691 17.5447 21 17.7188 21C17.8928 21 18.0597 21.0691 18.1828 21.1922C18.3059 21.3153 18.375 21.4822 18.375 21.6562C18.375 25.2656 15.3129 26.9062 12.4688 26.9062Z" fill="black"/>
<path d="M29.5312 26.9062C26.6864 26.9062 23.625 25.2656 23.625 21.6562C23.625 21.4822 23.6941 21.3153 23.8172 21.1922C23.9403 21.0691 24.1072 21 24.2812 21C24.4553 21 24.6222 21.0691 24.7453 21.1922C24.8684 21.3153 24.9375 21.4822 24.9375 21.6562C24.9375 24.7643 27.825 25.5938 29.5312 25.5938C31.2375 25.5938 34.125 24.7643 34.125 21.6562C34.125 21.4822 34.1941 21.3153 34.3172 21.1922C34.4403 21.0691 34.6072 21 34.7812 21C34.9553 21 35.1222 21.0691 35.2453 21.1922C35.3684 21.3153 35.4375 21.4822 35.4375 21.6562C35.4375 25.2656 32.3754 26.9062 29.5312 26.9062Z" fill="black"/>
<path d="M38.0625 21C37.8885 21 37.7215 21.0691 37.5985 21.1922C37.4754 21.3153 37.4062 21.4822 37.4062 21.6562C37.4062 26.2008 33.7267 30.1875 29.5312 30.1875C25.3358 30.1875 21.6562 26.2008 21.6562 21.6562C21.6562 21.4822 21.5871 21.3153 21.464 21.1922C21.341 21.0691 21.174 21 21 21C20.826 21 20.659 21.0691 20.536 21.1922C20.4129 21.3153 20.3438 21.4822 20.3438 21.6562C20.3438 26.2008 16.6642 30.1875 12.4688 30.1875C8.27334 30.1875 4.59375 26.2008 4.59375 21.6562C4.59375 21.4822 4.52461 21.3153 4.40154 21.1922C4.27847 21.0691 4.11155 21 3.9375 21C3.76345 21 3.59653 21.0691 3.47346 21.1922C3.35039 21.3153 3.28125 21.4822 3.28125 21.6562C3.28125 26.8997 7.57444 31.5 12.4688 31.5C16.2192 31.5 19.6166 28.7989 21 25.1764C22.3834 28.7989 25.7808 31.5 29.5312 31.5C34.4256 31.5 38.7188 26.8997 38.7188 21.6562C38.7188 21.4822 38.6496 21.3153 38.5265 21.1922C38.4035 21.0691 38.2365 21 38.0625 21Z" fill="black"/>
<path d="M40.0148 18.2122C39.9794 17.7755 39.7995 17.363 39.5036 17.0399C39.2077 16.7167 38.8127 16.5012 38.3808 16.4275C37.9489 16.3537 37.5047 16.4258 37.1184 16.6324C36.732 16.839 36.4254 17.1684 36.247 17.5686C36.0685 17.9687 36.0284 18.4169 36.1329 18.8424C36.2374 19.268 36.4805 19.6466 36.8241 19.9186C37.1676 20.1905 37.5918 20.3404 38.03 20.3446C38.4681 20.3487 38.8952 20.2069 39.2437 19.9414C40.633 24.3888 40.6875 31.2007 40.6875 37.4062H1.3125C1.3125 31.2007 1.36631 24.3888 2.75625 19.9414C3.09527 20.2014 3.5103 20.3427 3.9375 20.3437C4.32035 20.3456 4.69545 20.2358 5.01686 20.0278C5.33827 19.8198 5.59206 19.5225 5.74715 19.1725C5.90224 18.8225 5.9519 18.4348 5.89006 18.057C5.82822 17.6792 5.65755 17.3276 5.39896 17.0452C5.14036 16.7629 4.80506 16.5621 4.4341 16.4674C4.06314 16.3727 3.67261 16.3882 3.31034 16.5121C2.94807 16.6359 2.62976 16.8627 2.39439 17.1647C2.15903 17.4666 2.01681 17.8307 1.98516 18.2122C0 22.9418 0 30.9704 0 38.0625C0 38.2365 0.0691404 38.4034 0.192211 38.5265C0.315282 38.6496 0.482202 38.7187 0.65625 38.7187H41.3438C41.5178 38.7187 41.6847 38.6496 41.8078 38.5265C41.9309 38.4034 42 38.2365 42 38.0625C42 30.9704 42 22.9418 40.0148 18.2122ZM38.0625 19.0312C37.9327 19.0312 37.8058 18.9927 37.6979 18.9206C37.59 18.8485 37.5059 18.746 37.4562 18.6261C37.4065 18.5062 37.3935 18.3742 37.4189 18.2469C37.4442 18.1196 37.5067 18.0027 37.5985 17.9109C37.6902 17.8192 37.8072 17.7567 37.9345 17.7313C38.0618 17.706 38.1937 17.719 38.3136 17.7687C38.4335 17.8183 38.536 17.9025 38.6082 18.0104C38.6803 18.1183 38.7188 18.2452 38.7188 18.375C38.7188 18.549 38.6496 18.7159 38.5265 18.839C38.4035 18.9621 38.2365 19.0312 38.0625 19.0312ZM3.9375 17.7187C4.06729 17.7187 4.19417 17.7572 4.30209 17.8293C4.41001 17.9014 4.49413 18.0039 4.5438 18.1238C4.59347 18.2438 4.60646 18.3757 4.58114 18.503C4.55582 18.6303 4.49332 18.7472 4.40154 18.839C4.30976 18.9308 4.19283 18.9933 4.06553 19.0186C3.93823 19.0439 3.80628 19.0309 3.68636 18.9813C3.56645 18.9316 3.46396 18.8475 3.39185 18.7396C3.31974 18.6316 3.28125 18.5048 3.28125 18.375C3.28125 18.2009 3.35039 18.034 3.47346 17.9109C3.59653 17.7879 3.76345 17.7187 3.9375 17.7187Z" fill="black"/>
<path d="M17.7188 17.7188H16.2855C16.3632 17.5086 16.4041 17.2866 16.4062 17.0625V15.75C16.4062 15.576 16.3371 15.409 16.214 15.286C16.091 15.1629 15.924 15.0938 15.75 15.0938H9.1875C9.01345 15.0938 8.84653 15.1629 8.72346 15.286C8.60039 15.409 8.53125 15.576 8.53125 15.75V17.0625C8.53333 17.2866 8.57441 17.5087 8.65266 17.7188H7.21875C7.0447 17.7188 6.87778 17.7879 6.75471 17.911C6.63164 18.034 6.5625 18.201 6.5625 18.375C6.5625 18.549 6.63164 18.716 6.75471 18.839C6.87778 18.9621 7.0447 19.0312 7.21875 19.0312H17.7188C17.8928 19.0312 18.0597 18.9621 18.1828 18.839C18.3059 18.716 18.375 18.549 18.375 18.375C18.375 18.201 18.3059 18.034 18.1828 17.911C18.0597 17.7879 17.8928 17.7188 17.7188 17.7188ZM10.5 17.7188C10.326 17.7188 10.159 17.6496 10.036 17.5265C9.91289 17.4035 9.84375 17.2365 9.84375 17.0625V16.4062H15.0938V17.0625C15.0938 17.2365 15.0246 17.4035 14.9015 17.5265C14.7785 17.6496 14.6115 17.7188 14.4375 17.7188H10.5Z" fill="black"/>
<path d="M34.7812 17.7188H33.348C33.4257 17.5086 33.4666 17.2866 33.4688 17.0625V15.75C33.4688 15.576 33.3996 15.409 33.2765 15.286C33.1535 15.1629 32.9865 15.0938 32.8125 15.0938H26.25C26.076 15.0938 25.909 15.1629 25.786 15.286C25.6629 15.409 25.5938 15.576 25.5938 15.75V17.0625C25.5958 17.2866 25.6369 17.5087 25.7152 17.7188H24.2812C24.1072 17.7188 23.9403 17.7879 23.8172 17.911C23.6941 18.034 23.625 18.201 23.625 18.375C23.625 18.549 23.6941 18.716 23.8172 18.839C23.9403 18.9621 24.1072 19.0312 24.2812 19.0312H34.7812C34.9553 19.0312 35.1222 18.9621 35.2453 18.839C35.3684 18.716 35.4375 18.549 35.4375 18.375C35.4375 18.201 35.3684 18.034 35.2453 17.911C35.1222 17.7879 34.9553 17.7188 34.7812 17.7188ZM27.5625 17.7188C27.3885 17.7188 27.2215 17.6496 27.0985 17.5265C26.9754 17.4035 26.9062 17.2365 26.9062 17.0625V16.4062H32.1562V17.0625C32.1562 17.2365 32.0871 17.4035 31.964 17.5265C31.841 17.6496 31.674 17.7188 31.5 17.7188H27.5625Z" fill="black"/>
<path d="M33.4688 3.9375H25.5938C24.8976 3.9375 24.2299 4.21406 23.7376 4.70634C23.2453 5.19863 22.9688 5.86631 22.9688 6.5625V16.4062C22.9688 16.5803 23.0379 16.7472 23.161 16.8703C23.284 16.9934 23.451 17.0625 23.625 17.0625C23.799 17.0625 23.966 16.9934 24.089 16.8703C24.2121 16.7472 24.2812 16.5803 24.2812 16.4062V10.9377C25.8515 11.9337 27.6718 12.4645 29.5312 12.4688C30.9912 12.4721 32.4333 12.1473 33.7509 11.5185C33.8288 11.4814 33.8986 11.4294 33.9564 11.3654C34.0141 11.3013 34.0587 11.2266 34.0875 11.1453C34.1164 11.064 34.129 10.9779 34.1245 10.8918C34.1201 10.8057 34.0987 10.7213 34.0617 10.6434C34.0246 10.5655 33.9726 10.4957 33.9085 10.438C33.8445 10.3802 33.7697 10.3356 33.6885 10.3068C33.6072 10.2779 33.5211 10.2654 33.4349 10.2698C33.3488 10.2742 33.2644 10.2956 33.1866 10.3327C32.0453 10.8778 30.796 11.1592 29.5312 11.1562C27.6271 11.1521 25.779 10.5111 24.2812 9.33516V6.5625C24.2812 6.2144 24.4195 5.88056 24.6657 5.63442C24.9118 5.38828 25.2457 5.25 25.5938 5.25H33.4688C33.8168 5.25 34.1507 5.38828 34.3968 5.63442C34.643 5.88056 34.7812 6.2144 34.7812 6.5625V16.4062C34.7812 16.5803 34.8504 16.7472 34.9735 16.8703C35.0965 16.9934 35.2635 17.0625 35.4375 17.0625C35.6115 17.0625 35.7785 16.9934 35.9015 16.8703C36.0246 16.7472 36.0938 16.5803 36.0938 16.4062V6.5625C36.0938 5.86631 35.8172 5.19863 35.3249 4.70634C34.8326 4.21406 34.1649 3.9375 33.4688 3.9375Z" fill="black"/>
<path d="M16.4062 3.9375H8.53125C7.83506 3.9375 7.16738 4.21406 6.67509 4.70634C6.18281 5.19863 5.90625 5.86631 5.90625 6.5625V16.4062C5.90625 16.5803 5.97539 16.7472 6.09846 16.8703C6.22153 16.9934 6.38845 17.0625 6.5625 17.0625C6.73655 17.0625 6.90347 16.9934 7.02654 16.8703C7.14961 16.7472 7.21875 16.5803 7.21875 16.4062V10.9377C8.78902 11.9337 10.6093 12.4645 12.4688 12.4688C13.9287 12.4721 15.3708 12.1473 16.6884 11.5185C16.8457 11.4437 16.9668 11.3094 17.025 11.1453C17.0833 10.9812 17.074 10.8006 16.9992 10.6434C16.9243 10.4861 16.7901 10.3651 16.626 10.3068C16.4619 10.2485 16.2813 10.2578 16.1241 10.3327C14.9828 10.8778 13.7335 11.1592 12.4688 11.1562C10.5646 11.1521 8.71647 10.5111 7.21875 9.33516V6.5625C7.21875 6.2144 7.35703 5.88056 7.60317 5.63442C7.84931 5.38828 8.18315 5.25 8.53125 5.25H16.4062C16.7543 5.25 17.0882 5.38828 17.3343 5.63442C17.5805 5.88056 17.7188 6.2144 17.7188 6.5625V16.4062C17.7188 16.5803 17.7879 16.7472 17.911 16.8703C18.034 16.9934 18.201 17.0625 18.375 17.0625C18.549 17.0625 18.716 16.9934 18.839 16.8703C18.9621 16.7472 19.0312 16.5803 19.0312 16.4062V6.5625C19.0312 5.86631 18.7547 5.19863 18.2624 4.70634C17.7701 4.21406 17.1024 3.9375 16.4062 3.9375Z" fill="black"/>
</svg>
