<svg width="32" height="32" viewBox="0 0 32 32" fill="none" xmlns="http://www.w3.org/2000/svg">
<path d="M29.3001 13.9C28.1001 12.1 26.5001 10.6 24.7001 9.44998L29.0501 5.09998C29.6501 4.44998 29.6001 3.49998 29.0001 2.94998C28.4001 2.39998 27.5001 2.39998 26.9001 2.94998L21.8501 7.99998C20.0001 7.34998 18.0001 6.99998 16.0001 6.99998C8.45008 6.99998 4.40008 11.35 2.65008 13.9C1.75008 15.25 1.75008 17.05 2.70008 18.35C3.90008 20.05 5.45008 21.5 7.25008 22.6L2.95008 26.9C2.35008 27.5 2.35008 28.45 2.90008 29C3.45008 29.55 4.45008 29.6 5.00008 29.05C5.00008 29.05 5.00008 29.05 5.05008 29L10.1001 24C12.0001 24.7 14.0001 25 16.0001 25C23.4501 25 27.5001 20.85 29.2501 18.4C30.2001 17.05 30.2501 15.25 29.3001 13.9ZM5.15008 16.65C4.90008 16.35 4.90008 15.9 5.15008 15.6C6.55008 13.5 9.80008 9.99998 16.0001 9.99998C17.1501 9.99998 18.3501 10.15 19.4501 10.4L17.1501 12.7C15.3501 12.05 13.3501 13 12.7001 14.8C12.4501 15.55 12.4501 16.4 12.7001 17.15L9.45008 20.4C7.75008 19.5 6.30008 18.2 5.15008 16.65ZM26.8001 16.65C25.4001 18.65 22.1001 22 16.0001 22C14.8501 22 13.6501 21.85 12.5501 21.6L14.8501 19.3C16.6501 19.95 18.6501 19 19.3001 17.2C19.5501 16.45 19.5501 15.6 19.3001 14.85L22.5001 11.65C24.2501 12.65 25.7001 14 26.8501 15.6C27.0501 15.9 27.0501 16.35 26.8001 16.65Z" fill="black"/>
</svg>
