<svg width="32" height="32" viewBox="0 0 32 32" fill="none" xmlns="http://www.w3.org/2000/svg">
<path d="M28.95 5.89995L26.05 2.99995C24.65 1.59995 22.45 1.59995 21.05 2.99995L15.2 8.89995C13.8 10.3 13.8 12.5 15.2 13.9L15.6 14.3L14.35 15.55L13.95 15.15C12.55 13.75 10.35 13.75 8.95 15.15L3.05 21.0499C1.65 22.4499 1.65 24.6499 3.05 26.0499L5.95 28.95C7.35 30.35 9.55 30.35 10.95 28.95L16.85 23.0499C18.25 21.6499 18.25 19.4499 16.85 18.0499L16.45 17.65L17.7 16.4L18.1 16.8C19.5 18.2 21.7 18.2 23.1 16.8L29 10.9C30.35 9.54995 30.35 7.29995 28.95 5.89995ZM14.7 20.2C14.9 20.4 14.9 20.75 14.7 20.95L8.8 26.85C8.6 27.05 8.25 27.05 8.05 26.85L5.15 23.95C4.95 23.75 4.95 23.4 5.15 23.2L11.05 17.3C11.25 17.1 11.6 17.1 11.8 17.3L12.2 17.7L9.9 20C9.3 20.6 9.3 21.55 9.9 22.1C10.5 22.65 11.45 22.7 12 22.1L14.3 19.7999L14.7 20.2ZM26.85 8.79995L20.95 14.7C20.75 14.9 20.4 14.9 20.2 14.7L19.8 14.3L22.1 12C22.7 11.4 22.7 10.45 22.1 9.89995C21.5 9.34995 20.55 9.29995 20 9.89995L17.7 12.2L17.3 11.8C17.1 11.6 17.1 11.25 17.3 11.05L23.2 5.14995C23.4 4.94995 23.75 4.94995 23.95 5.14995L26.85 8.04995C27.05 8.24995 27.05 8.59995 26.85 8.79995Z" fill="black"/>
</svg>
