<svg width="32" height="32" viewBox="0 0 32 32" fill="none" xmlns="http://www.w3.org/2000/svg">
<path d="M16 30C8.25 30 2 23.75 2 16C2 8.25 8.25 2 16 2C23.75 2 30 8.25 30 16C30 23.75 23.75 30 16 30ZM16 5C9.9 5 5 9.9 5 16C5 22.1 9.9 27 16 27C22.1 27 27 22.1 27 16C27 9.95 22.05 5 16 5Z" fill="black"/>
<path d="M18.5 21.5H17.5V14.5C17.5 13.4 16.6 12.5 15.5 12.5H14C13.15 12.5 12.5 13.15 12.5 14C12.5 14.85 13.15 15.5 14 15.5H14.5V21.5H13.5C12.65 21.5 12 22.15 12 23C12 23.85 12.65 24.5 13.5 24.5H18.5C19.35 24.5 20 23.85 20 23C20 22.15 19.35 21.5 18.5 21.5Z" fill="black"/>
<path d="M17.5 9.5C17.5 10.6 16.6 11.5 15.5 11.5C14.4 11.5 13.5 10.6 13.5 9.5C13.5 8.4 14.4 7.5 15.5 7.5C16.6 7.5 17.5 8.4 17.5 9.5Z" fill="black"/>
</svg>
