<svg width="28" height="28" viewBox="0 0 28 28" fill="none" xmlns="http://www.w3.org/2000/svg">
<g clip-path="url(#clip0_133_2495)">
<path d="M26.4099 9.0003L15.6949 2.4401C15.6921 2.43841 15.6893 2.43671 15.6866 2.43507C15.1782 2.12997 14.595 1.96875 14 1.96875C13.405 1.96875 12.8218 2.12997 12.3134 2.43502C12.3106 2.43671 12.3079 2.43841 12.3051 2.44005L1.59009 9.0003C0.609109 9.59104 0 10.6681 0 11.8125V22.75C0 24.5593 1.47197 26.0312 3.28125 26.0312H24.7188C26.528 26.0312 28 24.5593 28 22.75V11.8125C28 10.6681 27.3909 9.59104 26.4099 9.0003ZM25.8125 22.75C25.8125 23.3531 25.3218 23.8438 24.7188 23.8438H3.28125C2.67816 23.8438 2.1875 23.3531 2.1875 22.75V11.8125C2.1875 11.4245 2.38662 11.0734 2.7201 10.8734C2.72295 10.8717 2.72579 10.87 2.72858 10.8682L13.4424 4.30877C13.61 4.20897 13.8027 4.15625 14 4.15625C14.1973 4.15625 14.39 4.20897 14.5576 4.30877L25.2714 10.8682C25.2742 10.8699 25.2771 10.8716 25.2798 10.8734C25.6134 11.0734 25.8125 11.4245 25.8125 11.8125V22.75Z" fill="#939693"/>
<path d="M12.3136 19.0025L4.90619 14.4268C4.38819 14.116 4.22025 13.4442 4.53104 12.9262C4.84188 12.4082 5.51388 12.2403 6.03166 12.551L13.4391 17.1267C13.7823 17.3326 14.2176 17.3329 14.5612 17.1267L21.9687 12.5509C22.4867 12.2402 23.1585 12.408 23.4693 12.9261C23.7801 13.4441 23.6121 14.1159 23.0942 14.4267L15.6867 19.0024C14.6513 19.6238 13.3502 19.6245 12.3136 19.0025Z" fill="#939693"/>
</g>
<defs>
<clipPath id="clip0_133_2495">
<rect width="28" height="28" fill="white"/>
</clipPath>
</defs>
</svg>
