<svg width="32" height="32" viewBox="0 0 32 32" fill="none" xmlns="http://www.w3.org/2000/svg">
<path d="M22.3751 8.00002C22.3764 6.87752 22.0628 5.77717 21.4699 4.82401C20.8771 3.87086 20.0287 3.10313 19.0213 2.60808C18.0138 2.11303 16.8877 1.91051 15.7709 2.02354C14.6541 2.13657 13.5914 2.56062 12.7036 3.24749C11.8158 3.93436 11.1385 4.85651 10.7486 5.90913C10.3588 6.96175 10.272 8.10262 10.4982 9.2021C10.7244 10.3016 11.2545 11.3155 12.0282 12.1288C12.8019 12.942 13.7882 13.5219 14.8751 13.8025V20.5H12.3751C10.3932 20.5 10.3905 23.5 12.3751 23.5H14.8751V25.5H11.1251C9.14325 25.5 9.14054 28.5 11.1251 28.5H14.8751C14.8751 30.4819 17.8751 30.4846 17.8751 28.5V13.8025C19.1614 13.4695 20.301 12.7192 21.1153 11.6692C21.9296 10.6192 22.3727 9.32877 22.3751 8.00002ZM16.3751 11C15.7818 11 15.2017 10.8241 14.7084 10.4944C14.215 10.1648 13.8305 9.69625 13.6035 9.14807C13.3764 8.59989 13.317 7.99669 13.4327 7.41475C13.5485 6.83281 13.8342 6.29826 14.2538 5.8787C14.6733 5.45914 15.2079 5.17342 15.7898 5.05766C16.3718 4.94191 16.975 5.00132 17.5231 5.22838C18.0713 5.45544 18.5399 5.83996 18.8695 6.33331C19.1992 6.82666 19.3751 7.40668 19.3751 8.00002C19.3742 8.7954 19.0579 9.55796 18.4955 10.1204C17.933 10.6828 17.1705 10.9991 16.3751 11Z" fill="black"/>
</svg>
