<svg width="32" height="32" viewBox="0 0 32 32" fill="none" xmlns="http://www.w3.org/2000/svg">
<path d="M25 22H7C6.3372 21.9992 5.70176 21.7356 5.23309 21.2669C4.76442 20.7982 4.50078 20.1628 4.5 19.5V8C4.50078 7.3372 4.76442 6.70176 5.23309 6.23309C5.70176 5.76442 6.3372 5.50078 7 5.5H25C25.6628 5.50078 26.2982 5.76442 26.7669 6.23309C27.2356 6.70176 27.4992 7.3372 27.5 8V19.5C27.4992 20.1628 27.2356 20.7982 26.7669 21.2669C26.2982 21.7356 25.6628 21.9992 25 22ZM7.5 19H24.5V8.5H7.5V19Z" fill="black"/>
<path d="M28.5001 26.5H3.5001C1.51825 26.5 1.51554 23.5 3.5001 23.5H28.5001C30.4819 23.5 30.4847 26.5 28.5001 26.5Z" fill="black"/>
</svg>
