<svg width="43" height="43" viewBox="0 0 43 43" fill="none" xmlns="http://www.w3.org/2000/svg">
<g clip-path="url(#clip0_518_191)">
<path d="M37.9609 0H5.03906C2.26052 0 0 2.26052 0 5.03906V37.9609C0 40.7395 2.26052 43 5.03906 43H37.9609C40.7395 43 43 40.7395 43 37.9609V5.03906C43 2.26052 40.7395 0 37.9609 0ZM39.6406 37.9609C39.6406 38.8871 38.8871 39.6406 37.9609 39.6406H5.03906C4.11288 39.6406 3.35938 38.8871 3.35938 37.9609V5.03906C3.35938 4.11288 4.11288 3.35938 5.03906 3.35938H37.9609C38.8871 3.35938 39.6406 4.11288 39.6406 5.03906V37.9609Z" fill="black"/>
<path d="M14.7813 9.74219C15.7089 9.74219 16.4609 8.99017 16.4609 8.0625C16.4609 7.13483 15.7089 6.38281 14.7812 6.38281H10.3828C8.17367 6.38281 6.38281 8.17367 6.38281 10.3828V14.7812C6.38281 15.7089 7.13483 16.4609 8.0625 16.4609C8.99017 16.4609 9.74219 15.7089 9.74219 14.7813V12.1176L15.7652 18.1406C16.4212 18.7966 17.4847 18.7966 18.1406 18.1406C18.7966 17.4847 18.7966 16.4212 18.1406 15.7652L12.1176 9.74219H14.7813Z" fill="black"/>
<path d="M26.5391 8.0625C26.5391 8.99017 27.2911 9.74219 28.2188 9.74219H30.8823L24.8594 15.7651C24.2034 16.4211 24.2034 17.4847 24.8594 18.1407C25.5154 18.7966 26.5789 18.7966 27.2349 18.1406L33.2578 12.1177V14.7813C33.2578 15.7089 34.0098 16.4609 34.9375 16.4609C35.8652 16.4609 36.6172 15.7089 36.6172 14.7812V10.3828C36.6172 8.17367 34.8263 6.38281 32.6172 6.38281H28.2188C27.2911 6.38281 26.5391 7.13483 26.5391 8.0625Z" fill="black"/>
<path d="M33.2578 30.8825L27.2349 24.8596C26.5789 24.2036 25.5154 24.2036 24.8594 24.8595C24.2034 25.5155 24.2034 26.5791 24.8594 27.2351L30.8823 33.258H28.2188C27.2911 33.258 26.5391 34.01 26.5391 34.9377C26.5391 35.8654 27.2911 36.6174 28.2188 36.6174H32.6172C34.8263 36.6174 36.6172 34.8265 36.6172 32.6174V28.219C36.6172 27.2913 35.8652 26.5393 34.9375 26.5393C34.0098 26.5393 33.2578 27.2913 33.2578 28.219V30.8825Z" fill="black"/>
<path d="M18.1406 24.8596C17.4847 24.2036 16.4212 24.2036 15.7652 24.8596L9.74219 30.8826V28.219C9.74219 27.2913 8.99017 26.5393 8.0625 26.5393C7.13483 26.5393 6.38281 27.2913 6.38281 28.219V32.6174C6.38281 34.8265 8.17367 36.6174 10.3828 36.6174H14.7812C15.7089 36.6174 16.4609 35.8654 16.4609 34.9377C16.4609 34.01 15.7089 33.258 14.7813 33.258H12.1176L18.1406 27.235C18.7966 26.579 18.7966 25.5155 18.1406 24.8596Z" fill="black"/>
</g>
<defs>
<clipPath id="clip0_518_191">
<rect width="43" height="43" fill="white"/>
</clipPath>
</defs>
</svg>
