<svg width="32" height="32" viewBox="0 0 32 32" fill="none" xmlns="http://www.w3.org/2000/svg">
<path d="M16 2C13.4813 2.00286 11.0666 3.00467 9.28565 4.78565C7.50467 6.56662 6.50286 8.98132 6.5 11.5C6.5 14.1911 7.97771 16.1779 9.11817 17.9983C10.2362 19.8538 10.9124 21.9415 11.0942 24.1001C11.1318 24.616 11.363 25.0985 11.7416 25.4509C12.1202 25.8033 12.618 25.9995 13.1353 26H18.8613C19.3789 25.9998 19.8771 25.8035 20.2557 25.4506C20.6343 25.0978 20.8652 24.6146 20.9019 24.0984C21.0904 21.9123 21.79 19.8011 22.9443 17.935L22.9448 17.9353C24.0378 16.1779 25.5 14.1799 25.5 11.5C25.4971 8.98132 24.4953 6.56662 22.7144 4.78565C20.9334 3.00467 18.5187 2.00286 16 2ZM18.0044 23H13.9922C13.6711 20.6674 12.8783 18.4246 11.662 16.4085C10.6298 14.7557 9.5 13.2571 9.5 11.5C9.5 9.77609 10.1848 8.12279 11.4038 6.90381C12.6228 5.68482 14.2761 5 16 5C17.7239 5 19.3772 5.68482 20.5962 6.90381C21.8152 8.12279 22.5 9.77609 22.5 11.5C22.5 13.2225 21.4294 14.7001 20.3989 16.3479C19.1481 18.3752 18.3329 20.6407 18.0044 23Z" fill="black"/>
<path d="M18.5 30H13.5C11.5184 30 11.5148 27 13.5 27H18.5C20.4816 27 20.4851 30 18.5 30Z" fill="black"/>
</svg>
