<svg width="32" height="32" viewBox="0 0 32 32" fill="none" xmlns="http://www.w3.org/2000/svg">
<path d="M16 28.35C15.5 28.35 15.05 28.2 14.6 27.95C11.3 25.7 0.500041 17.8 2.20004 9C2.80004 5.85 6.00004 3.5 9.65004 3.5C10.8 3.5 11.9 3.75 12.9 4.2C14.05 4.75 15.1 5.45 16 6.35C16.9 5.45 17.95 4.75 19.1 4.2C20.1 3.7 21.25 3.5 22.35 3.5C26 3.5 29.2 5.85 29.8 9C31.5 17.8 20.7 25.7 17.4 27.95C16.95 28.2 16.5 28.35 16 28.35ZM9.65004 6.5C7.70004 6.5 5.50004 7.65 5.15004 9.55C3.80004 16.45 13.4 23.5 16 25.25C18.6 23.5 28.2 16.45 26.9 9.55C26.55 7.65 24.3 6.5 22.4 6.5C21.7 6.5 21 6.65 20.4 6.95H20.35C19.45 7.4 18.6 8 17.95 8.75C17.05 9.8 15.5 9.9 14.45 9C14.35 8.9 14.3 8.85 14.2 8.75C13.5 8 12.7 7.4 11.8 6.95H11.75C11 6.65 10.35 6.5 9.65004 6.5Z" fill="black"/>
</svg>
