<svg width="32" height="32" viewBox="0 0 32 32" fill="none" xmlns="http://www.w3.org/2000/svg">
<path d="M15.95 23.75C15.5 23.75 15.05 23.6 14.7 23.3L9.54998 19C8.94998 18.45 8.89998 17.5 9.44998 16.9C9.99998 16.3 10.85 16.25 11.5 16.7L16 20.45L20.6 16.6C21.2 16.05 22.15 16.1 22.7 16.7C23.25 17.3 23.2 18.25 22.6 18.8L22.55 18.85L17.3 23.25C16.85 23.6 16.4 23.75 15.95 23.75Z" fill="black"/>
<path d="M15.9501 17.25C15.5001 17.25 15.0501 17.1 14.7001 16.8L9.5501 12.5C8.9001 12 8.8001 11.05 9.3001 10.4C9.8001 9.75 10.7501 9.65 11.4001 10.15L11.4501 10.2L15.9501 13.95L20.5501 10.1C21.1501 9.55 22.1001 9.6 22.6501 10.2C23.2001 10.8 23.1501 11.75 22.5501 12.3L22.5001 12.35L17.2501 16.75C16.8501 17.1 16.4001 17.25 15.9501 17.25Z" fill="black"/>
<path d="M16 30C8.25 30 2 23.75 2 16C2 8.25 8.25 2 16 2C23.75 2 30 8.25 30 16C30 23.75 23.75 30 16 30ZM16 5C9.9 5 5 9.9 5 16C5 22.1 9.9 27 16 27C22.1 27 27 22.1 27 16C27 9.95 22.05 5 16 5Z" fill="black"/>
</svg>
