<svg width="32" height="32" viewBox="0 0 32 32" fill="none" xmlns="http://www.w3.org/2000/svg">
<path d="M23.5 13.6474V10C23.5 8.01088 22.7098 6.10322 21.3033 4.6967C19.8968 3.29018 17.9891 2.5 16 2.5C14.0109 2.5 12.1032 3.29018 10.6967 4.6967C9.29018 6.10322 8.5 8.01088 8.5 10V13.6474C7.77834 13.8634 7.14547 14.3061 6.69517 14.91C6.24487 15.5138 6.0011 16.2467 6 17V26C6.00104 26.9279 6.37012 27.8176 7.02628 28.4737C7.68243 29.1299 8.57206 29.499 9.5 29.5H22.5C23.4279 29.499 24.3176 29.1299 24.9737 28.4737C25.6299 27.8176 25.999 26.9279 26 26V17C25.9989 16.2467 25.7551 15.5138 25.3048 14.91C24.8545 14.3061 24.2217 13.8634 23.5 13.6474ZM16 5.5C17.193 5.50139 18.3368 5.97594 19.1805 6.81955C20.0241 7.66316 20.4986 8.80695 20.5 10V13.5H11.5V10C11.5014 8.80695 11.9759 7.66316 12.8195 6.81955C13.6632 5.97594 14.807 5.50139 16 5.5ZM23 26C22.9998 26.1326 22.9471 26.2596 22.8534 26.3534C22.7596 26.4471 22.6326 26.4998 22.5 26.5H9.5C9.36744 26.4998 9.24037 26.4471 9.14664 26.3534C9.05291 26.2596 9.00017 26.1326 9 26V17C9.00017 16.8674 9.05291 16.7404 9.14664 16.6466C9.24037 16.5529 9.36744 16.5002 9.5 16.5H22.5C22.6326 16.5002 22.7596 16.5529 22.8534 16.6466C22.9471 16.7404 22.9998 16.8674 23 17V26Z" fill="black"/>
<path d="M18 20C18.0018 19.6748 17.9243 19.3542 17.7742 19.0657C17.6241 18.7773 17.406 18.5298 17.1387 18.3446C16.8713 18.1595 16.5629 18.0424 16.2401 18.0034C15.9173 17.9643 15.5898 18.0046 15.2861 18.1207C14.9824 18.2367 14.7115 18.4251 14.497 18.6694C14.2825 18.9138 14.1308 19.2068 14.055 19.523C13.9793 19.8392 13.9818 20.1691 14.0623 20.4842C14.1428 20.7992 14.2989 21.0898 14.5171 21.3309C14.4905 21.565 14.5 23.2645 14.5 23.5C14.5 25.4819 17.5 25.4846 17.5 23.5C17.5 23.2645 17.5095 21.565 17.483 21.3309C17.8144 20.9668 17.9987 20.4924 18 20Z" fill="black"/>
</svg>
