<svg width="32" height="32" viewBox="0 0 32 32" fill="none" xmlns="http://www.w3.org/2000/svg">
<path d="M27 30H13C12.2046 29.9991 11.4421 29.6828 10.8796 29.1204C10.3172 28.5579 10.0009 27.7954 10 27V25C10 23.018 13 23.0155 13 25V27H27V5H13V7C13 8.982 10 8.9845 10 7V5C10.0009 4.20462 10.3172 3.44206 10.8796 2.87964C11.4421 2.31722 12.2046 2.00087 13 2H27C27.7954 2.00087 28.5579 2.31722 29.1204 2.87964C29.6828 3.44206 29.9991 4.20462 30 5V27C29.9991 27.7954 29.6828 28.5579 29.1204 29.1204C28.5579 29.6828 27.7954 29.9991 27 30Z" fill="black"/>
<path d="M20.8833 17.5388L16.082 22.5388C14.7264 23.9518 12.5221 21.9147 13.9179 20.4612L16.7613 17.5H3.49998C1.51838 17.5 1.51485 14.5 3.49998 14.5H16.7613L13.9179 11.5389C12.5454 10.1096 14.707 8.0289 16.082 9.46121L20.8833 14.4612C21.2819 14.8743 21.5047 15.426 21.5047 16C21.5047 16.5741 21.2819 17.1258 20.8833 17.5388Z" fill="black"/>
</svg>
