<svg width="32" height="32" viewBox="0 0 32 32" fill="none" xmlns="http://www.w3.org/2000/svg">
<path d="M29.3833 17.5388L24.582 22.5388C23.2264 23.9518 21.0221 21.9147 22.4179 20.4612L25.2613 17.5H12C10.0184 17.5 10.0148 14.5 12 14.5H25.2613L22.4179 11.5389C21.0454 10.1096 23.207 8.0289 24.582 9.46121L29.3833 14.4612C29.7819 14.8743 30.0047 15.426 30.0047 16C30.0047 16.5741 29.7819 17.1258 29.3833 17.5388Z" fill="black"/>
<path d="M19 30H5C4.20462 29.9991 3.44206 29.6828 2.87964 29.1204C2.31722 28.5579 2.00087 27.7954 2 27V5C2.00087 4.20462 2.31722 3.44206 2.87964 2.87964C3.44206 2.31722 4.20462 2.00087 5 2H19C19.7954 2.00087 20.5579 2.31722 21.1204 2.87964C21.6828 3.44206 21.9991 4.20462 22 5V7C22 8.982 19 8.9845 19 7V5H5V27H19V25C19 23.018 22 23.0155 22 25V27C21.9991 27.7954 21.6828 28.5579 21.1204 29.1204C20.5579 29.6828 19.7954 29.9991 19 30Z" fill="black"/>
</svg>
