<svg width="32" height="32" viewBox="0 0 32 32" fill="none" xmlns="http://www.w3.org/2000/svg">
<path d="M28 6.5H4C3.46975 6.50061 2.9614 6.71151 2.58646 7.08646C2.21151 7.4614 2.00061 7.96975 2 8.5V23.5C2.00061 24.0302 2.21151 24.5386 2.58646 24.9135C2.9614 25.2885 3.46975 25.4994 4 25.5H28C28.5302 25.4994 29.0386 25.2885 29.4135 24.9135C29.7885 24.5386 29.9994 24.0302 30 23.5V8.5C29.9994 7.96975 29.7885 7.4614 29.4135 7.08646C29.0386 6.71151 28.5302 6.50061 28 6.5ZM16.2412 16.4116C16.1689 16.4698 16.078 16.4999 15.9853 16.4964C15.8925 16.4928 15.8042 16.4559 15.7366 16.3923L7.59387 9.5H24.4063L16.2412 16.4116ZM10.0033 15.4696L5 20.4727V11.2348L10.0033 15.4696ZM12.3011 17.4144L13.7764 18.6631C14.3869 19.2008 15.1717 19.4991 15.9853 19.5026C16.7989 19.5062 17.5862 19.2148 18.2014 18.6824L19.7503 17.3714L24.8789 22.5H7.2154L12.3011 17.4144ZM22.0478 15.4267L27 11.2349V20.3789L22.0478 15.4267Z" fill="black"/>
</svg>
