<svg width="119" height="119" viewBox="0 0 119 119" fill="none" xmlns="http://www.w3.org/2000/svg">
<path d="M42.264 14.14C42.8206 13.082 42.4839 11.7744 41.4854 11.1169C35.5916 7.23518 28.6394 5.18359 21.3809 5.18359C14.1235 5.18359 7.17223 7.23518 1.27848 11.1169C0.28069 11.7741 -0.0563216 13.0808 0.499167 14.1386L11.6215 35.3164V42.1714C11.6215 42.1984 11.6219 42.2251 11.6229 42.2523C11.7189 45.0356 13.8241 106.075 13.9285 109.101C14.068 113.134 17.3384 116.293 21.3739 116.293C25.4094 116.293 28.6801 113.134 28.8193 109.101C31.1803 40.5777 31.124 42.2356 31.124 42.1714V35.3171L42.264 14.14ZM17.2156 69.5552L16.4368 46.9707H26.3089L25.5315 69.5552H17.2156ZM26.4756 37.0672V42.131L26.4691 42.3221H16.2764L16.2699 42.131V37.0672H26.4756ZM37.1358 13.9041L27.3964 32.4188H15.3502L5.62709 13.9048C15.2117 8.49189 27.4752 8.44935 37.1358 13.9041ZM21.3739 111.644C19.8564 111.644 18.6267 110.457 18.5742 108.94L17.376 74.2036H25.3713L24.1737 108.94C24.1211 110.457 22.8914 111.644 21.3739 111.644Z" fill="black"/>
<path d="M74.354 76.9835H71.7276V69.4043C71.7276 68.1208 70.6871 67.08 69.4034 67.08H66.7745C66.7745 61.3025 66.7745 47.5812 66.7745 42.6502C66.7745 34.9607 60.5186 28.7049 52.8292 28.7049C52.8059 28.7128 49.7472 28.3404 49.7472 31.0291V67.08H47.1209C45.8372 67.08 44.7967 68.1208 44.7967 69.4043V76.9833H42.168C40.8843 76.9833 39.8438 78.0241 39.8438 79.3075V113.969C39.8438 115.252 40.8843 116.293 42.168 116.293H74.3538C75.6374 116.293 76.678 115.252 76.678 113.969V79.3078C76.6782 78.0241 75.6377 76.9835 74.354 76.9835ZM54.3959 44.6451C56.4984 46.5298 59.1743 47.7853 62.1263 48.117V67.08H54.3959V44.6451ZM54.3959 33.4853C58.7789 34.2321 62.1263 38.0575 62.1263 42.6502V43.4269C57.7433 42.6802 54.3959 38.8547 54.3959 34.2621V33.4853ZM49.4453 71.7285H67.0792V76.9833H49.4453V71.7285ZM72.0298 81.632V101.741H44.4924V81.632H72.0298ZM44.4924 111.645V106.39H72.0298V111.644H44.4924V111.645Z" fill="black"/>
<path d="M116.444 67.0796H113.818V59.5003C113.818 58.2169 112.777 57.1761 111.493 57.1761H103.914V44.4928H109.016C110.299 44.4928 111.34 43.452 111.34 42.1686C111.34 40.8852 110.299 39.8444 109.016 39.8444H103.914V34.5916H111.493C112.777 34.5916 113.818 33.5509 113.818 32.2674C113.818 30.984 112.777 29.9432 111.493 29.9432H103.914V24.6881H109.016C110.299 24.6881 111.34 23.6474 111.34 22.3639C111.34 21.0805 110.299 20.0397 109.016 20.0397H103.914V14.7846H109.016C110.299 14.7846 111.34 13.7439 111.34 12.4604C111.34 11.177 110.299 10.1362 109.016 10.1362H103.914V5.03223C103.914 3.74879 102.873 2.70801 101.59 2.70801C100.306 2.70801 99.2656 3.74879 99.2656 5.03223V10.1362H94.1616C92.8779 10.1362 91.8374 11.177 91.8374 12.4604C91.8374 13.7439 92.8779 14.7846 94.1616 14.7846H99.2656V20.0397H94.1616C92.8779 20.0397 91.8374 21.0805 91.8374 22.3639C91.8374 23.6474 92.8779 24.6881 94.1616 24.6881H99.2656V29.9432H91.6863C90.4026 29.9432 89.3621 30.984 89.3621 32.2674C89.3621 33.5509 90.4026 34.5916 91.6863 34.5916H99.2656V39.8444H94.1616C92.8779 39.8444 91.8374 40.8852 91.8374 42.1686C91.8374 43.452 92.8779 44.4928 94.1616 44.4928H99.2656V57.1761H91.6863C90.4026 57.1761 89.3621 58.2169 89.3621 59.5003V67.0796H86.7334C85.4497 67.0796 84.4092 68.1204 84.4092 69.4038V77.4384C84.4092 78.7218 85.4497 79.7626 86.7334 79.7626C88.0171 79.7626 89.0576 78.7218 89.0576 77.4384V71.728H114.12V101.741H89.0576V96.0324C89.0576 94.7489 88.0171 93.7081 86.7334 93.7081C85.4497 93.7081 84.4092 94.7489 84.4092 96.0324V113.968C84.4092 115.252 85.4497 116.293 86.7334 116.293H116.444C117.727 116.293 118.768 115.252 118.768 113.968V69.4038C118.768 68.1204 117.727 67.0796 116.444 67.0796ZM94.0105 61.8245H109.169V67.0796H94.0105V61.8245ZM89.0576 111.644V106.389H114.12V111.644H89.0576V111.644Z" fill="black"/>
<path d="M86.7334 89.0586C88.017 89.0586 89.0576 88.018 89.0576 86.7344C89.0576 85.4507 88.017 84.4102 86.7334 84.4102C85.4498 84.4102 84.4092 85.4507 84.4092 86.7344C84.4092 88.018 85.4498 89.0586 86.7334 89.0586Z" fill="black"/>
</svg>
