<svg width="42" height="42" viewBox="0 0 42 42" fill="none" xmlns="http://www.w3.org/2000/svg">
<g clip-path="url(#clip0_518_186)">
<path d="M37.0781 0H4.92188C2.20779 0 0 2.20779 0 4.92188V37.0781C0 39.7922 2.20779 42 4.92188 42H37.0781C39.7922 42 42 39.7922 42 37.0781V4.92188C42 2.20779 39.7922 0 37.0781 0ZM38.7188 37.0781C38.7188 37.9827 37.9827 38.7188 37.0781 38.7188H4.92188C4.01729 38.7188 3.28125 37.9827 3.28125 37.0781V4.92188C3.28125 4.01729 4.01729 3.28125 4.92188 3.28125H37.0781C37.9827 3.28125 38.7188 4.01729 38.7188 4.92188V37.0781ZM19.3435 23.1122C19.991 23.8893 19.9145 25.0378 19.1695 25.722L12.164 32.1562H16.8164C17.7225 32.1562 18.457 32.8908 18.457 33.7969C18.457 34.703 17.7225 35.4375 16.8164 35.4375H10.5625C8.35336 35.4375 6.5625 33.6466 6.5625 31.4375V25.1836C6.5625 24.2775 7.29703 23.543 8.20312 23.543C9.10922 23.543 9.84375 24.2775 9.84375 25.1836V29.836L16.5323 23.0001C17.3176 22.1974 18.6246 22.2496 19.3435 23.1122ZM23.543 8.20312C23.543 7.29703 24.2775 6.5625 25.1836 6.5625H31.4375C33.6466 6.5625 35.4375 8.35336 35.4375 10.5625V16.8164C35.4375 17.7225 34.703 18.457 33.7969 18.457C32.8908 18.457 32.1562 17.7225 32.1562 16.8164V12.164L25.9412 18.5352C25.3901 19.1001 24.5223 19.2102 23.8477 18.8009C22.9073 18.2305 22.7504 16.9296 23.5281 16.1519L29.836 9.84375H25.1836C24.2775 9.84375 23.543 9.10922 23.543 8.20312Z" fill="black"/>
</g>
<defs>
<clipPath id="clip0_518_186">
<rect width="42" height="42" fill="white"/>
</clipPath>
</defs>
</svg>
