<svg width="32" height="32" viewBox="0 0 32 32" fill="none" xmlns="http://www.w3.org/2000/svg">
<path d="M29.3445 11.2603L18.6242 3.95606C17.8783 3.33534 16.9385 2.99559 15.9681 2.99585C14.9977 2.99611 14.058 3.33638 13.3125 3.95751L2.65206 11.2627C1.01496 12.3845 2.71306 14.8575 4.34786 13.7373L4.99996 13.2905V26.8232C4.98157 27.3804 5.18457 27.9223 5.56459 28.3302C5.9446 28.7381 6.47069 28.9789 7.02779 29H12.5C12.6969 29 12.892 28.9612 13.074 28.8859C13.256 28.8105 13.4214 28.7 13.5606 28.5607C13.6999 28.4214 13.8104 28.256 13.8858 28.074C13.9612 27.8921 14 27.697 14 27.5V20H18V27.5C18 27.697 18.0387 27.8921 18.1141 28.074C18.1895 28.256 18.3 28.4214 18.4393 28.5607C18.5786 28.7 18.7439 28.8105 18.9259 28.8859C19.1079 28.9612 19.303 29 19.5 29H24.9721C25.5292 28.9789 26.0553 28.7381 26.4353 28.3302C26.8154 27.9223 27.0184 27.3804 27 26.8232V13.2922L27.6555 13.7398C29.2868 14.8499 31.0004 12.389 29.3445 11.2603ZM24 26H21V19.4277C20.9895 18.7746 20.7205 18.1522 20.2518 17.6971C19.7832 17.242 19.1532 16.9913 18.5 17H13.5C12.8468 16.9913 12.2167 17.242 11.7481 17.6971C11.2794 18.1522 11.0104 18.7746 11 19.4277V26H7.99996V11.2347C8.25146 11.0624 14.9941 6.45063 15.2338 6.26222C15.441 6.09175 15.7009 5.99855 15.9692 5.99855C16.2375 5.99855 16.4974 6.09175 16.7046 6.26222L24 11.2437V26Z" fill="black"/>
</svg>
