<svg width="32" height="32" viewBox="0 0 32 32" fill="none" xmlns="http://www.w3.org/2000/svg">
<g clip-path="url(#clip0_554_799)">
<path d="M28 6.66665H24V5.33331C23.9988 4.2728 23.577 3.25606 22.8271 2.50616C22.0773 1.75627 21.0605 1.33447 20 1.33331H12C10.9395 1.33447 9.92275 1.75627 9.17285 2.50616C8.42296 3.25606 8.00116 4.2728 8 5.33331V6.66665H4C2.93949 6.6678 1.92275 7.0896 1.17285 7.8395C0.422957 8.58939 0.00115759 9.60614 0 10.6666L0 26.6666C0.00115759 27.7272 0.422957 28.7439 1.17285 29.4938C1.92275 30.2437 2.93949 30.6655 4 30.6666H28C29.0605 30.6655 30.0773 30.2437 30.8271 29.4938C31.577 28.7439 31.9988 27.7272 32 26.6666V10.6666C31.9988 9.60614 31.577 8.58939 30.8271 7.8395C30.0773 7.0896 29.0605 6.6678 28 6.66665ZM10.6667 5.33331C10.667 4.9798 10.8076 4.64087 11.0576 4.39089C11.3076 4.14092 11.6465 4.00033 12 3.99998H20C20.3535 4.00033 20.6924 4.14092 20.9424 4.39089C21.1924 4.64087 21.333 4.9798 21.3333 5.33331V6.66665H10.6667V5.33331ZM4 9.33331H28C28.3535 9.33367 28.6924 9.47426 28.9424 9.72423C29.1924 9.9742 29.333 10.3131 29.3333 10.6666V12.3989L19.595 15.9372C19.3578 15.55 19.0255 15.2299 18.6296 15.0075C18.2337 14.7851 17.7874 14.6678 17.3333 14.6666H14.6667C14.2126 14.6678 13.7663 14.7851 13.3704 15.0075C12.9745 15.2299 12.6422 15.55 12.405 15.9372L2.66667 12.3989V10.6666C2.66702 10.3131 2.80761 9.9742 3.05758 9.72423C3.30755 9.47426 3.64649 9.33367 4 9.33331ZM17.3333 17.3333V20H14.6667V17.3333H17.3333ZM28 28H4C3.64649 27.9996 3.30755 27.859 3.05758 27.6091C2.80761 27.3591 2.66702 27.0202 2.66667 26.6666V15.2366L12 18.6278V20C12.0008 20.707 12.282 21.3848 12.7819 21.8847C13.2819 22.3846 13.9597 22.6658 14.6667 22.6666H17.3333C18.0403 22.6658 18.7181 22.3846 19.2181 21.8847C19.718 21.3848 19.9992 20.707 20 20V18.6278L29.3333 15.2366V26.6666C29.333 27.0202 29.1924 27.3591 28.9424 27.6091C28.6924 27.859 28.3535 27.9996 28 28Z" fill="black"/>
</g>
<defs>
<clipPath id="clip0_554_799">
<rect width="32" height="32" fill="white"/>
</clipPath>
</defs>
</svg>
