<svg width="32" height="32" viewBox="0 0 32 32" fill="none" xmlns="http://www.w3.org/2000/svg">
<g clip-path="url(#clip0_561_1095)">
<path fill-rule="evenodd" clip-rule="evenodd" d="M22.5882 5.64704H26.8236C27.3434 5.64704 27.7647 6.06841 27.7647 6.58822V9.52941L31.6148 12.417C31.8484 12.5882 32.0001 12.8647 32.0001 13.1765V30.1177C32.0001 30.6375 31.5787 31.0588 31.0589 31.0588H0.941188C0.421375 31.0588 0 30.6374 0 30.1176V13.1765C0 12.8647 0.151625 12.5882 0.38525 12.417L4.23531 9.52941V6.58822C4.23531 6.06841 4.65669 5.64704 5.1765 5.64704H9.41181L15.4353 1.12941C15.7699 0.878412 16.2301 0.878412 16.5648 1.12941L22.5882 5.64704ZM6.11763 16.8067L11.2 21.647H21.2572L25.8855 17.0187C25.8834 16.9932 25.8823 16.9672 25.8823 16.9412V7.52941H6.11763V16.8067ZM19.451 5.64704L16 3.05879L12.549 5.64704H19.451ZM27.7647 15.1395L29.6259 13.2783L27.7647 11.8823V15.1395ZM4.23531 15.014V11.8823L2.39575 13.262L4.23531 15.014ZM21.3169 23.5294H10.8235C10.7789 23.5294 10.7347 23.5262 10.6911 23.52C10.647 23.5547 10.6039 23.5886 10.5496 23.6313C10.2423 23.873 9.89912 24.1423 9.5285 24.4324C8.46962 25.261 7.40331 26.0898 6.39731 26.8636C6.30406 26.9353 6.30406 26.9354 6.21069 27.007C4.99156 27.9435 4.06706 28.6497 3.35519 29.1764H28.3757L21.3169 23.5294ZM1.88238 15.3725V27.9101C1.912 27.8886 7.95225 23.2523 9.17256 22.3156L1.88238 15.3725ZM30.1176 28.1594V15.4487L23.0561 22.5102L30.1176 28.1594ZM15.5294 15.6101L19.0993 12.0403C19.4668 11.6727 20.0628 11.6727 20.4303 12.0403C20.7978 12.4078 20.7978 13.0038 20.4303 13.3713L16.1949 17.6066C15.8274 17.9742 15.2314 17.9742 14.8639 17.6066L12.511 15.2537C12.1434 14.8861 12.1434 14.2902 12.511 13.9227C12.8786 13.5551 13.4745 13.5551 13.842 13.9227L15.5294 15.6101Z" fill="black"/>
</g>
<defs>
<clipPath id="clip0_561_1095">
<rect width="32" height="32" fill="white"/>
</clipPath>
</defs>
</svg>
