<svg width="32" height="32" viewBox="0 0 32 32" fill="none" xmlns="http://www.w3.org/2000/svg">
<g clip-path="url(#clip0_561_1076)">
<path d="M28.5218 6.26088H24.8299C25.1863 5.64638 25.3914 4.93394 25.3914 4.17394C25.3914 1.87244 23.519 0 21.2175 0C19.0421 0 17.1226 1.11544 16.0001 2.80419C14.8775 1.11544 12.9581 0 10.7827 0C8.48121 0 6.60877 1.87244 6.60877 4.17394C6.60877 4.93394 6.8139 5.64644 7.17027 6.26088H3.47834C1.75221 6.26088 0.3479 7.66519 0.3479 9.39131V14.2609C0.3479 14.8371 0.815088 15.3044 1.3914 15.3044H2.4349V28.8696C2.4349 30.5957 3.83921 32 5.56534 32C6.4384 32 25.4735 32 26.4349 32C28.161 32 29.5653 30.5957 29.5653 28.8696V15.3044H30.6088C31.1851 15.3044 31.6523 14.8372 31.6523 14.2609V9.39131C31.6523 7.66519 30.248 6.26088 28.5218 6.26088ZM10.7827 2.08694C13.0842 2.08694 14.9566 3.95938 14.9566 6.26088C14.4996 6.26088 11.3138 6.26088 10.7827 6.26088C9.63196 6.26088 8.69577 5.32469 8.69577 4.17394C8.69571 3.02319 9.63196 2.08694 10.7827 2.08694ZM12.8696 29.9131H5.56534C4.98996 29.9131 4.52184 29.4449 4.52184 28.8696V15.3044H12.8696V29.9131ZM12.8696 13.2174C12.4345 13.2174 2.87334 13.2174 2.4349 13.2174V9.39131C2.4349 8.81594 2.90303 8.34781 3.4784 8.34781C3.66696 8.34781 12.6638 8.34781 12.8697 8.34781L12.8696 13.2174ZM17.0436 29.9131H14.9566V15.3044H17.0436V29.9131ZM17.0436 13.2174H14.9566V8.34781C15.7118 8.34781 16.2884 8.34781 17.0436 8.34781V13.2174ZM21.2175 2.08694C22.3682 2.08694 23.3044 3.02312 23.3044 4.17387C23.3044 5.32462 22.3682 6.26081 21.2175 6.26081C20.738 6.26081 17.4934 6.26081 17.0435 6.26081C17.0436 3.95937 18.916 2.08694 21.2175 2.08694ZM27.4783 28.8696C27.4783 29.4449 27.0102 29.9131 26.4348 29.9131H19.1305V15.3044H27.4783L27.4783 28.8696ZM29.5653 13.2174C29.1266 13.2174 19.5654 13.2174 19.1305 13.2174V8.34781C19.3365 8.34781 28.3334 8.34781 28.5218 8.34781C29.0972 8.34781 29.5653 8.81594 29.5653 9.39131L29.5653 13.2174Z" fill="black"/>
</g>
<defs>
<clipPath id="clip0_561_1076">
<rect width="32" height="32" fill="white"/>
</clipPath>
</defs>
</svg>
