<svg width="32" height="32" viewBox="0 0 32 32" fill="none" xmlns="http://www.w3.org/2000/svg">
<path d="M6.3125 28.3516V24.9888C5.11759 24.8213 4.02334 24.2279 3.231 23.3179C2.43867 22.408 2.00154 21.2425 2 20.0359V7C2.00147 5.67437 2.52873 4.40346 3.46609 3.46609C4.40346 2.52873 5.67437 2.00147 7 2H25C26.3256 2.00147 27.5965 2.52873 28.5339 3.46609C29.4713 4.40346 29.9985 5.67437 30 7V20.0359C29.9985 21.3615 29.4713 22.6324 28.5339 23.5698C27.5965 24.5072 26.3256 25.0344 25 25.0359H14.4639L9.022 29.613C8.78158 29.8146 8.48867 29.9434 8.17763 29.9844C7.86659 30.0254 7.55031 29.9768 7.26589 29.8444C6.98148 29.712 6.74072 29.5012 6.57185 29.2368C6.40299 28.9724 6.31302 28.6653 6.3125 28.3516ZM7 5C6.46975 5.00061 5.9614 5.21151 5.58646 5.58646C5.21151 5.9614 5.00061 6.46975 5 7V20.0359C5.00061 20.5661 5.21151 21.0745 5.58646 21.4494C5.9614 21.8244 6.46975 22.0353 7 22.0359H7.5625C8.02646 22.0365 8.47125 22.221 8.79932 22.5491C9.12738 22.8771 9.31194 23.3219 9.3125 23.7859V25.4485L12.8813 22.4468C13.1968 22.1816 13.5957 22.0361 14.0078 22.0359H25C25.5302 22.0353 26.0386 21.8244 26.4135 21.4494C26.7885 21.0745 26.9994 20.5662 27 20.0359V7C26.9994 6.46975 26.7885 5.9614 26.4135 5.58646C26.0386 5.21151 25.5302 5.00061 25 5H7Z" fill="black"/>
</svg>
