<svg width="32" height="32" viewBox="0 0 32 32" fill="none" xmlns="http://www.w3.org/2000/svg">
<path d="M24.1667 2H7.83333C6.28681 2.00185 4.80415 2.61703 3.71059 3.71059C2.61703 4.80415 2.00185 6.28681 2 7.83333L2 24.1667C2.00033 25.6955 2.60309 27.1626 3.67767 28.25C3.68933 28.2628 3.694 28.2803 3.70683 28.2932C3.71967 28.306 3.73717 28.3107 3.75 28.3223C4.83744 29.3969 6.30453 29.9997 7.83333 30H24.1667C25.7132 29.9981 27.1958 29.383 28.2894 28.2894C29.383 27.1958 29.9981 25.7132 30 24.1667V7.83333C29.9981 6.28681 29.383 4.80415 28.2894 3.71059C27.1958 2.61703 25.7132 2.00185 24.1667 2ZM4.33333 7.83333C4.33333 6.90508 4.70208 6.01484 5.35846 5.35846C6.01484 4.70208 6.90508 4.33333 7.83333 4.33333H24.1667C25.0949 4.33333 25.9852 4.70208 26.6415 5.35846C27.2979 6.01484 27.6667 6.90508 27.6667 7.83333V20.1837L22.6582 15.1752C22.4394 14.9565 22.1427 14.8336 21.8333 14.8336C21.524 14.8336 21.2273 14.9565 21.0085 15.1752L15.4167 20.767L13.3248 18.6752C13.1061 18.4565 12.8094 18.3336 12.5 18.3336C12.1906 18.3336 11.8939 18.4565 11.6752 18.6752L4.68333 25.6658C4.455 25.1989 4.33535 24.6864 4.33333 24.1667V7.83333ZM24.1667 27.6667H7.83333C7.3136 27.6647 6.80106 27.545 6.33417 27.3167L12.5 21.1497L16.3418 24.9915C16.5625 25.2066 16.8585 25.3269 17.1667 25.3269C17.4748 25.3269 17.7708 25.2066 17.9915 24.9915C18.2102 24.7727 18.3331 24.476 18.3331 24.1667C18.3331 23.8573 18.2102 23.5606 17.9915 23.3418L17.0663 22.4167L21.8333 17.6497L27.6667 23.483V24.1667C27.6667 25.0949 27.2979 25.9852 26.6415 26.6415C25.9852 27.2979 25.0949 27.6667 24.1667 27.6667Z" fill="black"/>
<path d="M10.1665 13.6666C10.8587 13.6666 11.5354 13.4614 12.111 13.0768C12.6866 12.6922 13.1352 12.1456 13.4001 11.506C13.665 10.8665 13.7343 10.1627 13.5993 9.48381C13.4642 8.80488 13.1309 8.18124 12.6414 7.69175C12.1519 7.20227 11.5283 6.86893 10.8493 6.73388C10.1704 6.59883 9.46665 6.66814 8.82711 6.93305C8.18757 7.19796 7.64095 7.64656 7.25636 8.22213C6.87178 8.7977 6.6665 9.47439 6.6665 10.1666C6.6665 11.0949 7.03525 11.9851 7.69163 12.6415C8.34801 13.2979 9.23825 13.6666 10.1665 13.6666ZM10.1665 8.99996C10.3972 8.99996 10.6228 9.06838 10.8147 9.19658C11.0065 9.32477 11.1561 9.50698 11.2444 9.72016C11.3327 9.93334 11.3558 10.1679 11.3108 10.3942C11.2657 10.6205 11.1546 10.8284 10.9915 10.9916C10.8283 11.1547 10.6204 11.2659 10.3941 11.3109C10.1678 11.3559 9.93322 11.3328 9.72004 11.2445C9.50686 11.1562 9.32465 11.0067 9.19646 10.8148C9.06826 10.6229 8.99984 10.3974 8.99984 10.1666C8.99984 9.85721 9.12275 9.56046 9.34155 9.34167C9.56034 9.12288 9.85708 8.99996 10.1665 8.99996Z" fill="black"/>
</svg>
