<svg width="32" height="32" viewBox="0 0 32 32" fill="none" xmlns="http://www.w3.org/2000/svg">
<g clip-path="url(#clip0_554_795)">
<path fill-rule="evenodd" clip-rule="evenodd" d="M18.9005 4.57129H13.0992C12.4684 4.57129 11.9564 5.0833 11.9564 5.71416C11.9564 6.34503 12.4684 6.85704 13.0992 6.85704H14.857V8.66277C8.02261 9.22735 2.60425 14.8114 2.2991 21.7144H1.14251C0.775647 21.7144 0.430503 21.8915 0.215643 22.1887C0.000782538 22.487 -0.0575046 22.8698 0.0579256 23.2184L1.2008 26.647C1.35623 27.1145 1.79395 27.4288 2.28538 27.4288H29.7143C30.2058 27.4288 30.6435 27.1145 30.7989 26.647L31.9418 23.2184C32.0572 22.8698 31.9989 22.487 31.7841 22.1887C31.5692 21.8915 31.2241 21.7144 30.8572 21.7144H29.7006C29.3955 14.8103 23.976 9.22621 17.1427 8.66277V6.85704H18.9005C19.5313 6.85704 20.0433 6.34503 20.0433 5.71416C20.0433 5.0833 19.5313 4.57129 18.9005 4.57129ZM2.72768 24.0001H29.272L28.8903 25.143H3.10939L2.72768 24.0001ZM27.4126 21.7144C27.0926 15.6926 22.1017 10.9005 15.9999 10.9005C9.89806 10.9005 4.90713 15.6926 4.58713 21.7144H27.4126Z" fill="black"/>
</g>
<defs>
<clipPath id="clip0_554_795">
<rect width="32" height="32" fill="white"/>
</clipPath>
</defs>
</svg>
