<svg width="32" height="32" viewBox="0 0 32 32" fill="none" xmlns="http://www.w3.org/2000/svg">
<mask id="mask0_553_771" style="mask-type:luminance" maskUnits="userSpaceOnUse" x="0" y="0" width="32" height="32">
<path d="M0 1.90735e-06H32V32H0V1.90735e-06Z" fill="white"/>
</mask>
<g mask="url(#mask0_553_771)">
<path fill-rule="evenodd" clip-rule="evenodd" d="M5 11C5 13.7614 7.23858 16 10 16C12.7615 16 15 13.7614 15 11C15 8.2386 12.7615 6 10 6C7.23858 6 5 8.23858 5 11ZM10 13.5C8.61929 13.5 7.5 12.3807 7.5 11C7.5 9.61929 8.61929 8.5 10 8.5C11.3808 8.5 12.5 9.61928 12.5 11C12.5 12.3807 11.3808 13.5 10 13.5Z" fill="black"/>
<path fill-rule="evenodd" clip-rule="evenodd" d="M0 29.75C0 30.4404 0.559644 31 1.25 31H18.75C19.4404 31 20 30.4404 20 29.75V28.5C20 22.9772 15.5229 18.5 10.0001 18.5C4.47722 18.5 0 22.9771 0 28.5V29.75ZM2.5 28.5C2.5 24.3579 5.85791 21 10.0001 21C14.1421 21 17.5 24.3579 17.5 28.5H2.5Z" fill="black"/>
<path fill-rule="evenodd" clip-rule="evenodd" d="M17 6C17 8.76142 19.2386 11 22 11C24.7615 11 27 8.76141 27 6C27 3.2386 24.7615 1 22 1C19.2386 1 17 3.23858 17 6ZM22 8.5C20.6193 8.5 19.5 7.38071 19.5 6C19.5 4.61929 20.6193 3.5 22 3.5C23.3808 3.5 24.5 4.61928 24.5 6C24.5 7.38072 23.3808 8.5 22 8.5Z" fill="black"/>
<path fill-rule="evenodd" clip-rule="evenodd" d="M21.4804 24.75C21.4804 25.4404 22.0401 26 22.7304 26H30.75C31.4404 26 32 25.4404 32 24.75V23.5C32 17.9772 27.523 13.5 22.0001 13.5C19.6296 13.5 17.4487 14.3264 15.7347 15.7057C15.1968 16.1386 15.1117 16.9254 15.5445 17.4632C15.9773 18.0011 16.7642 18.0862 17.302 17.6534C18.588 16.6185 20.2201 16 22.0001 16C26.1422 16 29.5 19.3578 29.5 23.5H22.7304C22.0401 23.5 21.4804 24.0596 21.4804 24.75Z" fill="black"/>
</g>
</svg>
