<svg  viewBox="0 -35 512 512"  xmlns="http://www.w3.org/2000/svg"><path d="m492 0h-472c-11.046875 0-20 8.953125-20 20s8.953125 20 20 20h20v355.277344c0 25.761718 20.960938 46.722656 46.722656 46.722656 24.199219 0 44.191406-18.164062 46.507813-42.25l26.132812-271.75h194.277344l26.128906 271.75c2.316407 24.085938 22.308594 42.25 46.507813 42.25 25.761718 0 46.722656-20.960938 46.722656-46.722656v-67.277344c0-11.046875-8.953125-20-20-20s-20 8.953125-20 20v67.277344c0 3.707031-3.015625 6.722656-6.722656 6.722656-3.480469 0-6.359375-2.613281-6.691406-6.078125l-25.761719-267.921875h39.175781v101c0 11.046875 8.953125 20 20 20s20-8.953125 20-20v-189h19c11.046875 0 20-8.953125 20-20s-8.953125-20-20-20zm-398.585938 395.921875c-.332031 3.464844-3.207031 6.078125-6.691406 6.078125-3.707031 0-6.722656-3.015625-6.722656-6.722656v-267.277344h39.179688zm339.585938-307.921875h-353v-48h353zm0 0"/></svg>