<svg width="119" height="119" viewBox="0 0 119 119" fill="none" xmlns="http://www.w3.org/2000/svg">
<path d="M99.3713 70.3824C92.5995 63.6106 81.5808 63.6104 74.8091 70.3824L36.1907 109.001C34.2223 110.969 31.6055 112.053 28.822 112.053C26.0384 112.053 23.4218 110.969 21.4534 109.001L19.972 107.519C18.0038 105.551 16.9196 102.934 16.9196 100.151C16.9196 97.367 18.0038 94.7504 19.972 92.782L23.111 89.6429L28.5651 95.097L38.6767 85.8353L40.4854 87.6439L80.7187 50.7919C81.651 50.8945 82.5942 50.9475 83.5458 50.9475C90.35 50.9475 96.7469 48.2978 101.558 43.4863C106.369 38.6753 109.019 32.2782 109.019 25.474C109.019 18.6698 106.37 12.2727 101.558 7.46166C96.7466 2.64971 90.3498 0 83.5458 0C76.7418 0 70.3445 2.64971 65.5335 7.46119C59.8529 13.1418 57.4252 20.8596 58.2429 28.2846L21.3758 68.5342L23.1844 70.3428L13.9227 80.4544L18.1986 84.7302L15.0593 87.8693C8.28752 94.6411 8.28752 105.66 15.0593 112.432L16.5407 113.913C19.8212 117.193 24.1828 119 28.8217 119C33.4609 119 37.8224 117.193 41.103 113.913L79.7213 75.2946C83.7841 71.2318 90.3956 71.2314 94.4589 75.2946L95.1103 75.946C97.0785 77.9145 98.1627 80.5313 98.1627 83.3148C98.1627 86.0984 97.0785 88.715 95.1103 90.6834L86.4234 99.3703L91.3358 104.283L100.023 95.5959C106.795 88.8241 106.795 77.8054 100.023 71.0336L99.3713 70.3824ZM96.6457 12.3736C100.145 15.8728 102.072 20.5252 102.072 25.4735C102.072 29.2431 100.951 32.8393 98.8711 35.8864L73.1329 10.1482C76.18 8.06862 79.7762 6.94732 83.5458 6.94732C88.4941 6.94732 93.1465 8.87428 96.6457 12.3736ZM68.2221 15.0625L93.9584 40.7988C90.9113 42.8784 87.3154 43.9997 83.5458 43.9997C82.7677 43.9997 81.9979 43.9467 81.2379 43.8527L65.1761 27.7909C64.6264 23.4034 65.6423 18.8571 68.2221 15.0625ZM62.0135 34.4534L74.5659 47.0056L40.6959 78.0293L30.9898 68.3232L62.0135 34.4534ZM33.7594 80.9178L28.7756 85.4826L23.5364 80.2434L28.1013 75.2597L33.7594 80.9178Z" fill="black"/>
<path d="M54.5752 49.5225L59.4819 44.6158L64.3936 49.5275L59.487 54.4342L54.5752 49.5225Z" fill="black"/>
</svg>
