<svg width="32" height="32" viewBox="0 0 32 32" fill="none" xmlns="http://www.w3.org/2000/svg">
<path d="M26.5 23.5H5.5C4.57209 23.4989 3.6825 23.1298 3.02637 22.4736C2.37023 21.8175 2.00112 20.9279 2 20V8.5C2.00112 7.57209 2.37023 6.6825 3.02637 6.02637C3.6825 5.37023 4.57209 5.00112 5.5 5H26.5C27.4279 5.00112 28.3175 5.37023 28.9736 6.02637C29.6298 6.6825 29.9989 7.57209 30 8.5V20C29.9989 20.9279 29.6298 21.8175 28.9736 22.4736C28.3175 23.1298 27.4279 23.4989 26.5 23.5ZM5.5 8C5.36742 8.00009 5.24029 8.0528 5.14654 8.14654C5.0528 8.24029 5.00009 8.36742 5 8.5V20C5.00009 20.1326 5.0528 20.2597 5.14654 20.3535C5.24029 20.4472 5.36742 20.4999 5.5 20.5H26.5C26.6326 20.4999 26.7597 20.4472 26.8535 20.3535C26.9472 20.2597 26.9999 20.1326 27 20V8.5C26.9999 8.36742 26.9472 8.24029 26.8535 8.14654C26.7597 8.0528 26.6326 8.00009 26.5 8H5.5Z" fill="black"/>
<path d="M23.0002 27.5H9.00018C7.01818 27.5 7.01556 24.5 9.00018 24.5H23.0002C24.9822 24.5 24.9848 27.5 23.0002 27.5Z" fill="black"/>
</svg>
