<svg width="32" height="32" viewBox="0 0 32 32" fill="none" xmlns="http://www.w3.org/2000/svg">
<path d="M15.95 21.25C15.45 21.25 14.95 21.05 14.6 20.7L8.95 15.45C8.35 14.85 8.35 13.9 8.95 13.35C9.5 12.8 10.4 12.75 11 13.3L15.9 17.9L20.95 13.2C21.55 12.6 22.5 12.65 23.05 13.2C23.6 13.75 23.6 14.75 23.05 15.3L23 15.35L17.3 20.7C16.9 21.05 16.45 21.25 15.95 21.25Z" fill="black"/>
<path d="M16 30C8.25 30 2 23.75 2 16C2 8.25 8.25 2 16 2C23.75 2 30 8.25 30 16C30 23.75 23.75 30 16 30ZM16 5C9.9 5 5 9.9 5 16C5 22.1 9.9 27 16 27C22.1 27 27 22.1 27 16C27 9.95 22.05 5 16 5Z" fill="black"/>
</svg>
