<svg width="32" height="32" viewBox="0 0 32 32" fill="none" xmlns="http://www.w3.org/2000/svg">
<path d="M14.35 23.5C13.5 23.5 12.85 22.85 12.85 22C12.85 21.6 13 21.25 13.25 21L17.85 16.1L13.15 11.05C12.55 10.45 12.6 9.49998 13.15 8.94998C13.7 8.39998 14.7 8.39998 15.25 8.94998L15.3 8.99998L20.7 14.75C21.4 15.5 21.4 16.7 20.7 17.45L15.45 23.05C15.15 23.35 14.75 23.5 14.35 23.5Z" fill="black"/>
<path d="M16 30C8.25 30 2 23.75 2 16C2 8.25 8.25 2 16 2C23.75 2 30 8.25 30 16C30 23.75 23.75 30 16 30ZM16 5C9.9 5 5 9.9 5 16C5 22.1 9.9 27 16 27C22.1 27 27 22.1 27 16C27 9.95 22.05 5 16 5Z" fill="black"/>
</svg>
