<svg width="32" height="32" viewBox="0 0 32 32" fill="none" xmlns="http://www.w3.org/2000/svg">
<path d="M29.3338 12.5206L29.3386 12.5151L18.2236 2.83691C17.6098 2.29789 16.821 2.00018 16.0041 1.99915C15.1872 1.99812 14.3977 2.29383 13.7825 2.8313L2.66138 12.5151L2.66617 12.5206C2.45735 12.7065 2.29008 12.9343 2.17529 13.1892C2.0605 13.4441 2.00077 13.7204 2 14V28C2.00061 28.5302 2.21151 29.0386 2.58646 29.4135C2.9614 29.7885 3.46975 29.9994 4 30H28C28.5302 29.9994 29.0386 29.7885 29.4135 29.4135C29.7885 29.0386 29.9994 28.5302 30 28V14C29.9992 13.7204 29.9395 13.4442 29.8247 13.1892C29.7099 12.9343 29.5427 12.7065 29.3338 12.5206ZM15.6577 20.8447C15.7622 20.7821 15.8819 20.7494 16.0037 20.7502C16.1255 20.751 16.2448 20.7853 16.3484 20.8493L24.78 27H7.21994L15.6577 20.8447ZM5 24.9058V16.6211L9.79035 21.4114L5 24.9058ZM22.2642 21.4513L27 16.7154V24.9059L22.2642 21.4513ZM15.7588 5.08835C15.8276 5.03112 15.9146 5.00025 16.0041 5.00128C16.0936 5.00231 16.1798 5.03517 16.2473 5.09397L25.9393 13.5334L19.811 19.6618L18.1225 18.4302C17.5043 17.9883 16.7636 17.7504 16.0038 17.7496C15.2439 17.7488 14.5027 17.9851 13.8835 18.4255L12.2432 19.6221L6.11081 13.4897L15.7588 5.08835Z" fill="black"/>
</svg>
