<svg width="26" height="26" viewBox="0 0 26 26" fill="none" xmlns="http://www.w3.org/2000/svg">
<path d="M22.5257 16.5674C22.9487 16.1443 23.6347 16.1443 24.0577 16.5674C24.4808 16.9905 24.4808 17.6764 24.0577 18.0995L22.1154 20.0417L24.0577 21.9841C24.4808 22.4071 24.4808 23.0931 24.0577 23.5161C23.6347 23.9392 22.9487 23.9392 22.5257 23.5161L20.5833 21.5738L18.641 23.5161C18.218 23.9392 17.532 23.9392 17.109 23.5161C16.6859 23.0931 16.6859 22.4071 17.109 21.9841L19.0513 20.0417L17.109 18.0995C16.6859 17.6764 16.6859 16.9905 17.109 16.5674C17.532 16.1443 18.218 16.1443 18.641 16.5674L20.5833 18.5097L22.5257 16.5674ZM21.6667 13.5418V9.4245L18.4158 11.2306C18.4062 11.2361 18.3966 11.2414 18.3868 11.2467L14.0833 13.6375V22.1481C14.4637 22.1484 14.8325 22.3493 15.0303 22.7054C15.3209 23.2284 15.1325 23.8879 14.6095 24.1785L14.368 24.3127C14.1217 24.4495 13.8004 24.6414 13.4369 24.7163L13.4369 24.7163C13.1488 24.7756 12.8517 24.7757 12.5635 24.7163C12.1997 24.6415 11.8784 24.4496 11.632 24.3127V24.3127L3.61545 19.8591C3.3564 19.7151 3.00475 19.5347 2.74036 19.2478C2.53103 19.0209 2.3728 18.7519 2.27606 18.4591V18.459C2.15369 18.0886 2.16669 17.6935 2.16669 17.3968V8.60333C2.16669 8.30669 2.15369 7.91155 2.27606 7.54115V7.54109C2.37283 7.24823 2.53104 6.97939 2.74004 6.75258C3.00442 6.46569 3.35618 6.28515 3.61545 6.14111L7.58432 3.93616C7.5938 3.93071 7.60335 3.92538 7.61298 3.92022L11.6321 1.68744C11.878 1.55081 12.1997 1.35863 12.5636 1.28379C12.8516 1.22456 13.1485 1.2246 13.4363 1.28376L13.4367 1.28382C13.8004 1.35868 14.122 1.5508 14.3679 1.6874L22.3844 6.14105C22.636 6.28076 22.9736 6.45442 23.2348 6.72583L23.2599 6.75242L23.2603 6.7529C23.4687 6.97926 23.6272 7.24799 23.7241 7.54156H23.7241C23.8463 7.91188 23.8333 8.30685 23.8333 8.60333V13.5418C23.8333 14.1401 23.3483 14.6251 22.75 14.6251C22.1517 14.6251 21.6667 14.1401 21.6667 13.5418ZM5.48074 7.58339L13 11.7608L15.6443 10.2917L8.12501 6.11436L5.48074 7.58339ZM12.9949 3.41397C12.948 3.43658 12.8891 3.46817 12.7934 3.52102L12.6844 3.58142L10.3557 4.87507L17.875 9.05243L20.5192 7.58339L13.3156 3.58142C13.1515 3.49021 13.0677 3.4441 13.0051 3.41394C13.0034 3.41308 13.0016 3.4123 13 3.41152C12.9984 3.4123 12.9967 3.41311 12.9949 3.41397ZM4.33333 17.3968C4.33333 17.5951 4.3338 17.6965 4.33822 17.77C4.33835 17.7722 4.33851 17.7742 4.33864 17.7762C4.34032 17.7773 4.34206 17.7784 4.3439 17.7796C4.40595 17.8191 4.4944 17.8688 4.6677 17.9651H4.66767L11.9167 21.9923V13.6375L4.33333 9.42453V17.3968Z" fill="black"/>
</svg>
