<svg width="40" height="40" viewBox="0 0 40 40" fill="none" xmlns="http://www.w3.org/2000/svg">
<path d="M33.75 6.25H6.25C5.25544 6.25 4.30161 6.64509 3.59835 7.34835C2.89509 8.05161 2.5 9.00544 2.5 10V27.5C2.5 28.4946 2.89509 29.4484 3.59835 30.1517C4.30161 30.8549 5.25544 31.25 6.25 31.25H7.5V33.75C7.5 34.0815 7.6317 34.3995 7.86612 34.6339C8.10054 34.8683 8.41848 35 8.75 35C9.08152 35 9.39946 34.8683 9.63388 34.6339C9.8683 34.3995 10 34.0815 10 33.75V31.25H30V33.75C30 34.0815 30.1317 34.3995 30.3661 34.6339C30.6005 34.8683 30.9185 35 31.25 35C31.5815 35 31.8995 34.8683 32.1339 34.6339C32.3683 34.3995 32.5 34.0815 32.5 33.75V31.25H33.75C34.7446 31.25 35.6984 30.8549 36.4017 30.1517C37.1049 29.4484 37.5 28.4946 37.5 27.5V10C37.5 9.00544 37.1049 8.05161 36.4017 7.34835C35.6984 6.64509 34.7446 6.25 33.75 6.25ZM35 27.5C35 27.8315 34.8683 28.1495 34.6339 28.3839C34.3995 28.6183 34.0815 28.75 33.75 28.75H6.25C5.91848 28.75 5.60054 28.6183 5.36612 28.3839C5.1317 28.1495 5 27.8315 5 27.5V10C5 9.66848 5.1317 9.35054 5.36612 9.11612C5.60054 8.8817 5.91848 8.75 6.25 8.75H33.75C34.0815 8.75 34.3995 8.8817 34.6339 9.11612C34.8683 9.35054 35 9.66848 35 10V27.5Z" fill="#534918"/>
<path d="M25 11.25H10C9.33696 11.25 8.70107 11.5134 8.23223 11.9822C7.76339 12.4511 7.5 13.087 7.5 13.75V23.75C7.5 24.413 7.76339 25.0489 8.23223 25.5178C8.70107 25.9866 9.33696 26.25 10 26.25H25C25.663 26.25 26.2989 25.9866 26.7678 25.5178C27.2366 25.0489 27.5 24.413 27.5 23.75V13.75C27.5 13.087 27.2366 12.4511 26.7678 11.9822C26.2989 11.5134 25.663 11.25 25 11.25ZM10 23.75V13.75H25V23.75H10Z" fill="#534918"/>
<path d="M31.25 12.5C30.9185 12.5 30.6005 12.6317 30.3661 12.8661C30.1317 13.1006 30 13.4185 30 13.75C30 14.0815 30.1317 14.3995 30.3661 14.6339C30.6005 14.8683 30.9185 15 31.25 15H31.2625C31.594 14.9984 31.9113 14.8651 32.1446 14.6295C32.3778 14.3939 32.5079 14.0753 32.5062 13.7438C32.5046 13.4122 32.3713 13.095 32.1357 12.8617C31.9001 12.6285 31.5815 12.4984 31.25 12.5Z" fill="#534918"/>
<path d="M31.25 17.5C30.9185 17.5 30.6005 17.6317 30.3661 17.8661C30.1317 18.1006 30 18.4185 30 18.75C30 19.0815 30.1317 19.3995 30.3661 19.6339C30.6005 19.8683 30.9185 20 31.25 20H31.2625C31.594 19.9984 31.9113 19.8651 32.1446 19.6295C32.3778 19.3939 32.5079 19.0753 32.5062 18.7438C32.5046 18.4122 32.3713 18.095 32.1357 17.8617C31.9001 17.6285 31.5815 17.4984 31.25 17.5Z" fill="#534918"/>
<path d="M31.25 22.5C30.9185 22.5 30.6005 22.6317 30.3661 22.8661C30.1317 23.1006 30 23.4185 30 23.75C30 24.0815 30.1317 24.3995 30.3661 24.6339C30.6005 24.8683 30.9185 25 31.25 25H31.2625C31.594 24.9984 31.9113 24.8651 32.1446 24.6295C32.3778 24.3939 32.5079 24.0753 32.5062 23.7438C32.5046 23.4122 32.3713 23.095 32.1357 22.8617C31.9001 22.6285 31.5815 22.4984 31.25 22.5Z" fill="#534918"/>
</svg>
