<svg width="114" height="114" viewBox="0 0 114 114" fill="none" xmlns="http://www.w3.org/2000/svg">
<g clip-path="url(#clip0_603_2413)">
<path d="M97.7508 83.0935C98.7819 79.4001 99.3047 75.5651 99.3047 71.6953C99.3047 52.2358 86.0967 35.8058 68.1756 30.8918V24.7404C68.1756 21.9027 65.8668 19.5938 63.0289 19.5938H59.2266V2.22656C59.2266 0.996832 58.2295 0 57 0C55.7703 0 54.7734 0.996832 54.7734 2.22656V19.5938H50.9711C48.1332 19.5938 45.8244 21.9027 45.8244 24.7404V30.8918C27.9033 35.8058 14.6953 52.2358 14.6953 71.6953C14.6953 95.0221 33.6732 114 57 114C68.4844 114 79.2304 109.476 87.2583 101.261C88.1175 100.381 88.1015 98.9718 87.222 98.1124C86.3423 97.2527 84.9327 97.2692 84.0732 98.1487C79.7619 102.56 74.574 105.781 68.8936 107.652C70.4426 105.816 71.8757 103.602 73.1613 101.031C74.249 98.8551 75.201 96.4847 76.0102 93.9612H81.705C82.9346 93.9612 83.9316 92.9643 83.9316 91.7346C83.9316 90.5049 82.9346 89.508 81.705 89.508H77.2517C78.4126 84.6595 79.0904 79.385 79.2353 73.9221H94.7825C94.6253 76.6285 94.1858 79.3021 93.4617 81.8963C93.1311 83.0806 93.8233 84.3088 95.0076 84.6394C96.1917 84.9696 97.4201 84.2781 97.7508 83.0935ZM54.7734 109.238C49.8915 107.877 45.5564 102.119 42.7052 93.9612H54.7734V109.238ZM41.3595 89.5078C40.1402 84.7884 39.3819 79.495 39.2209 73.9219H54.7734V89.5078H41.3595ZM19.2157 73.9219H34.7647C34.9096 79.3847 35.5874 84.6593 36.7483 89.5078H23.61C21.0953 84.8129 19.5428 79.5295 19.2157 73.9219ZM23.61 53.8828H36.7483C35.5874 58.7314 34.9096 64.0059 34.7647 69.4688H19.2157C19.5428 63.8612 21.0953 58.578 23.61 53.8828ZM39.2209 69.4688C39.3819 63.8957 40.14 58.6022 41.3595 53.8828H54.7734V69.4688H39.2209ZM59.2266 34.153C64.1085 35.5141 68.4436 41.2718 71.2948 49.4297H59.2266V34.153ZM54.7734 34.153V49.4297H42.7052C45.5564 41.2718 49.8915 35.5141 54.7734 34.153ZM59.2266 53.8828H72.6405C73.8598 58.6022 74.6181 63.8957 74.7791 69.4688H59.2266V53.8828ZM77.2517 53.8828H90.39C92.9047 58.5777 94.4575 63.8612 94.7843 69.4688H79.2353C79.0902 64.0059 78.4126 58.7314 77.2517 53.8828ZM87.5898 49.4297H76.0102C75.2008 46.9061 74.249 44.5355 73.1613 42.3601C71.8823 39.8025 70.4573 37.5982 68.9175 35.7677C76.4771 38.2817 82.9842 43.1192 87.5898 49.4297ZM50.2776 29.3906V24.7404C50.2776 24.3579 50.5886 24.0469 50.9711 24.0469H63.0289C63.4114 24.0469 63.7224 24.3579 63.7224 24.7404V29.3906H50.2776ZM45.0825 35.7677C43.5427 37.5984 42.1174 39.8025 40.8387 42.3601C39.751 44.5357 38.799 46.9061 37.9898 49.4297H26.4101C31.0158 43.1192 37.5229 38.2817 45.0825 35.7677ZM26.4101 93.9609H37.9898C38.7992 96.4845 39.751 98.8551 40.8387 101.03C42.1177 103.588 43.5427 105.792 45.0825 107.623C37.5229 105.109 31.0158 100.271 26.4101 93.9609ZM59.2266 109.238V93.9609H71.2948C68.4436 102.119 64.1085 107.877 59.2266 109.238ZM72.6405 89.5078H59.2266V73.9219H74.7791C74.6183 79.495 73.86 84.7884 72.6405 89.5078Z" fill="black"/>
<path d="M94.874 13.0255C96.1035 13.0255 97.1006 12.0287 97.1006 10.799V7.83008C97.1006 6.60035 96.1035 5.60352 94.874 5.60352C93.6445 5.60352 92.6475 6.60035 92.6475 7.83008V10.7988C92.6475 12.0287 93.6443 13.0255 94.874 13.0255Z" fill="black"/>
<path d="M94.874 27.8691C96.1035 27.8691 97.1006 26.8722 97.1006 25.6425V22.6738C97.1006 21.4441 96.1035 20.4473 94.874 20.4473C93.6445 20.4473 92.6475 21.4441 92.6475 22.6738V25.6425C92.6475 26.8722 93.6443 27.8691 94.874 27.8691Z" fill="black"/>
<path d="M85.9678 18.9629H88.9367C90.1662 18.9629 91.1632 17.9661 91.1632 16.7363C91.1632 15.5066 90.1662 14.5098 88.9367 14.5098H85.9678C84.7383 14.5098 83.7412 15.5066 83.7412 16.7363C83.7412 17.9661 84.738 18.9629 85.9678 18.9629Z" fill="black"/>
<path d="M100.812 18.9629H103.78C105.01 18.9629 106.007 17.9661 106.007 16.7363C106.007 15.5066 105.01 14.5098 103.78 14.5098H100.812C99.582 14.5098 98.585 15.5066 98.585 16.7363C98.585 17.9661 99.5818 18.9629 100.812 18.9629Z" fill="black"/>
<path d="M11.1328 25.5312C12.3625 25.5312 13.3594 24.5343 13.3594 23.3046V20.3359C13.3594 19.1062 12.3625 18.1094 11.1328 18.1094C9.90308 18.1094 8.90625 19.1062 8.90625 20.3359V23.3046C8.90625 24.5343 9.90308 25.5312 11.1328 25.5312Z" fill="black"/>
<path d="M11.1328 40.3751C12.3625 40.3751 13.3594 39.3783 13.3594 38.1486V35.1797C13.3594 33.95 12.3625 32.9531 11.1328 32.9531C9.90308 32.9531 8.90625 33.95 8.90625 35.1797V38.1484C8.90625 39.3783 9.90308 40.3751 11.1328 40.3751Z" fill="black"/>
<path d="M2.22656 31.4688H5.19524C6.42497 31.4688 7.4218 30.4719 7.4218 29.2422C7.4218 28.0125 6.42497 27.0156 5.19524 27.0156H2.22656C0.996832 27.0156 0 28.0125 0 29.2422C0 30.4719 0.996832 31.4688 2.22656 31.4688Z" fill="black"/>
<path d="M17.0703 31.4688H20.039C21.2687 31.4688 22.2656 30.4719 22.2656 29.2422C22.2656 28.0125 21.2687 27.0156 20.039 27.0156H17.0703C15.8406 27.0156 14.8438 28.0125 14.8438 29.2422C14.8438 30.4719 15.8406 31.4688 17.0703 31.4688Z" fill="black"/>
<path d="M91.7256 89.5078C91.1376 89.5078 90.5655 89.7461 90.1492 90.1602C89.735 90.5743 89.499 91.1488 89.499 91.7344C89.499 92.32 89.735 92.8944 90.1492 93.3086C90.5655 93.7227 91.1376 93.9609 91.7256 93.9609C92.3112 93.9609 92.8856 93.7227 93.2998 93.3086C93.7137 92.8944 93.9521 92.32 93.9521 91.7344C93.9521 91.1488 93.7139 90.5743 93.2998 90.1602C92.8834 89.7461 92.3112 89.5078 91.7256 89.5078Z" fill="black"/>
<path d="M113.348 102.486L105.635 94.7733C105.217 94.3558 104.651 94.1211 104.061 94.1211C103.47 94.1211 102.904 94.3558 102.486 94.7733L94.7732 102.486C93.9037 103.356 93.9037 104.766 94.7732 105.635L102.486 113.348C102.921 113.783 103.491 114 104.061 114C104.63 114 105.2 113.783 105.635 113.348L113.348 105.635C114.218 104.766 114.218 103.356 113.348 102.486ZM104.061 108.625L99.4966 104.06L104.061 99.4962L108.625 104.06L104.061 108.625Z" fill="black"/>
<path d="M11.5139 94.7733C11.0965 94.3558 10.53 94.1211 9.93954 94.1211C9.34906 94.1211 8.78262 94.3558 8.36514 94.7733L0.652104 102.487C-0.217368 103.356 -0.217368 104.766 0.652104 105.635L8.36514 113.348C8.79999 113.783 9.36976 114.001 9.93954 114.001C10.5093 114.001 11.0793 113.783 11.5139 113.348L19.227 105.635C19.6445 105.218 19.8791 104.651 19.8791 104.061C19.8791 103.47 19.6445 102.904 19.227 102.487L11.5139 94.7733ZM9.93954 108.625L5.37531 104.061L9.93954 99.4967L14.5038 104.061L9.93954 108.625Z" fill="black"/>
<path d="M26.9257 19.227C27.3432 19.6445 27.9096 19.8791 28.5001 19.8791C29.0906 19.8791 29.657 19.6445 30.0745 19.227L37.7875 11.5139C38.657 10.6445 38.657 9.23461 37.7875 8.36514L30.0745 0.652104C29.205 -0.217368 27.7952 -0.217368 26.9255 0.652104L19.2127 8.36514C18.3432 9.23461 18.3432 10.6445 19.2127 11.5139L26.9257 19.227ZM28.5001 5.37531L33.0643 9.93954L28.5001 14.5038L23.9359 9.93954L28.5001 5.37531Z" fill="black"/>
</g>
<defs>
<clipPath id="clip0_603_2413">
<rect width="114" height="114" fill="white"/>
</clipPath>
</defs>
</svg>
