<svg width="32" height="32" viewBox="0 0 32 32" fill="none" xmlns="http://www.w3.org/2000/svg">
<g clip-path="url(#clip0_511_818)">
<path d="M1.02491 31.9999C0.759072 31.9999 0.498451 31.8956 0.305904 31.7015C0.0534821 31.4491 -0.0483813 31.0827 0.0385752 30.7368L1.94888 23.0692C1.9936 22.8901 2.08603 22.7259 2.21621 22.5957L23.721 1.09087C25.1755 -0.363786 27.5432 -0.363786 28.9978 1.09087L30.9163 3.00938C32.371 4.46404 32.371 6.83174 30.9163 8.28615L9.41174 29.791C9.2813 29.9212 9.11708 30.0148 8.9382 30.0583L1.27062 31.9686C1.18913 31.9905 1.10764 31.9999 1.02491 31.9999ZM3.85398 23.8345L2.42118 29.5848L8.17149 28.152L29.4781 6.84664C30.1389 6.18577 30.1389 5.10851 29.4781 4.44764L27.5595 2.52913C26.8974 1.86702 25.8199 1.86826 25.1605 2.52913L3.85398 23.8345Z" fill="black"/>
<path d="M26.8879 11.8941C26.6273 11.8941 26.3666 11.795 26.1686 11.5957L20.4116 5.83994C20.0138 5.44217 20.0138 4.7977 20.4116 4.40019C20.8091 4.00267 21.4536 4.00267 21.8511 4.40019L27.6084 10.1574C28.0059 10.555 28.0059 11.1994 27.6084 11.597C27.4074 11.795 27.147 11.8941 26.8879 11.8941Z" fill="black"/>
<path d="M8.69237 30.0897C8.43175 30.0897 8.17138 29.9905 7.97337 29.791L2.21611 24.034C1.81859 23.6363 1.81859 22.9918 2.21611 22.5943C2.61362 22.1968 3.25809 22.1968 3.65586 22.5943L9.41287 28.3515C9.81039 28.7491 9.81039 29.3935 9.41287 29.791C9.21337 29.9905 8.95299 30.0897 8.69237 30.0897Z" fill="black"/>
</g>
<defs>
<clipPath id="clip0_511_818">
<rect width="32" height="32" fill="white"/>
</clipPath>
</defs>
</svg>
