<svg xmlns="http://www.w3.org/2000/svg" id="fi_2430976" data-name="Layer 2" viewBox="0 0 32 32" width="512" height="512"><path d="M22,14a2.97,2.97,0,0,0-2,.775A2.97,2.97,0,0,0,18,14a3.023,3.023,0,0,0-3,3.039c0,3.738,4.4,5.785,4.585,5.871a1,1,0,0,0,.83,0C20.6,22.824,25,20.777,25,17.039A3.023,3.023,0,0,0,22,14Z"></path><path d="M27,8h-.172A3,3,0,0,0,24,4H21a3,3,0,0,0-2.828,4H8V7A1,1,0,0,0,6,7V8H5a3,3,0,0,0-3,3V25a3,3,0,0,0,3,3H27a3,3,0,0,0,3-3V11A3,3,0,0,0,27,8ZM20,7a1,1,0,0,1,1-1h3a1,1,0,0,1,0,2H21A1,1,0,0,1,20,7ZM6,21a1,1,0,0,1-1,1H4V14H5a1,1,0,0,1,1,1Zm14,5a8,8,0,1,1,8-8A8.009,8.009,0,0,1,20,26Z"></path></svg>