<svg width="32" height="32" viewBox="0 0 32 32" fill="none" xmlns="http://www.w3.org/2000/svg">
<path d="M14.269 29.0913C11.9331 25.7332 6.5 17.3437 6.5 11.98C6.5 6.47705 10.7617 2 16 2C21.2383 2 25.5 6.47705 25.5 11.98C25.5 17.3437 20.0669 25.7332 17.731 29.0913C17.5374 29.3713 17.2787 29.6002 16.9772 29.7582C16.6757 29.9163 16.3404 29.9989 16 29.9989C15.6596 29.9989 15.3243 29.9163 15.0228 29.7582C14.7213 29.6002 14.4626 29.3713 14.269 29.0913ZM16 5C12.416 5 9.5 8.1311 9.5 11.98C9.5 15.4114 12.7339 21.4368 16 26.3067C19.2661 21.4368 22.5 15.4114 22.5 11.98C22.5 8.1311 19.584 5 16 5Z" fill="black"/>
<path d="M16 16C15.11 16 14.24 15.7361 13.4999 15.2416C12.7599 14.7471 12.1831 14.0443 11.8425 13.2221C11.5019 12.3998 11.4128 11.495 11.5865 10.6221C11.7601 9.74918 12.1887 8.94736 12.818 8.31802C13.4474 7.68869 14.2492 7.2601 15.1221 7.08647C15.995 6.91283 16.8998 7.00195 17.7221 7.34254C18.5443 7.68314 19.2471 8.25991 19.7416 8.99994C20.2361 9.73996 20.5 10.61 20.5 11.5C20.4987 12.6931 20.0241 13.8369 19.1805 14.6805C18.3369 15.5241 17.1931 15.9987 16 16ZM16 10C15.7033 10 15.4133 10.088 15.1666 10.2528C14.92 10.4176 14.7277 10.6519 14.6142 10.926C14.5007 11.2001 14.4709 11.5017 14.5288 11.7926C14.5867 12.0836 14.7296 12.3509 14.9393 12.5607C15.1491 12.7704 15.4164 12.9133 15.7074 12.9712C15.9983 13.0291 16.2999 12.9994 16.574 12.8858C16.8481 12.7723 17.0824 12.58 17.2472 12.3334C17.412 12.0867 17.5 11.7967 17.5 11.5C17.4996 11.1023 17.3414 10.721 17.0602 10.4398C16.779 10.1586 16.3977 10.0004 16 10Z" fill="black"/>
</svg>
