<svg width="88" height="88" viewBox="0 0 88 88" fill="none" xmlns="http://www.w3.org/2000/svg">
<g clip-path="url(#clip0_590_29)">
<path d="M73.3334 88C81.4297 87.9906 87.9908 81.4297 88.0001 73.3333V14.6667C87.9908 6.57032 81.4297 0.00935553 73.3334 0H14.6667C6.57032 0.00935553 0.00935553 6.57032 0 14.6667V73.3334C0.00935553 81.4297 6.57032 87.9908 14.6667 88.0001L73.3334 88ZM7.3333 73.3334V14.6667C7.33718 10.6182 10.6182 7.33733 14.6666 7.33344H73.3333C77.3818 7.33733 80.6627 10.6184 80.6666 14.6667V73.3334C80.6627 77.3819 77.3816 80.6628 73.3333 80.6667H14.6667C10.6182 80.6628 7.33733 77.3819 7.3333 73.3334Z" fill="black"/>
<path d="M25.6667 69.6667C26.6394 69.6679 27.5724 69.2813 28.2592 68.5926L42.926 53.9258C44.3397 52.4759 44.3102 50.1544 42.8602 48.7409C41.4361 47.3525 39.165 47.3525 37.741 48.7409L25.6669 60.8152L20.9261 56.0743C19.4761 54.6606 17.1546 54.6901 15.7411 56.1401C14.3527 57.5641 14.3527 59.8354 15.7411 61.2594L23.0744 68.5927C23.7611 69.2813 24.6941 69.6679 25.6667 69.6667Z" fill="black"/>
<path d="M25.6667 40.3334C26.6394 40.3346 27.5723 39.948 28.2592 39.2593L42.9259 24.5925C44.3759 23.1788 44.4052 20.8575 42.9917 19.4075C41.578 17.9576 39.2567 17.9282 37.8067 19.3418C37.7845 19.3634 37.7627 19.3854 37.7409 19.4075L25.6668 31.4819L20.926 26.741C19.5123 25.291 17.191 25.2617 15.741 26.6752C14.2911 28.0889 14.2617 30.4102 15.6753 31.8602C15.6968 31.8823 15.7189 31.9042 15.741 31.926L23.0743 39.2593C23.761 39.948 24.694 40.3344 25.6667 40.3334Z" fill="black"/>
<path d="M69.6667 66C71.6918 66 73.3333 64.3584 73.3333 62.3334C73.3333 60.3084 71.6916 58.6667 69.6667 58.6667H51.3333C49.3082 58.6667 47.6666 60.3084 47.6666 62.3334C47.6666 64.3584 49.3083 66 51.3333 66H69.6667Z" fill="black"/>
<path d="M69.6667 36.6666C71.6918 36.6666 73.3333 35.0249 73.3333 33C73.3333 30.975 71.6916 29.3333 69.6667 29.3333H51.3333C49.3082 29.3333 47.6666 30.975 47.6666 33C47.6666 35.0249 49.3083 36.6666 51.3333 36.6666H69.6667Z" fill="black"/>
</g>
<defs>
<clipPath id="clip0_590_29">
<rect width="88" height="88" fill="white"/>
</clipPath>
</defs>
</svg>
