<svg width="88" height="88" viewBox="0 0 88 88" fill="none" xmlns="http://www.w3.org/2000/svg">
<path d="M57.8359 15.6407H68.3719C69.4547 15.6407 70.0391 16.7751 70.0391 18.1243V75.2298C70.0391 76.579 69.4547 77.6876 68.3719 77.6876H20.1352C19.0523 77.6876 17.875 76.5876 17.875 75.2298V18.1243C17.875 16.7751 19.0438 15.6407 20.1352 15.6407H30.0781" stroke="black" stroke-width="5.15625" stroke-miterlimit="10"/>
<path d="M60.6719 35.8359H27.2422" stroke="black" stroke-width="5.15625" stroke-miterlimit="10"/>
<path d="M60.6719 49.4141H27.2422" stroke="black" stroke-width="5.15625" stroke-miterlimit="10"/>
<path d="M44.2578 62.9922H27.2422" stroke="black" stroke-width="5.15625" stroke-miterlimit="10"/>
<path d="M55.6531 10.3298H32.5273C31.2555 10.3298 30.207 11.3696 30.207 12.6501V18.8118C30.207 20.0837 31.2555 21.1321 32.5273 21.1321H55.6531C56.9336 21.1321 57.9734 20.0837 57.9734 18.8118V12.6501C57.9734 11.3782 56.9336 10.3298 55.6531 10.3298Z" stroke="black" stroke-width="5.15625" stroke-miterlimit="10"/>
</svg>
