<svg width="32" height="32" viewBox="0 0 32 32" fill="none" xmlns="http://www.w3.org/2000/svg">
<path d="M28.5336 16.6768L16.2172 4.3601C15.8401 3.98362 15.3778 3.70357 14.8695 3.5437L12.0121 2.64917C11.4521 2.47106 10.854 2.45006 10.2829 2.58847C9.71181 2.72687 9.18966 3.01936 8.77335 3.43408L7.16421 5.04321L4.66983 2.54883C3.26868 1.14768 1.14474 3.2665 2.54874 4.66992L5.04312 7.1643L3.4335 8.77392C3.0188 9.19014 2.72636 9.71224 2.58808 10.2833C2.4498 10.8543 2.47098 11.4524 2.64932 12.0122L3.54336 14.8682C3.70287 15.3774 3.98333 15.8403 4.36075 16.2175L16.6767 28.5334C17.2812 29.1452 18.1037 29.4921 18.9637 29.4981C19.8237 29.5042 20.651 29.1688 21.2641 28.5657L28.5658 21.2639C29.1687 20.6507 29.5043 19.8235 29.4982 18.9636C29.4921 18.1037 29.1452 17.2813 28.5336 16.6768ZM26.4447 19.1428L19.143 26.4443C19.0924 26.4845 19.0283 26.5035 18.9639 26.4976C18.8996 26.4916 18.8401 26.4611 18.7978 26.4123L6.48135 14.0957C6.44685 14.0615 6.42121 14.0195 6.40665 13.9731L5.5126 11.1157C5.49893 11.0785 5.49566 11.0383 5.50315 10.9993C5.51064 10.9604 5.5286 10.9243 5.5551 10.8948L7.16434 9.2855L8.43936 10.5605C9.83486 11.956 11.9777 9.85602 10.5605 8.43941L9.28545 7.16438L10.8945 5.55538C10.924 5.52882 10.9603 5.51078 10.9993 5.50317C11.0384 5.49556 11.0787 5.49867 11.1161 5.51217L13.9731 6.4065C14.0196 6.42164 14.0619 6.44748 14.0966 6.48194L26.4125 18.7978C26.4612 18.8402 26.4917 18.8997 26.4976 18.964C26.5036 19.0282 26.4849 19.0923 26.4447 19.1428Z" fill="black"/>
</svg>
