<svg width="32" height="32" viewBox="0 0 32 32" fill="none" xmlns="http://www.w3.org/2000/svg">
<path d="M26.5 8H25V3.95C25 2.85 24.1 2 23 2H8.99996C7.89996 2 6.99996 2.85 6.99996 3.95V8H5.49996C3.49996 8.05 1.94996 9.7 1.99996 11.7V19.35C1.94996 21.35 3.49996 23 5.49996 23.05H6.99996V28C6.99996 29.1 7.89996 30.05 8.99996 30.05H23C24.1 30.05 25 29.1 25 28V23H26.5C28.5 22.95 30.05 21.3 30 19.3V11.7C30.05 9.7 28.5 8.05 26.5 8ZM9.99996 5H22V8H9.99996V5ZM22 27H9.99996V17.05L22 17V27ZM27 19.3C27 19.65 26.75 20 26.5 20H25V16.05C25 15.5 24.8 14.95 24.4 14.55C24 14.2 23.5 14 23 14L8.99996 14.05C7.89996 14.05 6.99996 15 6.99996 16.1V20H5.49996C5.24996 20 4.99996 19.7 4.99996 19.3V11.7C4.99996 11.35 5.24996 11 5.49996 11H26.5C26.75 11 27 11.3 27 11.7V19.3Z" fill="black"/>
<path d="M24.5 12.5C24.5 13.05 24.05 13.5 23.5 13.5C22.95 13.5 22.5 13.05 22.5 12.5C22.5 11.95 22.95 11.5 23.5 11.5C24.05 11.5 24.5 11.95 24.5 12.5Z" fill="black"/>
<path d="M19 21.5H13C12.15 21.5 11.5 20.85 11.5 20C11.5 19.15 12.15 18.5 13 18.5H19C19.85 18.5 20.5 19.15 20.5 20C20.5 20.85 19.85 21.5 19 21.5Z" fill="black"/>
<path d="M19 25.5H13C12.15 25.5 11.5 24.85 11.5 24C11.5 23.15 12.15 22.5 13 22.5H19C19.85 22.5 20.5 23.15 20.5 24C20.5 24.85 19.85 25.5 19 25.5Z" fill="black"/>
</svg>
