<svg width="114" height="114" viewBox="0 0 114 114" fill="none" xmlns="http://www.w3.org/2000/svg">
<path fill-rule="evenodd" clip-rule="evenodd" d="M15.4375 21.375C15.4375 12.8491 22.3491 5.9375 30.875 5.9375H97.375C99.3425 5.9375 100.938 7.5325 100.938 9.5C100.938 11.4675 99.3425 13.0625 97.375 13.0625H30.875C26.2841 13.0625 22.5625 16.7841 22.5625 21.375C22.5625 25.9659 26.2841 29.6875 30.875 29.6875H90.25C92.2175 29.6875 93.8125 31.2825 93.8125 33.25C93.8125 35.2175 92.2175 36.8125 90.25 36.8125H30.875C22.3491 36.8125 15.4375 29.9009 15.4375 21.375Z" fill="black"/>
<path fill-rule="evenodd" clip-rule="evenodd" d="M19 17.8125C20.9675 17.8125 22.5625 19.4075 22.5625 21.375V99.75C22.5625 100.406 23.0942 100.938 23.75 100.938H90.25C90.906 100.938 91.4375 100.406 91.4375 99.75V90.25C91.4375 88.2825 93.0325 86.6875 95 86.6875C96.9675 86.6875 98.5625 88.2825 98.5625 90.25V99.75C98.5625 104.341 94.8409 108.062 90.25 108.062H23.75C19.1591 108.062 15.4375 104.341 15.4375 99.75V21.375C15.4375 19.4075 17.0325 17.8125 19 17.8125ZM51.0625 33.25C51.0625 31.2825 52.6575 29.6875 54.625 29.6875H90.25C94.8409 29.6875 98.5625 33.4091 98.5625 38V71.25C98.5625 73.2175 96.9675 74.8125 95 74.8125C93.0325 74.8125 91.4375 73.2175 91.4375 71.25V38C91.4375 37.3442 90.906 36.8125 90.25 36.8125H54.625C52.6575 36.8125 51.0625 35.2175 51.0625 33.25Z" fill="black"/>
<path fill-rule="evenodd" clip-rule="evenodd" d="M38 29.6875C39.9675 29.6875 41.5625 31.2825 41.5625 33.25V104.5C41.5625 106.467 39.9675 108.062 38 108.062C36.0325 108.062 34.4375 106.467 34.4375 104.5V33.25C34.4375 31.2825 36.0325 29.6875 38 29.6875Z" fill="black"/>
<path fill-rule="evenodd" clip-rule="evenodd" d="M66.5 54.9997C61.9524 52.4019 56.0576 53.0441 52.1759 56.9258C47.5247 61.577 47.5247 69.1176 52.1759 73.7688L63.9811 85.574C64.6489 86.2423 65.5552 86.6176 66.5 86.6176C67.4448 86.6176 68.3511 86.2423 69.0189 85.574L80.8241 73.7688C85.4753 69.1176 85.4753 61.577 80.8241 56.9258C76.9424 53.0441 71.0477 52.4019 66.5 54.9997ZM63.9811 61.9637C62.1124 60.0955 59.0824 60.0955 57.2138 61.9637C55.3456 63.8323 55.3456 66.8623 57.2138 68.731L66.5 78.0168L75.7862 68.731C77.6549 66.8623 77.6549 63.8323 75.7862 61.9637C73.9176 60.0955 70.8876 60.0955 69.0189 61.9637C67.6277 63.3549 65.3724 63.3549 63.9811 61.9637Z" fill="black"/>
</svg>
