<svg id="fi_3621649" enable-background="new 0 0 512 512" height="512" viewBox="0 0 512 512" width="512" xmlns="http://www.w3.org/2000/svg"><g><path d="m447.199 387.674h-38.943v-372.674c0-8.284-6.716-15-15-15h-328.455c-8.284 0-15 6.716-15 15v428.056c0 38.016 30.928 68.944 68.943 68.944h274.512c38.016 0 68.943-30.928 68.943-68.944v-40.382c0-8.284-6.716-15-15-15zm-289.511 15v40.382c0 21.474-17.471 38.944-38.944 38.944s-38.943-17.47-38.943-38.944v-413.056h298.455v357.674h-205.568c-8.284 0-15 6.716-15 15zm274.511 40.382c0 21.474-17.47 38.944-38.943 38.944h-217.647c7.617-11.088 12.079-24.504 12.079-38.944v-25.382h244.511z"></path><path d="m323.712 97.732h-189.368c-8.284 0-15 6.716-15 15s6.716 15 15 15h189.368c8.284 0 15-6.716 15-15s-6.716-15-15-15z"></path><path d="m257.127 179.526c-10.076 0-19.714 2.719-28.099 7.812-8.385-5.093-18.022-7.812-28.099-7.812-29.959 0-54.333 24.392-54.333 54.373 0 14.291 5.588 27.754 15.734 37.913.548.548 54.286 54.337 56.135 56.192 1.556 1.578 3.468 2.821 5.636 3.595 1.648.589 3.354.875 5.046.875 3.911 0 7.746-1.532 10.608-4.394.018-.018.035-.035.053-.053 1.003-1.007 37.13-37.169 56.159-56.217 9.99-10.001 15.491-23.465 15.491-37.912.001-29.981-24.372-54.372-54.331-54.372zm17.617 71.082-45.595 45.64-45.595-45.639c-4.552-4.557-6.958-10.335-6.958-16.71 0-13.439 10.916-24.373 24.333-24.373 6.586 0 12.757 2.6 17.376 7.322 2.822 2.885 6.688 4.511 10.723 4.511s7.9-1.626 10.723-4.511c4.619-4.722 10.79-7.322 17.376-7.322 13.417 0 24.332 10.934 24.332 24.373 0 6.626-2.26 12.249-6.715 16.709z"></path></g></svg>