<svg width="199" height="199" viewBox="0 0 199 199" fill="none" xmlns="http://www.w3.org/2000/svg">
<g clip-path="url(#clip0_2803_2040)">
<path d="M182.576 0H16.4244C7.36806 0 0 7.36806 0 16.4244V16.4685C0 23.4843 4.42266 29.4874 10.6277 31.8347V147.378C10.6277 156.059 17.6967 163.124 26.3857 163.124H88.7569L71.2909 189.992C69.5358 192.692 70.3025 196.302 73.002 198.057C73.9828 198.695 75.085 199 76.1736 199C78.0805 199 79.951 198.065 81.0669 196.346L93.6699 176.96V192.983C93.6699 196.202 96.2798 198.813 99.5 198.813C102.72 198.813 105.33 196.202 105.33 192.983V176.96L117.932 196.346C119.687 199.046 123.299 199.812 125.998 198.057C128.697 196.302 129.463 192.69 127.708 189.991L110.243 163.124H172.614C181.303 163.124 188.372 156.059 188.372 147.376V31.8347C194.577 29.4874 199 23.4843 199 16.4685V16.4244C199 7.36806 191.632 0 182.576 0ZM11.6602 16.4244C11.6602 13.7963 13.7963 11.6602 16.4244 11.6602H182.576C185.204 11.6602 187.34 13.7963 187.34 16.4244V16.4685C187.34 19.095 185.204 21.2312 182.576 21.2312H16.4244C13.7963 21.2312 11.6602 19.095 11.6602 16.4685V16.4244ZM176.712 147.378C176.712 149.631 174.875 151.464 172.614 151.464H26.3857C24.125 151.464 22.2879 149.631 22.2879 147.378V32.8914H176.712V147.378Z" fill="black"/>
<path d="M52.9262 82.0879C63.1576 82.0879 71.4822 73.7664 71.4822 63.5364C71.4822 53.3049 63.1576 44.9834 52.9262 44.9834C42.6932 44.9834 34.3686 53.3049 34.3686 63.5364C34.3686 73.7664 42.6932 82.0879 52.9262 82.0879ZM52.9262 56.6436C56.7294 56.6436 59.822 59.7347 59.822 63.5364C59.822 67.3366 56.7294 70.4277 52.9262 70.4277C49.1229 70.4277 46.0287 67.3366 46.0287 63.5364C46.0287 59.7347 49.1229 56.6436 52.9262 56.6436Z" fill="black"/>
<path d="M148.013 109.18C145.735 106.904 142.044 106.906 139.769 109.182C137.491 111.459 137.493 115.15 139.769 117.427L144.962 122.618L139.769 127.811C137.491 130.087 137.491 133.777 139.769 136.055C140.906 137.194 142.398 137.763 143.891 137.763C145.383 137.763 146.874 137.194 148.013 136.056L153.208 130.862L158.405 136.056C159.542 137.194 161.035 137.763 162.526 137.763C164.018 137.763 165.512 137.194 166.649 136.055C168.925 133.777 168.925 130.087 166.648 127.811L161.455 122.618L166.648 117.427C168.925 115.15 168.925 111.459 166.649 109.182C164.373 106.904 160.681 106.904 158.405 109.18L153.208 114.374L148.013 109.18Z" fill="black"/>
<path d="M42.4988 124.715C43.6451 125.919 45.1831 126.525 46.7241 126.525C48.1665 126.525 49.6133 125.992 50.7414 124.919L86.9486 90.4575L107.041 111.415C108.899 113.354 111.5 114.368 114.181 114.192C116.803 114.021 119.205 112.735 120.798 110.653L146.971 78.3905C147.896 80.4158 149.941 81.799 152.271 81.799C152.382 81.799 152.494 81.7959 152.605 81.7898C155.819 81.6092 158.279 78.8551 158.098 75.6409L157.482 64.7187C157.371 62.7768 156.465 60.9321 154.995 59.6583C153.524 58.3845 151.57 57.7529 149.631 57.9199L137.774 58.9493C134.565 59.2287 132.191 62.0541 132.469 65.2622C132.733 68.3032 135.288 70.5988 138.287 70.5882L113.428 101.23L93.5773 80.5251C90.2857 77.0909 84.8504 76.7933 81.2021 79.8465L81.0593 79.9649L42.7023 116.473C40.3702 118.692 40.2792 122.382 42.4988 124.715Z" fill="black"/>
</g>
<defs>
<clipPath id="clip0_2803_2040">
<rect width="199" height="199" fill="white"/>
</clipPath>
</defs>
</svg>
