<svg width="32" height="32" viewBox="0 0 32 32" fill="none" xmlns="http://www.w3.org/2000/svg">
<path d="M24.9183 5.20756C22.4653 3.18046 19.395 2.04945 16.2133 2.0009C13.0315 1.95234 9.92815 2.98914 7.41452 4.94045C4.90089 6.89175 3.12698 9.64114 2.38509 12.7356C1.6432 15.83 1.97761 19.0849 3.33319 21.9638C4.68878 24.8428 6.98467 27.174 9.84256 28.5735C12.7004 29.9729 15.9498 30.357 19.0552 29.6625C22.1606 28.968 24.9368 27.2364 26.9263 24.7529C28.9158 22.2694 30 19.1822 30 16.0001C29.9987 13.9381 29.5425 11.9019 28.6642 10.0364C27.7858 8.17095 26.5068 6.52217 24.9183 5.20756ZM16 5.00006C18.3977 5.00435 20.7284 5.79113 22.6381 7.24087L7.23814 22.6409C5.99977 21.0101 5.2415 19.0658 5.04881 17.0272C4.85612 14.9887 5.23666 12.9368 6.14754 11.1028C7.05843 9.2689 8.46344 7.72585 10.2042 6.64758C11.945 5.56932 13.9524 4.9987 16 5.00006ZM16 27.0001C13.6009 27.0022 11.2676 26.2158 9.35924 24.762L24.7655 9.35568C26.0027 10.9873 26.7598 12.9319 26.9517 14.9705C27.1435 17.0091 26.7625 19.0608 25.8515 20.8946C24.9405 22.7284 23.5357 24.2715 21.7952 25.3502C20.0547 26.4289 18.0477 27.0003 16 27.0001Z" fill="black"/>
</svg>
