<svg width="28" height="28" viewBox="0 0 28 28" fill="none" xmlns="http://www.w3.org/2000/svg">
<g clip-path="url(#clip0_155_2935)">
<path d="M1.27274 10.1818C0.509106 10.1818 0 9.6727 0 8.90907V3.81817C0 1.65453 1.65453 0 3.81817 0H8.90907C9.6727 0 10.1818 0.509106 10.1818 1.27274C10.1818 2.03637 9.6727 2.54548 8.90907 2.54548H3.81817C3.05453 2.54548 2.54543 3.05458 2.54543 3.81822V8.90912C2.54548 9.6727 2.03637 10.1818 1.27274 10.1818Z" fill="#534918"/>
<path d="M26.7272 10.1818C25.9636 10.1818 25.4545 9.6727 25.4545 8.90907V3.81817C25.4545 3.05453 24.9454 2.54543 24.1818 2.54543H19.0909C18.3272 2.54543 17.8181 2.03632 17.8181 1.27269C17.8181 0.509054 18.3272 0 19.0909 0H24.1818C26.3454 0 27.9999 1.65453 27.9999 3.81817V8.90907C28 9.6727 27.4909 10.1818 26.7272 10.1818Z" fill="#534918"/>
<path d="M8.90907 28H3.81817C1.65453 28 0 26.3455 0 24.1819V19.091C0 18.3273 0.509106 17.8182 1.27274 17.8182C2.03637 17.8182 2.54548 18.3273 2.54548 19.091V24.1819C2.54548 24.9455 3.05458 25.4546 3.81822 25.4546H8.90912C9.67275 25.4546 10.1819 25.9637 10.1819 26.7274C10.1818 27.4909 9.6727 28 8.90907 28Z" fill="#534918"/>
<path d="M24.1819 28H19.091C18.3273 28 17.8182 27.4909 17.8182 26.7272C17.8182 25.9636 18.3273 25.4545 19.091 25.4545H24.1819C24.9455 25.4545 25.4546 24.9454 25.4546 24.1818V19.0909C25.4546 18.3272 25.9637 17.8181 26.7274 17.8181C27.491 17.8181 28.0001 18.3272 28.0001 19.0909V24.1818C28 26.3454 26.3455 28 24.1819 28Z" fill="#534918"/>
<path d="M11.4546 12.7273H6.36368C5.60005 12.7273 5.09094 12.2182 5.09094 11.4546V6.36368C5.09094 5.60005 5.60005 5.09094 6.36368 5.09094H11.4546C12.2182 5.09094 12.7273 5.60005 12.7273 6.36368V11.4546C12.7273 12.2182 12.2182 12.7273 11.4546 12.7273ZM7.63642 10.1818H10.1819V7.63637H7.63642V10.1818Z" fill="#534918"/>
<path d="M11.4546 22.9091H6.36368C5.60005 22.9091 5.09094 22.4 5.09094 21.6363V16.5454C5.09094 15.7818 5.60005 15.2727 6.36368 15.2727H11.4546C12.2182 15.2727 12.7273 15.7818 12.7273 16.5454V21.6363C12.7273 22.4 12.2182 22.9091 11.4546 22.9091ZM7.63642 20.3636H10.1819V17.8181H7.63642V20.3636Z" fill="#534918"/>
<path d="M21.6363 12.7273H16.5454C15.7818 12.7273 15.2727 12.2182 15.2727 11.4546V6.36368C15.2727 5.60005 15.7818 5.09094 16.5454 5.09094H21.6363C22.4 5.09094 22.9091 5.60005 22.9091 6.36368V11.4546C22.9091 12.2182 22.4 12.7273 21.6363 12.7273ZM17.8182 10.1818H20.3637V7.63637H17.8182V10.1818Z" fill="#534918"/>
<path d="M16.5454 19.0908C15.7818 19.0908 15.2727 18.5817 15.2727 17.8181V16.5453C15.2727 15.7817 15.7818 15.2726 16.5454 15.2726C17.3091 15.2726 17.8182 15.7817 17.8182 16.5453V17.8181C17.8182 18.5817 17.3091 19.0908 16.5454 19.0908Z" fill="#534918"/>
<path d="M21.6363 17.8182H20.3636C19.5999 17.8182 19.0908 17.3091 19.0908 16.5454C19.0908 15.7818 19.5999 15.2727 20.3636 15.2727H21.6363C22.3999 15.2727 22.909 15.7818 22.909 16.5454C22.909 17.3091 22.3999 17.8182 21.6363 17.8182Z" fill="#534918"/>
<path d="M21.6363 22.9091H17.8181C17.0545 22.9091 16.5454 22.4 16.5454 21.6364C16.5454 20.8728 17.0545 20.3636 17.8181 20.3636H21.6363C22.3999 20.3636 22.9091 20.8728 22.9091 21.6364C22.9091 22.4 22.3999 22.9091 21.6363 22.9091Z" fill="#534918"/>
</g>
<defs>
<clipPath id="clip0_155_2935">
<rect width="28" height="28" fill="white"/>
</clipPath>
</defs>
</svg>
