<svg width="32" height="32" viewBox="0 0 32 32" fill="none" xmlns="http://www.w3.org/2000/svg">
<path d="M25.3391 9.24512L23.4974 10.4483C23.4831 9.52972 23.1085 8.65351 22.4543 8.0085C21.8001 7.36348 20.9187 7.0013 20 7H5.5C4.57207 7.00108 3.68246 7.37018 3.02632 8.02632C2.37018 8.68246 2.00108 9.57207 2 10.5V21.5C2.00108 22.4279 2.37018 23.3175 3.02632 23.9737C3.68246 24.6298 4.57207 24.9989 5.5 25H20C20.9187 24.9987 21.8001 24.6365 22.4543 23.9915C23.1085 23.3465 23.4831 22.4702 23.4974 21.5516L25.3394 22.7549C25.7886 23.0516 26.3094 23.2222 26.8471 23.2488C27.3849 23.2754 27.9199 23.157 28.3962 22.906C28.8725 22.655 29.2727 22.2807 29.5548 21.8221C29.837 21.3636 29.9907 20.8376 30 20.2993V11.7007C29.991 11.1622 29.8373 10.6361 29.5552 10.1774C29.2731 9.71865 28.8729 9.34418 28.3965 9.09317C27.92 8.84215 27.3848 8.72382 26.847 8.75055C26.3091 8.77728 25.7883 8.94809 25.3391 9.24512ZM20.5 21.5C20.4999 21.6326 20.4471 21.7597 20.3534 21.8534C20.2597 21.9471 20.1326 21.9999 20 22H5.5C5.36743 21.9999 5.24033 21.9471 5.14659 21.8534C5.05285 21.7597 5.00013 21.6326 5 21.5V10.5C5.00013 10.3674 5.05285 10.2403 5.14659 10.1466C5.24033 10.0529 5.36743 10.0001 5.5 10H20C20.1326 10.0001 20.2597 10.0529 20.3534 10.1466C20.4471 10.2403 20.4999 10.3674 20.5 10.5V21.5ZM27 20.2563C26.9979 20.2527 26.9949 20.2497 26.9914 20.2474C26.9879 20.2451 26.9839 20.2436 26.9797 20.2432L23.5 17.9699V14.0354L27 11.7763V20.2563Z" fill="black"/>
</svg>
