<svg width="32" height="32" viewBox="0 0 32 32" fill="none" xmlns="http://www.w3.org/2000/svg">
<path d="M28 18C27.9999 19.597 27.6812 21.1779 27.0623 22.65C26.4435 24.1222 25.537 25.4561 24.3961 26.5734C23.2551 27.6908 21.9026 28.5692 20.4178 29.1571C18.933 29.745 17.3458 30.0307 15.7492 29.9973C14.1526 29.964 12.5787 29.6123 11.1198 28.9628C9.66082 28.3134 8.34618 27.3793 7.25288 26.2153C6.15959 25.0512 5.30963 23.6807 4.75282 22.1839C4.19601 20.6872 3.94354 19.0944 4.01022 17.4988C4.09279 15.513 7.09013 15.6433 7.00778 17.6233C6.9315 19.3953 7.38049 21.1504 8.29838 22.6681C9.21626 24.1858 10.5621 25.3984 12.1669 26.1537C13.7717 26.9091 15.5639 27.1734 17.3184 26.9135C19.073 26.6536 20.7116 25.8811 22.0285 24.6931C23.3455 23.505 24.282 21.9542 24.7205 20.2356C25.1591 18.517 25.08 16.7072 24.4934 15.0334C23.9067 13.3595 22.8385 11.8964 21.423 10.8276C20.0075 9.75883 18.3078 9.13213 16.5373 9.02619L18.0195 10.3999C19.5029 11.7743 17.402 13.9183 15.9804 12.6001L12.2038 9.10011C11.9822 8.89661 11.8054 8.64931 11.6843 8.37389C11.5633 8.09846 11.5008 7.8009 11.5008 7.50006C11.5008 7.19922 11.5632 6.90166 11.6842 6.62621C11.8052 6.35077 11.982 6.10344 12.2036 5.89991L15.9804 2.39991C17.4332 1.05229 19.4753 3.25133 18.0195 4.60011L16.496 6.01211C19.5906 6.13772 22.5165 7.45589 24.6609 9.69053C26.8053 11.9252 28.0019 14.9029 28 18Z" fill="black"/>
</svg>
