<svg width="32" height="32" viewBox="0 0 32 32" fill="none" xmlns="http://www.w3.org/2000/svg">
<mask id="mask0_639_1900" style="mask-type:luminance" maskUnits="userSpaceOnUse" x="0" y="0" width="32" height="32">
<path d="M0 1.90735e-06H32V32H0V1.90735e-06Z" fill="white"/>
</mask>
<g >
<path fill-rule="evenodd" clip-rule="evenodd" d="M10.375 30.125C9.85725 30.125 9.4375 29.7053 9.4375 29.1875V13.6607C9.4375 13.2817 9.20927 12.9399 8.85917 12.7947C7.07411 12.0544 5.6875 10.0249 5.6875 7.5C5.6875 4.2526 7.91652 1.875 10.375 1.875C12.8335 1.875 15.0625 4.2526 15.0625 7.5C15.0625 10.0249 13.6759 12.0544 11.8908 12.7947C11.5407 12.9399 11.3125 13.2817 11.3125 13.6607V29.1875C11.3125 29.7053 10.8928 30.125 10.375 30.125ZM7.5625 29.1875C7.5625 30.7409 8.82175 32 10.375 32C11.9282 32 13.1875 30.7409 13.1875 29.1875V14.2509C15.4427 13.0298 16.9375 10.4372 16.9375 7.5C16.9375 3.49865 14.1298 1.90735e-06 10.375 1.90735e-06C6.62023 1.90735e-06 3.8125 3.49865 3.8125 7.5C3.8125 10.4372 5.30728 13.0298 7.5625 14.2509V29.1875Z" fill="black"/>
<path fill-rule="evenodd" clip-rule="evenodd" d="M23.5 30.125C22.9822 30.125 22.5625 29.7053 22.5625 29.1875V13.5424C22.5625 13.2086 22.385 12.9 22.0966 12.7321C21.25 12.2394 20.6875 11.3419 20.6875 10.3125V9.375H26.3125V10.3125C26.3125 11.3419 25.75 12.2394 24.9034 12.7321C24.615 12.9 24.4375 13.2086 24.4375 13.5424V29.1875C24.4375 29.7053 24.0178 30.125 23.5 30.125ZM20.6875 29.1875C20.6875 30.7409 21.9468 32 23.5 32C25.0532 32 26.3125 30.7409 26.3125 29.1875V14.0435C27.4419 13.1947 28.1875 11.8494 28.1875 10.3125V8.4375C28.1875 7.91973 27.7678 7.5 27.25 7.5H19.75C19.2322 7.5 18.8125 7.91973 18.8125 8.4375V10.3125C18.8125 11.8494 19.5581 13.1947 20.6875 14.0435V29.1875Z" fill="black"/>
<path fill-rule="evenodd" clip-rule="evenodd" d="M23.5 9.375C24.0178 9.375 24.4375 8.95527 24.4375 8.4375V0.9375C24.4375 0.419733 24.0178 0 23.5 0C22.9822 0 22.5625 0.419733 22.5625 0.9375V8.4375C22.5625 8.95527 22.9822 9.375 23.5 9.375Z" fill="black"/>
<path fill-rule="evenodd" clip-rule="evenodd" d="M19.75 9.375C20.2678 9.375 20.6875 8.95527 20.6875 8.4375V0.9375C20.6875 0.419733 20.2678 0 19.75 0C19.2322 0 18.8125 0.419733 18.8125 0.9375V8.4375C18.8125 8.95527 19.2322 9.375 19.75 9.375Z" fill="black"/>
<path fill-rule="evenodd" clip-rule="evenodd" d="M27.25 9.375C27.7678 9.375 28.1875 8.95527 28.1875 8.4375V0.9375C28.1875 0.419733 27.7678 0 27.25 0C26.7322 0 26.3125 0.419733 26.3125 0.9375V8.4375C26.3125 8.95527 26.7322 9.375 27.25 9.375Z" fill="black"/>
</g>
</svg>
