<svg width="36" height="36" viewBox="0 0 36 36" fill="none" xmlns="http://www.w3.org/2000/svg">
<path d="M34.875 12.0662C34.875 10.7668 34.3125 9.54059 33.3225 8.69684L29.61 5.51309C28.8056 4.82121 27.7819 4.44434 26.7188 4.44434H9.28125C8.22375 4.44434 7.19437 4.82121 6.39 5.51309L2.6775 8.69684C1.6875 9.54059 1.125 10.7668 1.125 12.0662V27.1187C1.125 29.5656 3.11625 31.5568 5.56313 31.5568H30.4312C31.6181 31.5568 32.7319 31.0956 33.57 30.2575C34.4138 29.4193 34.875 28.3056 34.875 27.1187V12.0662ZM7.8525 7.21746C8.25188 6.87996 8.75812 6.68871 9.27562 6.68871H26.7188C27.2419 6.68871 27.7481 6.87434 28.1419 7.21746L30.7013 9.41121H5.29312L7.8525 7.21746ZM31.9838 28.6656C31.5675 29.0818 31.0219 29.3068 30.4369 29.3068H5.56875C4.35937 29.3068 3.375 28.3281 3.375 27.1187V12.0662C3.375 11.9312 3.39187 11.7962 3.42 11.6668H32.58C32.6025 11.7962 32.625 11.9312 32.625 12.0662V27.1187C32.625 27.7037 32.4 28.255 31.9838 28.6656Z" fill="black"/>
<path d="M22.4999 14.6249H21.1837C21.2905 14.518 21.3974 14.4111 21.5155 14.293C21.9543 13.8543 21.9543 13.1399 21.5155 12.7011C21.0768 12.2624 20.3624 12.2624 19.9237 12.7011C19.9237 12.7011 17.848 14.7768 17.6905 14.9343C17.6849 14.9399 17.6793 14.9455 17.6737 14.9511L17.668 14.9568C17.4655 15.1593 17.3418 15.4405 17.3418 15.7499C17.3418 16.0593 17.4655 16.3349 17.668 16.543L17.6737 16.5486L17.6905 16.5655C17.848 16.7174 19.9237 18.7986 19.9237 18.7986C20.143 19.018 20.4299 19.1305 20.7224 19.1305C21.0093 19.1305 21.2962 19.0236 21.5155 18.8043C21.9543 18.3655 21.9543 17.6511 21.5155 17.2124C21.3974 17.0943 21.2905 16.9874 21.1837 16.8805H22.4999C24.3618 16.8805 25.8749 18.3936 25.8749 20.2555C25.8749 21.1555 25.5262 22.0049 24.8905 22.6405C24.2493 23.2761 23.3999 23.6249 22.4999 23.6249H19.5974C18.9787 23.6249 18.4724 24.1311 18.4724 24.7499C18.4724 25.3686 18.9787 25.8749 19.5974 25.8749H22.4999C23.9962 25.8749 25.408 25.2899 26.4824 24.2268C27.5399 23.158 28.1249 21.7461 28.1249 20.2499C28.1249 17.1505 25.5993 14.6249 22.4999 14.6249Z" fill="black"/>
<path d="M17.865 25.2731C17.8763 25.245 17.8931 25.2225 17.91 25.1944C17.9269 25.1494 17.9438 25.0988 17.955 25.0538C17.9606 25.0313 17.9719 25.0087 17.9775 24.9806C17.9944 24.9075 18 24.8288 18 24.75C18 24.6712 17.9944 24.5925 17.9775 24.5194C17.9719 24.4913 17.9606 24.4687 17.955 24.4462C17.9438 24.4012 17.9269 24.3506 17.91 24.3056C17.8988 24.2775 17.8819 24.255 17.865 24.2269C17.8425 24.1875 17.8256 24.1481 17.8031 24.1144C17.7862 24.0862 17.7638 24.0638 17.7413 24.0413C17.7131 24.0075 17.6906 23.9737 17.6625 23.9456C17.6569 23.9456 17.6569 23.94 17.6569 23.9344C17.505 23.7825 15.4238 21.7013 15.4238 21.7013C14.985 21.2625 14.2706 21.2625 13.8319 21.7013C13.3931 22.14 13.3931 22.8544 13.8319 23.2931L14.1638 23.625H13.5C11.6381 23.625 10.125 22.1119 10.125 20.25C10.125 19.35 10.4738 18.5006 11.1094 17.865C11.7506 17.2238 12.6 16.875 13.5 16.875H15.75C16.3688 16.875 16.875 16.3688 16.875 15.75C16.875 15.1312 16.3688 14.625 15.75 14.625H13.5C12.0037 14.625 10.5919 15.21 9.5175 16.2731C8.46 17.3419 7.875 18.7537 7.875 20.25C7.875 23.3494 10.4006 25.875 13.5 25.875H14.1581C14.0513 25.9819 13.9444 26.0888 13.8262 26.2069C13.3875 26.6456 13.3875 27.36 13.8262 27.7987C14.0512 28.0181 14.3381 28.125 14.625 28.125C14.9119 28.125 15.1988 28.0125 15.4238 27.7931C15.4238 27.7931 17.505 25.7119 17.6569 25.56C17.6625 25.56 17.6625 25.5544 17.6625 25.5487C17.6906 25.5206 17.7188 25.4869 17.7413 25.4531C17.7638 25.4306 17.7806 25.4081 17.8031 25.38C17.8256 25.3519 17.8481 25.3125 17.865 25.2731Z" fill="black"/>
</svg>
