<svg width="32" height="32" viewBox="0 0 32 32" fill="none" xmlns="http://www.w3.org/2000/svg">
<path d="M28.6577 6.13282L25.1445 3.01026C24.4124 2.35913 23.4666 1.99961 22.4868 2H6C4.93951 2.00121 3.9228 2.42303 3.17291 3.17291C2.42303 3.9228 2.00121 4.93951 2 6V26C2.00121 27.0605 2.42303 28.0772 3.17291 28.8271C3.9228 29.577 4.93951 29.9988 6 30H26C27.0605 29.9988 28.0772 29.577 28.8271 28.8271C29.577 28.0772 29.9988 27.0605 30 26V9.12256C29.9998 8.55774 29.8801 7.99935 29.6487 7.48408C29.4174 6.96881 29.0797 6.5083 28.6577 6.13282ZM10 5H15V9.5H10V5ZM18 5H19.5V9.5H18V5ZM22.5 27H9.5V20H22.5V27ZM27 26C26.9997 26.2651 26.8942 26.5193 26.7067 26.7067C26.5193 26.8942 26.2651 26.9997 26 27H25.5V19.5C25.4903 18.8284 25.2146 18.188 24.7334 17.7193C24.2522 17.2507 23.6048 16.992 22.9331 17H9.06689C8.39524 16.992 7.74782 17.2507 7.26663 17.7193C6.78543 18.188 6.50973 18.8284 6.5 19.5V27H6C5.73489 26.9997 5.48073 26.8942 5.29327 26.7067C5.10581 26.5193 5.00034 26.2651 5 26V6C5.00034 5.73489 5.10581 5.48074 5.29327 5.29327C5.48073 5.10581 5.73489 5.00034 6 5H7V10.3438C7 11.5732 8.11231 12.5 9.58692 12.5H19.9131C21.3877 12.5 22.5 11.5732 22.5 10.3438V5.00119C22.7403 5.00387 22.9715 5.09308 23.1514 5.25244L26.6646 8.375C26.77 8.46893 26.8544 8.58408 26.9122 8.71292C26.97 8.84175 26.9999 8.98135 27 9.12256V26Z" fill="black"/>
</svg>
