<svg width="32" height="32" viewBox="0 0 32 32" fill="none" xmlns="http://www.w3.org/2000/svg">
<path d="M24.5001 19C22.9501 19 21.5001 19.65 20.4501 20.8L12.9001 17C13.0501 16.3 13.0501 15.65 12.9001 14.95L20.4501 11.2C22.5001 13.45 25.9501 13.6 28.2001 11.55C30.4501 9.50003 30.6001 6.05003 28.5501 3.80003C26.5001 1.55003 23.0501 1.40003 20.8001 3.45003C19.6501 4.50003 19.0001 5.95003 19.0001 7.50003C19.0001 7.85003 19.0501 8.20003 19.1001 8.50003L11.5501 12.25C9.50007 10 6.00007 9.85003 3.80007 11.9C1.60007 13.95 1.40007 17.45 3.45007 19.7C5.50007 21.95 9.00007 22.1 11.2001 20.05C11.3001 19.95 11.4501 19.8 11.5501 19.7L19.1001 23.45C19.0501 23.8 19.0001 24.15 19.0001 24.5C19.0001 27.55 21.4501 30 24.5001 30C27.5501 30 30.0001 27.55 30.0001 24.5C30.0001 21.45 27.5501 19 24.5001 19ZM24.5001 5.00003C25.9001 5.00003 27.0001 6.10003 27.0001 7.50003C27.0001 8.90003 25.9001 10 24.5001 10C24.1001 10 23.7501 9.90003 23.4001 9.75003C22.5501 9.30003 22.0001 8.45003 22.0001 7.50003C22.0001 7.35003 22.0001 7.20003 22.0501 7.05003C22.2501 5.85003 23.3001 5.00003 24.5001 5.00003ZM7.50007 18.5C6.30007 18.5 5.25007 17.65 5.05007 16.45C5.00007 16.15 5.00007 15.85 5.05007 15.55C5.25007 14.35 6.30007 13.5 7.50007 13.5C7.90007 13.5 8.25007 13.6 8.60007 13.75C9.85007 14.35 10.3501 15.85 9.70007 17.1C9.45007 17.6 9.05007 18 8.60007 18.2C8.25007 18.4 7.90007 18.5 7.50007 18.5ZM24.5001 27C23.3001 27 22.2501 26.15 22.0501 24.95C22.0001 24.8 22.0001 24.65 22.0001 24.5C22.0001 23.55 22.5501 22.7 23.4001 22.25C23.7501 22.05 24.1501 22 24.5001 22C25.9001 22 27.0001 23.1 27.0001 24.5C27.0001 25.9 25.9001 27 24.5001 27Z" fill="black"/>
</svg>
