<svg width="32" height="32" viewBox="0 0 32 32" fill="none" xmlns="http://www.w3.org/2000/svg">
<path d="M16 25C8.54996 25 4.49996 20.85 2.74996 18.4C1.79996 17.05 1.74996 15.3 2.69996 13.95C4.39996 11.35 8.44996 6.99998 16 6.99998C21.3 6.89998 26.3 9.49998 29.3 13.9C30.25 15.25 30.2 17.05 29.25 18.4C27.5 20.85 23.45 25 16 25ZM16 9.99998C9.79996 9.99998 6.54996 13.5 5.14996 15.6C4.94996 15.9 4.94996 16.35 5.14996 16.65C6.59996 18.65 9.89996 22 16 22C22.1 22 25.4 18.65 26.8 16.65C27.05 16.35 27.05 15.9 26.8 15.6C24.4 12 20.35 9.89998 16 9.99998Z" fill="black"/>
<path d="M19.5 16C19.5 17.95 17.95 19.5 16 19.5C14.05 19.5 12.5 17.95 12.5 16C12.5 14.05 14.05 12.5 16 12.5C17.95 12.5 19.5 14.05 19.5 16Z" fill="black"/>
</svg>
