<svg width="119" height="119" viewBox="0 0 119 119" fill="none" xmlns="http://www.w3.org/2000/svg">
<g clip-path="url(#clip0_603_2450)">
<path d="M114.918 35.1657C109.481 29.7286 100.634 29.7286 95.1967 35.1657L60.3357 70.0266C54.5707 75.7916 50.9796 83.1508 49.9711 91.1096H45.6908C43.7722 85.6986 38.6024 81.8127 32.542 81.8127C24.8525 81.8127 18.5967 88.0686 18.5967 95.7581C18.5967 98.3254 20.6778 100.406 23.2451 100.406C25.8124 100.406 27.8936 98.3254 27.8936 95.7581C27.8936 93.1949 29.9788 91.1096 32.542 91.1096C35.1051 91.1096 37.1904 93.1949 37.1904 95.7581C37.1904 98.3254 39.2715 100.406 41.8389 100.406H54.326C64.0461 100.406 73.1847 96.6213 80.0576 89.7481C82.0616 87.7442 112.925 56.8804 114.919 54.8871C120.356 49.4501 120.356 40.603 114.918 35.1657ZM73.4833 83.1745C69.5975 87.0606 64.7387 89.6207 59.4562 90.6278C60.4633 85.3456 63.0237 80.4868 66.9095 76.6007L87.1951 56.3151L93.7689 62.889L73.4833 83.1745ZM108.345 48.3135L100.343 56.3149L93.7694 49.7409L101.771 41.7395C103.584 39.9271 106.532 39.9271 108.345 41.7395C110.161 43.5561 110.161 46.4965 108.345 48.3135Z" fill="black"/>
<path d="M88.3232 96.4862C85.7559 96.4862 83.6748 98.5673 83.6748 101.135V105.055C83.6748 107.618 81.5895 109.703 79.0264 109.703H13.9482C11.3851 109.703 9.2998 107.618 9.2998 105.055V13.9453C9.2998 11.3822 11.3851 9.29688 13.9482 9.29688H65.8787C67.1203 9.29688 68.2875 9.78055 69.1656 10.6584L82.3135 23.8063C82.8734 24.3662 83.2834 25.0651 83.4993 25.8274C84.1989 28.2976 86.7681 29.7333 89.2383 29.0339C91.7085 28.3346 93.1441 25.7654 92.4448 23.2952C91.7975 21.0086 90.5673 18.9122 88.8873 17.2325L75.7395 4.08458C73.1054 1.45054 69.6033 0 65.8787 0H13.9482C6.2588 0 0.00292969 6.25587 0.00292969 13.9453V105.055C0.00292969 112.744 6.2588 119 13.9482 119H79.0264C86.7158 119 92.9717 112.744 92.9717 105.055V101.135C92.9717 98.5673 90.8906 96.4862 88.3232 96.4862Z" fill="black"/>
<path d="M51.1357 37.1875H23.2451C20.6778 37.1875 18.5967 35.1064 18.5967 32.5391C18.5967 29.9717 20.6778 27.8906 23.2451 27.8906H51.1357C53.7031 27.8906 55.7842 29.9717 55.7842 32.5391C55.7842 35.1064 53.7031 37.1875 51.1357 37.1875Z" fill="black"/>
<path d="M51.1357 55.7812H23.2451C20.6778 55.7812 18.5967 53.7001 18.5967 51.1328C18.5967 48.5655 20.6778 46.4844 23.2451 46.4844H51.1357C53.7031 46.4844 55.7842 48.5655 55.7842 51.1328C55.7842 53.7001 53.7031 55.7812 51.1357 55.7812Z" fill="black"/>
</g>
<defs>
<clipPath id="clip0_603_2450">
<rect width="119" height="119" fill="white"/>
</clipPath>
</defs>
</svg>
