<svg width="42" height="42" viewBox="0 0 42 42" fill="none" xmlns="http://www.w3.org/2000/svg">
<g clip-path="url(#clip0_518_183)">
<path d="M34.3009 9.93732L27.5039 16.7344H32.1562C33.0624 16.7344 33.7969 17.4688 33.7969 18.375C33.7969 19.2812 33.0624 20.0156 32.1562 20.0156H26.0039C23.7423 20.0156 21.9023 18.1757 21.9023 15.9141V9.76172C21.9023 8.85553 22.6368 8.12109 23.543 8.12109C24.4492 8.12109 25.1836 8.85553 25.1836 9.76172V14.4141L31.9803 7.61737C32.6212 6.9765 33.66 6.9765 34.3006 7.61737C34.9415 8.25792 34.9415 9.29677 34.3009 9.93732ZM18.5391 33.6328C19.4453 33.6328 20.1797 32.8984 20.1797 31.9922V25.8398C20.1797 23.5782 18.3398 21.7383 16.0781 21.7383H9.92578C9.01959 21.7383 8.28516 22.4727 8.28516 23.3789C8.28516 24.2851 9.01959 25.0195 9.92578 25.0195H14.5782L7.78111 31.8166C7.14056 32.4571 7.14056 33.496 7.78111 34.1365C8.10155 34.457 8.52164 34.6172 8.94141 34.6172C9.36118 34.6172 9.78127 34.457 10.1017 34.1365L16.8984 27.3398V31.9922C16.8984 32.8984 17.6329 33.6328 18.5391 33.6328ZM40.3594 28.875C41.2656 28.875 42 28.1406 42 27.2344V6.5625C42 2.94383 39.0562 0 35.4375 0H6.5625C2.94383 0 0 2.94383 0 6.5625V35.4375C0 39.0562 2.94383 42 6.5625 42H35.4375C39.0562 42 42 39.0562 42 35.4375C42 34.5313 41.2656 33.7969 40.3594 33.7969C39.4532 33.7969 38.7188 34.5313 38.7188 35.4375C38.7188 37.2467 37.2467 38.7188 35.4375 38.7188H6.5625C4.75333 38.7188 3.28125 37.2467 3.28125 35.4375V6.5625C3.28125 4.75333 4.75333 3.28125 6.5625 3.28125H35.4375C37.2467 3.28125 38.7188 4.75333 38.7188 6.5625V27.2344C38.7188 28.1406 39.4532 28.875 40.3594 28.875Z" fill="black"/>
</g>
<defs>
<clipPath id="clip0_518_183">
<rect width="42" height="42" fill="white"/>
</clipPath>
</defs>
</svg>
