<svg width="32" height="32" viewBox="0 0 32 32" fill="none" xmlns="http://www.w3.org/2000/svg">
<path d="M20.5 2H11.5C10.3069 2.00134 9.16313 2.47588 8.3195 3.3195C7.47588 4.16313 7.00134 5.30694 7 6.5V25.5C7.00134 26.6931 7.47588 27.8369 8.3195 28.6805C9.16313 29.5241 10.3069 29.9987 11.5 30H20.5C21.6931 29.9987 22.8369 29.5241 23.6805 28.6805C24.5241 27.8369 24.9987 26.6931 25 25.5V6.5C24.9987 5.30694 24.5241 4.16313 23.6805 3.3195C22.8369 2.47588 21.6931 2.00134 20.5 2ZM11.5 5H20.5C20.8977 5.00043 21.279 5.15861 21.5602 5.43982C21.8414 5.72103 21.9996 6.10231 22 6.5H10C10.0004 6.10231 10.1586 5.72103 10.4398 5.43982C10.721 5.15861 11.1023 5.00043 11.5 5ZM22 9.5V22.5H10V9.5H22ZM20.5 27H11.5C11.1023 26.9996 10.721 26.8414 10.4398 26.5602C10.1586 26.279 10.0004 25.8977 10 25.5H22C21.9996 25.8977 21.8414 26.279 21.5602 26.5602C21.279 26.8414 20.8977 26.9996 20.5 27Z" fill="black"/>
</svg>
