<svg width="40" height="40" viewBox="0 0 40 40" fill="none" xmlns="http://www.w3.org/2000/svg">
<path d="M29.3712 8.37051C29.8919 8.89121 29.8919 9.73541 29.3712 10.2561L25.3643 14.263C24.8436 14.7837 23.9994 14.7837 23.4787 14.263C22.958 13.7423 22.958 12.8981 23.4787 12.3774L27.4856 8.37051C28.0063 7.84981 28.8505 7.84981 29.3712 8.37051Z" fill="#534918"/>
<path d="M31.7282 12.6131C32.2489 12.0924 32.2489 11.2481 31.7282 10.7274C31.2075 10.2067 30.3633 10.2067 29.8426 10.7274L25.8357 14.7344C25.315 15.2551 25.315 16.0993 25.8357 16.62C26.3564 17.1407 27.2006 17.1407 27.7213 16.62L31.7282 12.6131Z" fill="#534918"/>
<path fill-rule="evenodd" clip-rule="evenodd" d="M18.991 14.576C18.3402 13.9251 18.3402 12.8698 18.991 12.2189L27.2252 3.98473C27.8761 3.33387 28.9314 3.33387 29.5823 3.98473L36.182 10.5844C36.8327 11.2353 36.8327 12.2905 36.182 12.9414L27.9477 21.1756C27.2968 21.8265 26.2416 21.8265 25.5907 21.1756L23.2337 18.8186L16.4846 25.5676L16.9561 26.039C17.6069 26.6899 17.6069 27.7452 16.9561 28.396L9.7326 35.6193C8.3007 37.0513 5.9791 37.0513 4.54717 35.6193C3.11525 34.1877 3.11524 31.8659 4.54717 30.434L11.7706 23.2106C12.4215 22.5597 13.4768 22.5597 14.1276 23.2106L14.599 23.682L21.348 16.933L18.991 14.576ZM21.5838 13.3974L28.4038 6.57747L33.5893 11.7629L26.7692 18.5829L21.5838 13.3974ZM12.4026 26.3498L12.9491 25.8033L14.3633 27.2175L13.8168 27.764L12.4026 26.3498ZM11.9312 29.6496L10.517 28.2354L6.4328 32.3196C6.04227 32.7102 6.04227 33.3433 6.4328 33.734C6.8233 34.1243 7.45647 34.1243 7.847 33.734L11.9312 29.6496Z" fill="#534918"/>
</svg>
