<svg width="42" height="42" viewBox="0 0 42 42" fill="none" xmlns="http://www.w3.org/2000/svg">
<g clip-path="url(#clip0_518_127)">
<path d="M19.0701 36.725C18.9673 36.625 18.8359 36.5595 18.6941 36.5378V36.5371L17.1546 36.301L16.4599 34.8172C16.2989 34.4727 15.8892 34.3239 15.5447 34.4848C15.3983 34.5531 15.2807 34.6708 15.2123 34.8172L14.5175 36.301L12.978 36.5371C12.6022 36.5948 12.3441 36.9462 12.4018 37.322C12.4236 37.4638 12.489 37.5952 12.589 37.698L13.7237 38.8636L13.4545 40.5161C13.3928 40.8913 13.6471 41.2455 14.0223 41.3071C14.1751 41.3322 14.3318 41.3051 14.4673 41.2301L15.8361 40.4734L17.2049 41.2308C17.5376 41.4149 17.9566 41.2945 18.1406 40.9618C18.2156 40.8263 18.2427 40.6696 18.2177 40.5168L17.9485 38.8643L19.0832 37.6987C19.3484 37.4262 19.3426 36.9903 19.0701 36.725ZM16.7201 38.1517C16.5679 38.3079 16.4986 38.5271 16.5335 38.7425L16.6306 39.3394L16.1693 39.0833C15.962 38.9686 15.7102 38.9686 15.5028 39.0833L15.0415 39.3394L15.1386 38.7425C15.1735 38.5271 15.1043 38.3079 14.952 38.1517L14.5086 37.6959L15.0897 37.6064C15.3168 37.5715 15.5116 37.4256 15.6089 37.2174L15.8361 36.7354L16.0633 37.2174C16.1605 37.4256 16.3553 37.5715 16.5824 37.6064L17.1635 37.6959L16.7201 38.1517Z" fill="black"/>
<path d="M28.0209 33.6445C27.9181 33.5445 27.7867 33.479 27.645 33.4573V33.4566L25.1539 33.0751L24.0329 30.688C23.8711 30.3438 23.461 30.1961 23.117 30.3578C22.9718 30.426 22.855 30.5428 22.7867 30.688L21.6658 33.0751L19.1747 33.4566C18.7989 33.5142 18.5408 33.8657 18.5985 34.2415C18.6203 34.3832 18.6857 34.5147 18.7857 34.6174L20.6089 36.4861L20.1772 39.1328C20.116 39.5081 20.3706 39.8619 20.7459 39.9231C20.8984 39.948 21.0548 39.9209 21.19 39.8461L23.4098 38.6157L25.6296 39.8426C25.9612 40.0288 26.3809 39.9109 26.5671 39.5793C26.6437 39.4426 26.6715 39.2839 26.6459 39.1292L26.2108 36.486L28.034 34.618C28.2992 34.3456 28.2934 33.9097 28.0209 33.6445ZM24.9824 35.77C24.8299 35.9264 24.7607 36.1459 24.7958 36.3615L25.0554 37.952L23.7431 37.2263C23.5357 37.1115 23.2839 37.1115 23.0766 37.2263L21.7643 37.952L22.0238 36.3615C22.0589 36.1459 21.9898 35.9264 21.8372 35.77L20.7074 34.6119L22.2373 34.3778C22.4644 34.3439 22.6593 34.1983 22.7564 33.9902L23.4098 32.5987L24.0632 33.9902C24.1603 34.1983 24.3553 34.3439 24.5824 34.3778L26.1123 34.6119L24.9824 35.77Z" fill="black"/>
<path d="M41.3115 4.12548H38.1539L40.2195 2.05991H41.3115C41.6917 2.05991 42 1.75162 42 1.37139C42 0.991148 41.6917 0.682861 41.3115 0.682861H0.688525C0.308287 0.682861 0 0.991148 0 1.37139C0 1.75162 0.308287 2.05991 0.688525 2.05991H3.8461L1.78052 4.12548H0.688525C0.308287 4.12548 0 4.43377 0 4.81401C0 5.19425 0.308287 5.50253 0.688525 5.50253H2.78233L2.7541 8.13063L1.50098 9.44434C0.358377 10.6429 0.402184 12.5403 1.59875 13.685L4.40793 16.3702C4.536 16.4929 4.70641 16.5614 4.8837 16.5616H4.89954C4.98191 16.5577 5.06298 16.5396 5.13915 16.5079L12.8141 27.5353L8.98593 39.0199C8.86579 39.3811 9.06124 39.7714 9.42246 39.8916C9.78368 40.0117 10.174 39.8163 10.2941 39.4551L13.7967 28.9461L15.9607 32.0569C16.1778 32.369 16.607 32.4461 16.9191 32.229C17.2313 32.0119 17.3084 31.5827 17.0912 31.2706L14.3371 27.3164L18.553 14.6682C18.5742 14.5986 18.5839 14.5261 18.5819 14.4534H22.7275C22.7253 14.5329 22.7372 14.6121 22.7626 14.6875L25.757 22.9814L22.8459 27.1408C22.6186 27.4456 22.6815 27.8771 22.9864 28.1043C23.2912 28.3315 23.7227 28.2687 23.9499 27.9638C23.9582 27.9527 23.9661 27.9414 23.9737 27.9298L26.3292 24.565L31.7134 39.4743C31.812 39.747 32.0708 39.9287 32.3607 39.9288C32.4405 39.9288 32.5198 39.9149 32.5948 39.8875C32.9521 39.758 33.137 39.3636 33.0079 39.0061L27.2931 23.1852L33.4031 14.4575L37.7835 15.955L33.0671 34.9432C32.9753 35.3122 33.2001 35.6857 33.5691 35.7775C33.5693 35.7776 33.5695 35.7776 33.5697 35.7776C33.6247 35.7908 33.6811 35.7975 33.7377 35.7976C34.0539 35.7974 34.3294 35.5819 34.4056 35.275L39.0958 16.3895C39.1428 16.4025 39.1911 16.4106 39.2397 16.4136C39.5341 16.4135 39.7959 16.2261 39.8911 15.9475L41.149 12.2714C41.6845 10.7042 40.8486 8.99955 39.2817 8.46319L39.2459 8.45011V5.50253H41.3115C41.6917 5.50253 42 5.19425 42 4.81401C42 4.43377 41.6917 4.12548 41.3115 4.12548ZM38.2723 2.05991L36.4918 3.84044L34.7113 2.05991H38.2723ZM34.8297 4.12548H31.2687L33.0492 2.34496L34.8297 4.12548ZM31.3871 2.05991L29.6066 3.84044L27.826 2.05991H31.3871ZM27.9445 4.12548H24.3834L26.1639 2.34496L27.9445 4.12548ZM24.5018 2.05991L22.7213 3.84044L20.9408 2.05991H24.5018ZM21.0592 4.12548H17.4982L19.2787 2.34496L21.0592 4.12548ZM17.6166 2.05991L15.8361 3.84044L14.0555 2.05991H17.6166ZM14.174 4.12548H10.6129L12.3934 2.34496L14.174 4.12548ZM10.7313 2.05991L8.95082 3.84044L7.17029 2.05991H10.7313ZM5.5082 2.34496L7.28872 4.12548H3.72767L5.5082 2.34496ZM4.86167 14.8975L2.54754 12.6894C1.89981 12.07 1.87606 11.0431 2.49452 10.3945L4.0623 8.75857C4.3581 8.44692 4.76605 8.26627 5.19561 8.25663H5.23279C5.65038 8.25569 6.05196 8.41689 6.35302 8.70624L8.66439 10.913L4.86167 14.8975ZM13.3574 25.9083L6.14784 15.544L9.0059 12.551L16.1549 17.1C16.1933 17.1216 16.2337 17.1399 16.2753 17.1544L13.3574 25.9083ZM17.178 14.4465L16.7181 15.8235L9.97603 11.5333L10.1371 11.3646C10.3997 11.0896 10.3896 10.6537 10.1145 10.3911L10.1144 10.3911L7.30525 7.70581C6.73334 7.15095 5.9603 6.85264 5.16393 6.87958C4.81399 6.89017 4.46861 6.96221 4.14354 7.09234L4.16007 5.50253H19.9672V6.87958H19.5245C17.8686 6.88182 16.5268 8.22367 16.5246 9.87948V13.7648C16.5257 14.13 16.8133 14.4299 17.178 14.4465ZM23.4098 13.0763H17.9016V9.87948C17.9032 8.9838 18.6288 8.25818 19.5245 8.25663H21.787C22.6827 8.25818 23.4083 8.9838 23.4098 9.87948V13.0763ZM33.3315 9.59788L32.0742 13.2746C32.015 13.4474 32.0269 13.6366 32.1073 13.8006C32.1176 13.8206 32.1355 13.8337 32.1472 13.853L26.723 21.6016L24.139 14.4451C24.5012 14.4261 24.7856 14.1275 24.7869 13.7648V9.87948C24.7846 8.22358 23.4428 6.88182 21.787 6.87958H21.3443V5.50253H37.8689V7.98122L37.1411 7.73198C35.574 7.19828 33.8705 8.03269 33.3315 9.59788ZM39.8497 11.8266L38.817 14.8506L33.6 13.068L34.6328 10.0468C34.9215 9.1975 35.8439 8.7429 36.6933 9.03157C36.695 9.03217 36.6967 9.03269 36.6984 9.03329L38.8397 9.76519C39.6874 10.056 40.1394 10.9785 39.8497 11.8266Z" fill="black"/>
</g>
<defs>
<clipPath id="clip0_518_127">
<rect width="42" height="42" fill="white"/>
</clipPath>
</defs>
</svg>
