<svg width="26" height="26" viewBox="0 0 26 26" fill="none" xmlns="http://www.w3.org/2000/svg">
<path fill-rule="evenodd" clip-rule="evenodd" d="M5.6875 9.75C5.47201 9.75 5.26535 9.8356 5.11298 9.98798C4.9606 10.1403 4.875 10.347 4.875 10.5625V23.5625C4.875 23.778 4.9606 23.9847 5.11298 24.137C5.26535 24.2894 5.47201 24.375 5.6875 24.375H20.3125C20.528 24.375 20.7347 24.2894 20.887 24.137C21.0394 23.9847 21.125 23.778 21.125 23.5625V10.5625C21.125 10.347 21.0394 10.1403 20.887 9.98798C20.7347 9.8356 20.528 9.75 20.3125 9.75H17.0625C16.847 9.75 16.6403 9.6644 16.488 9.51202C16.3356 9.35965 16.25 9.15299 16.25 8.9375C16.25 8.72201 16.3356 8.51535 16.488 8.36298C16.6403 8.2106 16.847 8.125 17.0625 8.125H20.3125C20.959 8.125 21.579 8.38181 22.0361 8.83893C22.4932 9.29605 22.75 9.91603 22.75 10.5625V23.5625C22.75 24.209 22.4932 24.829 22.0361 25.2861C21.579 25.7432 20.959 26 20.3125 26H5.6875C5.04103 26 4.42105 25.7432 3.96393 25.2861C3.50681 24.829 3.25 24.209 3.25 23.5625V10.5625C3.25 9.91603 3.50681 9.29605 3.96393 8.83893C4.42105 8.38181 5.04103 8.125 5.6875 8.125H8.9375C9.15299 8.125 9.35965 8.2106 9.51202 8.36298C9.6644 8.51535 9.75 8.72201 9.75 8.9375C9.75 9.15299 9.6644 9.35965 9.51202 9.51202C9.35965 9.6644 9.15299 9.75 8.9375 9.75H5.6875Z" fill="black"/>
<path fill-rule="evenodd" clip-rule="evenodd" d="M12.4247 19.2628C12.5002 19.3384 12.5899 19.3984 12.6886 19.4394C12.7873 19.4804 12.8931 19.5015 13 19.5015C13.1069 19.5015 13.2127 19.4804 13.3114 19.4394C13.4101 19.3984 13.4998 19.3384 13.5752 19.2628L18.4502 14.3878C18.6028 14.2352 18.6885 14.0283 18.6885 13.8125C18.6885 13.5967 18.6028 13.3898 18.4502 13.2372C18.2977 13.0847 18.0908 12.999 17.875 12.999C17.6592 12.999 17.4523 13.0847 17.2997 13.2372L13.8125 16.7261V2.4375C13.8125 2.22201 13.7269 2.01535 13.5745 1.86298C13.4221 1.7106 13.2155 1.625 13 1.625C12.7845 1.625 12.5778 1.7106 12.4255 1.86298C12.2731 2.01535 12.1875 2.22201 12.1875 2.4375V16.7261L8.70024 13.2372C8.54767 13.0847 8.34075 12.999 8.12499 12.999C7.90923 12.999 7.7023 13.0847 7.54974 13.2372C7.39717 13.3898 7.31146 13.5967 7.31146 13.8125C7.31146 14.0283 7.39717 14.2352 7.54974 14.3878L12.4247 19.2628Z" fill="black"/>
</svg>
