<svg width="25" height="25" viewBox="0 0 25 25" fill="none" xmlns="http://www.w3.org/2000/svg">
<path fill-rule="evenodd" clip-rule="evenodd" d="M13.9099 9.11458H4.16666C3.73519 9.11458 3.38541 8.7648 3.38541 8.33333C3.38541 7.90186 3.73519 7.55208 4.16666 7.55208H13.9099C14.25 6.34974 15.3554 5.46875 16.6667 5.46875C17.9779 5.46875 19.0833 6.34974 19.4234 7.55208H20.8333C21.2648 7.55208 21.6146 7.90186 21.6146 8.33333C21.6146 8.7648 21.2648 9.11458 20.8333 9.11458H19.4234C19.0833 10.3169 17.9779 11.1979 16.6667 11.1979C15.3554 11.1979 14.25 10.3169 13.9099 9.11458ZM15.3646 8.33333C15.3646 7.61421 15.9475 7.03125 16.6667 7.03125C17.3858 7.03125 17.9687 7.61421 17.9687 8.33333C17.9687 9.05246 17.3858 9.63542 16.6667 9.63542C15.9475 9.63542 15.3646 9.05246 15.3646 8.33333Z" fill="black"/>
<path fill-rule="evenodd" clip-rule="evenodd" d="M11.0901 17.448H20.8333C21.2648 17.448 21.6146 17.0982 21.6146 16.6667C21.6146 16.2352 21.2648 15.8855 20.8333 15.8855H11.0901C10.75 14.6831 9.64455 13.8021 8.33332 13.8021C7.02209 13.8021 5.91664 14.6831 5.57657 15.8855H4.16666C3.73519 15.8855 3.38541 16.2352 3.38541 16.6667C3.38541 17.0982 3.73519 17.448 4.16666 17.448H5.57657C5.91664 18.6504 7.02209 19.5313 8.33332 19.5313C9.64455 19.5313 10.75 18.6504 11.0901 17.448ZM7.03124 16.6667C7.03124 15.9475 7.6142 15.3646 8.33332 15.3646C9.05245 15.3646 9.63541 15.9475 9.63541 16.6667C9.63541 17.3859 9.05245 17.9688 8.33332 17.9688C7.6142 17.9688 7.03124 17.3859 7.03124 16.6667Z" fill="black"/>
</svg>
