<svg width="26" height="26" viewBox="0 0 26 26" fill="none" xmlns="http://www.w3.org/2000/svg">
<g clip-path="url(#clip0_407_129)">
<path fill-rule="evenodd" clip-rule="evenodd" d="M5.6875 9.75C5.47201 9.75 5.26535 9.8356 5.11298 9.98798C4.9606 10.1403 4.875 10.347 4.875 10.5625V23.5625C4.875 23.778 4.9606 23.9847 5.11298 24.137C5.26535 24.2894 5.47201 24.375 5.6875 24.375H20.3125C20.528 24.375 20.7347 24.2894 20.887 24.137C21.0394 23.9847 21.125 23.778 21.125 23.5625V10.5625C21.125 10.347 21.0394 10.1403 20.887 9.98798C20.7347 9.8356 20.528 9.75 20.3125 9.75H17.0625C16.847 9.75 16.6403 9.6644 16.488 9.51202C16.3356 9.35965 16.25 9.15299 16.25 8.9375C16.25 8.72201 16.3356 8.51535 16.488 8.36298C16.6403 8.2106 16.847 8.125 17.0625 8.125H20.3125C20.959 8.125 21.579 8.38181 22.0361 8.83893C22.4932 9.29605 22.75 9.91603 22.75 10.5625V23.5625C22.75 24.209 22.4932 24.829 22.0361 25.2861C21.579 25.7432 20.959 26 20.3125 26H5.6875C5.04103 26 4.42105 25.7432 3.96393 25.2861C3.50681 24.829 3.25 24.209 3.25 23.5625V10.5625C3.25 9.91603 3.50681 9.29605 3.96393 8.83893C4.42105 8.38181 5.04103 8.125 5.6875 8.125H8.9375C9.15299 8.125 9.35965 8.2106 9.51202 8.36298C9.6644 8.51535 9.75 8.72201 9.75 8.9375C9.75 9.15299 9.6644 9.35965 9.51202 9.51202C9.35965 9.6644 9.15299 9.75 8.9375 9.75H5.6875Z" fill="black"/>
<path fill-rule="evenodd" clip-rule="evenodd" d="M12.4247 0.237238C12.5002 0.161572 12.5899 0.10154 12.6886 0.0605797C12.7873 0.0196192 12.8931 -0.00146484 13 -0.00146484C13.1069 -0.00146484 13.2127 0.0196192 13.3114 0.0605797C13.4101 0.10154 13.4998 0.161572 13.5752 0.237238L18.4502 5.11224C18.6028 5.2648 18.6885 5.47173 18.6885 5.68749C18.6885 5.90325 18.6028 6.11017 18.4502 6.26274C18.2977 6.4153 18.0908 6.50101 17.875 6.50101C17.6592 6.50101 17.4523 6.4153 17.2997 6.26274L13.8125 2.77386V17.0625C13.8125 17.278 13.7269 17.4846 13.5745 17.637C13.4221 17.7894 13.2155 17.875 13 17.875C12.7845 17.875 12.5778 17.7894 12.4255 17.637C12.2731 17.4846 12.1875 17.278 12.1875 17.0625V2.77386L8.70024 6.26274C8.6247 6.33828 8.53501 6.3982 8.43631 6.43909C8.33761 6.47997 8.23182 6.50101 8.12499 6.50101C7.90923 6.50101 7.7023 6.4153 7.54974 6.26274C7.4742 6.18719 7.41427 6.09751 7.37339 5.99881C7.3325 5.90011 7.31146 5.79432 7.31146 5.68749C7.31146 5.47173 7.39717 5.2648 7.54974 5.11224L12.4247 0.237238Z" fill="black"/>
</g>
<defs>
<clipPath id="clip0_407_129">
<rect width="26" height="26" fill="white"/>
</clipPath>
</defs>
</svg>
