<svg id="Capa_1" enable-background="new 0 0 512.051 512.051" height="512" viewBox="0 0 512.051 512.051" width="512" xmlns="http://www.w3.org/2000/svg"><g><path d="m512.045 120.051h-146.727l-109.292 318.221-109.292-318.221h-146.728l256.02 392zm-125.311 30h69.872l-147.293 225.424zm-331.288 0h69.872l77.421 225.424z"/><path d="m241.026 150.051h30v30h-30z"/><path d="m241.026 210.051h30v30h-30z"/><path d="m241.026 270.051h30v30h-30z"/><path d="m328.506 135.872c21.6-32.4 21.6-89.241 0-121.641l-9.486-14.231-62.994 55.119-62.994-55.119-9.487 14.23c-21.601 32.4-21.601 89.241 0 121.641l9.487 14.23 62.993-55.119 62.994 55.119zm-127.297-32.788c-5.135-17.235-5.135-38.83 0-56.065l32.037 28.032zm109.632-.001-32.036-28.032 32.036-28.032c5.136 17.235 5.136 38.83 0 56.064z"/></g></svg>