<svg width="53" height="53" viewBox="0 0 53 53" fill="none" xmlns="http://www.w3.org/2000/svg">
<path d="M45.2363 27.7578H40.0483C39.3423 27.7578 38.6586 27.8543 38.008 28.0317C36.7247 25.5089 34.1045 23.7754 31.0852 23.7754H21.9148C18.8955 23.7754 16.2753 25.5089 14.992 28.0317C14.3414 27.8543 13.6577 27.7578 12.9517 27.7578H7.76367C3.48278 27.7578 0 31.2406 0 35.5215V43.815C0 46.3835 2.08967 48.4732 4.6582 48.4732H48.3418C50.9103 48.4732 53 46.3835 53 43.815V35.5215C53 31.2406 49.5172 27.7578 45.2363 27.7578ZM14.1511 31.5393V45.3678H4.6582C3.80203 45.3678 3.10547 44.6713 3.10547 43.8151V35.5216C3.10547 32.9531 5.19514 30.8634 7.76367 30.8634H12.9517C13.3732 30.8634 13.7813 30.9207 14.1699 31.0261C14.1588 31.196 14.1511 31.3668 14.1511 31.5393ZM35.7434 45.3678H17.2566V31.5392C17.2566 28.9706 19.3462 26.881 21.9148 26.881H31.0852C33.6538 26.881 35.7434 28.9706 35.7434 31.5392V45.3678ZM49.8945 43.8151C49.8945 44.6713 49.198 45.3678 48.3418 45.3678H38.8489V31.5392C38.8489 31.3666 38.8412 31.1958 38.8301 31.026C39.2187 30.9207 39.6268 30.8633 40.0483 30.8633H45.2363C47.8049 30.8633 49.8945 32.953 49.8945 35.5215V43.8151Z" fill="black"/>
<path d="M10.3578 13.0952C6.55367 13.0952 3.45886 16.19 3.45886 19.9941C3.45876 23.7982 6.55367 26.893 10.3578 26.893C14.1618 26.893 17.2567 23.7982 17.2567 19.9941C17.2567 16.19 14.1619 13.0952 10.3578 13.0952ZM10.3577 23.7876C8.26592 23.7876 6.56423 22.0859 6.56423 19.9941C6.56423 17.9024 8.26592 16.2007 10.3577 16.2007C12.4494 16.2007 14.1511 17.9024 14.1511 19.9941C14.1511 22.0859 12.4494 23.7876 10.3577 23.7876Z" fill="black"/>
<path d="M26.5 4.52686C21.4178 4.52686 17.2832 8.66148 17.2832 13.7437C17.2832 18.8259 21.4178 22.9605 26.5 22.9605C31.5822 22.9605 35.7169 18.8259 35.7169 13.7437C35.7169 8.66158 31.5822 4.52686 26.5 4.52686ZM26.5 19.855C23.1302 19.855 20.3887 17.1135 20.3887 13.7437C20.3887 10.3739 23.1302 7.63232 26.5 7.63232C29.8699 7.63232 32.6114 10.3738 32.6114 13.7437C32.6114 17.1135 29.8699 19.855 26.5 19.855Z" fill="black"/>
<path d="M42.6422 13.0952C38.8382 13.0952 35.7433 16.19 35.7433 19.9941C35.7434 23.7982 38.8382 26.893 42.6422 26.893C46.4463 26.893 49.5411 23.7982 49.5411 19.9941C49.5411 16.19 46.4463 13.0952 42.6422 13.0952ZM42.6422 23.7876C40.5506 23.7876 38.8488 22.0859 38.8488 19.9941C38.8489 17.9024 40.5506 16.2007 42.6422 16.2007C44.7339 16.2007 46.4356 17.9024 46.4356 19.9941C46.4356 22.0859 44.7339 23.7876 42.6422 23.7876Z" fill="black"/>
</svg>
