<svg width="54" height="54" viewBox="0 0 54 54" fill="none" xmlns="http://www.w3.org/2000/svg">
<g clip-path="url(#clip0_417_2023)">
<path fill-rule="evenodd" clip-rule="evenodd" d="M1.47657 47.8747C0.602739 47.8747 -0.105469 47.1664 -0.105469 46.2926V41.3636C-0.105469 36.5475 3.07508 32.4523 7.74744 31.2551L13.2178 29.8531C13.8688 29.687 14.5288 29.9532 14.8946 30.471L18.3697 35.0507L21.8391 30.4793C22.2317 29.9614 22.8826 29.755 23.4755 29.9029L28.9455 31.2724C29.7513 31.4746 30.5118 31.7622 31.2188 32.1243V26.7891C31.2188 25.9153 31.927 25.2071 32.8008 25.2071H52.3126C53.186 25.2071 53.8946 25.9153 53.8946 26.7891V46.3009C53.8946 47.1747 53.186 47.8829 52.3126 47.8829C35.3671 47.8829 18.422 47.8747 1.47657 47.8747ZM18.3697 6.22266C12.4869 6.22266 7.71736 10.9922 7.71736 16.875C7.71736 22.7578 12.4869 27.5274 18.3697 27.5274C24.2525 27.5274 29.0221 22.7578 29.0221 16.875C29.0221 10.9922 24.2525 6.22266 18.3697 6.22266ZM23.665 11.5797C26.5893 14.504 26.5893 19.246 23.665 22.1703C20.7407 25.0942 15.9991 25.0942 13.0749 22.1703C10.1506 19.246 10.1506 14.504 13.0749 11.5797C15.9991 8.65586 20.7407 8.65586 23.665 11.5797ZM47.3972 28.3711V33.5881C47.3972 34.7063 46.2036 35.6201 44.9767 34.9296L42.5666 33.7183L40.0226 34.9971C38.9634 35.5282 37.7414 34.7343 37.7422 33.5881L37.736 28.3711H34.3829V44.7188H50.7306V28.3711H47.3972ZM44.2331 28.5821H40.9001V31.0301C42.6441 30.1534 42.4723 30.1452 44.2331 31.0301V28.5821ZM31.2188 35.908C30.3528 35.1591 29.3092 34.6214 28.1792 34.3375L23.7157 33.2161C23.1344 33.982 19.7079 38.6173 19.3214 38.9098C18.6289 39.4355 17.6409 39.2999 17.1152 38.607L12.9855 33.165L8.52609 34.3079C5.25408 35.1463 3.0586 37.9795 3.0586 41.3636V44.7106H31.2188V35.908Z" fill="black"/>
</g>
<defs>
<clipPath id="clip0_417_2023">
<rect width="54" height="54" fill="white"/>
</clipPath>
</defs>
</svg>
