<svg width="32" height="32" viewBox="0 0 32 32" fill="none" xmlns="http://www.w3.org/2000/svg">
<path d="M16 30C8.25 30 2 23.75 2 16C2 8.25 8.25 2 16 2C23.75 2 30 8.25 30 16C30 23.75 23.75 30 16 30ZM16 5C9.9 5 5 9.9 5 16C5 22.1 9.9 27 16 27C22.1 27 27 22.1 27 16C27 9.95 22.05 5 16 5Z" fill="black"/>
<path d="M11.5 16C11.5 17.1 10.6 18 9.5 18C8.4 18 7.5 17.1 7.5 16C7.5 14.9 8.4 14 9.5 14C10.6 14 11.5 14.9 11.5 16Z" fill="black"/>
<path d="M18 16C18 17.1 17.1 18 16 18C14.9 18 14 17.1 14 16C14 14.9 14.9 14 16 14C17.1 14 18 14.9 18 16Z" fill="black"/>
<path d="M24.5 16C24.5 17.1 23.6 18 22.5 18C21.4 18 20.5 17.1 20.5 16C20.5 14.9 21.4 14 22.5 14C23.6 14 24.5 14.9 24.5 16Z" fill="black"/>
</svg>
