<svg width="32" height="32" viewBox="0 0 32 32" fill="none" xmlns="http://www.w3.org/2000/svg">
<path d="M13.5 25C12.65 25 12 24.35 12 23.5V12.5C12 11.65 12.65 11 13.5 11C14.35 11 15 11.65 15 12.5V23.5C15 24.35 14.35 25 13.5 25Z" fill="black"/>
<path d="M18.5 25C17.65 25 17 24.35 17 23.5V12.5C17 11.65 17.65 11 18.5 11C19.35 11 20 11.65 20 12.5V23.5C20 24.35 19.35 25 18.5 25Z" fill="black"/>
<path d="M26 6.5H6C5.15 6.5 4.5 7.15 4.5 8C4.5 8.85 5.15 9.5 6 9.5H6.5L7.4 27.25C7.45 28.5 8.5 29.5 9.7 29.5H22.25C23.5 29.5 24.5 28.5 24.55 27.25L25.5 9.5H26C26.85 9.5 27.5 8.85 27.5 8C27.5 7.15 26.85 6.5 26 6.5ZM21.6 26.5H10.4L9.55 9.5H22.5L21.6 26.5Z" fill="black"/>
<path d="M19.5 5.5H12.5C11.65 5.5 11 4.85 11 4C11 3.15 11.65 2.5 12.5 2.5H19.5C20.35 2.5 21 3.15 21 4C21 4.85 20.35 5.5 19.5 5.5Z" fill="black"/>
</svg>
