<svg width="32" height="32" viewBox="0 0 32 32" fill="none" xmlns="http://www.w3.org/2000/svg">
<path d="M8.45 30C7.5 30 6.6 29.65 5.95 28.95L3.05 26.05C1.65 24.65 1.65 22.45 3.05 21.05L8.95 15.15C10.35 13.75 12.55 13.75 13.95 15.15C14.55 15.75 14.55 16.7 13.95 17.25C13.35 17.8 12.4 17.85 11.85 17.25C11.65 17.05 11.3 17.05 11.1 17.25L5.15 23.2C4.95 23.4 4.95 23.75 5.15 23.95L8.05 26.85C8.25 27.05 8.6 27.05 8.8 26.85L14.7 20.95C14.9 20.75 14.9 20.4 14.7 20.2C14.1 19.6 14.1 18.65 14.7 18.1C15.3 17.5 16.25 17.5 16.8 18.1C18.2 19.5 18.2 21.7 16.8 23.1L10.95 28.95C10.25 29.65 9.35 30 8.45 30Z" fill="black"/>
<path d="M20.5499 17.85C19.5999 17.85 18.6999 17.5 18.0499 16.8C17.4499 16.2 17.4499 15.25 18.0499 14.7C18.6499 14.15 19.5999 14.1 20.1499 14.7C20.3499 14.9 20.6999 14.9 20.8999 14.7L26.7999 8.8C26.9999 8.6 26.9999 8.25 26.7999 8.05L23.8999 5.15C23.6999 4.95 23.3499 4.95 23.1499 5.15L17.2999 11.05C17.0999 11.25 17.0999 11.6 17.2999 11.8C17.8999 12.4 17.8999 13.35 17.2999 13.9C16.6999 14.45 15.7499 14.5 15.1999 13.9C13.7999 12.5 13.7999 10.3 15.1999 8.9L21.0499 3.05C22.4499 1.65 24.6499 1.65 26.0499 3.05L28.9499 5.95C30.3499 7.35 30.3499 9.55 28.9499 10.95L23.0999 16.8C22.3999 17.5 21.4999 17.85 20.5499 17.85Z" fill="black"/>
<path d="M8.2 10.25C7.8 10.25 7.4 10.1 7.15 9.80005L5.35 8.00005C4.8 7.40005 4.8 6.45005 5.45 5.90005C6 5.35005 6.9 5.35005 7.5 5.90005L9.3 7.65005C9.9 8.25005 9.9 9.20005 9.3 9.75005C9 10.05 8.6 10.25 8.2 10.25Z" fill="black"/>
<path d="M12 8.50003C11.2 8.50003 10.6 7.90003 10.5 7.15003L10.3 4.65003C10.25 3.80003 10.85 3.10003 11.65 3.05003C12.45 3.00003 13.2 3.60003 13.25 4.40003L13.45 6.90003C13.5 7.75003 12.9 8.45003 12.1 8.55003C12.1 8.50003 12.05 8.50003 12 8.50003Z" fill="black"/>
<path d="M6.49993 14C6.44993 14 6.39993 14 6.34993 14L3.84993 13.8C3.04993 13.7 2.39993 13 2.49993 12.15C2.59993 11.35 3.29993 10.75 4.09993 10.8L6.59993 11C7.44993 11.05 8.04993 11.8 7.94993 12.65C7.89993 13.4 7.29993 14 6.49993 14Z" fill="black"/>
<path d="M25.5499 26.55C25.1499 26.55 24.7499 26.4 24.4999 26.1L22.6999 24.35C22.1499 23.75 22.1499 22.8 22.7499 22.25C23.3499 21.7 24.1999 21.7 24.7999 22.25L26.5999 24C27.1999 24.6 27.1999 25.55 26.5999 26.1C26.3499 26.4 25.9499 26.55 25.5499 26.55Z" fill="black"/>
<path d="M20.1999 29C19.3999 29 18.7999 28.4 18.6999 27.65L18.4999 25.15C18.3999 24.35 18.9999 23.6 19.8499 23.5C20.6999 23.4 21.3999 24 21.4999 24.85V24.9L21.6999 27.4C21.7499 28.25 21.1499 28.95 20.3499 29.05C20.2999 29 20.2499 29 20.1999 29Z" fill="black"/>
<path d="M28 21.2C27.95 21.2 27.9 21.2 27.85 21.2L25.35 21C24.55 20.9 23.95 20.15 24 19.35C24.1 18.55 24.8 17.95 25.6 18L28.1 18.2C28.95 18.25 29.55 19 29.45 19.8C29.45 20.6 28.8 21.2 28 21.2Z" fill="black"/>
</svg>
