<svg width="32" height="32" viewBox="0 0 32 32" fill="none" xmlns="http://www.w3.org/2000/svg">
<path d="M18.5 14.5H7.5V9.5C7.5 8.30653 7.97411 7.16193 8.81802 6.31802C9.66193 5.47411 10.8065 5 12 5C13.1935 5 14.3381 5.47411 15.182 6.31802C16.0259 7.16193 16.5 8.30653 16.5 9.5V11.1487C16.5 13.1305 19.5 13.1332 19.5 11.1487V9.5C19.5 7.51088 18.7098 5.60322 17.3033 4.1967C15.8968 2.79018 13.9891 2 12 2C10.0109 2 8.10322 2.79018 6.6967 4.1967C5.29018 5.60322 4.5 7.51088 4.5 9.5V14.6474C3.77834 14.8634 3.14547 15.3061 2.69517 15.91C2.24487 16.5138 2.0011 17.2467 2 18V27C2.00104 27.9279 2.37012 28.8176 3.02628 29.4737C3.68243 30.1299 4.57206 30.499 5.5 30.5H18.5C19.4279 30.499 20.3176 30.1299 20.9737 29.4737C21.6299 28.8176 21.999 27.9279 22 27V18C21.999 17.0721 21.6299 16.1824 20.9737 15.5263C20.3176 14.8701 19.4279 14.501 18.5 14.5ZM19 27C18.9998 27.1326 18.9471 27.2596 18.8534 27.3534C18.7596 27.4471 18.6326 27.4998 18.5 27.5H5.5C5.36744 27.4998 5.24037 27.4471 5.14664 27.3534C5.05291 27.2596 5.00017 27.1326 5 27V18C5.00017 17.8674 5.05291 17.7404 5.14664 17.6466C5.24037 17.5529 5.36744 17.5002 5.5 17.5H18.5C18.6326 17.5002 18.7596 17.5529 18.8534 17.6466C18.9471 17.7404 18.9998 17.8674 19 18V27Z" fill="black"/>
<path d="M13.483 22.3309C13.5095 22.565 13.5 24.2645 13.5 24.5C13.5 26.4819 10.5 26.4846 10.5 24.5C10.5 24.2645 10.4905 22.565 10.5171 22.3309C10.2574 22.0439 10.0865 21.6877 10.0252 21.3055C9.96394 20.9233 10.0149 20.5316 10.1719 20.1777C10.3289 19.8239 10.5852 19.5233 10.9097 19.3122C11.2342 19.1012 11.6129 18.9889 12 18.9889C12.3871 18.9889 12.7659 19.1012 13.0904 19.3122C13.4149 19.5233 13.6712 19.8239 13.8282 20.1777C13.9852 20.5316 14.0361 20.9233 13.9748 21.3055C13.9136 21.6877 13.7427 22.0439 13.483 22.3309Z" fill="black"/>
<path d="M25.0004 10.3423L27.2822 9.30274C29.0843 8.47933 30.3315 11.21 28.5258 12.0327L26.2441 13.0723C24.4451 13.8911 23.1811 11.1712 25.0004 10.3423Z" fill="black"/>
<path d="M21.32 8.11236L22.3956 5.85136C23.2459 4.06198 25.9571 5.34826 25.1046 7.14042L24.029 9.40142C23.1777 11.1912 20.4614 9.91728 21.32 8.11236Z" fill="black"/>
<path d="M27.926 17.95L25.5061 17.2815C23.5964 16.7543 24.3912 13.8641 26.3049 14.3899L28.7249 15.0584C30.6141 15.5799 29.8631 18.4847 27.926 17.95Z" fill="black"/>
</svg>
