<svg width="35" height="35" viewBox="0 0 35 35" fill="none" xmlns="http://www.w3.org/2000/svg">
<path d="M32.0835 18.9584C31.6967 18.9584 31.3258 19.112 31.0523 19.3855C30.7788 19.659 30.6252 20.0299 30.6252 20.4167V26.5607C30.624 27.6382 30.1954 28.6714 29.4335 29.4333C28.6715 30.1953 27.6384 30.6239 26.5608 30.625H8.43954C7.36195 30.6239 6.32884 30.1953 5.56687 29.4333C4.8049 28.6714 4.37632 27.6382 4.37516 26.5607V20.4167C4.37516 20.0299 4.22152 19.659 3.94803 19.3855C3.67454 19.112 3.3036 18.9584 2.91683 18.9584C2.53006 18.9584 2.15912 19.112 1.88563 19.3855C1.61214 19.659 1.4585 20.0299 1.4585 20.4167V26.5607C1.46043 28.4116 2.19655 30.1861 3.50533 31.4949C4.81411 32.8037 6.58864 33.5398 8.43954 33.5417H26.5608C28.4117 33.5398 30.1862 32.8037 31.495 31.4949C32.8038 30.1861 33.5399 28.4116 33.5418 26.5607V20.4167C33.5418 20.0299 33.3882 19.659 33.1147 19.3855C32.8412 19.112 32.4703 18.9584 32.0835 18.9584Z" fill="black"/>
<path d="M9.78102 12.6977L16.0416 6.43706V24.7916C16.0416 25.1784 16.1953 25.5493 16.4688 25.8228C16.7423 26.0963 17.1132 26.25 17.5 26.25C17.8868 26.25 18.2577 26.0963 18.5312 25.8228C18.8047 25.5493 18.9583 25.1784 18.9583 24.7916V6.43706L25.2189 12.6977C25.494 12.9633 25.8624 13.1103 26.2447 13.107C26.6271 13.1037 26.9929 12.9503 27.2633 12.6799C27.5336 12.4095 27.687 12.0438 27.6903 11.6614C27.6937 11.279 27.5467 10.9106 27.281 10.6356L18.531 1.8856C18.2575 1.6122 17.8867 1.45862 17.5 1.45862C17.1133 1.45862 16.7424 1.6122 16.4689 1.8856L7.71894 10.6356C7.4533 10.9106 7.3063 11.279 7.30963 11.6614C7.31295 12.0438 7.46632 12.4095 7.73671 12.6799C8.00709 12.9503 8.37286 13.1037 8.75523 13.107C9.1376 13.1103 9.50598 12.9633 9.78102 12.6977Z" fill="black"/>
</svg>
