<svg width="48" height="48" viewBox="0 0 48 48" fill="none" xmlns="http://www.w3.org/2000/svg">
<path fill-rule="evenodd" clip-rule="evenodd" d="M18.9134 10.3806C17.9998 10.0022 16.9945 9.90316 16.0245 10.0961C15.0546 10.289 14.1637 10.7652 13.4645 11.4645C12.7652 12.1637 12.289 13.0546 12.0961 14.0246C11.9031 14.9945 12.0022 15.9998 12.3806 16.9134C12.759 17.8271 13.3999 18.6079 14.2221 19.1574C15.0444 19.7068 16.0111 20 17 20C18.1046 20 19 20.8954 19 22C19 23.1046 18.1046 24 17 24C15.22 24 13.4799 23.4722 11.9999 22.4832C10.5198 21.4942 9.36628 20.0886 8.68508 18.4442C8.0039 16.7996 7.82566 14.99 8.17294 13.2442C8.5202 11.4984 9.37736 9.89472 10.636 8.63604C11.8947 7.37738 13.4984 6.5202 15.2442 6.17294C16.99 5.82566 18.7996 6.0039 20.4442 6.68508C22.0886 7.36628 23.4942 8.51982 24.4832 9.99988C25.4722 11.4799 26 13.22 26 15C26 16.1046 25.1046 17 24 17C22.8954 17 22 16.1046 22 15C22 14.0111 21.7068 13.0444 21.1574 12.2222C20.608 11.3999 19.827 10.759 18.9134 10.3806Z" fill="black"/>
<path fill-rule="evenodd" clip-rule="evenodd" d="M14 30C12.4087 30 10.8826 30.6322 9.75736 31.7574C8.63214 32.8826 8 34.4088 8 36V38H17C18.1046 38 19 38.8954 19 40C19 41.1046 18.1046 42 17 42H6C4.89544 42 4 41.1046 4 40V36C4 33.3478 5.05356 30.8042 6.92894 28.929C8.8043 27.0536 11.3478 26 14 26C15.1046 26 16 26.8954 16 28C16 29.1046 15.1046 30 14 30Z" fill="black"/>
<path d="M43 28H40.76C40.5344 27.0162 40.1428 26.0782 39.602 25.226L41.202 23.636C41.3894 23.4484 41.4948 23.1942 41.4948 22.929C41.4948 22.6638 41.3894 22.4096 41.202 22.222L39.788 20.808C39.6004 20.6206 39.3462 20.5152 39.081 20.5152C38.8158 20.5152 38.5616 20.6206 38.374 20.808L36.784 22.408C35.9294 21.8628 34.9878 21.4676 34 21.24V19C34 18.7348 33.8946 18.4804 33.7072 18.2929C33.5196 18.1054 33.2652 18 33 18H31C30.7348 18 30.4804 18.1054 30.2928 18.2929C30.1054 18.4804 30 18.7348 30 19V21.24C29.0162 21.4656 28.0782 21.8572 27.226 22.398L25.636 20.808C25.4484 20.6206 25.1942 20.5152 24.929 20.5152C24.6638 20.5152 24.4096 20.6206 24.222 20.808L22.808 22.222C22.6206 22.4096 22.5152 22.6638 22.5152 22.929C22.5152 23.1942 22.6206 23.4484 22.808 23.636L24.408 25.236C23.8648 26.0844 23.4698 27.0192 23.24 28H21C20.7348 28 20.4804 28.1054 20.2928 28.2928C20.1054 28.4804 20 28.7348 20 29V31C20 31.2652 20.1054 31.5196 20.2928 31.7072C20.4804 31.8946 20.7348 32 21 32H23.24C23.4656 32.9838 23.8572 33.9218 24.398 34.774L22.808 36.364C22.6206 36.5516 22.5152 36.8058 22.5152 37.071C22.5152 37.3362 22.6206 37.5904 22.808 37.778L24.222 39.192C24.4096 39.3794 24.6638 39.4848 24.929 39.4848C25.1942 39.4848 25.4484 39.3794 25.636 39.192L27.236 37.592C28.0844 38.1352 29.0192 38.5302 30 38.76V41C30 41.2652 30.1054 41.5196 30.2928 41.7072C30.4804 41.8946 30.7348 42 31 42H33C33.2652 42 33.5196 41.8946 33.7072 41.7072C33.8946 41.5196 34 41.2652 34 41V38.76C34.9838 38.5344 35.9218 38.1428 36.774 37.602L38.364 39.202C38.5516 39.3894 38.8058 39.4948 39.071 39.4948C39.3362 39.4948 39.5904 39.3894 39.778 39.202L41.192 37.788C41.3794 37.6004 41.4848 37.3462 41.4848 37.081C41.4848 36.8158 41.3794 36.5616 41.192 36.374L39.592 34.784C40.1372 33.9294 40.5324 32.9878 40.76 32H43C43.2652 32 43.5196 31.8946 43.7072 31.7072C43.8946 31.5196 44 31.2652 44 31V29C44 28.7348 43.8946 28.4804 43.7072 28.2928C43.5196 28.1054 43.2652 28 43 28ZM32 35C31.011 35 30.0444 34.7068 29.2222 34.1574C28.4 33.608 27.759 32.827 27.3806 31.9134C27.0022 30.9998 26.9032 29.9944 27.096 29.0246C27.289 28.0546 27.7652 27.1638 28.4644 26.4644C29.1638 25.7652 30.0546 25.289 31.0246 25.096C31.9944 24.9032 32.9998 25.0022 33.9134 25.3806C34.827 25.759 35.608 26.4 36.1574 27.2222C36.7068 28.0444 37 29.011 37 30C37 31.326 36.4732 32.5978 35.5356 33.5356C34.5978 34.4732 33.326 35 32 35Z" fill="black"/>
</svg>
