<svg width="164" height="164" viewBox="0 0 164 164" fill="none" xmlns="http://www.w3.org/2000/svg">
<g clip-path="url(#clip0_177_3449)">
<path d="M162.958 78.8102C161.493 76.806 126.584 29.7363 81.9992 29.7363C37.4145 29.7363 2.50421 76.806 1.0407 78.8083C-0.346899 80.7097 -0.346899 83.2885 1.0407 85.1899C2.50421 87.1941 37.4145 134.264 81.9992 134.264C126.584 134.264 161.493 87.1938 162.958 85.1915C164.347 83.2904 164.347 80.7097 162.958 78.8102ZM81.9992 123.451C49.1578 123.451 20.7137 92.2096 12.2936 81.9964C20.7028 71.7742 49.0873 40.5495 81.9992 40.5495C114.839 40.5495 143.281 71.7851 151.705 82.0037C143.296 92.2256 114.911 123.451 81.9992 123.451Z" fill="black"/>
<path d="M81.9993 49.5604C64.1124 49.5604 49.5596 64.1132 49.5596 82.0001C49.5596 99.8871 64.1124 114.44 81.9993 114.44C99.8862 114.44 114.439 99.8871 114.439 82.0001C114.439 64.1132 99.8862 49.5604 81.9993 49.5604ZM81.9993 103.626C70.074 103.626 60.373 93.9251 60.373 82.0001C60.373 70.0752 70.0743 60.3739 81.9993 60.3739C93.9242 60.3739 103.626 70.0752 103.626 82.0001C103.626 93.9251 93.9245 103.626 81.9993 103.626Z" fill="black"/>
</g>
<defs>
<clipPath id="clip0_177_3449">
<rect width="164" height="164" fill="white"/>
</clipPath>
</defs>
</svg>
