<svg width="48" height="48" viewBox="0 0 48 48" fill="none" xmlns="http://www.w3.org/2000/svg">
<path d="M24.0064 14.2526C24.6158 14.2526 25.7907 13.5337 27.4988 12.1155C28.6786 11.1361 30.1531 9.7641 30.7535 8.85101C31.2087 8.159 31.7215 7.18567 31.647 5.79111C31.523 3.4728 29.6524 1.65677 27.3886 1.65677C25.7747 1.65677 24.643 2.84781 24.0162 3.5307C23.4215 2.85861 22.2799 1.65677 20.6116 1.65677C18.3479 1.65677 16.4773 3.4728 16.3532 5.79124C16.2777 7.20401 16.8271 8.21444 17.247 8.85153C18.1747 10.2597 22.6569 14.2526 24.0064 14.2526Z" fill="black"/>
<path d="M32.7837 15.9106C29.5145 15.9106 26.483 16.9472 24.0001 18.7084C21.5171 16.947 18.4856 15.9106 15.2165 15.9106C6.82612 15.9106 0 22.7367 0 31.1269C0 39.5171 6.82612 46.3433 15.2163 46.3433C18.4855 46.3433 21.517 45.3068 23.9999 43.5454C26.4829 45.3068 29.5144 46.3433 32.7835 46.3433C41.1739 46.3433 47.9999 39.5173 47.9999 31.1269C47.9999 22.7366 41.1739 15.9106 32.7837 15.9106ZM24.0001 38.2471C22.4198 36.3014 21.4711 33.823 21.4711 31.1269C21.4711 28.4309 22.4197 25.9524 24.0001 24.0066C25.5803 25.9524 26.5291 28.4307 26.5291 31.1269C26.5291 33.8231 25.5803 36.3015 24.0001 38.2471ZM3.90376 31.1269C3.90376 24.8891 8.97865 19.8142 15.2163 19.8142C17.3517 19.8142 19.3506 20.4091 21.0564 21.4416C18.8779 24.0746 17.5673 27.4505 17.5673 31.1268C17.5673 34.8031 18.8779 38.1789 21.0564 40.812C19.3506 41.8444 17.3517 42.4394 15.2163 42.4394C8.97865 42.4395 3.90376 37.3647 3.90376 31.1269ZM32.7837 42.4395C30.6484 42.4395 28.6494 41.8446 26.9436 40.8122C29.1221 38.1791 30.4327 34.8032 30.4327 31.1269C30.4327 27.4506 29.1221 24.0746 26.9436 21.4417C28.6494 20.4093 30.6483 19.8143 32.7837 19.8143C39.0215 19.8143 44.0962 24.8892 44.0962 31.1271C44.0962 37.3649 39.0214 42.4395 32.7837 42.4395Z" fill="black"/>
</svg>
