<svg width="74" height="74" viewBox="0 0 74 74" fill="none" xmlns="http://www.w3.org/2000/svg">
<path d="M61.6667 70.9166H12.3333C8.08296 70.9166 4.625 67.4587 4.625 63.2083V30.525C4.625 28.1709 5.6795 25.9771 7.51717 24.5063L32.1838 4.77298C35.019 2.50365 38.9795 2.50365 41.8146 4.77298L66.4813 24.5063C68.319 25.9771 69.3735 28.1693 69.3735 30.525V63.2083C69.3735 67.4587 65.917 70.9166 61.6667 70.9166Z" fill="#FF8200"/>
<path d="M69.375 30.525V63.2083C69.375 67.4633 65.9217 70.9167 61.6667 70.9167H12.3333C8.07833 70.9167 4.625 67.4633 4.625 63.2083V30.525C4.625 28.1662 5.67333 25.9771 7.52333 24.5125L8.12458 24.0346L29.6 41.2087C31.6967 39.6054 34.3175 38.7421 37 38.7421C39.6671 38.7421 42.2725 39.6054 44.4 41.2087L65.8754 24.0346L66.4767 24.5125C68.3267 25.9771 69.375 28.1662 69.375 30.525Z" fill="#FF6500"/>
<path d="M60.125 58.5833H13.875C13.024 58.5833 12.3333 57.8927 12.3333 57.0417V13.875C12.3333 11.3251 14.4084 9.25 16.9583 9.25H57.0416C59.5916 9.25 61.6666 11.3251 61.6666 13.875V57.0417C61.6666 57.8927 60.976 58.5833 60.125 58.5833Z" fill="#EFF3F9"/>
<path d="M61.6666 27.4001L44.4 41.2088C42.2725 39.6054 39.6671 38.7421 37 38.7421C34.3175 38.7421 31.6966 39.6054 29.6 41.2088L12.3333 27.4001V57.0417C12.3333 57.8927 13.024 58.5833 13.875 58.5833H60.125C60.976 58.5833 61.6666 57.8927 61.6666 57.0417V27.4001Z" fill="#CFE0F3"/>
<path d="M41.7884 31.8046L46.5768 27.0038C49.2239 24.3506 49.2239 20.0555 46.5768 17.4023C43.9344 14.7522 39.6424 14.7522 37 17.4023C34.3576 14.7537 30.0656 14.7537 27.4231 17.4023C24.7761 20.0555 24.7761 24.3506 27.4231 27.0038C30.0702 29.657 32.2116 31.8046 32.2116 31.8046L34.817 34.4162C36.021 35.6233 37.9774 35.6233 39.183 34.4162L41.7884 31.8046Z" fill="#FF3B65"/>
<path opacity="0.75" d="M46.5768 17.4039C46.4319 17.2589 46.2654 17.1526 46.1112 17.0231C46.3795 19.3387 45.6595 21.7467 43.8866 23.5258L38.3089 29.1174L35.2733 32.1607C34.7738 32.6602 34.1633 32.9747 33.5204 33.1196L34.817 34.4192C36.021 35.6264 37.9774 35.6264 39.183 34.4192L41.7884 31.8077L46.5768 27.0069C49.2239 24.3537 49.2239 20.0586 46.5768 17.4054V17.4039Z" fill="#D82B50"/>
<path d="M41.8177 49.1977C39.0242 51.4346 34.9727 51.4346 32.1823 49.1977L5.20467 27.6128C4.83312 28.5255 4.625 29.5075 4.625 30.525V63.2083C4.625 67.4587 8.08296 70.9167 12.3333 70.9167H61.6667C65.917 70.9167 69.375 67.4587 69.375 63.2083V30.525C69.375 29.5075 69.1669 28.5255 68.7953 27.6128L41.8177 49.1977Z" fill="#FFA221"/>
<path d="M48.1139 44.161L41.8192 49.1977C39.0257 51.4346 34.9742 51.4346 32.1838 49.1977L25.8877 44.1595L4.625 61.1718V63.2068C4.625 67.4572 8.08296 70.9151 12.3333 70.9151H61.6667C65.917 70.9151 69.375 67.4572 69.375 63.2068V61.1718L48.1139 44.1595V44.161Z" fill="#FF8200"/>
<path d="M41.8177 45.0475C39.0242 42.8105 34.9727 42.8105 32.1823 45.0475L5.38507 66.4875C6.62149 69.096 9.26082 70.9167 12.3334 70.9167H61.6667C64.7392 70.9167 67.3786 69.096 68.615 66.4875L41.8177 45.0475Z" fill="#FFC343"/>
</svg>
