<svg id="fi_7873899" enable-background="new 0 0 32 32" height="512" viewBox="0 0 32 32" width="512" xmlns="http://www.w3.org/2000/svg"><path d="m12.333 12.291c.151 0 .301-.012.45-.029-.011.57-.224 1.153-.625 1.69-1.003 1.343-1.364 3-1.019 4.666.459 2.214 2.248 4.007 4.451 4.463.246.051.492.081.737.101v3.271l-3.727 1.588c-.219.093-.341.327-.294.56.048.233.253.4.49.4h8.061c.237 0 .442-.167.49-.4.047-.233-.075-.467-.294-.56l-3.727-1.588v-3.289c1.154-.1 2.259-.517 3.17-1.259 1.364-1.111 2.146-2.755 2.146-4.512 0-1.241-.395-2.428-1.141-3.433-.416-.56-.636-1.164-.636-1.747v-.643c0-.417.099-.834.283-1.208l.886-1.782c.077-.155.069-.339-.022-.486s-.252-.237-.425-.237h-2.772l.297-2.271 4.167-1.62c.258-.1.386-.39.285-.647s-.394-.385-.646-.285l-4.443 1.727c-.171.066-.291.22-.315.401l-.353 2.695h-1.592c-.249-1.932-1.885-3.434-3.884-3.434-2.17 0-3.935 1.765-3.935 3.934s1.767 3.934 3.937 3.934zm6.354-3.434h2.096l-.527 1.06c-.14.281-.234.582-.299.89h-1.525zm-1.009 0-.255 1.949h-3.725c-.065-.308-.16-.609-.3-.89l-.526-1.059z"></path></svg>