<svg width="32" height="32" viewBox="0 0 32 32" fill="none" xmlns="http://www.w3.org/2000/svg">
<path d="M28.4999 12.95C28.0499 12.95 27.6499 12.75 27.3499 12.45C24.2999 8.95 20.2999 7 15.9999 7C11.6999 7 7.6999 8.95 4.6499 12.45C4.0999 13.1 3.1499 13.15 2.5499 12.6C1.9499 12.05 1.8499 11.1 2.3999 10.5C5.9999 6.3 10.8499 4 15.9999 4C21.1499 4 25.9999 6.3 29.6499 10.45C30.1999 11.1 30.0999 12 29.4999 12.55C29.1999 12.8 28.8499 12.95 28.4999 12.95Z" fill="black"/>
<path d="M7.5 16.85C6.65 16.85 6 16.2 6 15.35C6 15 6.15 14.65 6.4 14.35C8.8 11.55 12.3 9.89998 16 9.84998C19.7 9.84998 23.2 11.5 25.6 14.3C26.15 14.9 26.1 15.85 25.5 16.4C24.9 16.95 23.95 16.9 23.4 16.3C23.4 16.3 23.4 16.3 23.35 16.25C21.5 14.1 18.8 12.8 15.95 12.8C13.1 12.85 10.4 14.1 8.55 16.25C8.35 16.65 7.95 16.85 7.5 16.85Z" fill="black"/>
<path d="M11.5 20.9C10.65 20.9 10 20.25 10 19.4C10 19 10.15 18.65 10.4 18.35C11.85 16.8 13.85 15.9 16 15.9C18.1 15.9 20.15 16.8 21.6 18.35C22.2 18.95 22.2 19.9 21.6 20.45C21 21.05 20.05 21.05 19.5 20.45C19.45 20.4 19.45 20.4 19.4 20.35C17.7 18.45 14.8 18.35 12.9 20.05C12.8 20.15 12.7 20.25 12.6 20.35C12.3 20.7 11.9 20.9 11.5 20.9Z" fill="black"/>
<path d="M16 28C17.6569 28 19 26.6569 19 25C19 23.3431 17.6569 22 16 22C14.3431 22 13 23.3431 13 25C13 26.6569 14.3431 28 16 28Z" fill="black"/>
</svg>
