<svg width="32" height="32" viewBox="0 0 32 32" fill="none" xmlns="http://www.w3.org/2000/svg">
<path d="M29.3499 27.2L21.7499 19.65C25.3999 14.8 24.4499 7.90003 19.6499 4.25003C15.2499 0.950034 9.0999 1.35003 5.2499 5.25003C0.949902 9.55003 0.949902 16.5 5.2499 20.8C9.1499 24.7 15.2999 25.1 19.6999 21.8L27.2999 29.4C27.8999 30 28.8499 30 29.3999 29.45C29.9499 28.9 29.9499 27.85 29.3499 27.2C29.3499 27.25 29.3499 27.25 29.3499 27.2ZM7.3499 18.65C4.2499 15.5 4.2999 10.45 7.4499 7.35003C10.5499 4.30003 15.5499 4.30003 18.6499 7.35003C21.7999 10.45 21.8499 15.5 18.7499 18.65C15.6499 21.8 10.5999 21.85 7.4499 18.75C7.3999 18.7 7.3999 18.7 7.3499 18.65Z" fill="black"/>
<path d="M17 14.5H9C8.15 14.5 7.5 13.85 7.5 13C7.5 12.15 8.15 11.5 9 11.5H17C17.85 11.5 18.5 12.15 18.5 13C18.5 13.85 17.85 14.5 17 14.5Z" fill="black"/>
</svg>
