<svg width="32" height="32" viewBox="0 0 32 32" fill="none" xmlns="http://www.w3.org/2000/svg">
<path d="M29.3501 27.2L21.7501 19.65C25.4001 14.8 24.5001 7.89997 19.6501 4.19997C14.8001 0.499965 7.90009 1.49997 4.20009 6.34997C0.500087 11.2 1.50009 18.1 6.35009 21.75C10.3001 24.75 15.7001 24.75 19.6501 21.75L27.2501 29.35C27.8501 29.95 28.8001 29.95 29.3501 29.4C29.9001 28.85 29.9501 27.85 29.3501 27.2C29.3501 27.25 29.3501 27.25 29.3501 27.2ZM7.35009 18.65C4.25009 15.55 4.25009 10.45 7.35009 7.34997C10.4501 4.24997 15.5501 4.24997 18.6501 7.34997C21.7501 10.45 21.7501 15.55 18.6501 18.65C15.5501 21.8 10.4501 21.8 7.35009 18.65Z" fill="black"/>
<path d="M18.5 13C18.5 13.85 17.85 14.5 17 14.5H14.5V17C14.5 17.85 13.85 18.5 13 18.5C12.15 18.5 11.5 17.85 11.5 17V14.5H9C8.15 14.5 7.5 13.85 7.5 13C7.5 12.15 8.15 11.5 9 11.5H11.5V9C11.5 8.15 12.15 7.5 13 7.5C13.85 7.5 14.5 8.15 14.5 9V11.5H17C17.85 11.5 18.5 12.15 18.5 13Z" fill="black"/>
</svg>
